<svg id="Layer_1" enable-background="new 0 0 48 48" height="512" viewBox="0 0 48 48" width="512" xmlns="http://www.w3.org/2000/svg"><g id="XMLID_14810_"><g id="XMLID_14814_"><g id="XMLID_14815_"><path d="m23.994 1.038c-12.673 0-22.957 10.284-22.957 22.968 0 12.673 10.284 22.957 22.957 22.957s22.968-10.284 22.968-22.957c0-12.685-10.295-22.968-22.968-22.968z" fill="#fc6"/><path d="m23.994 0c-13.25 0-23.994 10.745-23.994 24.006 0 13.25 10.744 23.994 23.994 23.994s24.006-10.744 24.006-23.994c0-13.261-10.757-24.006-24.006-24.006zm0 44.254c-11.187 0-20.248-9.061-20.248-20.248s9.061-20.26 20.248-20.26 20.248 9.074 20.248 20.26c0 11.187-9.061 20.248-20.248 20.248z" fill="#e0ae55"/><g fill="#fff"><path id="XMLID_14818_" d="m24.797 9.821 3.589-.797-3.589-.797-.797-3.589-.797 3.589-3.59.797 3.589.797.798 3.59z"/><path id="XMLID_14817_" d="m22.649 38.608 3.626-.806-3.625-.805-.806-3.625-.805 3.625-3.625.805 3.625.806.805 3.625z"/><path id="XMLID_14816_" d="m40.904 24.051 3.11-.69-3.11-.691-.69-3.109-.691 3.109-3.11.691 3.11.69.691 3.11z"/></g></g></g><g id="XMLID_14811_" fill="#fff"><path id="XMLID_14813_" d="m31.748 15.171-7.765 9.018-7.731-9.018-4.665 19.221h4.665l2.507-10.203 5.224 6.269 5.258-6.269 2.507 10.203h4.665z"/><path id="XMLID_14812_" d="m31.437 13.348-.601-.522-6.836 4.853-4.114-4.171-1.604 1.203 4.933 5.254z"/></g></g></svg>