<svg id="Layer_1" enable-background="new 0 0 50 50" height="512" viewBox="0 0 50 50" width="512" xmlns="http://www.w3.org/2000/svg"><g><g><g enable-background="new"><g><path d="m49 25.5270252-.0068588 1.8619156-28.5500355 16.5914669.0068607-1.8619156z" fill="#9da9c1"/></g><g><path d="m20.4499664 42.1184921-.0068607 1.8619156-19.4431049-11.2254829.0068612-1.8619137z" fill="#b4bed7"/></g><g><path d="m49 25.5270252-28.5500336 16.5914669-19.4431044-11.225481 28.5500342-16.5914669z" fill="#e3e7f0"/></g></g></g><g><g><g><g><g><path d="m28.4238911 24.202467-5.0495663-2.9344883-.0307007-11.7037459 5.0495663 2.9344874z" fill="#373f51"/><path d="m28.3931904 12.4987202-5.0495663-2.9344874 6.1394959-3.54464 5.0495681 2.9344868z" fill="#4c5671"/><path d="m34.5643311 20.6574917-6.1419144 3.5456238-.0286255-11.7030192 6.13871-3.5457802z" fill="#272e3a"/></g><g><g><g><path d="m29.7847061 7.4869995-.1423397.0827189-.9748096-.5628076.1423378-.0827184z" fill="#272e3a"/></g><g><path d="m29.2228832 7.8134956-.1423397.0827189-.9748115-.5628071.1423397-.0827188z" fill="#272e3a"/></g><g><path d="m29.5034981 7.6504202-.1423092.0827007-.9748097-.5628075.1423073-.0827003z" fill="#272e3a"/></g><g><path d="m30.0659142 7.3235788-.1423378.0827189-.9748116-.5628076.1423397-.0827183z" fill="#272e3a"/></g><g><path d="m30.346529 7.1605034-.1423073.0827007-.9748115-.5628075.1423092-.0827003z" fill="#272e3a"/></g></g><g><g><path d="m26.1337452 9.6087055-.1423397.0827189-.9748097-.5628071.1423397-.0827189z" fill="#272e3a"/></g><g><path d="m25.5719223 9.9352016-.1423397.0827189-.9748116-.5628071.1423397-.0827188z" fill="#272e3a"/></g><g><path d="m25.8525372 9.7721262-.1423092.0827007-.9748097-.5628071.1423073-.0827007z" fill="#272e3a"/></g><g><path d="m26.4149551 9.4452848-.1423397.0827189-.9748115-.5628071.1423397-.0827188z" fill="#272e3a"/></g><g><path d="m26.69557 9.2822094-.1423092.0827007-.9748096-.5628071.1423072-.0827007z" fill="#272e3a"/></g></g></g><g><g><path d="m25.2913208 20.0681839c.0548534.0316696.1007786.1112061.1005993.174263-.000185.0655174-.046402.0893898-.1012554.0577202l-1.2988949-.749918c-.0548458-.0316658-.1007767-.1087379-.1005917-.1742573.0001793-.0630569.0464039-.0893898.1012497-.057724z" fill="#272e3a"/></g><g><path d="m25.290041 20.5195637c.0548534.0316696.1007862.1086063.1005993.174263-.0001774.0629196-.046402.0892525-.1012554.0575829l-1.2988949-.749918c-.0548458-.0316639-.100771-.1112003-.1005917-.1741199.0001869-.0656548.0464039-.0893898.1012497-.057724z" fill="#272e3a"/></g><g><path d="m25.2887688 20.9683456c.0548534.0316696.1007786.1112041.1006012.1741238-.0001869.0656567-.0464039.0893917-.1012573.0577221l-1.2988949-.749918c-.0548458-.0316658-.1007767-.1086025-.1005917-.1742573.0001793-.0629196.0464039-.0892525.1012497-.0575886z" fill="#272e3a"/></g><g><path d="m25.2874908 21.4195881c.0548534.0316696.1007767.1112061.1005993.174263-.0001793.063055-.0464039.0893898-.1012573.0577202l-1.2988949-.749918c-.0548458-.0316658-.100769-.1112003-.1005917-.1742573.0001793-.0630569.0464039-.0893898.1012497-.057724z" fill="#272e3a"/></g><g><path d="m25.3012428 12.9799252c.0548534.0316696.1007767.1112051.1005974.174262-.0001774.0629196-.046402.0892534-.1012554.0575838l-1.2988949-.749917c-.0548458-.0316658-.100769-.1112013-.1005917-.1741209.0001793-.0630569.0464039-.0893898.1012497-.057725z" fill="#272e3a"/></g><g><path d="m25.3025227 12.5285454c.0548515.0316696.1007767.1112051.1005974.174262-.000185.0656548-.046402.0893898-.1012554.0577202l-1.2988949-.749917c-.0548458-.0316658-.1007786-.1086025-.1005917-.1742573.0001793-.0630569.0464039-.0893898.1012497-.057725z" fill="#272e3a"/></g><g><path d="m25.3050728 11.628521c.0548534.0316696.1007786.1112051.1005993.174262-.000185.0655184-.0464039.0893898-.1012573.0577202l-1.298893-.749917c-.0548458-.0316658-.1007786-.1087389-.1005917-.1742573.0001793-.0630569.046402-.0893898.1012497-.057725z" fill="#272e3a"/></g><g><path d="m25.303793 12.0799007c.0548534.0316696.1007786.1112061.1005993.1741257-.0001774.063056-.046402.0893898-.1012554.0577202l-1.2988949-.749917c-.0548458-.0316658-.100771-.1112013-.1005917-.1742573.0001793-.0629196.0464039-.0892534.1012497-.0575886z" fill="#272e3a"/></g></g></g><g fill="#7bb1ff"><path d="m28.958807 22.3486462 4.9769878-2.795723.0296326.8884373-4.9801884 2.7957z"/><path d="m28.958807 20.9821796 4.9769878-2.7957248.0296326.8884372-4.9801884 2.7957001z"/><path d="m28.958807 19.6157112 4.9769878-2.7957249.0296326.8884373-4.9801884 2.7957001z"/><path d="m28.958807 18.2492428 4.9769878-2.7957249.0296326.8884373-4.9801884 2.7957001z"/><path d="m28.958807 16.8827744 4.9769878-2.795724.0296326.8884373-4.9801884 2.7956991z"/><path d="m28.959 16.883 4.977-2.796"/><path d="m28.958807 15.5163069 4.9769878-2.7957249.0296326.8884382-4.9801884 2.7956982z"/><path d="m28.958807 14.1498384 4.9769878-2.7957248.0296326.8884382-4.9801884 2.7956991z"/><path d="m28.958807 12.78337 4.9769878-2.7957239.0296326.8884373-4.9801884 2.7957z"/></g></g><g><g><g><path d="m20.0011787 29.0653229-5.0495672-2.9344883-.0307007-11.7037468 5.0495673 2.9344883z" fill="#373f51"/><path d="m19.9704781 17.3615761-5.0495673-2.9344883 6.1394968-3.5446396 5.0495663 2.9344873z" fill="#4c5671"/><path d="m26.1416168 25.5203457-6.1419124 3.5456257-.0286255-11.7030201 6.13871-3.5457802z" fill="#272e3a"/></g><g><g><g><path d="m21.3619938 12.3498554-.1423397.0827179-.9748116-.5628071.1423397-.0827188z" fill="#272e3a"/></g><g><path d="m20.800169 12.6763515-.1423378.0827189-.9748116-.562808.1423397-.0827179z" fill="#272e3a"/></g><g><path d="m21.0807838 12.5132761-.1423072.0826998-.9748116-.5628071.1423092-.0827007z" fill="#272e3a"/></g><g><path d="m21.6432018 12.1864347-.1423397.0827179-.9748096-.562807.1423397-.0827189z" fill="#272e3a"/></g><g><path d="m21.9238167 12.0233593-.1423073.0826998-.9748116-.5628071.1423092-.0827007z" fill="#272e3a"/></g></g><g><g><path d="m17.7110329 14.4715614-.1423397.0827179-.9748097-.5628071.1423378-.0827188z" fill="#272e3a"/></g><g><path d="m17.14921 14.7980576-.1423397.0827188-.9748116-.562808.1423397-.0827179z" fill="#272e3a"/></g><g><path d="m17.4298248 14.6349821-.1423092.0826998-.9748096-.5628071.1423073-.0827007z" fill="#272e3a"/></g><g><path d="m17.9922409 14.3081408-.1423378.0827179-.9748115-.5628071.1423397-.0827189z" fill="#272e3a"/></g><g><path d="m18.2728558 14.1450653-.1423073.0826998-.9748116-.5628071.1423092-.0827007z" fill="#272e3a"/></g></g></g><g><g><path d="m16.8686085 24.9310398c.0548534.0316696.1007786.1112061.1005993.1742611-.000185.0655193-.0464039.0893898-.1012573.0577202l-1.2988939-.7499161c-.0548458-.0316658-.1007767-.1087399-.1005917-.1742573.0001793-.0630569.0464039-.0893898.1012497-.057724z" fill="#272e3a"/></g><g><path d="m16.8673286 25.3824196c.0548534.0316696.1007862.1086063.1005993.1742611-.0001774.0629196-.046402.0892544-.1012554.0575848l-1.2988949-.749918c-.0548458-.0316658-.10077-.1112003-.1005917-.1741199.000186-.0656548.0464029-.0893898.1012487-.057724z" fill="#272e3a"/></g><g><path d="m16.8660564 25.8312016c.0548534.0316696.1007786.1112041.1005993.1741238-.000185.0656567-.046402.0893898-.1012554.0577202l-1.2988949-.7499161c-.0548458-.0316658-.1007776-.1086025-.1005917-.1742573.0001783-.0629196.0464029-.0892544.1012487-.0575886z" fill="#272e3a"/></g><g><path d="m16.8647766 26.282444c.0548534.0316696.1007786.1112061.1005993.1742611-.0001774.0630569-.046402.0893898-.1012554.0577202l-1.2988949-.7499161c-.0548458-.0316658-.10077-.1112003-.1005917-.1742573.0001793-.0630569.0464029-.0893898.1012497-.057724z" fill="#272e3a"/></g><g><path d="m16.8785286 17.8427811c.0548534.0316696.1007786.1112041.1005993.1742611-.0001774.0629196-.046402.0892544-.1012554.0575848l-1.2988949-.749918c-.0548458-.0316658-.10077-.1112003-.1005917-.1741199.0001783-.0630569.0464029-.0893898.1012487-.0577259z" fill="#272e3a"/></g><g><path d="m16.8798084 17.3914013c.0548534.0316696.1007786.1112041.1005993.1742611-.000185.0656548-.0464039.0893898-.1012573.0577202l-1.298893-.7499161c-.0548468-.0316658-.1007786-.1086025-.1005917-.1742573.0001783-.0630569.0464029-.0893898.1012487-.0577259z" fill="#272e3a"/></g><g><path d="m16.8823605 16.4913769c.0548534.0316696.1007786.1112041.1005993.1742611-.000185.0655193-.0464039.0893898-.1012573.0577202l-1.2988939-.749917c-.0548458-.0316648-.1007776-.1087389-.1005917-.1742573.0001793-.063056.0464039-.0893898.1012497-.057724z" fill="#272e3a"/></g><g><path d="m16.8810806 16.9427567c.0548534.0316696.1007786.1112061.1005993.1741257-.0001793.063055-.046402.0893898-.1012554.0577202l-1.2988949-.749918c-.0548458-.0316658-.100771-.1112003-.1005917-.1742573.0001783-.0629196.0464029-.0892525.1012487-.0575886z" fill="#272e3a"/></g></g></g><g fill="#7bb1ff"><path d="m20.5360928 27.2115021 4.9769916-2.7957249.0296288.8884392-4.9801865 2.7956982z"/><path d="m20.5360928 25.8450336 4.9769916-2.7957229.0296288.8884373-4.9801865 2.7957z"/><path d="m20.5360928 24.4785671 4.9769916-2.7957248.0296288.8884372-4.9801865 2.7957001z"/><path d="m20.5360928 23.1120987 4.9769916-2.7957249.0296288.8884373-4.9801865 2.7957001z"/><path d="m20.5360928 21.7456303 4.9769916-2.7957249.0296288.8884373-4.9801865 2.7957z"/><path d="m20.536 21.746 4.977-2.796"/><path d="m20.5360928 20.3791618 4.9769916-2.7957248.0296288.8884391-4.9801865 2.7956982z"/><path d="m20.5360928 19.0126934 4.9769916-2.795723.0296288.8884373-4.9801865 2.7956982z"/><path d="m20.5360928 17.646225 4.9769916-2.7957239.0296288.8884382-4.9801865 2.7957001z"/></g></g><g><g><g><path d="m11.5784655 33.9281769-5.0495668-2.9344864-.0307011-11.7037468 5.0495672 2.9344864z" fill="#373f51"/><path d="m11.5477648 22.2244301-5.0495672-2.9344864 6.1394968-3.5446396 5.0495672 2.9344864z" fill="#4c5671"/><path d="m17.7189045 30.3832016-6.1419134 3.5456238-.0286246-11.7030182 6.1387082-3.5457802z" fill="#272e3a"/></g><g><g><g><path d="m12.9392805 17.2127113-.1423397.0827179-.9748106-.5628071.1423397-.0827198z" fill="#272e3a"/></g><g><path d="m12.3774567 17.5392075-.1423388.0827179-.9748115-.5628071.1423397-.0827179z" fill="#272e3a"/></g><g><path d="m12.6580715 17.3761311-.1423082.0827007-.9748106-.5628071.1423082-.0827007z" fill="#272e3a"/></g><g><path d="m13.2204895 17.0492897-.1423397.0827179-.9748106-.5628071.1423397-.0827179z" fill="#272e3a"/></g><g><path d="m13.5011044 16.8862152-.1423083.0826988-.9748106-.5628071.1423083-.0827007z" fill="#272e3a"/></g></g><g><g><path d="m9.2883205 19.3344173-.1423397.0827179-.9748106-.562807.1423388-.0827198z" fill="#272e3a"/></g><g><path d="m8.7264967 19.6609135-.1423397.0827179-.9748106-.5628071.1423392-.0827179z" fill="#272e3a"/></g><g><path d="m9.0071115 19.4978371-.1423082.0827007-.9748111-.5628071.1423087-.0827007z" fill="#272e3a"/></g><g><path d="m9.5695286 19.1709957-.1423388.0827179-.9748115-.5628071.1423397-.0827179z" fill="#272e3a"/></g><g><path d="m9.8501434 19.0079212-.1423082.0826988-.9748106-.562807.1423082-.0827008z" fill="#272e3a"/></g></g></g><g><g><path d="m8.4458961 29.7938957c.0548534.0316696.1007776.1112041.1005993.1742611-.000186.0655193-.0464039.0893898-.1012573.0577202l-1.2988939-.7499161c-.0548458-.0316658-.1007776-.1087399-.1005917-.1742573.0001788-.0630569.0464034-.0893898.1012492-.0577259z" fill="#272e3a"/></g><g><path d="m8.4446163 30.2452755c.0548534.0316696.1007853.1086063.1005993.1742611-.0001783.0629196-.0464029.0892544-.1012564.0575829l-1.2988944-.7499161c-.0548458-.0316658-.1007705-.1112003-.1005921-.1741199.0001864-.0656567.0464034-.0893898.1012492-.0577259z" fill="#272e3a"/></g><g><path d="m8.4433441 30.6940556c.0548534.0316696.1007776.1112061.1005993.1741257-.000186.0656548-.0464029.0893898-.1012564.0577202l-1.2988944-.7499161c-.0548463-.0316658-.1007776-.1086025-.1005917-.1742592.0001783-.0629196.0464029-.0892525.1012487-.0575867z" fill="#272e3a"/></g><g><path d="m8.4420652 31.1452999c.0548534.0316696.1007776.1112041.1005983.1742611-.0001783.0630569-.0464029.0893898-.1012564.0577202l-1.2988944-.7499161c-.0548458-.0316658-.1007705-.1112022-.1005917-.1742573.000179-.0630569.0464035-.0893898.1012494-.0577259z" fill="#272e3a"/></g><g><path d="m8.4558163 22.705637c.0548534.0316696.1007786.1112041.1005993.1742611-.0001783.0629196-.0464029.0892525-.1012564.0575829l-1.2988939-.7499161c-.0548463-.0316659-.1007705-.1112023-.1005922-.1741219.0001788-.063055.0464034-.0893898.1012492-.057724z" fill="#272e3a"/></g><g><path d="m8.4570961 22.2542572c.0548534.0316696.1007776.1112041.1005993.1742611-.000186.0656548-.0464029.0893898-.1012564.0577202l-1.2988949-.749918c-.0548458-.0316639-.1007776-.1086006-.1005917-.1742573.0001788-.063055.0464034-.0893898.1012497-.057724z" fill="#272e3a"/></g><g><path d="m8.4596481 21.3542328c.0548534.0316696.1007776.1112041.1005983.1742611-.000185.0655193-.0464029.0893898-.1012564.0577202l-1.2988944-.749918c-.0548458-.0316639-.1007771-.1087379-.1005917-.1742573.0001788-.063055.0464034-.0893898.1012497-.057724z" fill="#272e3a"/></g><g><path d="m8.4583683 21.8056126c.0548534.0316696.1007776.1112041.1005993.1741238-.0001783.0630569-.0464029.0893898-.1012564.0577202l-1.2988944-.7499161c-.0548463-.0316658-.1007705-.1112003-.1005917-.1742573.0001783-.0629196.0464029-.0892544.1012487-.0575886z" fill="#272e3a"/></g></g></g><g fill="#7bb1ff"><path d="m12.1133804 32.0743599 4.9769898-2.7957268.0296306.8884373-4.9801874 2.795702z"/><path d="m12.1133804 30.7078896 4.9769898-2.7957249.0296306.8884392-4.9801874 2.7956981z"/><path d="m12.1133804 29.3414211 4.9769898-2.7957229.0296306.8884372-4.9801874 2.7956982z"/><path d="m12.1133804 27.9749546 4.9769898-2.7957249.0296306.8884373-4.9801874 2.7957001z"/><path d="m12.1133804 26.6084862 4.9769898-2.7957249.0296306.8884373-4.9801874 2.7957001z"/><path d="m12.1133804 25.2420177 4.9769898-2.7957248.0296306.8884372-4.9801874 2.7957001z"/><path d="m12.1133804 23.8755493 4.9769898-2.7957249.0296306.8884373-4.9801874 2.7957001z"/><path d="m12.1133804 22.5090809 4.9769898-2.7957249.0296306.8884392-4.9801874 2.7956982z"/></g></g></g><g><g><g><g><path d="m37.7865105 29.643425-5.0495682-2.9344864-.0307007-11.7037468 5.0495682 2.9344864z" fill="#373f51"/><path d="m37.7558098 17.9396782-5.0495682-2.9344864 6.1394959-3.5446405 5.0495681 2.9344873z" fill="#4c5671"/><path d="m43.9269485 26.0984497-6.1419143 3.5456238-.0286217-11.7030182 6.1387062-3.5457802z" fill="#272e3a"/></g><g><g><g><path d="m39.1473236 12.9279585-.1423378.0827188-.9748115-.562807.1423416-.0827189z" fill="#272e3a"/></g><g><path d="m38.5855026 13.2544546-.1423416.0827189-.9748077-.5628071.1423378-.0827189z" fill="#272e3a"/></g><g><path d="m38.8661156 13.0913792-.1423073.0827007-.9748116-.562808.1423073-.0826998z" fill="#272e3a"/></g><g><path d="m39.4285355 12.7645378-.1423417.0827189-.9748115-.5628081.1423416-.0827179z" fill="#272e3a"/></g><g><path d="m39.7091484 12.6014624-.1423073.0827007-.9748115-.562808.1423073-.0826998z" fill="#272e3a"/></g></g><g><g><path d="m35.4963646 15.0496645-.1423378.0827188-.9748116-.562807.1423378-.0827189z" fill="#272e3a"/></g><g><path d="m34.9345398 15.3761606-.1423378.0827189-.9748116-.5628071.1423417-.0827189z" fill="#272e3a"/></g><g><path d="m35.2151566 15.2130852-.1423073.0827007-.9748116-.562808.1423073-.0826998z" fill="#272e3a"/></g><g><path d="m35.7775726 14.8862438-.1423378.0827189-.9748115-.5628081.1423378-.0827179z" fill="#272e3a"/></g><g><path d="m36.0581894 14.7231684-.1423073.0827007-.9748115-.562808.1423072-.0826998z" fill="#272e3a"/></g></g></g><g><g><path d="m34.6539421 25.5091438c.0548515.0316696.1007767.1112041.1005974.1742611-.0001869.0655174-.046402.0893898-.1012573.0577202l-1.298893-.749918c-.0548477-.0316639-.1007767-.1087379-.1005936-.1742573.0001793-.063055.0464058-.0893898.1012497-.057724z" fill="#272e3a"/></g><g><path d="m34.6526604 25.9605236c.0548553.0316696.1007843.1086063.1006012.1742611-.0001793.0629196-.0464058.0892525-.1012573.0575829l-1.298893-.7499161c-.0548477-.0316658-.1007729-.1112003-.1005936-.1741199.0001869-.0656567.046402-.0893917.1012497-.0577259z" fill="#272e3a"/></g><g><path d="m34.6513901 26.4093037c.0548515.0316696.1007767.1112061.1005974.1741257-.0001869.0656548-.046402.0893898-.1012573.0577202l-1.298893-.749918c-.0548477-.0316639-.1007767-.1086006-.1005898-.1742573.0001755-.0629196.046402-.0892525.1012459-.0575867z" fill="#272e3a"/></g><g><path d="m34.6501083 26.860548c.0548553.0316696.1007805.1112041.1006012.1742611s-.0464058.0893898-.1012573.0577202l-1.298893-.7499161c-.0548477-.0316658-.1007729-.1112022-.1005936-.1742592.0001793-.063055.046402-.0893898.1012497-.057724z" fill="#272e3a"/></g><g><path d="m34.6638603 18.4208851c.0548553.0316696.1007805.1112041.1006012.1742611-.0001793.0629196-.0464058.0892525-.1012573.0575829l-1.298893-.7499161c-.0548477-.0316658-.1007729-.1112022-.1005936-.1741219.0001793-.063055.046402-.0893898.1012497-.057724z" fill="#272e3a"/></g><g><path d="m34.6651421 17.9695034c.0548515.0316696.1007767.1112061.1005974.174263-.0001869.0656548-.046402.0893898-.1012573.0577202l-1.298893-.749918c-.0548477-.0316639-.1007767-.1086025-.1005936-.1742573.0001793-.0630569.0464058-.0893898.1012497-.057724z" fill="#272e3a"/></g><g><path d="m34.6676941 17.069479c.0548515.0316696.1007767.1112061.1005974.174263-.0001869.0655174-.046402.0893898-.1012573.0577202l-1.298893-.749918c-.0548477-.0316639-.1007767-.1087379-.1005936-.1742573.0001793-.063055.0464058-.0893898.1012497-.057724z" fill="#272e3a"/></g><g><path d="m34.6664124 17.5208607c.0548553.0316696.1007767.1112041.1006012.1741238-.0001793.0630569-.0464058.0893898-.1012573.0577202l-1.2988968-.7499161c-.0548439-.0316658-.100769-.1112022-.1005898-.1742573.0001793-.0629196.046402-.0892544.1012497-.0575886z" fill="#272e3a"/></g></g></g><g fill="#7bb1ff"><path d="m38.3214264 27.7896061 4.9769897-2.7957249.0296288.8884373-4.9801865 2.7957001z"/><path d="m38.3214264 26.4231377 4.9769897-2.7957249.0296288.8884373-4.9801865 2.7957z"/><path d="m38.3214264 25.0566692 4.9769897-2.7957248.0296288.8884391-4.9801865 2.7956982z"/><path d="m38.3214264 23.6902008 4.9769897-2.795723.0296288.8884373-4.9801865 2.7956982z"/><path d="m38.3214264 22.3237343 4.9769897-2.7957249.0296288.8884373-4.9801865 2.7957001z"/><path d="m38.321 22.324 4.977-2.796"/><path d="m38.3214264 20.9572659 4.9769897-2.7957249.0296288.8884373-4.9801865 2.7957z"/><path d="m38.3214264 19.5907974 4.9769897-2.7957248.0296288.8884372-4.9801865 2.7957001z"/><path d="m38.3214264 18.224329 4.9769897-2.7957239.0296288.8884382-4.9801865 2.7956982z"/></g></g><g><g><g><path d="m29.3637981 34.506279-5.0495681-2.9344845-.0307007-11.7037468 5.0495682 2.9344864z" fill="#373f51"/><path d="m29.3330975 22.8025341-5.0495682-2.9344864 6.1394958-3.5446415 5.0495663 2.9344883z" fill="#4c5671"/><path d="m35.5042343 30.9613056-6.1419105 3.5456257-.0286255-11.7030201 6.13871-3.5457802z" fill="#272e3a"/></g><g><g><g><path d="m30.7246132 17.7908134-.1423397.0827198-.9748116-.562807.1423397-.0827198z" fill="#272e3a"/></g><g><path d="m30.1627884 18.1173096-.1423397.0827198-.9748097-.5628071.1423397-.0827198z" fill="#272e3a"/></g><g><path d="m30.4434032 17.9542351-.1423072.0827007-.9748116-.5628071.1423092-.0827007z" fill="#272e3a"/></g><g><path d="m31.0058212 17.6273937-.1423397.0827179-.9748096-.5628071.1423397-.0827179z" fill="#272e3a"/></g><g><path d="m31.2864361 17.4643173-.1423073.0827008-.9748116-.5628071.1423092-.0827008z" fill="#272e3a"/></g></g><g><g><path d="m27.0736523 19.9125195-.1423397.0827198-.9748116-.5628071.1423397-.0827198z" fill="#272e3a"/></g><g><path d="m26.5118294 20.2390156-.1423397.0827198-.9748116-.5628071.1423397-.0827198z" fill="#272e3a"/></g><g><path d="m26.7924442 20.0759411-.1423092.0827007-.9748115-.5628071.1423092-.0827007z" fill="#272e3a"/></g><g><path d="m27.3548603 19.7490997-.1423397.0827179-.9748096-.5628071.1423397-.0827179z" fill="#272e3a"/></g><g><path d="m27.6354752 19.5860233-.1423073.0827008-.9748116-.5628071.1423092-.0827008z" fill="#272e3a"/></g></g></g><g><g><path d="m26.2312279 30.3719978c.0548534.0316696.1007786.1112061.1005993.174263-.000185.0655174-.0464039.0893898-.1012573.0577202l-1.298893-.749918c-.0548458-.0316658-.1007786-.1087379-.1005917-.1742573.0001774-.0630569.046402-.0893898.1012478-.057724z" fill="#272e3a"/></g><g><path d="m26.229948 30.8233776c.0548534.0316696.1007862.1086082.1005993.174263-.0001774.0629196-.046402.0892525-.1012554.0575829l-1.2988949-.7499161c-.0548458-.0316658-.100771-.1112022-.1005917-.1741219.000185-.0656548.046402-.0893898.1012497-.057724z" fill="#272e3a"/></g><g><path d="m26.2286758 31.2721596c.0548534.0316696.1007786.1112061.1005993.1741257-.000185.0656548-.046402.0893898-.1012554.0577202l-1.2988949-.749918c-.0548458-.0316658-.1007786-.1086025-.1005917-.1742573.0001774-.0629196.046402-.0892525.1012478-.0575867z" fill="#272e3a"/></g><g><path d="m26.227396 31.723402c.0548534.0316696.1007786.1112061.1005993.174263-.0001774.063055-.046402.0893898-.1012554.0577202l-1.2988949-.749918c-.0548458-.0316639-.100771-.1112003-.1005917-.1742573s.0464039-.0893898.1012497-.057724z" fill="#272e3a"/></g><g><path d="m26.241148 23.2837391c.0548534.0316696.1007786.1112061.1005993.174263-.0001774.0629196-.046402.0892525-.1012554.0575829l-1.2988949-.749918c-.0548458-.0316639-.100771-.1112003-.1005917-.1741199.0001793-.0630569.0464039-.0893898.1012497-.057724z" fill="#272e3a"/></g><g><path d="m26.2424278 22.8323593c.0548534.0316696.1007786.1112061.1005993.1742611-.000185.0656567-.0464039.0893917-.1012573.0577221l-1.298893-.749918c-.0548458-.0316658-.1007786-.1086025-.1005917-.1742573.0001774-.0630569.046402-.0893898.1012497-.057724z" fill="#272e3a"/></g><g><path d="m26.2449799 21.9323349c.0548534.0316696.1007786.1112061.1005993.174263-.0001869.0655174-.0464039.0893898-.1012573.0577202l-1.2988949-.749918c-.0548458-.0316658-.1007767-.1087379-.1005898-.1742573.0001774-.0630569.046402-.0893898.1012478-.057724z" fill="#272e3a"/></g><g><path d="m26.2437 22.3837147c.0548534.0316696.1007786.1112061.1005993.1741257-.0001793.0630569-.0464039.0893898-.1012573.0577202l-1.298893-.749918c-.0548458-.0316639-.100771-.1112003-.1005917-.1742573.0001774-.0629196.046402-.0892525.1012478-.0575867z" fill="#272e3a"/></g></g></g><g fill="#7bb1ff"><path d="m29.8987122 32.652462 4.9769897-2.7957249.0296326.8884373-4.9801884 2.7957001z"/><path d="m29.8987122 31.2859936 4.9769897-2.7957249.0296326.8884373-4.9801884 2.7956981z"/><path d="m29.8987122 29.9195251 4.9769897-2.7957248.0296326.8884372-4.9801884 2.7957001z"/><path d="m29.8987122 28.5530567 4.9769897-2.7957249.0296326.8884392-4.9801884 2.7956982z"/><path d="m29.8987122 27.1865883 4.9769897-2.795723.0296326.8884373-4.9801884 2.7956982z"/><path d="m29.899 27.187 4.977-2.796"/><path d="m29.8987122 25.8201199 4.9769897-2.795723.0296326.8884373-4.9801884 2.7957z"/><path d="m29.8987122 24.4536533 4.9769897-2.7957248.0296326.8884372-4.9801884 2.7957001z"/><path d="m29.8987122 23.0871849 4.9769897-2.7957249.0296326.8884373-4.9801884 2.7957001z"/></g></g><g><g><g><path d="m20.9410858 39.3691368-5.0495682-2.9344864-.0307006-11.7037487 5.0495662 2.9344883z" fill="#373f51"/><path d="m20.9103832 27.66539-5.0495662-2.9344883 6.1394958-3.5446396 5.0495682 2.9344883z" fill="#4c5671"/><path d="m27.0815239 35.8241615-6.1419144 3.5456238-.0286236-11.7030201 6.1387082-3.5457802z" fill="#272e3a"/></g><g><g><g><path d="m22.3019009 22.6536694-.1423397.0827179-.9748116-.5628071.1423397-.0827179z" fill="#272e3a"/></g><g><path d="m21.7400761 22.9801655-.1423397.0827179-.9748097-.5628071.1423397-.0827179z" fill="#272e3a"/></g><g><path d="m22.0206909 22.8170891-.1423073.0827007-.9748115-.5628071.1423092-.0827007z" fill="#272e3a"/></g><g><path d="m22.5831089 22.4902477-.1423397.0827198-.9748116-.5628071.1423397-.0827198z" fill="#272e3a"/></g><g><path d="m22.8637238 22.3271732-.1423092.0827008-.9748097-.5628071.1423073-.0827008z" fill="#272e3a"/></g></g><g><g><path d="m18.6509399 24.7753754-.1423397.0827179-.9748115-.5628071.1423397-.0827179z" fill="#272e3a"/></g><g><path d="m18.0891151 25.1018715-.1423397.0827179-.9748096-.5628071.1423397-.0827179z" fill="#272e3a"/></g><g><path d="m18.36973 24.9387951-.1423073.0827007-.9748115-.5628071.1423091-.0827007z" fill="#272e3a"/></g><g><path d="m18.932148 24.6119537-.1423397.0827198-.9748097-.562807.1423397-.0827198z" fill="#272e3a"/></g><g><path d="m19.2127628 24.4488792-.1423072.0827008-.9748116-.5628071.1423092-.0827007z" fill="#272e3a"/></g></g></g><g><g><path d="m17.8085155 35.2348557c.0548534.0316696.1007767.1112022.1005993.1742592-.0001869.0655212-.0464039.0893898-.1012573.0577202l-1.2988949-.7499161c-.0548458-.0316658-.1007767-.1087379-.1005917-.1742592.0001793-.0630531.0464039-.0893898.1012497-.057724z" fill="#272e3a"/></g><g><path d="m17.8072357 35.6862335c.0548534.0316696.1007843.1086082.1005993.174263-.0001793.0629196-.0464039.0892525-.1012573.0575829l-1.298893-.7499161c-.0548458-.0316658-.100771-.1112022-.1005917-.1741219.000185-.0656548.046402-.0893898.1012478-.057724z" fill="#272e3a"/></g><g><path d="m17.8059635 36.1350136c.0548534.0316696.1007786.1112061.1005993.1741257-.0001869.0656548-.0464039.0893898-.1012573.0577202l-1.298893-.7499161c-.0548458-.0316658-.1007786-.1086006-.1005917-.1742592.0001774-.0629196.046402-.0892525.1012478-.0575867z" fill="#272e3a"/></g><g><path d="m17.8046837 36.5862579c.0548534.0316696.1007786.1112061.1005993.174263s-.0464039.0893898-.1012573.0577202l-1.298893-.7499161c-.0548458-.0316658-.100771-.1112022-.1005917-.1742592.0001774-.0630569.046402-.0893898.1012497-.057724z" fill="#272e3a"/></g><g><path d="m17.8184357 28.146595c.0548534.0316696.1007786.1112061.1005993.1742611-.0001793.0629196-.0464039.0892544-.1012573.0575848l-1.298893-.749918c-.0548458-.0316658-.100771-.1112003-.1005917-.1741199.0001774-.0630569.046402-.0893898.1012478-.057724z" fill="#272e3a"/></g><g><path d="m17.8197155 27.6952152c.0548534.0316696.1007786.1112061.1005993.1742611-.0001869.0656567-.0464039.0893898-.1012573.0577202l-1.298893-.7499161c-.0548477-.0316658-.1007786-.1086025-.1005917-.1742573.0001774-.0630569.046402-.0893898.1012478-.0577259z" fill="#272e3a"/></g><g><path d="m17.8222675 26.7951908c.0548534.0316696.1007767.1112061.1005993.1742611-.0001869.0655193-.0464039.0893898-.1012573.0577202l-1.2988949-.7499161c-.0548458-.0316658-.1007767-.1087399-.1005917-.1742573.0001793-.0630569.0464039-.0893898.1012497-.057724z" fill="#272e3a"/></g><g><path d="m17.8209877 27.2465706c.0548534.0316696.1007767.1112061.1005993.1741257-.0001793.063055-.0464039.0893898-.1012573.0577202l-1.298893-.749918c-.0548477-.0316658-.100771-.1112003-.1005917-.1742573.0001774-.0629196.046402-.0892525.1012478-.0575867z" fill="#272e3a"/></g></g></g><g fill="#7bb1ff"><path d="m21.4759998 37.515316 4.9769898-2.795723.0296306.8884354-4.9801883 2.7957001z"/><path d="m21.4759998 36.1488495 4.9769898-2.7957268.0296306.8884392-4.9801883 2.7957001z"/><path d="m21.4759998 34.7823792 4.9769898-2.795723.0296306.8884392-4.9801883 2.7956962z"/><path d="m21.4759998 33.4159126 4.9769898-2.7957248.0296306.8884372-4.9801883 2.7957001z"/><path d="m21.4759998 32.0494461 4.9769898-2.7957268.0296306.8884392-4.9801883 2.7957001z"/><path d="m21.4759998 30.6829758 4.9769898-2.7957249.0296306.8884392-4.9801883 2.7956981z"/><path d="m21.4759998 29.3165073 4.9769898-2.7957229.0296306.8884372-4.9801883 2.7957001z"/><path d="m21.4759998 27.9500408 4.9769898-2.7957249.0296306.8884373-4.9801883 2.7957001z"/></g></g></g></g></g></svg>