<svg height="512pt" viewBox="0 -56 512 512" width="512pt" xmlns="http://www.w3.org/2000/svg"><path d="m189.128906 83.59375c0-46.167969 37.421875-83.59375 83.589844-83.59375s83.59375 37.425781 83.59375 83.59375zm0 0" fill="#ffcd50"/><path d="m189.128906 83.59375c0-46.167969 37.421875-83.59375 83.589844-83.59375s83.59375 37.425781 83.59375 83.59375zm0 0" fill="#ffcd50"/><path d="m283.167969 33.960938h-2.613281v-6.792969c0-4.328125-3.507813-7.835938-7.835938-7.835938s-7.835938 3.507813-7.835938 7.835938v6.792969h-2.613281c-15.84375 0-28.734375 12.890624-28.734375 28.734374s12.890625 28.734376 28.734375 28.734376h20.898438c4.328125 0 7.835937-3.507813 7.835937-7.835938s-3.507812-7.835938-7.835937-7.835938h-20.898438c-7.203125 0-13.0625-5.859374-13.0625-13.0625 0-7.203124 5.859375-13.0625 13.0625-13.0625h20.898438c7.199219 0 13.058593 5.859376 13.058593 13.0625 0 4.328126 3.507813 7.835938 7.839844 7.835938 4.328125 0 7.835938-3.507812 7.835938-7.835938 0-15.84375-12.890625-28.734374-28.734375-28.734374zm0 0" fill="#ffbc27"/><path d="m272.71875 0c-3.542969 0-7.023438.246094-10.449219.671875 41.230469 5.144531 73.140625 40.292969 73.140625 82.921875h20.898438c0-46.167969-37.421875-83.59375-83.589844-83.59375zm0 0" fill="#ffbc27"/><path d="m447.214844 399.152344h-355.265625c-5.769531 0-10.445313-4.679688-10.445313-10.449219v-294.664063c0-5.769531 4.675782-10.445312 10.445313-10.445312h355.265625c23.085937 0 41.796875 18.710938 41.796875 41.792969v231.96875c0 23.082031-18.710938 41.796875-41.796875 41.796875zm0 0" fill="#495959"/><path d="m447.214844 83.59375h-24.03125c23.082031 0 41.796875 18.710938 41.796875 41.792969v27.167969c0 5.769531-4.679688 10.449218-10.449219 10.449218h-49.109375c-34.625 0-62.695313 28.070313-62.695313 62.695313v31.347656c0 34.625 28.070313 62.691406 62.695313 62.691406h49.109375c5.769531 0 10.449219 4.679688 10.449219 10.449219v27.167969c0 23.082031-18.714844 41.796875-41.796875 41.796875h24.03125c23.085937 0 41.796875-18.714844 41.796875-41.796875v-231.964844c0-23.085937-18.710938-41.796875-41.796875-41.796875zm0 0" fill="#3f4a4a"/><path d="m81.503906 125.386719h355.261719c5.761719 0 10.449219 4.6875 10.449219 10.449219v211.070312c0 5.761719-4.6875 10.449219-10.449219 10.449219h-355.261719zm0 0" fill="#bce8f1"/><path d="m436.765625 125.386719h-20.898437c5.765624 0 10.449218 4.6875 10.449218 10.449219v16.71875c0 5.769531-4.675781 10.449218-10.449218 10.449218h-10.445313c-34.625 0-62.695313 28.070313-62.695313 62.695313v31.347656c0 34.625 28.070313 62.691406 62.695313 62.691406h10.445313c5.773437 0 10.449218 4.679688 10.449218 10.449219v16.71875c0 5.761719-4.683594 10.449219-10.449218 10.449219h20.898437c5.773437 0 10.449219-4.679688 10.449219-10.449219v-211.066406c0-5.773438-4.675782-10.453125-10.449219-10.453125zm0 0" fill="#93dcfc"/><path d="m491.101562 298.839844h-85.679687c-23.085937 0-41.796875-18.710938-41.796875-41.792969v-31.347656c0-23.082031 18.710938-41.796875 41.796875-41.796875h85.679687c11.542969 0 20.898438 9.355468 20.898438 20.898437v73.144531c0 11.539063-9.355469 20.894532-20.898438 20.894532zm0 0" fill="#bce8f1"/><path d="m491.101562 183.902344h-19.851562c11.539062 0 20.898438 9.355468 20.898438 20.898437v73.144531c0 11.539063-9.359376 20.898438-20.898438 20.898438h19.851562c11.542969 0 20.898438-9.359375 20.898438-20.898438v-73.144531c0-11.542969-9.355469-20.898437-20.898438-20.898437zm0 0" fill="#93dcfc"/><path d="m443.035156 241.371094c0 11.542968-9.355468 20.898437-20.894531 20.898437-11.542969 0-20.898437-9.355469-20.898437-20.898437 0-11.539063 9.355468-20.898438 20.898437-20.898438 11.539063 0 20.894531 9.359375 20.894531 20.898438zm0 0" fill="#ffcd50"/><path d="m310.335938 233.535156h-78.921876l-56.164062-66.195312c-1.488281-1.757813-3.675781-2.769532-5.976562-2.769532h-117.027344c-4.328125 0-7.839844 3.507813-7.839844 7.839844 0 4.328125 3.511719 7.835938 7.839844 7.835938h113.398437l45.214844 53.289062h-38.453125c-4.328125 0-7.835938 3.507813-7.835938 7.835938 0 4.332031 3.507813 7.839844 7.835938 7.839844h78.160156l-45.214844 53.289062h-96.683593c-4.328125 0-7.835938 3.507812-7.835938 7.835938 0 4.328124 3.507813 7.839843 7.835938 7.839843h100.3125c2.300781 0 4.484375-1.011719 5.972656-2.769531l56.167969-66.195312h39.214844c4.328124 0 7.835937-3.507813 7.835937-7.835938 0-4.332031-3.507813-7.839844-7.835937-7.839844zm0 0" fill="#495959"/><g fill="#ffcd50"><path d="m54.335938 172.410156c0 15.003906-12.164063 27.164063-27.167969 27.164063-15.003907 0-27.167969-12.160157-27.167969-27.164063s12.164062-27.167968 27.167969-27.167968c15.003906 0 27.167969 12.164062 27.167969 27.167968zm0 0"/><path d="m110.757812 310.335938c0 15.003906-12.160156 27.167968-27.164062 27.167968s-27.167969-12.164062-27.167969-27.167968c0-15.003907 12.164063-27.167969 27.167969-27.167969s27.164062 12.164062 27.164062 27.167969zm0 0"/><path d="m174.496094 241.371094c0 15.003906-12.160156 27.167968-27.164063 27.167968-15.003906 0-27.167969-12.164062-27.167969-27.167968s12.164063-27.167969 27.167969-27.167969c15.003907 0 27.164063 12.164063 27.164063 27.167969zm0 0"/></g><path d="m33.292969 145.941406c7.03125 4.910156 11.636719 13.058594 11.636719 22.289063 0 15.003906-12.160157 27.164062-27.164063 27.164062-2.109375 0-4.15625-.246093-6.128906-.699219 4.402343 3.070313 9.753906 4.878907 15.53125 4.878907 15.003906 0 27.167969-12.160157 27.167969-27.164063 0-12.898437-8.992188-23.6875-21.042969-26.46875zm0 0" fill="#ffbc27"/><path d="m89.71875 283.871094c7.03125 4.910156 11.636719 13.058594 11.636719 22.285156 0 15.003906-12.164063 27.167969-27.167969 27.167969-2.109375 0-4.15625-.25-6.125-.703125 4.402344 3.074218 9.753906 4.882812 15.53125 4.882812 15.003906 0 27.164062-12.164062 27.164062-27.167968 0-12.898438-8.988281-23.6875-21.039062-26.464844zm0 0" fill="#ffbc27"/><path d="m153.457031 214.90625c7.03125 4.910156 11.636719 13.058594 11.636719 22.285156 0 15.003906-12.164062 27.167969-27.167969 27.167969-2.105469 0-4.15625-.246094-6.125-.703125 4.402344 3.074219 9.753907 4.882812 15.53125 4.882812 15.003907 0 27.164063-12.160156 27.164063-27.167968 0-12.894532-8.988282-23.6875-21.039063-26.464844zm0 0" fill="#ffbc27"/></svg>