<svg id="Layer_1" enable-background="new 0 0 50 50" height="512" viewBox="0 0 50 50" width="512" xmlns="http://www.w3.org/2000/svg"><g id="XMLID_12214_"><g id="XMLID_12213_"><g id="XMLID_12200_"><g id="XMLID_12210_"><path d="m13.962 14.084h-3.014c-.508 0-.92.411-.92.92v19.994c0 .508.412.919.92.919h3.014c.508 0 .919-.412.919-.919v-19.995c.001-.508-.411-.919-.919-.919z" fill="#fc6"/></g><g id="XMLID_11981_"><g id="XMLID_10563_"><path d="m37.243 11.641h-22.889c-1.058 0-1.915.857-1.915 1.915v22.889c0 1.058.857 1.915 1.915 1.915h22.889c1.058 0 1.915-.857 1.915-1.915v-22.889c0-1.058-.857-1.915-1.915-1.915z" fill="#e6e6e6"/></g><g id="XMLID_11875_"><g id="XMLID_10239_"><g id="XMLID_10613_"><path d="m30.274 15.403c-1.384-.273-2.788-.306-4.205-.021-1.257.252-2.193 1.031-2.592 2.275-.694 2.16-.655 4.311.38 6.37.128.255.163.445.091.617-.072.17.074.356.259.356h3.046c.128 0 .238-.094.262-.22.726-3.892 1.957-5.862 3.397-7.302.23-.23.36-.542.36-.867 0-.589-.419-1.094-.998-1.208z" fill="#ed7161"/></g></g><g id="XMLID_11894_"><g id="XMLID_11996_"><path d="m15.249 25.922c.456 1.335 1.129 2.567 2.084 3.652.846.962 1.989 1.384 3.266 1.108 2.217-.479 4.061-1.588 5.326-3.514.157-.239.304-.364.489-.387.184-.023.272-.242.179-.403l-1.523-2.638c-.064-.111-.2-.159-.322-.117-3.733 1.317-6.055 1.236-8.022.708-.315-.084-.649-.041-.931.122-.509.296-.736.911-.546 1.469z" fill="#ed7161"/></g></g><g id="XMLID_12197_"><g id="XMLID_12202_"><path d="m31.871 33.675c.928-1.062 1.659-2.261 2.121-3.631.41-1.214.204-2.415-.674-3.383-1.523-1.681-3.406-2.723-5.706-2.856-.285-.017-.467-.081-.58-.23-.112-.147-.346-.114-.438.046l-1.523 2.638c-.064.111-.038.253.06.337 3.007 2.575 4.098 4.626 4.625 6.593.084.315.289.583.571.746.51.295 1.157.184 1.544-.26z" fill="#ed7161"/></g></g></g><g id="XMLID_10611_"><circle cx="25.798" cy="25" fill="#515151" r="1.227"/></g><g id="XMLID_12221_"><path d="m25.798 13.029c-6.601 0-11.971 5.37-11.971 11.971s5.37 11.971 11.971 11.971 11.972-5.37 11.972-11.971-5.37-11.971-11.972-11.971zm6.641 18.269c1.56-1.644 2.524-3.858 2.524-6.298s-.964-4.654-2.524-6.298l1.641-1.641c1.98 2.065 3.205 4.859 3.205 7.939s-1.225 5.874-3.205 7.938zm-6.983-6.298-1.98 1.98c-.458-.536-.744-1.222-.744-1.98s.287-1.444.744-1.98zm-1.637-2.323c.536-.457 1.222-.744 1.98-.744s1.444.287 1.98.744l-1.98 1.98zm1.979 2.666 1.98 1.98c-.536.457-1.222.744-1.98.744s-1.444-.287-1.98-.744zm.343-.343 1.98-1.98c.458.536.744 1.222.744 1.98s-.287 1.444-.744 1.98zm1.98-2.665c-.625-.545-1.431-.886-2.323-.886s-1.698.342-2.323.886l-1.649-1.649c1.047-.964 2.439-1.559 3.972-1.559 1.532 0 2.925.595 3.972 1.559zm-4.988.342c-.545.625-.886 1.431-.886 2.323s.342 1.698.886 2.323l-1.649 1.649c-.965-1.047-1.559-2.44-1.559-3.972s.595-2.925 1.559-3.972zm.343 4.989c.625.545 1.431.886 2.323.886s1.698-.342 2.323-.886l1.649 1.649c-1.047.964-2.439 1.559-3.972 1.559-1.532 0-2.925-.595-3.972-1.559zm4.988-.343c.545-.625.886-1.431.886-2.323s-.342-1.698-.886-2.323l1.649-1.649c.964 1.047 1.559 2.439 1.559 3.971s-.594 2.924-1.559 3.971zm1.649-6.98c-1.135-1.052-2.649-1.701-4.314-1.701-1.666 0-3.18.649-4.315 1.701l-1.64-1.641c1.556-1.472 3.649-2.382 5.955-2.382s4.399.91 5.955 2.382zm-8.972.343c-1.052 1.135-1.701 2.648-1.701 4.314s.649 3.18 1.701 4.314l-1.64 1.64c-1.472-1.556-2.382-3.649-2.382-5.955s.91-4.399 2.382-5.955zm.343 8.972c1.135 1.052 2.649 1.701 4.315 1.701s3.18-.649 4.314-1.701l1.641 1.641c-1.556 1.472-3.649 2.382-5.955 2.382s-4.399-.91-5.955-2.382zm8.972-.344c1.052-1.135 1.701-2.648 1.701-4.314s-.649-3.179-1.701-4.314l1.641-1.641c1.472 1.556 2.382 3.649 2.382 5.955s-.91 4.399-2.382 5.955zm3.281-12.595-1.641 1.641c-1.644-1.56-3.858-2.524-6.298-2.524s-4.654.964-6.298 2.524l-1.641-1.641c2.065-1.98 4.859-3.205 7.939-3.205s5.875 1.225 7.939 3.205zm-16.22.343 1.641 1.641c-1.56 1.644-2.524 3.858-2.524 6.298s.964 4.654 2.524 6.298l-1.641 1.641c-1.98-2.065-3.205-4.859-3.205-7.938 0-3.082 1.225-5.876 3.205-7.94zm.343 16.219 1.641-1.641c1.644 1.56 3.858 2.524 6.298 2.524s4.654-.964 6.298-2.524l1.641 1.641c-2.065 1.98-4.859 3.205-7.939 3.205-3.08.001-5.875-1.224-7.939-3.205z" fill="#fff"/></g><g id="XMLID_11997_"><g id="XMLID_12198_"><circle cx="36.715" cy="14.084" fill="#666" r="1.055"/></g><g id="XMLID_12205_"><circle cx="14.882" cy="14.084" fill="#666" r="1.055"/></g><g id="XMLID_12206_"><circle cx="36.715" cy="35.917" fill="#666" r="1.055"/></g><g id="XMLID_12207_"><circle cx="14.882" cy="35.917" fill="#666" r="1.055"/></g></g></g></g><g id="XMLID_12209_"><g id="XMLID_12216_"><path d="m45.738 16.683-2.035-2.035c-.209-.209-.547-.209-.756 0s-.209.548 0 .757l1.122 1.122h-3.434c-.296 0-.535.239-.535.535 0 .295.239.535.535.535h3.435l-1.122 1.122c-.209.209-.209.547 0 .756s.547.209.756 0l2.035-2.035c.208-.209.208-.548-.001-.757z" fill="#3ab7fc"/></g><g id="XMLID_12211_"><path d="m48.843 24.622-2.035-2.035c-.209-.209-.547-.209-.756 0s-.209.548 0 .757l1.122 1.122h-3.434c-.296 0-.535.239-.535.535 0 .295.239.535.535.535h3.435l-1.122 1.123c-.209.209-.209.547 0 .756s.547.209.756 0l2.035-2.036c.208-.21.208-.548-.001-.757z" fill="#ed7161"/></g><g id="XMLID_12212_"><path d="m45.738 32.56-2.035-2.035c-.209-.209-.547-.209-.756 0s-.209.548 0 .757l1.122 1.122h-3.434c-.296 0-.535.239-.535.535 0 .295.239.535.535.535h3.435l-1.122 1.123c-.209.209-.209.547 0 .756s.547.209.756 0l2.035-2.035c.208-.21.208-.549-.001-.758z" fill="#3ab7fc"/></g></g></g><g id="XMLID_10237_"><g id="XMLID_10564_"><path d="m8.188 20.347-2.042-2.032c-.208-.208-.542-.208-.75 0-.208.209-.208.542 0 .75l1.125 1.125h-3.927c-.288 0-.521-.233-.521-.521v-5.511c0-.302-.24-.542-.531-.532-.302.001-.542.23-.542.533v6.063c0 .575.466 1.042 1.042 1.042h4.48l-1.125 1.125c-.208.209-.208.542 0 .75.207.207.541.209.75 0l2.042-2.032c.209-.209.209-.551-.001-.76z" fill="#ed7161"/></g><g id="XMLID_12208_"><path d="m8.188 29.653-2.042 2.032c-.208.208-.542.208-.75 0s-.208-.542 0-.75l1.125-1.125h-3.927c-.288 0-.521.233-.521.521v5.511c0 .302-.239.542-.531.532-.302-.001-.542-.23-.542-.532v-6.063c0-.575.466-1.042 1.042-1.042h4.48l-1.125-1.125c-.208-.209-.208-.542 0-.75.207-.207.541-.209.75 0l2.042 2.032c.209.208.209.55-.001.759z" fill="#88c057"/></g></g></g></svg>