<svg id="Layer_1" enable-background="new 0 0 50 50" height="512" viewBox="0 0 50 50" width="512" xmlns="http://www.w3.org/2000/svg"><g><g><g><path d="m27.5042667 32.2550812c-.0034142 1.0880165-.771492 1.5259476-1.7191753.9802666-.9459705-.5474319-1.7106247-1.8714962-1.7071991-2.9594288.0017109-1.0862637.7731953-1.5258636 1.7191753-.9801846.9459801.5474339 1.7106247 1.873167 1.7071991 2.9593468z" fill="#ffdd94"/></g><g><path d="m26.4897766 31.8033619c.0481262.1999454.0314465.3581905-.0661888.4481411-.0688381.0621376-.1711445.0388718-.2759171.0028229-.0636024-.0223999-.128437-.0540771-.1945229-.0821877l-.0009937.3509026-.1882095-.1086617.0009823-.3466339-.1433353-.0827541-.0009823.346632-.1869583-.1079407.0010185-.3595276-.3714237-.2144413c.0127029-.0787449.0241413-.1509876.0368443-.2269287.0373917.0215874.0735378.0424576.1084366.0626049.0747833.0431767.0947952.0303726.0950394-.0555668.0008278-.2921638.0016556-.5843296.0024853-.8764877.000288-.1017113-.0320148-.1576443-.1192608-.2094936-.0132904-.0081406-.0265884-.0159702-.039793-.0235939-.0264053-.0152454-.0524406-.0296555-.0773659-.0440464l.0006447-.2276669.3689365.2130051.0009861-.348032.1869602.1079426-.0009594.3380032.1433353.0827541.0009575-.3380032.1882095.1086617-.0009899.3494282c.1358566.0784378.2540989.2055416.3013611.2687111.1691456.2267704.1857529.5332851.0757198.5945969-.023756.012043-.0512409.0191345-.077486.0284214l.0236454.0265732c.0921306.0889891.1767368.1909159.2088241.3227652zm-.4672089.1018124c.0861187.0095615.1224327-.0297146.1214523-.1235218-.0009975-.0880527-.0456886-.1769753-.129097-.261013-.0830116-.0845814-.1677914-.1389809-.2549782-.1893177-.0187225-.0108089-.0375595-.0214481-.0565052-.032156-.0166225-.0095959-.0337982-.0188866-.0507889-.0286942-.0084858-.0049-.0169373-.0099392-.0252457-.0152035l-.0013313.4697876c.0377789.0229797.0753498.0459976.1126614.0675411.0968724.0559273.1919328.1020146.2838326.1125775zm-.3933544-1.287222-.0012035.4239483c.0286522.0173206.056942.0344315.0848999.0505753.0766544.0442543.1508293.0813179.223053.0956211.0786133.0152664.1249123-.0239258.1263924-.1063461.0014801-.0823479-.0419483-.1748238-.119133-.2523842-.0658474-.0651817-.1338844-.1120129-.2030201-.1519279-.0367375-.0212117-.0737916-.0404988-.1109887-.0594865z" fill="#efa143"/></g><g><path d="m28.4724865 32.1165924c-.0017128.6551857-.2326431 1.1170044-.6055679 1.3325844l-.6038456.3506432c.3746281-.2172508.6055584-.6773987.6072712-1.3342514.0034237-1.3188858-.9237423-2.926939-2.0732765-3.5889702-.5764809-.3335228-1.1016426-.3643436-1.4796944-.1453362l.6038551-.350729c.3780518-.2189236.9015026-.1881847 1.4796944.1454201 1.1478214.663702 2.0766906 2.2717552 2.0715637 3.5906391z" fill="#ffdd94"/></g><g><path d="m25.7975121 28.8760128c1.1489677.6633568 2.0764637 2.271143 2.0727234 3.5901356-.0037422 1.3202248-.9373055 1.8522949-2.0862732 1.1889381-1.1478767-.6627274-2.0764713-2.2699146-2.0727291-3.5901375.0037402-1.3189945.9384002-1.8516636 2.0862789-1.1889362zm-.0123578 4.3586369c.9469109.5466995 1.7161198.1083717 1.7192039-.9797401.0030804-1.086813-.7611275-2.4117527-1.7080383-2.9584522-.9458256-.546072-1.7161274-.1070843-1.7192097.9797306-.0030841 1.0881137.7622186 2.4123877 1.7080441 2.9584617" fill="#efa143"/></g></g><g><g><g><g enable-background="new"><g><path d="m38.5030861 18.1249084.0020103.7085534 3.29702 1.9160194-.0020065-.7085533z" fill="#373f51"/></g><g><path d="m41.8001099 20.0409279.0020065.7085533 7.1978836-4.1557007-.0020065-.7085523z" fill="#272e3a"/></g><g><path d="m38.5030861 18.1249084 3.2970238 1.9160195 7.1978836-4.1556997-3.2970238-1.9160195z" fill="#4c5671"/></g></g><g enable-background="new"><g><path d="m22.1926441 27.5417461.0020104.7085534 3.2970218 1.9160194-.0020084-.7085514z" fill="#373f51"/></g><g><path d="m25.4896679 29.4577675.0020084.7085514 14.3569641-8.2889977-.0020103-.7085514z" fill="#272e3a"/></g><g><path d="m22.1926441 27.5417461 3.2970238 1.9160214 14.3569622-8.2889977-3.29702-1.9160213z" fill="#4c5671"/></g></g></g><g><g><path d="m46.3079414 15.5285511 1.64851.9580097.4994698-.2883663-1.6485138-.9580107z" fill="#ffdd94"/></g><g><path d="m44.9038734 16.3391895 1.64851.9580097.5050202-.2915725-1.64851-.9580097z" fill="#ffdd94"/></g><g><path d="m43.5053596 17.1466236 1.64851.9580097.5050202-.2915725-1.6485138-.9580098z" fill="#ffdd94"/></g><g><path d="m42.106842 17.9540577 1.64851.9580097.4994698-.2883682-1.6485138-.9580097z" fill="#ffdd94"/></g><g><path d="m40.7083473 18.7614803 1.64851.9580098.4994659-.2883683-1.6485099-.9580097z" fill="#ffdd94"/></g><g><path d="m36.990078 20.9082222 1.6485138.9580097.5050163-.2915726-1.64851-.9580097z" fill="#ffdd94"/></g><g><path d="m35.5915642 21.7156563 1.64851.9580097.5050201-.2915726-1.6485138-.9580097z" fill="#ffdd94"/></g><g><path d="m34.1930466 22.5230885 1.6485099.9580116.4994698-.2883682-1.64851-.9580098z" fill="#ffdd94"/></g><g><path d="m32.7945328 23.3305225 1.64851.9580098.4994659-.2883664-1.64851-.9580116z" fill="#ffdd94"/></g><g><path d="m31.3904648 24.141161 1.64851.9580097.5050201-.2915726-1.6485119-.9580097z" fill="#ffdd94"/></g><g><path d="m29.9919682 24.9485836 1.6485099.9580097.5050183-.2915725-1.64851-.9580098z" fill="#ffdd94"/></g><g><path d="m28.5934505 25.7560177 1.6485119.9580097.4994679-.2883682-1.6485119-.9580097z" fill="#ffdd94"/></g><g><path d="m27.1949348 26.5634518 1.6485119.9580097.4994679-.2883682-1.6485119-.9580098z" fill="#ffdd94"/></g><g><path d="m25.7908688 27.3740902 1.6485118.9580097.5050183-.2915726-1.6485119-.9580097z" fill="#ffdd94"/></g><g><path d="m24.3923531 28.1815224 1.6485099.9580097.5050202-.2915726-1.6485119-.9580097z" fill="#ffdd94"/></g></g></g><path d="m6.0359263 16.9698009 13.9971033 8.2032567 28.2223339-16.0004044-13.9971047-8.2156374z" fill="#373f51"/><path d="m37.4476051 2.828851 7.6139679 4.4694059-27.9380741 15.8427191-7.6125355-4.4610634z" fill="#ed5d71"/><g><path d="m20.0330296 25.1730576.6150951 4.1707153 27.568203-15.6337528.0302658-4.5360413z" fill="#272e3a"/></g><g><path d="m48.2163467 12.5759916.0226746-3.3979845-28.051693 15.9074307.460783 3.1244201z" fill="#ed5d71"/></g><g><g><path d="m18.9688644 28.1277122 4.6516113 2.7020798-.0106869-1.142767-1.7830315-1.0353718c-.4484138-.2564964-.8114586-.8862705-.8114586-1.3987427.0106888-.5124722.3737335-.7262192.8114586-.4592953l1.7830315 1.0249443-.010622-1.3236694-4.6303024-2.6900901z" fill="#b4bed7"/></g><g><g enable-background="new"><g><path d="m1.0000008 17.4942646.0138105 4.3375835.4547983.2643013-.0138105-4.3375854z" fill="#9da9c1"/></g><g><path d="m23.1680889 31.0909805-17.6062698-10.2285957c-.5445347-.3096733-1.4200521-.3096733-1.9645212 0l-2.1252947 1.230381-.0213095-4.3349018 2.1359167-1.230381c.5445344-.3096714 1.4306738-.3096714 1.9538338 0l17.6063347 10.2285957.010622 1.3236694-1.7830315-1.0249443c-.4377251-.2669239-.8007698-.0531769-.8114567.4592953 0 .5124741.3630447 1.1422462.8114567 1.3987427l1.7830315 1.0353718z" fill="#d3dbea"/></g><g><path d="m23.1574001 29.9482136.0029908 1.142437.4524135-.2612019-.0029907-1.142437z" fill="#b4bed7"/></g><g><path d="m23.1465816 26.7530651.0108185 1.3266831.4524136-.2612-.0108185-1.326683z" fill="#b4bed7"/></g><g><path d="m1.0000008 17.4942646.4547982.2642994 2.1307545-1.2301922c.5450847-.314703 1.4252145-.3146896 1.9613945-.0030956l17.5996342 10.2277889.4524136-.2612-17.5996343-10.2277889c-.7853203-.4563789-2.0727887-.4594688-2.8686063-.0000038z" fill="#e3e7f0"/></g></g></g><g><g enable-background="new"><g><g><g><g enable-background="new"><g><path d="m17.6783657 27.3452339 1.0382481-.6033649.0055847-1.9696732-1.0382481.6033631z" fill="#9da9c1"/></g><g><path d="m17.6839504 25.3755589 1.0382481-.6033631-3.8726568-2.2358799-1.0382471.603365z" fill="#b4bed7"/></g><g><path d="m13.8112946 23.1396809-.0055848 1.9696731 3.8726559 2.2358799.0055847-1.969675z" fill="#4c5671"/></g></g></g><g><g><path d="m16.4863472 24.9575081c.1246262.0719528.2254028.2464218.2249966.389637-.0003986.1405754-.1018333.1982975-.2264595.1263447-.1222668-.070591-.2230434-.24506-.2226448-.3856354.0004062-.1432152.1018409-.2009373.2241077-.1303463z" fill="#373f51"/></g><g><path d="m17.2244511 26.2903004c.1246262.0719528.2230511.2450657.2226448.388279-.0003986.1405754-.0994816.1996574-.2241077.1277027-.1222668-.0705891-.2230434-.24506-.2226448-.3856354.0004062-.1432133.1018409-.2009354.2241077-.1303463z" fill="#373f51"/></g><g><path d="m14.264329 23.6746254c.1246262.0719528.2254028.2464218.2249975.389637-.0003986.1405754-.1018343.1982975-.2264605.1263447-.1222658-.070591-.2230425-.24506-.2226448-.3856354.0004063-.1432152.1018419-.2009373.2241078-.1303463z" fill="#373f51"/></g><g><path d="m14.2617626 24.579792c.1246262.0719528.2254028.2464237.2249975.389637-.0003986.1405754-.1018333.1982975-.2264605.1263447-.1222658-.0705891-.2230425-.24506-.2226439-.3856354.0004054-.1432133.1018411-.2009373.2241069-.1303463z" fill="#373f51"/></g><g><path d="m15.0050068 24.1022549c.1246185.071949.2253952.246418.2249889.3896332-.0003986.1405754-.1018333.1982975-.2264519.1263504-.1222744-.0705967-.2230511-.2450657-.2226524-.3856411.0004063-.1432152.101841-.2009373.2241154-.1303425z" fill="#373f51"/></g><g><path d="m15.0024405 25.0074234c.1246185.0719471.2253952.246418.2249889.3896313-.0003977.1405754-.1018333.1982994-.2264519.1263504-.1222744-.0705948-.2230511-.2450638-.2226524-.3856411.0004062-.1432133.101841-.2009354.2241154-.1303406z" fill="#373f51"/></g><g><path d="m15.745677 24.5298824c.1246185.0719471.2253952.246418.2249889.3896313-.0003986.1405754-.1018333.1982975-.2264519.1263504-.1222744-.0705948-.2230511-.2450657-.2226524-.3856411.0004063-.1432133.101841-.2009373.2241154-.1303406z" fill="#373f51"/></g><g><path d="m15.7431107 25.4350491c.1246185.071949.2253952.246418.2249889.3896313-.0003986.1405773-.1018333.1982994-.2264519.1263504-.1222744-.0705948-.2230511-.2450638-.2226524-.3856392.0004063-.1432152.101841-.2009373.2241154-.1303425z" fill="#373f51"/></g><g><path d="m16.4837799 25.8626747c.1246262.0719528.2254028.2464218.2249985.389637-.0003986.1405754-.1018353.1982975-.2264614.1263447-.1222649-.0705891-.2230415-.24506-.2226448-.3856354.0004062-.1432133.1018428-.2009373.2241077-.1303463z" fill="#373f51"/></g><g><path d="m17.2270164 25.3851337c.1246262.0719528.2230511.2450638.2226448.388279-.0003986.1405754-.0994816.1996555-.2241077.1277027-.1222668-.070591-.2230434-.24506-.2226448-.3856354.0004063-.1432151.101841-.2009372.2241077-.1303463z" fill="#373f51"/></g></g></g><g><g><g enable-background="new"><g><path d="m10.1579409 23.0033131 1.0382471-.6033631.0055847-1.969675-1.0382481.6033649z" fill="#9da9c1"/></g><g><path d="m10.1635246 21.0336399 1.0382481-.6033649-3.8726568-2.235878-1.0382481.603363z" fill="#b4bed7"/></g><g><path d="m6.2908678 18.79776-.0055838 1.9696732 3.8726569 2.2358799.0055837-1.9696732z" fill="#4c5671"/></g></g></g><g><g><path d="m8.9659204 20.6155872c.1246262.0719528.2254028.2464237.2249975.389637-.0003986.1405754-.1018343.1982975-.2264605.1263447-.1222658-.0705891-.2230425-.24506-.2226448-.3856354.0004064-.1432132.101842-.2009372.2241078-.1303463z" fill="#373f51"/></g><g><path d="m9.7040243 21.9483814c.1246262.0719528.2230511.2450638.2226448.388279-.0003986.1405754-.0994816.1996555-.2241077.1277027-.1222658-.070591-.2230434-.24506-.2226448-.3856354.0004062-.1432152.1018409-.2009372.2241077-.1303463z" fill="#373f51"/></g><g><path d="m6.7439027 19.3327045c.1246266.0719528.2254033.2464237.224997.389637-.0003982.1405754-.1018333.1982994-.2264595.1263447-.1222663-.0705891-.2230434-.24506-.2226448-.3856354.0004063-.1432132.101841-.2009372.2241073-.1303463z" fill="#373f51"/></g><g><path d="m6.7413368 20.2378731c.1246262.0719528.2254028.2464218.224997.389637-.0003986.1405754-.1018338.1982975-.22646.1263447-.1222663-.070591-.223043-.24506-.2226443-.3856354.0004058-.1432152.101841-.2009373.2241073-.1303463z" fill="#373f51"/></g><g><path d="m7.4845805 19.7603359c.1246185.071949.2253952.246418.2249894.3896313-.0003986.1405773-.1018338.1982994-.2264519.1263504-.1222744-.0705948-.2230511-.2450638-.2226529-.3856411.0004063-.1432133.1018415-.2009354.2241154-.1303406z" fill="#373f51"/></g><g><path d="m7.4820147 20.6655025c.1246181.071949.2253952.246418.2249889.3896332-.0003986.1405754-.1018333.1982975-.2264519.1263485-.1222744-.0705948-.2230511-.2450638-.2226524-.3856392.0004058-.1432151.101841-.2009372.2241154-.1303425z" fill="#373f51"/></g><g><path d="m8.2252502 20.1879616c.1246185.071949.2253952.246418.2249899.3896313-.0003986.1405773-.1018343.1982994-.2264528.1263504-.1222734-.0705948-.2230501-.2450638-.2226524-.3856392.0004062-.1432152.1018409-.2009373.2241153-.1303425z" fill="#373f51"/></g><g><path d="m8.2226849 21.0931282c.1246176.071949.2253942.246418.2249889.3896332-.0003986.1405754-.1018343.1982975-.2264519.1263504-.1222744-.0705967-.2230515-.2450657-.2226529-.3856411.0004063-.1432152.1018415-.2009373.2241159-.1303425z" fill="#373f51"/></g><g><path d="m8.9633541 21.5207558c.1246262.0719528.2254028.2464218.2249975.3896351-.0003986.1405773-.1018333.1982994-.2264605.1263466-.1222658-.070591-.2230425-.24506-.2226439-.3856354.0004054-.1432152.1018411-.2009373.2241069-.1303463z" fill="#373f51"/></g><g><path d="m9.7065907 21.0432129c.1246262.0719528.2230511.2450657.2226448.388279-.0003986.1405754-.0994816.1996574-.2241077.1277027-.1222668-.0705891-.2230434-.24506-.2226448-.3856354.0004062-.1432133.1018409-.2009354.2241077-.1303463z" fill="#373f51"/></g></g></g></g></g></g></g><g><g><path d="m16.0742798 14.0164356c-2.6679935 1.5403662-2.6820612 4.0396233-.0311451 5.5801659 2.6505928 1.5403576 6.9653301 1.5403767 9.6333237.0000095 2.6680126-1.5403786 2.6820602-4.0396223.0314674-5.5799789-2.6509151-1.5405436-6.9656315-1.540576-9.633646-.0001965z" fill="#272e3a"/></g><g><g><path d="m20.246542 16.4380531c-.3537407.2042332-.3613281.5332012-.0100479.7373428.3516026.2043285.9250488.2042027 1.2787895-.0000286.3477421-.2007694.3498554-.5329437-.0017471-.7372723-.3512784-.2041415-.9192524-.2008113-1.2669945-.0000419z" fill="#272e3a"/></g><g><path d="m16.6691551 19.2350044c-.3810062-.2214146-.6964188-.467226-.9520931-.7269382.8852501-.1176319 2.1479855-.4325981 3.7721672-1.2598915l-.0950203-.1177311c-.7958336.148737-2.5781078.4465771-4.2933464.4638481-.2180595-.5573406-.2028837-1.1389084.0631962-1.6927462.7692327.2803125 2.0345173.5711069 4.1914387.6507425l.0846138-.1244717c-.7400684-.2147827-2.3684216-.7373676-3.5956907-1.4297409.2403555-.2214994.5164232-.4291916.8521719-.6230364.3777351-.2180853.8031006-.4015074 1.2521572-.5503426.206028.5156374.745842 1.2391424 2.1628075 2.1806517l.2095108-.0588169c-.2542362-.4533577-.7563915-1.4883728-.7806473-2.4818373.9626007-.1282082 1.9666538-.121232 2.91609.0277052-.4805336.4500284-.9868679 1.1837492-1.1431713 2.433444l.2267513.0484247c.3790417-.4326248 1.2745552-1.3708153 2.473877-2.0838308.3817101.1315308.7392387.2976284 1.0669155.4880543.3813362.2216082.6967487.4674177.9521255.7269392-.8852501.1176109-2.1476879.4327888-3.7718697 1.2600822l.1008282.1211071c.7837009-.1488438 2.5722828-.4499416 4.2873669-.4603958.2240562.5538979.2027588 1.1318893-.0633221 1.6857262-.7634239-.2769375-2.0345497-.5711079-4.1914711-.6507435l-.0842838.1246643c.7455959.2179565 2.3684235.7373695 3.5953598 1.4295502-.2403221.2214985-.5164223.4291897-.8461761.6195736-.3837128.2215385-.8087635.4051609-1.257822.553997-.2005329-.5124454-.7461548-1.2393246-2.163105-2.1808434l-.2095261.0588264c.2485542.4570026.7685242 1.4884777.7809925 2.4820004-.9571381.1314182-1.9669819.1210594-2.9161377-.0276775.4863911-.446661.998373-1.1840267 1.1428719-2.4336548l-.2205963-.0448475c-.3730793.429163-1.2749004 1.3706322-2.480032 2.0802727-.3757135-.1349925-.7392369-.2976283-1.0669309-.4880637zm4.8461476-2.059637c.3477402-.2007675.3498421-.5329418-.0017605-.7372723-.3512707-.2041359-.9192467-.2008114-1.2669868-.0000439-.3537369.2042294-.3613148.5332031-.0100441.737339.3516025.2043286.9250545.2042065 1.2787914-.0000228" fill="#9da9c1"/></g></g></g><g><g><path d="m29.622242 6.3295937c-2.6679935 1.5403666-2.6820621 4.0396233-.0311451 5.5801668 2.6505909 1.5403566 6.9653301 1.5403767 9.6333218.0000095 2.6680145-1.5403786 2.6820602-4.0396233.0314674-5.5799794-2.6509133-1.540544-6.9656296-1.5405755-9.6336441-.0001969z" fill="#272e3a"/></g><g><g><path d="m33.7945023 8.7512121c-.3537407.2042322-.3613243.5332003-.0100479.7373419.3516045.2043295.9250526.2042027 1.2787895-.0000296.347744-.2007694.3498573-.5329418-.0017433-.7372713-.3512803-.2041416-.9192544-.2008104-1.2669983-.000041z" fill="#272e3a"/></g><g><path d="m30.2171173 11.5481634c-.3810062-.2214165-.6964188-.467226-.9520931-.7269392.8852501-.117631 2.1479855-.4325972 3.7721653-1.2598906l-.0950203-.1177311c-.7958336.148737-2.5781059.4465761-4.2933445.4638472-.2180595-.5573397-.2028847-1.1389084.0631962-1.6927452.7692318.2803116 2.0345173.5711069 4.1914368.6507425l.0846176-.1244717c-.7400703-.2147827-2.3684254-.7373686-3.5956936-1.4297419.2403564-.2214994.5164223-.4291911.8521729-.6230364.3777351-.2180853.8031006-.4015069 1.2521572-.5503421.206028.5156374.745842 1.2391419 2.1628075 2.1806512l.2095107-.0588168c-.2542381-.4533577-.7563896-1.4883728-.7806473-2.4818373.9626007-.1282077 1.9666519-.1212316 2.9160881.0277057-.4805336.4500279-.986866 1.1837487-1.1431694 2.4334445l.2267532.0484238c.3790398-.4326243 1.2745514-1.3708153 2.4738731-2.0838308.3817101.1315308.7392387.2976289 1.0669174.4880543.3813362.2216082.6967506.4674182.9521255.7269392-.8852499.1176113-2.1476858.4327893-3.7718695 1.2600822l.1008301.1211071c.783699-.1488438 2.5722809-.4499416 4.287365-.4603958.2240562.5538969.2027588 1.1318893-.0633202 1.6857262-.7634277-.2769365-2.0345535-.5711069-4.1914749-.6507425l-.0842819.1246634c.7455978.2179565 2.3684235.7373695 3.5953598 1.4295502-.2403221.2214994-.5164223.4291906-.8461761.6195745-.3837128.2215376-.8087654.4051609-1.2578239.5539961-.200531-.5124454-.7461548-1.2393246-2.163105-2.1808434l-.2095261.0588255c.2485542.4570026.7685242 1.4884796.7809944 2.4820013-.9571381.1314192-1.9669838.1210594-2.9161377-.0276766.486393-.4466629.9983711-1.1840277 1.1428719-2.4336557l-.2205965-.0448476c-.3730774.429163-1.2749023 1.3706331-2.480032 2.0802736-.3757133-.1349926-.7392368-.2976293-1.0669307-.4880638zm4.8461456-2.059638c.347744-.2007675.3498459-.5329418-.0017586-.7372713-.3512726-.2041368-.9192467-.2008123-1.2669868-.0000439-.3537369.2042294-.3613167.5332012-.0100441.7373381.3516045.2043295.9250565.2042074 1.2787895-.0000229" fill="#9da9c1"/></g></g></g></g><g><g><path d="m31.6870403 48.1251602c-.9399719.3401985-1.5600624-.1845665-1.3879833-1.1745529.1741314-.9890633 1.0756226-2.0665817 2.0155258-2.4067497.9379234-.341114 1.5605278.1860619 1.3879128 1.1745796-.1741295.9890709-1.0770645 2.0671081-2.0154553 2.406723z" fill="#ffdd94"/></g><g><path d="m32.6289406 46.3300743c-.0260468.1195335-.109951.2338982-.2608376.3329239-.1058578.0689354-.2156944.0917702-.3230782.106617-.0650387.0087471-.1276264.0114632-.194334.0171318l-.1454067.2422028-.1737614-.0034637.1436062-.2391968-.1332169-.002655-.1436043.2392006-.1737614-.0034637.1489468-.2480965-.3452091-.0068779c.0471916-.0590858.0902691-.1132622.1362762-.1703644.0347519.0006943.0671864.001339.1007824.0020065.0683479.0013618.0981121-.0150299.1337223-.0743484.121067-.2016563.2421627-.4033623.3632278-.6050224.0421162-.0701485.0274563-.0964928-.0542126-.0990944-.011776-.0005646-.0238152-.0009079-.0359612-.001152-.0242805-.0004807-.0489883-.0005417-.0729313-.0010185l.0943718-.1571922.3440533.0068512.1442146-.2402191.1737633.0034637-.1400642.2332993.1332169.002655.1400642-.2333031.1737595.0034637-.144825.2412376c.1262703.0025139.2120056.0452003.2417336.0718384.1035767.0910759-.0030708.2960587-.1554642.3800201-.0332832.0183296-.0688438.0326576-.1020889.0489807l-.0000648.0040169.0155678.0053024c.0720368.0264587.1288529.0646018.1115151.1442565zm-.5863877.2464447c.0965462-.0260849.1550598-.066925.1913147-.1312218.0350685-.06036.0206375-.1046638-.0421371-.1309319-.0621071-.0267487-.1386337-.0321236-.2196693-.033741-.017395-.0003433-.0350304-.0004807-.0527401-.0006714-.0154438-.000309-.0316639-.0001945-.0474491-.0005074-.0078983-.0001564-.0156822-.0004234-.0232105-.0009003l-.1952515.325226c.0316868.0011177.0631084.0023994.0947285.0030289.0932521.0018577.1880187-.0017929.2944144-.0302811zm.0701943-.7378578-.1756706.292614c.0260258.0010071.0518551.0020638.0777969.0025787.0711212.0014191.1430511-.0011673.221405-.0186539.0854378-.0193024.1556053-.0639267.1911812-.1212387.0355835-.0573082.0229225-.104557-.0358353-.1277657-.0507584-.0207672-.1110229-.0273933-.1755066-.0286789-.033554-.0006675-.0682449.0001069-.1033706.0011445z" fill="#efa143"/></g><g><path d="m32.1118355 48.9170914c-.5659256.2051582-1.0372639.1515083-1.3408852-.1023483l-.4929829-.410553c.3055992.2547989.7754955.3089752 1.3428612.1032906 1.139204-.413002 2.2345181-1.7203445 2.4433575-2.9212341.106041-.6027145-.0329475-1.06567-.3411407-1.3228722l.4930573.4105377c.3081207.257225.4466438.7186813.3410721 1.3228951-.2108232 1.1999396-1.3056031 2.5087508-2.4453393 2.9202842z" fill="#ffdd94"/></g><g><path d="m34.0648308 45.5864449c-.2101593 1.2008209-1.3051414 2.5083618-2.4445362 2.9211273-1.1404572.4131508-1.8939648-.2247391-1.6838036-1.42556.2099609-1.1996765 1.304081-2.5079803 2.44454-2.9211311 1.1393929-.4127656 1.8937607.2258872 1.6837998 1.4255638zm-3.7651501 1.3639946c-.1732025.9896431.4475842 1.5152588 1.387537 1.1747437.9388313-.340107 1.841217-1.4175186 2.0144196-2.4071617.1730042-.9885101-.4487-1.5148582-1.3875313-1.1747513-.9399529.340515-1.8414211 1.4186629-2.0144253 2.4071693" fill="#efa143"/></g></g><g><g><path d="m29.5857697 35.5466499c-.5136909.8555107-1.7442207 1.5336456-2.7481308 1.5126343-1.0031414-.0195999-1.4001751-.7302704-.8864765-1.5857887.5142899-.8576813 1.7434406-1.5350571 2.7487297-1.514801 1.0031413.0195961 1.4001655.7302703.8858776 1.5879554z" fill="#efa143"/></g><g><path d="m27.6194992 36.1971207c-.1378937.0916519-.2621613.1227722-.3571568.0737953-.0660038-.0348892-.0766792-.1186829-.0783653-.2078819-.0006351-.0542908.0054054-.1120758.0084019-.1698227l-.2656155.0962257.0301647-.1723633.2623844-.0950546.022974-.1312637-.2623844.0950508.0299664-.1712189.2721443-.098587.0595322-.3401527c.0630531-.0121536.1208401-.023468.1817741-.0348511-.0059929.0342445-.0117874.0673485-.0173798.099308-.0119858.0684853.0032253.0800819.0682774.0565147.2211533-.0801163.4423046-.1602325.6634541-.2403488.0769901-.0278893.1103592-.0677757.1254597-.1480865.0024853-.0122986.0047302-.0245171.0068474-.0366135.0042324-.0241814.0079365-.0478516.0119305-.0706787l.1723309-.0624313-.0591316.3378754.2634411-.0954399-.0299664.1712189-.2558498.0926895-.022974.1312637.2558517-.0926857-.0301666.1723633-.2644998.0958213c-.0217743.1244164-.0852165.2489624-.1199245.3021622-.1247425.1905861-.3519287.2878571-.4286919.2215881-.0156708-.014637-.0286274-.0334625-.0429001-.0507431l-.0135612.0252228c-.0418339.0942687-.0955334.1864204-.1863671.2471237zm-.2060718-.3251877c.0165634.0677719.0562954.0843773.1269588.0577126.0663071-.0250893.1211987-.0834618.1616993-.1697655.0410233-.0861511.058733-.1653023.0727081-.2451477.0030003-.0171432.0058403-.0343285.0087013-.0516167.0026646-.0152245.0049438-.0307808.0076675-.0463409.0013599-.0077705.0028343-.0155525.0045204-.0232925l-.3556042.1288261c-.0069389.0349197-.0139637.0696945-.0199451.1038666-.0155257.0887145-.0241107.1733398-.0067061.245758zm.8646698-.6532135-.3209076.1162529c-.0051804.0264549-.0103035.052578-.0147839.0781822-.0122871.0702019-.0198193.1365395-.0106792.1951103.0101757.0636711.0526047.0878525.1153355.0661964.0626774-.0216408.1206055-.08004.1579285-.1598434.0310955-.0678139.0477085-.132206.0587902-.1955223.0058879-.0336456.0102347-.0669975.0143165-.1003761z" fill="#ffdd94"/></g><g><path d="m30.1311817 34.2153969.3124542.5714912c.1905937.348175.1532764.8213196-.1570301 1.338192-.6237411 1.0389519-2.1169338 1.8624916-3.3355885 1.8382149-.6131058-.0122147-1.0394421-.2366791-1.2323246-.5890427l-.3124561-.5714836c.1928825.352356.6192188.5768242 1.2323265.5890388 1.2186527.0242729 2.7118454-.799263 3.3355865-1.8382187.3103067-.5168723.3476258-.9900131.1570321-1.3381919z" fill="#efa143"/></g><g><path d="m28.8990974 33.6264801c1.2186546.0242729 1.6993752.887188 1.0750523 1.9271088-.6237411 1.0389557-2.1169338 1.8624916-3.3355865 1.8382187-1.2186546-.0242767-1.6994095-.8871346-1.0756683-1.9260902.6243228-1.0399209 2.1175498-1.863514 3.3362025-1.8392373zm-2.0611324 3.4331818c1.003191.0199852 2.2341709-.6577339 2.7481174-1.5138016.5145588-.8570938.1168022-1.5672569-.8863888-1.5872383-1.0043468-.0200081-2.2341652.6577339-2.748724 1.5148277-.5139464.8560677-.1173514 1.5662079.8869954 1.5862122" fill="#ffdd94"/></g></g><g><g><path d="m30.2870369 47.3123169c-.8628101.5013313-2.267828.5013313-3.1369209-.0016136-.8691025-.5013313-.8738232-1.3153763-.0110016-1.8167114.8643837-.5029449 2.2678261-.5029449 3.1384945 0 .8691024.5013351.8738117 1.31538.009428 1.818325z" fill="#efa143"/></g><g><path d="m29.1875496 46.7793617c-.0805035.0921173-.2091866.1517868-.3891296.1656876-.1259842.0092812-.2332001-.023735-.3344135-.062561-.0611839-.0237274-.1173096-.0515594-.1784706-.0787888l-.2442474.1419411-.1505108-.0868988.2412205-.1401825-.1153908-.0666199-.2412224.1401825-.1505108-.0868988.2501965-.1453972-.2990208-.1726379c.069849-.0289726.1337242-.0556259.20158-.0834351.0301018.0173798.0581951.0335999.0872955.0504036.0592041.0341797.0931835.0341873.1530018-.000576.2033615-.1181793.4067745-.2363892.610136-.3545723.0707417-.041111.0706177-.0712585.000349-.112957-.0100422-.0061722-.0204201-.0122871-.030941-.0183601-.0210323-.0121422-.0426426-.0241203-.0633831-.0360947l.1585236-.0921249.2980175.1720619.2422485-.1407776.1505108.086895-.2352715.1367264.1153908.0666199.2352734-.1367226.1505108.086895-.2432747.1413765c.1093769.0631485.1638603.1419144.1770401.1795959.0467548.1297531-.1455822.2578049-.3195763.2577896-.0379963-.0000114-.0760574-.0046272-.1130505-.0063744l-.001997.0034866.011076.0121574c.0503216.0579415.0816727.1187669.02804.1801606zm-.6325111-.0671806c.097147.0237503.1681061.0162277.2308903-.0225868.059845-.0359383.0685921-.081707.0262909-.1350098-.0414848-.0534019-.1059113-.095047-.1761055-.1355743-.0150681-.0086975-.030447-.0173264-.0458641-.0260429-.0133781-.0077248-.0276394-.0154533-.0413132-.0233459-.0068398-.003952-.0135307-.0079384-.0198936-.0119896l-.3279743.1905975c.0272121.0162735.0541153.0325584.0815029.0483704.0807742.0466346.165533.0891799.2724666.1155814zm.4176063-.6123428-.2950859.1714859c.0223083.013443.0444183.0268326.0668907.0398064.0616035.0355682.1258488.0680237.2029133.0905228.0841446.024334.1671352.0191193.225956-.0139046.0588245-.03302.0705395-.080513.0302792-.1291962-.0344315-.0426865-.084013-.0775757-.1398678-.1098251-.0290642-.0167809-.0598221-.0328484-.0910855-.0488892z" fill="#ffdd94"/></g><g><path d="m31.4072495 46.4096336-.0021801.651329c-.0011234.3969231-.2621727.7932968-.7834129 1.0962105-1.0477333.6088753-2.7529716.6094437-3.808567-.0000038-.5310707-.3066139-.7961197-.7089767-.794981-1.110672l.0021782-.6513252c-.0011387.4016953.2639122.8040619.7949829 1.1106758 1.0555935.6094475 2.7608318.6088753 3.808567 0 .5212402-.3029136.7822875-.6992836.7834129-1.0962143z" fill="#efa143"/></g><g><path d="m30.6124191 45.2991829c1.0555935.6094475 1.0601273 1.5972214.0114174 2.206665-1.0477352.6088753-2.7529736.6094475-3.808567 0-1.0555954-.6094475-1.0601845-1.597187-.0124493-2.2060661 1.0487099-.6094437 2.7540035-.6100464 3.8095989-.0005989zm-3.4622001 2.0120125c.8689594.5016937 2.2741699.5022774 3.1374741.0005798.864336-.5022964.8587379-1.316246-.0102234-1.8179398-.8699627-.5022736-2.2741661-.5022736-3.1385021.0000229-.8633042.5016976-.8587113 1.3150635.0112514 1.8173371" fill="#ffdd94"/></g></g><g><g><path d="m24.3151932 45.3586578c-.862812.5013351-2.267828.5013351-3.1369209-.0016098-.8691044-.5013351-.8738232-1.3153801-.0110035-1.8167114.8643837-.5029449 2.267828-.5029449 3.1384945 0 .8691043.5013313.8738136 1.3153763.0094299 1.8183212z" fill="#efa143"/></g><g><path d="m23.2157059 44.8257065c-.0805054.0921173-.2091866.151783-.3891315.1656837-.1259842.0092812-.2331982-.0237312-.3344135-.0625572-.061182-.0237312-.1173077-.0515594-.1784687-.0787926l-.2442474.1419449-.1505127-.0868988.2412205-.1401825-.1153908-.0666237-.2412205.1401825-.1505127-.086895.2501965-.145401-.2990189-.1726379c.069849-.0289726.1337242-.0556259.2015781-.0834312.0301018.0173798.058197.0335999.0872974.0503998.0592022.0341797.0931835.0341873.1529999-.0005722.2033634-.1181831.4067745-.236393.610136-.3545723.0707436-.041111.0706196-.0712624.000349-.112957-.0100422-.006176-.0204201-.012291-.0309391-.018364-.0210323-.0121422-.0426426-.0241203-.0633831-.0360947l.1585217-.0921211.2980194.1720581.2422485-.1407776.1505108.0868988-.2352734.1367264.1153927.0666199.2352715-.1367264.1505127.0868988-.2432766.1413765c.1093769.0631485.1638622.1419106.1770401.1795921.0467567.1297569-.1455803.2578087-.3195763.2577896-.0379963-.0000114-.0760555-.0046272-.1130505-.0063744l-.001995.0034867.0110741.0121574c.0503234.0579415.0816726.1187706.0280418.1801644zm-.6325112-.0671845c.0971451.0237541.1681042.0162277.2308903-.022583.0598431-.0359383.0685902-.081707.0262909-.1350136-.0414867-.0534019-.1059132-.0950432-.1761055-.1355705-.0150681-.0087013-.0304489-.0173302-.045866-.0260429-.0133762-.0077248-.0276375-.0154533-.0413113-.0233498-.0068417-.0039482-.0135307-.0079384-.0198936-.0119896l-.3279743.1905975c.0272102.0162735.0541134.0325623.0815029.0483742.0807743.0466347.165533.08918.2724666.1155777zm.4176064-.6123428-.2950878.1714859c.0223103.013443.0444202.0268364.0668926.0398102.0616035.0355682.1258488.0680199.2029114.0905228.0841465.024334.1671371.0191154.225956-.0139046.0588245-.03302.0705395-.080513.0302811-.1291962-.0344315-.0426903-.084013-.0775795-.1398697-.1098289-.0290643-.0167771-.0598203-.0328484-.0910836-.0488892z" fill="#ffdd94"/></g><g><path d="m25.4354057 44.4559784-.002182.6513252c-.0011234.3969269-.2621708.7933006-.783411 1.0962105-1.0477352.6088753-2.7529736.6094475-3.808567 0-.5310707-.3066139-.7961216-.7089806-.7949829-1.1106758l.0021782-.6513214c-.0011368.4016953.2639122.8040581.7949829 1.110672 1.0555954.6094475 2.7608337.6088791 3.808567 0 .5212402-.3029099.7822895-.6992836.7834148-1.0962105z" fill="#efa143"/></g><g><path d="m24.6405735 43.3455276c1.0555954.6094475 1.0601292 1.5972176.0114174 2.2066612-1.0477333.6088791-2.7529716.6094475-3.808567 0-1.0555935-.6094475-1.0601826-1.597187-.0124493-2.2060623 1.0487118-.6094436 2.7540054-.6100463 3.8095989-.0005989zm-3.4622002 2.0120087c.8689613.5016975 2.2741699.5022774 3.1374741.0005798.864336-.5022964.8587379-1.3162422-.0102234-1.8179398-.8699627-.5022697-2.2741642-.5022736-3.1385002.0000229-.8633041.5016976-.8587132 1.3150636.0112495 1.8173371" fill="#ffdd94"/></g></g><g><g><path d="m32.6565132 43.74757c-.8628101.5013351-2.267828.5013351-3.1369209-.0016098-.8691044-.5013351-.8738232-1.3153801-.0110035-1.8167114.8643837-.5029449 2.267828-.5029449 3.1384945 0 .8691025.5013313.8738136 1.3153763.0094299 1.8183212z" fill="#efa143"/></g><g><path d="m31.5570259 43.2146187c-.0805035.0921173-.2091866.151783-.3891296.1656837-.1259842.0092812-.2332001-.0237312-.3344154-.0625572-.061182-.0237312-.1173077-.0515594-.1784687-.0787926l-.2442474.1419449-.1505127-.0868988.2412224-.1401825-.1153927-.0666237-.2412205.1401825-.1505108-.086895.2501945-.145401-.2990189-.1726379c.069849-.0289726.1337242-.0556259.2015781-.0834312.0301037.0173798.058197.0335999.0872974.0503998.0592041.0341797.0931835.0341873.1530018-.0005722.2033615-.1181831.4067726-.236393.610136-.3545723.0707417-.041111.0706177-.0712624.000349-.112957-.0100441-.006176-.020422-.012291-.030941-.018364-.0210323-.0121422-.0426426-.0241203-.0633831-.0360947l.1585217-.0921211.2980194.1720581.2422485-.1407776.1505108.0868988-.2352715.1367226.1153908.0666237.2352734-.1367264.1505108.0868988-.2432747.1413765c.109375.0631485.1638603.1419106.1770382.1795921.0467567.1297569-.1455803.2578087-.3195744.2577896-.0379982-.0000114-.0760574-.0046272-.1130524-.0063744l-.0019949.0034867.0110741.0121574c.0503235.0579415.0816726.1187706.0280418.1801644zm-.6325111-.0671845c.0971451.0237541.1681042.0162277.2308903-.022583.0598431-.0359383.0685902-.081707.0262909-.1350136-.0414867-.0534019-.1059113-.0950432-.1761055-.1355705-.0150681-.0087013-.030447-.0173302-.0458641-.0260429-.0133781-.0077248-.0276394-.0154533-.0413132-.0233498-.0068417-.0039482-.0135307-.0079384-.0198936-.0119896l-.3279743.1905975c.0272121.0162735.0541153.0325623.0815029.0483742.0807742.0466347.165533.08918.2724666.1155777zm.4176063-.6123428-.2950859.1714859c.0223083.013443.0444183.0268364.0668907.0398102.0616035.0355644.1258488.0680199.2029114.0905228.0841465.0243301.1671371.0191154.2259579-.0139046.0588245-.03302.0705376-.080513.0302792-.1291962-.0344315-.0426903-.084013-.0775795-.1398697-.1098289-.0290623-.0167771-.0598202-.0328484-.0910836-.0488892z" fill="#ffdd94"/></g><g><path d="m33.7767258 42.8448906-.002182.6513252c-.0011215.3969269-.2621727.7933006-.7834091 1.0962105-1.0477352.6088753-2.7529755.6094475-3.808569 0-.5310707-.3066139-.7961216-.7089806-.7949829-1.1106758l.0021782-.6513214c-.0011368.4016953.2639122.8040581.7949829 1.110672 1.0555954.6094475 2.7608337.6088791 3.808569 0 .5212402-.3029099.7822875-.6992836.7834129-1.0962105z" fill="#efa143"/></g><g><path d="m32.9818954 41.7344398c1.0555954.6094475 1.0601273 1.5972176.0114174 2.2066612-1.0477352.6088791-2.7529736.6094475-3.808569 0-1.0555935-.6094475-1.0601826-1.597187-.0124474-2.2060623 1.04871-.6094436 2.7540036-.6100463 3.809599-.0005989zm-3.462202 2.0120087c.8689613.5016975 2.2741718.5022774 3.137476.0005798.8643341-.5022964.8587379-1.3162422-.0102234-1.8179398-.8699627-.5022697-2.2741661-.5022736-3.1385021.0000229-.8633042.5016976-.8587132 1.3150636.0112495 1.8173371" fill="#ffdd94"/></g></g><g><g><path d="m27.5403976 41.8617477c-.862812.5013351-2.267828.5013351-3.1369228-.0016098-.8691025-.5013351-.8738213-1.3153763-.0110016-1.8167114.8643837-.5029449 2.267828-.5029449 3.1384945 0 .8691025.5013352.8738136 1.3153763.0094299 1.8183212z" fill="#efa143"/></g><g><path d="m26.4409103 41.3287964c-.0805054.0921173-.2091866.1517868-.3891315.1656837-.1259842.0092812-.2331982-.0237312-.3344135-.0625572-.061182-.0237312-.1173077-.0515594-.1784687-.0787888l-.2442474.1419411-.1505127-.0868988.2412205-.1401825-.1153908-.0666237-.2412205.1401825-.1505127-.086895.2501965-.145401-.2990208-.1726379c.069849-.0289688.1337261-.0556259.20158-.0834312.0301018.0173798.058197.0335999.0872974.0503998.0592022.0341797.0931816.0341911.1529999-.0005722.2033615-.1181831.4067745-.236393.610136-.3545723.0707436-.041111.0706196-.0712585.000349-.112957-.0100422-.006176-.0204201-.012291-.030941-.018364-.0210304-.0121422-.0426407-.0241203-.0633812-.0360947l.1585217-.0921211.2980175.1720581.2422485-.1407776.1505127.0868988-.2352734.1367264.1153927.0666199.2352715-.1367264.1505127.0868988-.2432766.1413765c.1093769.0631485.1638622.1419144.1770401.1795921.0467567.1297569-.1455803.2578087-.3195763.2577896-.0379963-.0000076-.0760555-.0046272-.1130505-.0063744l-.0019951.0034866.0110741.0121574c.0503236.0579416.0816728.1187707.0280419.1801645zm-.6325111-.0671845c.0971451.0237541.1681042.0162277.2308903-.022583.0598431-.0359383.0685902-.081707.0262909-.1350136-.0414867-.0534019-.1059132-.0950432-.1761074-.1355705-.0150661-.0086975-.030447-.0173302-.0458641-.0260429-.0133781-.0077248-.0276394-.0154533-.0413113-.0233498-.0068417-.0039482-.0135307-.0079384-.0198936-.0119896l-.3279743.1905975c.0272102.0162735.0541134.0325623.081501.0483742.0807742.0466347.1655349.08918.2724685.1155777zm.4176044-.6123428-.2950859.1714859c.0223103.013443.0444202.0268364.0668907.0398102.0616035.0355682.1258488.0680199.2029133.0905228.0841465.024334.1671371.0191154.225956-.0139046.0588245-.03302.0705395-.080513.0302811-.1291962-.0344315-.0426903-.084013-.0775795-.1398697-.1098289-.0290642-.0167771-.0598221-.0328484-.0910855-.0488892z" fill="#ffdd94"/></g><g><path d="m28.6606083 40.9590683-.0021801.6513252c-.0011234.3969269-.2621727.7933006-.783411 1.0962105-1.0477352.6088753-2.7529736.6094475-3.808567 0-.5310726-.3066139-.7961216-.7089767-.7949829-1.1106758l.0021782-.6513214c-.0011368.4016953.2639122.8040581.7949829 1.110672 1.0555954.6094475 2.7608337.6088791 3.808567 0 .5212402-.3029099.7822876-.6992836.7834129-1.0962105z" fill="#efa143"/></g><g><path d="m27.865778 39.8486176c1.0555954.6094475 1.0601292 1.5972176.0114174 2.2066612-1.0477333.6088791-2.7529716.6094475-3.808567 0-1.0555935-.6094475-1.0601826-1.597187-.0124493-2.2060623 1.0487117-.6094437 2.7540054-.6100464 3.8095989-.0005989zm-3.4622002 2.0120086c.8689613.5016975 2.2741699.5022774 3.1374741.0005798.864336-.5022964.8587379-1.3162422-.0102234-1.8179398-.8699627-.5022697-2.2741642-.5022736-3.1385002.0000229-.8633042.5016976-.8587132 1.3150674.0112495 1.8173371" fill="#ffdd94"/></g></g><g><g><path d="m25.217989 46.4196968c-.9399738.3401985-1.5600624-.1845665-1.3879852-1.1745529.1741333-.9890633 1.0756226-2.0665817 2.0155277-2.4067459.9379234-.3411179 1.5605278.186058 1.3879128 1.1745758-.1741296.9890709-1.0770646 2.0671081-2.0154553 2.406723z" fill="#ffdd94"/></g><g><path d="m25.3230743 45.3040695c-.1378937.0916519-.2621613.1227722-.3571568.0737953-.0660038-.0348892-.0766792-.1186867-.0783653-.2078819-.0006351-.0542908.0054054-.1120758.0084019-.1698227l-.2656155.0962257.0301647-.1723633.2623844-.0950546.022974-.1312637-.2623844.0950508.0299664-.1712189.2721443-.098587.0595322-.3401527c.0630531-.0121574.1208401-.023468.1817741-.0348511-.0059929.0342445-.0117874.0673485-.0173798.099308-.0119858.0684853.0032253.0800819.0682774.0565147.2211533-.0801163.4423046-.1602325.6634541-.2403488.0769901-.0278893.1103592-.0677757.1254597-.1480865.0024853-.0122986.0047302-.0245209.0068474-.0366135.0042324-.0241814.0079365-.0478516.0119305-.0706787l.1723309-.0624313-.0591316.3378716.2634411-.0954361-.0299664.1712189-.2558498.0926857-.022974.1312675.2558517-.0926857-.0301666.1723633-.2644997.0958176c-.0217743.1244202-.0852165.2489662-.1199245.302166-.1247425.1905861-.3519287.2878571-.4286919.2215881-.0156708-.014637-.0286274-.0334625-.0429001-.0507431l-.0135612.0252228c-.041834.0942687-.0955335.1864203-.1863672.2471236zm-.2060718-.3251877c.0165634.0677681.0562954.0843773.1269588.0577087.0663071-.0250854.1211987-.0834579.1617012-.1697617.0410213-.0861511.0587311-.1653023.0727062-.2451477.0030003-.0171432.0058403-.0343285.0087013-.0516167.0026646-.0152245.0049438-.0307808.0076675-.0463409.0013599-.0077705.0028343-.0155525.0045204-.0232925l-.3556042.1288261c-.0069389.0349197-.0139637.0696945-.0199451.1038628-.0155257.0887185-.0241107.1733437-.0067061.2457619zm.8646698-.6532135-.3209076.1162529c-.0051804.0264549-.0103035.052578-.0147839.0781822-.0122871.0702019-.0198193.1365395-.0106792.1951103.0101757.0636711.0526047.0878525.1153355.0661926.0626774-.021637.1206055-.0800362.1579285-.1598434.0310955-.0678101.0477085-.1322021.0587902-.1955185.0058879-.0336456.0102348-.0669975.0143165-.1003761z" fill="#efa143"/></g><g><path d="m25.6427822 47.211628c-.5659256.205162-1.037262.1515121-1.3408833-.1023483l-.4929829-.410553c.3055992.2547989.7754936.308979 1.3428612.1032906 1.1392021-.413002 2.2345181-1.7203445 2.4433575-2.9212341.106041-.6027107-.0329494-1.06567-.3411407-1.3228722l.4930573.4105377c.3081207.2572289.4466438.7186813.3410702 1.3228989-.2108212 1.1999358-1.3056012 2.508747-2.4453393 2.9202804z" fill="#ffdd94"/></g><g><path d="m27.5957794 43.8809814c-.2101612 1.2008209-1.3051434 2.5083618-2.4445381 2.9211273-1.1404572.4131508-1.8939648-.2247391-1.6838036-1.42556.2099628-1.1996765 1.3040829-2.5079765 2.44454-2.9211311 1.1393948-.4127655 1.8937627.2258873 1.6838017 1.4255638zm-3.7651501 1.3639985c-.1732025.9896431.4475842 1.515255 1.3875351 1.1747398.9388313-.340107 1.841217-1.4175186 2.0144196-2.4071617.1730042-.9885101-.4487-1.5148582-1.3875313-1.1747513-.9399509.3405151-1.8414211 1.418663-2.0144234 2.4071732" fill="#efa143"/></g></g><g><g><path d="m29.7106552 41.4120712c-.9399738.3401985-1.5600624-.1845665-1.3879833-1.1745529.1741314-.9890633 1.0756226-2.0665817 2.0155258-2.4067459.9379234-.3411179 1.5605278.186058 1.3879128 1.1745758-.1741295.9890709-1.0770646 2.067112-2.0154553 2.406723z" fill="#ffdd94"/></g><g><path d="m29.8157406 40.2964439c-.1378937.0916519-.2621613.1227722-.3571548.0737953-.0660038-.0348892-.0766792-.1186867-.0783672-.2078819-.0006351-.0542908.0054054-.1120758.0084019-.1698227l-.2656155.0962257.0301666-.1723633.2623844-.0950546.0229721-.1312637-.2623825.0950508.0299644-.1712189.2721443-.098587.0595322-.3401527c.063055-.0121536.120842-.023468.1817741-.0348511-.0059929.0342445-.0117855.0673485-.0173798.099308-.0119858.0684853.0032253.0800819.0682774.0565147.2211533-.0801163.4423065-.1602325.6634541-.2403488.0769901-.0278893.1103592-.0677757.1254616-.1480865.0024834-.0122986.0047302-.0245171.0068455-.0366135.0042324-.0241814.0079365-.0478516.0119324-.0706787l.1723309-.0624313-.0591335.3378754.2634411-.0954399-.0299644.1712189-.2558517.0926895-.022974.1312637.2558517-.0926857-.0301666.1723633-.2644978.0958214c-.0217762.1244164-.0852184.2489624-.1199265.3021622-.1247425.1905861-.3519287.2878571-.4286919.2215881-.0156708-.014637-.0286255-.0334625-.0429001-.0507431l-.0135612.0252228c-.0418341.0942687-.0955336.1864204-.1863672.2471236zm-.2060719-.3251876c.0165634.0677719.0562973.0843773.1269588.0577126.0663071-.0250893.1211987-.0834618.1617012-.1697655.0410213-.0861511.058733-.1653023.0727062-.2451477.0030003-.0171432.0058403-.0343285.0087032-.0516167.0026627-.0152245.0049419-.0307808.0076656-.0463409.0013599-.0077705.0028343-.0155525.0045204-.0232925l-.3556042.1288261c-.0069389.0349197-.0139637.0696945-.0199432.1038666-.0155275.0887145-.0241106.1733397-.006708.245758zm.8646698-.6532135-.3209057.1162529c-.0051823.0264549-.0103054.052578-.0147858.0781822-.0122871.0702019-.0198193.1365395-.0106792.1951103.0101757.0636711.0526047.0878525.1153374.0661964.0626774-.0216408.1206055-.08004.1579285-.1598473.0310936-.0678101.0477085-.1322021.0587883-.1955185.0058899-.0336455.0102367-.0669974.0143165-.100376z" fill="#efa143"/></g><g><path d="m30.1354485 42.2040062c-.5659256.2051582-1.037262.1515083-1.3408833-.1023483l-.4929829-.410553c.3055992.2547989.7754955.3089752 1.3428612.1032867 1.1392021-.413002 2.23452-1.7203445 2.4433594-2.9212341.106041-.6027107-.0329514-1.06567-.3411427-1.3228683l.4930592.4105339c.3081207.2572289.4466438.7186813.3410683 1.3228989-.2108193 1.1999358-1.3055993 2.508747-2.4453392 2.9202842z" fill="#ffdd94"/></g><g><path d="m32.0884476 38.8733597c-.2101631 1.2008171-1.3051434 2.508358-2.44454 2.9211235-1.1404572.4131508-1.8939629-.2247391-1.6838017-1.4255562.2099609-1.1996803 1.304081-2.5079803 2.4445381-2.9211349 1.1393948-.4127655 1.8937645.2258873 1.6838036 1.4255676zm-3.765152 1.3639946c-.1732025.9896431.4475842 1.515255 1.387537 1.1747398.9388294-.340107 1.841217-1.4175186 2.0144176-2.4071617.1730042-.9885101-.4487-1.5148582-1.3875294-1.1747513-.9399528.3405152-1.8414211 1.418663-2.0144252 2.4071732" fill="#efa143"/></g></g></g></svg>