<?xml version="1.0" encoding="iso-8859-1"?>
<!-- Generator: Adobe Illustrator 19.0.0, SVG Export Plug-In . SVG Version: 6.00 Build 0)  -->
<svg version="1.1" id="Capa_1" xmlns="http://www.w3.org/2000/svg" xmlns:xlink="http://www.w3.org/1999/xlink" x="0px" y="0px"
	 viewBox="0 0 512 512" style="enable-background:new 0 0 512 512;" xml:space="preserve">
<g>
	<polygon style="fill:#4F6F7F;" points="454.988,158.443 180.722,0 56.943,71.472 56.943,212.549 56.943,353.626 331.347,512 
		455.057,440.528 455.057,299.451 455.057,158.443 	"/>
	<polygon style="fill:#668892;" points="331.347,370.923 331.347,512 56.943,353.626 56.943,212.549 	"/>
	<g>
		<path style="fill:#394F63;" d="M137.383,378.318c-1.214,0-2.407-0.32-3.459-0.926l-28.385-16.385
			c-2.141-1.236-3.46-3.521-3.459-5.993v-83.831c0-2.472,1.318-4.757,3.459-5.993s4.779-1.236,6.92,0l28.385,16.385
			c2.141,1.236,3.46,3.521,3.459,5.993v83.831c0.001,1.835-0.728,3.596-2.026,4.893S139.219,378.318,137.383,378.318z
			 M115.917,351.02l14.547,8.399v-67.858l-14.547-8.399V351.02z"/>
		<path style="fill:#394F63;" d="M165.769,394.703c-1.214,0-2.407-0.32-3.459-0.926l-28.385-16.385
			c-2.141-1.236-3.46-3.521-3.459-5.993v-83.831c0-2.472,1.318-4.757,3.459-5.993c2.141-1.236,4.779-1.236,6.919,0l28.385,16.392
			c2.141,1.236,3.46,3.521,3.459,5.993v83.824c0.001,1.835-0.728,3.596-2.026,4.893
			C169.364,393.975,167.604,394.704,165.769,394.703z M144.302,367.405l14.547,8.399v-67.851l-14.547-8.399V367.405z"/>
		<path style="fill:#394F63;" d="M194.154,411.095c-1.214,0-2.407-0.32-3.459-0.926l-28.385-16.392
			c-2.141-1.236-3.46-3.521-3.459-5.993v-83.824c0-2.472,1.318-4.757,3.459-5.993c2.141-1.236,4.779-1.236,6.919,0l28.385,16.385
			c2.141,1.236,3.46,3.521,3.459,5.993v83.831c0.001,1.835-0.728,3.596-2.026,4.893
			C197.749,410.367,195.989,411.095,194.154,411.095z M172.687,383.79l14.547,8.399v-67.851l-14.547-8.399V383.79z"/>
		<path style="fill:#394F63;" d="M222.532,427.48c-1.214,0-2.407-0.319-3.459-0.926l-28.378-16.385
			c-2.141-1.236-3.46-3.521-3.459-5.993v-83.831c0-2.472,1.318-4.757,3.459-5.993c2.141-1.236,4.779-1.236,6.919,0l28.378,16.385
			c2.141,1.236,3.46,3.521,3.459,5.993v83.831c0.001,1.835-0.728,3.596-2.026,4.893C226.128,426.752,224.367,427.481,222.532,427.48
			z M201.073,400.182l14.541,8.392v-67.851l-14.541-8.392V400.182z"/>
		<path style="fill:#394F63;" d="M250.917,443.865c-1.214,0-2.407-0.32-3.459-0.926l-28.385-16.385
			c-2.141-1.236-3.46-3.521-3.459-5.993V336.73c0-2.472,1.318-4.757,3.459-5.993c2.141-1.236,4.779-1.236,6.919,0l28.385,16.385
			c2.141,1.236,3.46,3.521,3.459,5.993v83.831c0.001,1.835-0.728,3.596-2.026,4.893
			C254.513,443.137,252.752,443.866,250.917,443.865z M229.451,416.567l14.547,8.399v-67.858l-14.547-8.399V416.567z"/>
	</g>
	
		<ellipse transform="matrix(-0.505 -0.8631 0.8631 -0.505 98.1193 819.4397)" style="fill:#36B6D6;" cx="284.035" cy="381.584" rx="20.003" ry="11.548"/>
	<g>
		<path style="fill:#95C2D5;" d="M82.809,351.696c-1.835,0.001-3.596-0.728-4.894-2.025c-1.298-1.298-2.026-3.058-2.025-4.894
			v-91.216c0-3.821,3.098-6.919,6.919-6.919s6.919,3.098,6.919,6.919v91.216c0.001,1.835-0.728,3.596-2.025,4.894
			C86.405,350.968,84.644,351.697,82.809,351.696z"/>
		<path style="fill:#95C2D5;" d="M293.485,437.385c-1.212,0.001-2.403-0.318-3.453-0.926l-18.926-10.926
			c-3.308-1.912-4.441-6.142-2.531-9.451c1.91-3.309,6.14-4.444,9.45-2.536l18.926,10.926c2.714,1.566,4.038,4.761,3.225,7.787
			C299.364,435.287,296.618,437.389,293.485,437.385z"/>
		<path style="fill:#95C2D5;" d="M293.485,469.939c-1.212,0.001-2.403-0.318-3.453-0.926l-18.926-10.926
			c-3.308-1.912-4.441-6.142-2.531-9.451c1.91-3.309,6.14-4.444,9.45-2.536l18.926,10.926c2.714,1.566,4.038,4.761,3.225,7.787
			S296.618,469.943,293.485,469.939L293.485,469.939z"/>
	</g>
	<polygon style="fill:#4F6F7F;" points="455.057,299.451 455.057,440.528 331.347,512 331.347,370.923 	"/>
	<polygon style="fill:#394F63;" points="455.057,158.443 455.057,299.451 331.347,370.923 331.347,229.846 454.988,158.443 	"/>
	<polygon style="fill:#445C71;" points="454.988,158.443 331.347,229.846 56.943,71.472 180.722,0 	"/>
	<g>
		<path style="fill:#394F63;" d="M137.383,237.243c-1.214,0-2.407-0.32-3.459-0.926l-28.385-16.385
			c-2.141-1.236-3.46-3.521-3.459-5.993v-83.831c0-2.472,1.318-4.757,3.459-5.993s4.779-1.236,6.919,0l28.385,16.385
			c2.141,1.236,3.46,3.521,3.459,5.993v83.831c0.001,1.835-0.728,3.596-2.026,4.893S139.219,237.244,137.383,237.243z
			 M115.917,209.946l14.547,8.399v-67.858l-14.547-8.399V209.946z"/>
		<path style="fill:#394F63;" d="M165.769,253.628c-1.214,0-2.407-0.32-3.459-0.926l-28.385-16.385
			c-2.141-1.236-3.46-3.521-3.459-5.993v-83.831c0-2.472,1.318-4.757,3.459-5.993c2.141-1.236,4.779-1.236,6.919,0l28.385,16.385
			c2.141,1.236,3.46,3.521,3.459,5.993v83.831c0.001,1.835-0.728,3.596-2.026,4.893
			C169.364,252.901,167.604,253.629,165.769,253.628z M144.302,226.331l14.547,8.399v-67.858l-14.547-8.399V226.331z"/>
		<path style="fill:#394F63;" d="M194.154,270.02c-1.214,0-2.407-0.32-3.459-0.926l-28.385-16.392
			c-2.141-1.236-3.46-3.521-3.459-5.993v-83.831c0-2.472,1.318-4.757,3.459-5.993c2.141-1.236,4.779-1.236,6.92,0l28.385,16.392
			c2.141,1.236,3.46,3.521,3.459,5.993v83.831c0.001,1.835-0.728,3.596-2.026,4.893C197.749,269.292,195.989,270.021,194.154,270.02
			z M172.687,242.716l14.547,8.399v-67.852l-14.547-8.399V242.716z"/>
		<path style="fill:#394F63;" d="M222.532,286.405c-1.214,0-2.407-0.32-3.459-0.926l-28.378-16.385
			c-2.141-1.236-3.46-3.521-3.459-5.993V179.27c0-2.472,1.318-4.757,3.459-5.993c2.141-1.236,4.779-1.236,6.919,0l28.378,16.385
			c2.141,1.236,3.46,3.521,3.459,5.993v83.831c0.001,1.835-0.728,3.596-2.026,4.893
			C226.128,285.677,224.367,286.406,222.532,286.405z M201.073,259.108l14.541,8.392v-67.851l-14.541-8.392V259.108z"/>
		<path style="fill:#394F63;" d="M250.917,302.791c-1.214,0-2.407-0.32-3.459-0.926l-28.385-16.385
			c-2.141-1.236-3.46-3.521-3.459-5.993v-83.831c0-2.472,1.318-4.757,3.459-5.993s4.779-1.236,6.919,0l28.385,16.385
			c2.141,1.236,3.46,3.521,3.459,5.993v83.831c0.001,1.835-0.728,3.596-2.026,4.893
			C254.513,302.063,252.752,302.791,250.917,302.791z M229.451,275.493l14.547,8.399v-67.858l-14.547-8.399V275.493z"/>
	</g>
	
		<ellipse transform="matrix(-0.505 -0.8631 0.8631 -0.505 219.9027 607.1509)" style="fill:#36B6D6;" cx="284.052" cy="240.518" rx="20.003" ry="11.548"/>
	<g>
		<path style="fill:#95C2D5;" d="M82.809,210.622c-1.835,0.001-3.596-0.728-4.894-2.025s-2.026-3.058-2.025-4.894V112.48
			c0-3.821,3.098-6.919,6.919-6.919s6.919,3.098,6.919,6.919v91.223c0.001,1.835-0.728,3.596-2.025,4.894
			C86.405,209.894,84.644,210.623,82.809,210.622z"/>
		<path style="fill:#95C2D5;" d="M293.485,296.311c-1.212,0.001-2.403-0.318-3.453-0.926l-18.926-10.926
			c-3.308-1.912-4.441-6.142-2.531-9.451c1.91-3.309,6.14-4.444,9.45-2.536l18.926,10.926c2.714,1.566,4.038,4.761,3.225,7.787
			C299.364,294.213,296.618,296.315,293.485,296.311L293.485,296.311z"/>
		<path style="fill:#95C2D5;" d="M293.485,328.865c-1.212,0.001-2.403-0.318-3.453-0.926l-18.926-10.926
			c-3.308-1.912-4.441-6.142-2.531-9.451c1.91-3.309,6.14-4.444,9.45-2.536l18.926,10.926c2.714,1.566,4.038,4.761,3.225,7.787
			C299.364,326.766,296.618,328.869,293.485,328.865z"/>
	</g>
	<path style="fill:#445C71;" d="M455.055,158.374l-0.069,0.069"/>
</g>
<g>
</g>
<g>
</g>
<g>
</g>
<g>
</g>
<g>
</g>
<g>
</g>
<g>
</g>
<g>
</g>
<g>
</g>
<g>
</g>
<g>
</g>
<g>
</g>
<g>
</g>
<g>
</g>
<g>
</g>
</svg>
