<?xml version="1.0" encoding="UTF-8" standalone="no"?>
<svg
   xmlns:dc="http://purl.org/dc/elements/1.1/"
   xmlns:cc="http://creativecommons.org/ns#"
   xmlns:rdf="http://www.w3.org/1999/02/22-rdf-syntax-ns#"
   xmlns:svg="http://www.w3.org/2000/svg"
   xmlns="http://www.w3.org/2000/svg"
   xmlns:sodipodi="http://sodipodi.sourceforge.net/DTD/sodipodi-0.dtd"
   xmlns:inkscape="http://www.inkscape.org/namespaces/inkscape"
   id="Layer_1"
   enable-background="new 0 0 50 50"
   height="512"
   viewBox="0 0 50 50"
   width="512"
   version="1.1"
   sodipodi:docname="mining-hardware_2717159-m.svg"
   inkscape:version="1.0.2 (e86c870879, 2021-01-15)">
  <metadata
     id="metadata9128">
    <rdf:RDF>
      <cc:Work
         rdf:about="">
        <dc:format>image/svg+xml</dc:format>
        <dc:type
           rdf:resource="http://purl.org/dc/dcmitype/StillImage" />
        <dc:title></dc:title>
      </cc:Work>
    </rdf:RDF>
  </metadata>
  <defs
     id="defs9126" />
  <sodipodi:namedview
     pagecolor="#ffffff"
     bordercolor="#666666"
     borderopacity="1"
     objecttolerance="10"
     gridtolerance="10"
     guidetolerance="10"
     inkscape:pageopacity="0"
     inkscape:pageshadow="2"
     inkscape:window-width="1586"
     inkscape:window-height="1102"
     id="namedview9124"
     showgrid="false"
     inkscape:zoom="1.5115134"
     inkscape:cx="254.15871"
     inkscape:cy="227.76717"
     inkscape:window-x="2026"
     inkscape:window-y="230"
     inkscape:window-maximized="0"
     inkscape:current-layer="g9121" />
  <g
     id="g9121"
     style="display:inline">
    <g
       id="g10139"
       transform="matrix(2.361077,0,0,2.361077,-66.564804,-43.682297)">
      <g
         id="g8581">
        <g
           id="g8579">
          <g
             enable-background="new"
             id="g8577">
            <g
               id="g8565">
              <path
                 d="m 47.907513,28.413652 -1.49247,-0.86498 -0.01273,-7.737702 c 0,-0.233118 -0.0848,-0.398536 -0.216243,-0.474723 l 1.492492,0.864978 c 0.135685,0.08054 0.216248,0.241608 0.216248,0.479073 z"
                 fill="#b4bed7"
                 id="path8563" />
            </g>
            <g
               id="g8569">
              <path
                 d="m 45.270771,23.394148 -1.494175,-0.868319 -9.76e-4,-0.345293 1.494171,0.868319 z"
                 fill="#b4bed7"
                 id="path8567" />
            </g>
            <g
               id="g8573">
              <path
                 d="m 47.145412,19.909582 c 0.576619,-0.332912 1.049176,-0.06684 1.051052,0.59573 l 0.01239,7.736721 -0.300484,0.173487 -0.01239,-7.736721 c -0.0013,-0.47271 -0.338108,-0.661496 -0.749592,-0.423926 -0.408764,0.236002 -0.743362,0.812397 -0.74202,1.285107 l 9.42e-4,0.332973 c 0.0014,0.475916 -0.333236,1.058562 -0.750125,1.299254 l -0.384415,0.221941 -9.81e-4,-0.345293 0.384415,-0.221941 c 0.249054,-0.143791 0.451424,-0.494413 0.450611,-0.780468 l -9.42e-4,-0.332974 c -0.0019,-0.662571 0.464928,-1.470983 1.041539,-1.80389 z"
                 fill="#9da9c1"
                 id="path8571" />
            </g>
            <path
               d="m 46.397343,18.968763 c -0.190834,-0.110969 -0.455239,-0.09544 -0.746094,0.07246 -0.576611,0.332907 -1.043442,1.141367 -1.041554,1.803872 l 9.58e-4,0.333114 c 8.05e-4,0.285912 -0.201569,0.636624 -0.45063,0.780304 l -0.384407,0.221937 1.494179,0.8685 0.384407,-0.221937 c 0.249057,-0.143888 0.451431,-0.4946 0.450603,-0.780512 l -9.31e-4,-0.333114 c -0.0019,-0.662503 0.464916,-1.470963 1.041527,-1.803872 0.290878,-0.167902 0.55526,-0.183429 0.746117,-0.07246 z"
               fill="#e3e7f0"
               id="path8575" />
          </g>
        </g>
      </g>
      <g
         id="g8940">
        <g
           id="g8938">
          <g
             id="g8922">
            <g
               enable-background="new"
               id="g8920">
              <g
                 id="g8910">
                <path
                   d="M 37.24527,30.789211 48.905979,24.012747 48.888209,30.279102 37.2275,37.055569 Z"
                   fill="#272e3a"
                   id="path8908" />
              </g>
              <g
                 id="g8914">
                <path
                   d="m 31.793522,27.641643 11.660709,-6.776464 5.451748,3.147568 -11.660709,6.776464 z"
                   fill="#4c5671"
                   id="path8912" />
              </g>
              <g
                 id="g8918">
                <path
                   d="m 37.24527,30.789211 -0.01776,6.266358 -5.451748,-3.147568 0.01777,-6.266357 z"
                   fill="#373f51"
                   id="path8916" />
              </g>
            </g>
          </g>
          <path
             d="m 33.906959,29.180021 c -0.857635,-0.495176 -1.634525,-0.541078 -2.195486,-0.215269 l -2.223552,1.292229 c 0.560915,-0.32581 4.9247,7.199276 4.370927,7.521149 l 2.223553,-1.292229 c 0.553818,-0.321686 0.897099,-1.006279 0.899861,-1.97921 0.0056,-1.958416 -1.370869,-4.342684 -3.075303,-5.32667 z"
             fill="#9da9c1"
             id="path8924" />
          <path
             d="m 34.027847,32.658966 0.648346,-0.376778 -0.01776,6.266354 -0.648346,0.376778 z"
             fill="#272e3a"
             id="path8926" />
          <path
             d="m 28.576101,29.511398 0.648346,-0.376777 5.451746,3.147567 -0.648346,0.376778 z"
             fill="#4c5671"
             id="path8928" />
          <path
             d="m 34.027847,32.658966 -0.01777,6.266354 -5.451746,-3.147568 0.01777,-6.266354 z"
             fill="#373f51"
             id="path8930" />
          <g
             id="g8934">
            <path
               d="m 30.978434,31.619226 c 0.498424,0.635897 -0.357977,0.450682 0.217815,2.202628 -0.146538,-1.392712 1.181665,-1.804543 1.360346,-0.846775 0.141914,0.761402 -0.643547,-0.226754 -1.124523,1.009426 0.332187,-0.325501 0.876827,-0.190571 1.281337,0.04297 1.050534,0.606526 0.779599,1.274906 0.394318,1.052468 -0.206799,-0.119397 -0.58207,-0.769642 -1.517599,-0.804398 1.235304,0.524383 2.190031,2.836903 1.334181,2.342777 -0.38847,-0.224281 -0.266373,-0.659408 -0.72464,-1.323005 -0.183808,-0.307435 -0.442425,-0.57222 -0.630652,-0.758946 0.925394,1.335308 0.68009,3.107487 0.0397,2.280792 -0.479275,-0.611465 0.348068,-0.479278 -0.217823,-2.201023 0.146049,1.388062 -1.180603,1.808499 -1.360342,0.845169 -0.135243,-0.725384 0.659189,0.19653 1.121793,-1.003216 -0.67996,0.638974 -2.359298,-0.559204 -1.961879,-1.082744 0.28535,-0.366005 0.645002,0.750431 1.803846,0.784012 -1.139284,-0.482617 -2.128796,-2.591879 -1.410963,-2.375002 0.02697,0.008 0.05403,0.02002 0.0807,0.03542 0.133036,0.07681 0.256224,0.238512 0.307758,0.415144 0.196621,0.681794 0.539358,1.161202 1.044979,1.662793 -0.448532,-0.646168 -0.717144,-1.539227 -0.540653,-2.328152 0.04718,-0.216543 0.297205,-0.212086 0.502301,0.04967 z"
               fill="#d3dbea"
               id="path8932" />
          </g>
          <path
             d="m 31.300661,31.42388 c 1.341257,0.774374 2.428621,2.657751 2.424254,4.198972 -0.0044,1.540386 -1.098839,2.164078 -2.440096,1.389702 -1.340552,-0.773968 -2.427916,-2.657341 -2.423548,-4.197727 0.0044,-1.54122 1.098841,-2.164913 2.43939,-1.390947 z m -2.361114,1.43614 c -0.0022,0.773822 0.280717,1.636814 0.734869,2.393299 l 0.222148,-0.127403 c -0.397213,-0.657868 -0.645124,-1.410565 -0.643213,-2.084721 0.0019,-0.675785 0.253987,-1.141445 0.655037,-1.338434 l -0.221411,-0.382658 c -0.456947,0.230465 -0.745231,0.764427 -0.74743,1.539917 m 3.961076,4.255951 c 0.456242,-0.23087 0.743115,-0.764897 0.745308,-1.53872 0.0022,-0.775489 -0.280712,-1.639232 -0.735565,-2.396122 l -0.222149,0.126564 c 0.397919,0.659115 0.64653,1.413006 0.644615,2.088791 -0.0019,0.674157 -0.253273,1.139389 -0.652916,1.337197 z m -1.615551,-0.193318 c 0.596585,0.344437 1.141716,0.401879 1.558262,0.220307 l -0.221409,-0.383492 c -0.359245,0.149704 -0.825983,0.09692 -1.33583,-0.197433 -0.50914,-0.293953 -0.975357,-0.779816 -1.331873,-1.34277 l -0.222859,0.126995 c 0.41416,0.661183 0.957833,1.232361 1.553709,1.576393 m 0.01533,-5.408035 c -0.595171,-0.343624 -1.13959,-0.402281 -1.555432,-0.221096 l 0.220705,0.383087 c 0.359242,-0.148914 0.825274,-0.09575 1.33371,0.197792 0.509142,0.293953 0.974659,0.778622 1.331177,1.340779 l 0.222851,-0.126995 c -0.414154,-0.66039 -0.957129,-1.229535 -1.553009,-1.573567 m 1.101871,4.738197 0.222111,0.384693 c 0.385494,-0.189727 0.628326,-0.636371 0.630169,-1.286216 0.0018,-0.651474 -0.238365,-1.377797 -0.622227,-2.011753 l -0.223568,0.127422 c 0.327637,0.535709 0.533554,1.151344 0.53199,1.703155 -0.0016,0.550187 -0.209583,0.925992 -0.538475,1.082699 m -2.216949,-4.070392 -0.222115,-0.3839 c -0.386194,0.189365 -0.629736,0.636391 -0.631582,1.287865 -0.0018,0.649845 0.237667,1.374969 0.620121,2.008072 l 0.223562,-0.127385 c -0.326223,-0.534935 -0.532143,-1.149734 -0.530582,-1.69992 0.0016,-0.551808 0.210996,-0.927639 0.540596,-1.084732 m 1.407936,2.668289 0.202427,0.350605 c 0.172535,-0.06595 0.282543,-0.251587 0.283329,-0.528725 7.89e-4,-0.278763 -0.108509,-0.591846 -0.280815,-0.856895 l -0.202332,0.114494 c -0.08348,0.04757 -0.192923,0.0323 -0.301523,-0.0304 -0.109303,-0.06311 -0.217764,-0.173638 -0.300703,-0.317299 l -0.201027,-0.348164 c -0.173943,0.06593 -0.284662,0.251992 -0.285454,0.530754 -7.84e-4,0.277138 0.107815,0.588986 0.27941,0.853623 l 0.20446,-0.115689 c 0.08348,-0.04758 0.192215,-0.03267 0.301517,0.03044 0.109305,0.06311 0.217768,0.173591 0.300711,0.317253 m -1.360296,0.209713 -0.223561,0.126591 c 0.343165,0.53899 0.788958,1.00333 1.276945,1.285068 0.488692,0.282147 0.935658,0.333244 1.280045,0.192001 L 32.344986,36.2798 c -0.287083,0.110215 -0.655662,0.06461 -1.057615,-0.167457 -0.401251,-0.231659 -0.769587,-0.611519 -1.054405,-1.051918 m 2.118848,-1.686405 0.222855,-0.126995 C 32.232208,32.709229 31.787117,32.24609 31.29913,31.96435 30.812553,31.683426 30.365591,31.631536 30.021208,31.771946 l 0.221405,0.384327 c 0.287083,-0.109425 0.654951,-0.0626 1.055494,0.168655 0.401249,0.231659 0.768181,0.609074 1.053707,1.049092 m -1.890257,-0.713131 -0.221408,-0.382656 c -0.315447,0.148178 -0.51565,0.506614 -0.517147,1.034114 -0.0015,0.525082 0.195329,1.111908 0.508197,1.623677 l 0.222151,-0.12661 c -0.255934,-0.413155 -0.417747,-0.889679 -0.41654,-1.315888 0.0012,-0.427841 0.165903,-0.71669 0.424747,-0.832637 m 1.66519,3.114658 0.220703,0.382294 c 0.314038,-0.149033 0.513535,-0.507836 0.515026,-1.032917 0.0015,-0.526711 -0.195324,-1.114323 -0.508896,-1.626499 l -0.222148,0.126567 c 0.256641,0.413563 0.419155,0.891323 0.417942,1.319161 -0.0012,0.426212 -0.165188,0.714638 -0.422627,0.831394 m -1.614328,-0.87439 -0.22427,0.127808 c 0.271465,0.416447 0.619388,0.773151 0.999479,0.9926 0.380093,0.219444 0.729599,0.265399 1.002533,0.163261 l -0.222813,-0.385929 c -0.21422,0.07113 -0.484638,0.03266 -0.778701,-0.137119 -0.293356,-0.169373 -0.563105,-0.442769 -0.776228,-0.760621 m 1.559938,-1.36787 0.22427,-0.127808 C 32.025158,32.99062 31.677242,32.633911 31.297852,32.414871 30.91917,32.19624 30.57037,32.149902 30.298142,32.251652 l 0.222816,0.385933 c 0.214218,-0.07033 0.483225,-0.03189 0.775875,0.137073 0.293356,0.169369 0.561697,0.441166 0.775524,0.758629 m -1.33527,-0.39434 -0.220705,-0.38229 c -0.244695,0.10712 -0.400156,0.379322 -0.401298,0.782058 -0.0011,0.401108 0.151569,0.850445 0.393451,1.238446 l 0.222149,-0.126568 c -0.184946,-0.289429 -0.303356,-0.628868 -0.302499,-0.931107 8.62e-4,-0.303867 0.121513,-0.506118 0.308902,-0.580539 m 1.114132,2.158588 0.220001,0.381844 c 0.243988,-0.107487 0.398739,-0.379311 0.399876,-0.780419 0.0011,-0.402737 -0.152267,-0.853264 -0.395557,-1.242126 l -0.222147,0.126613 c 0.186353,0.2902 0.304762,0.630474 0.303899,0.934338 -8.54e-4,0.302242 -0.120094,0.504475 -0.306072,0.57975 m -1.058637,-0.55603 -0.22427,0.127807 c 0.19906,0.293488 0.449095,0.545769 0.72059,0.702519 0.2722,0.157154 0.522845,0.193939 0.72292,0.13089 l -0.222817,-0.385933 c -0.141359,0.03283 -0.312912,0.002 -0.49908,-0.105534 -0.185463,-0.107075 -0.356629,-0.274063 -0.497343,-0.469749 m 0.998907,-1.04818 0.22427,-0.127811 C 31.817406,33.272438 31.568073,33.021351 31.296577,32.864605 31.025789,32.708263 30.77585,32.671097 30.576485,32.733761 l 0.222814,0.385929 c 0.140654,-0.03244 0.312205,-7.71e-4 0.496256,0.105492 0.184759,0.10667 0.355927,0.272865 0.495934,0.468143 m -0.05801,1.526459 -0.195406,-0.337612 c -0.06756,-0.117436 -0.1568,-0.208145 -0.246212,-0.259766 -0.08917,-0.05148 -0.178526,-0.0641 -0.246708,-0.02566 l -0.19668,0.112079 c 0.125948,0.172543 0.278102,0.318031 0.441705,0.412487 0.164309,0.09486 0.31679,0.125256 0.443301,0.09847 m -0.878653,-2.003918 0.193291,0.335594 c 0.06783,0.117058 0.1571,0.207569 0.246395,0.259125 0.0893,0.05156 0.17861,0.06415 0.246526,0.02546 L 31.7356,33.72517 c -0.125246,-0.170509 -0.276698,-0.315586 -0.4403,-0.410042 -0.162896,-0.09405 -0.314673,-0.124038 -0.440472,-0.09926"
             fill="#9da9c1"
             id="path8936" />
        </g>
      </g>
      <g
         id="g9007">
        <g
           id="g8975">
          <path
             d="m 46.108578,23.950853 -8.900025,5.139649 -2.609985,-1.52002 8.890015,-5.139648 z"
             fill="#d3dbea"
             id="path8973" />
        </g>
        <g
           id="g8981">
          <g
             id="g8979">
            <path
               d="m 35.883968,27.568933 1.328099,0.771807 7.603611,-4.389946 -1.328099,-0.771807 z"
               fill="#272e3a"
               id="path8977" />
          </g>
        </g>
        <g
           id="g9005">
          <g
             id="g8985">
            <path
               d="m 42.252304,19.558746 c -0.485939,-0.282556 -1.165272,-0.243091 -1.909073,0.18837 -1.487594,0.85784 -2.682651,2.93549 -2.677688,4.646324 0,0.842827 0.297538,1.437964 0.783477,1.720763 l -0.699188,-0.406765 c -0.485939,-0.277716 -0.783447,-0.877694 -0.783447,-1.72052 -0.005,-1.705994 1.190063,-3.788485 2.677662,-4.646325 0.743797,-0.431461 1.42313,-0.471168 1.909099,-0.188369 z"
               fill="#ffdd94"
               id="path8983" />
          </g>
          <g
             id="g8989">
            <path
               d="m 40.342293,19.74712 c 1.484825,-0.857266 2.691803,-0.165724 2.69664,1.540331 0.0048,1.702503 -1.19429,3.783207 -2.679119,4.64047 -1.484825,0.857266 -2.691807,0.165726 -2.696633,-1.536777 -0.0048,-1.706057 1.194283,-3.786759 2.679112,-4.644024 z"
               fill="#efa143"
               id="path8987" />
          </g>
          <g
             id="g9003">
            <g
               id="g8993">
              <path
                 d="m 42.490723,21.601866 c 0.005,1.358547 -0.952057,3.014904 -2.132221,3.694055 -1.180161,0.684481 -2.142144,0.133894 -2.147107,-1.224653 -0.0049,-1.358789 0.952084,-3.010061 2.132248,-3.694298 1.180165,-0.679395 2.142143,-0.133894 2.14708,1.224896 z"
                 fill="#ffdd94"
                 id="path8991" />
            </g>
            <g
               id="g9001">
              <g
                 enable-background="new"
                 id="g8999">
                <g
                   id="g8997">
                  <path
                     d="m 41.243423,22.474945 c 0.06484,0.184238 0.04406,0.409678 -0.0803,0.666393 -0.08884,0.182753 -0.217155,0.301833 -0.352653,0.413042 -0.07845,0.06178 -0.160481,0.117156 -0.246075,0.179053 l 0.0013,0.446861 -0.242622,0.140078 -0.0012,-0.438628 -0.181965,0.105057 0.0012,0.438629 -0.239063,0.138024 -0.0013,-0.455097 -0.474517,0.273963 c 0.01751,-0.121057 0.0315,-0.231845 0.04545,-0.346624 0.04996,-0.02885 0.09277,-0.05356 0.139149,-0.08034 0.09636,-0.05563 0.121243,-0.09873 0.120926,-0.20928 -0.0011,-0.373246 -0.0021,-0.746266 -0.0032,-1.119284 -3.62e-4,-0.12722 -0.03975,-0.153725 -0.153946,-0.0918 -0.04994,0.02883 -0.0999,0.05768 -0.149845,0.08651 l -8.12e-4,-0.287161 0.470962,-0.27191 -0.0013,-0.446861 0.239063,-0.138024 0.0012,0.430622 0.181968,-0.105058 -0.0012,-0.43062 0.242618,-0.140078 0.0013,0.446861 c 0.171264,-0.09888 0.324905,-0.113619 0.385681,-0.09946 0.21455,0.03632 0.237019,0.405212 0.09834,0.645468 l -0.0961,0.14594 2.3e-5,0.0082 0.02858,-0.0085 c 0.117882,-0.01861 0.228676,-0.01706 0.268329,0.103966 z m -0.590942,0.81752 c 0.106895,-0.115194 0.153061,-0.219826 0.149178,-0.332544 -3.28e-4,-0.114775 -0.05766,-0.159655 -0.164814,-0.147247 -0.099,0.01326 -0.202092,0.06476 -0.306774,0.125202 -0.06155,0.03554 -0.123661,0.07408 -0.185742,0.109918 l 0.0017,0.598557 c 0.04641,-0.02567 0.09279,-0.05089 0.139087,-0.07762 0.124462,-0.07186 0.247883,-0.153371 0.367367,-0.276264 m -0.514053,-1.058481 0.0015,0.541182 c 0.03863,-0.02119 0.07637,-0.04187 0.113568,-0.06334 0.09686,-0.05592 0.189655,-0.117072 0.282371,-0.206248 0.09981,-0.09461 0.156639,-0.213646 0.159908,-0.318241 -3.01e-4,-0.106541 -0.05405,-0.161737 -0.154075,-0.145199 -0.08708,0.01418 -0.177368,0.0565 -0.269799,0.109866 -0.04406,0.02544 -0.0886,0.05339 -0.133506,0.08198"
                     fill="#efa143"
                     id="path8995" />
                </g>
              </g>
            </g>
          </g>
        </g>
      </g>
      <g
         id="XMLID_14810_"
         transform="matrix(0.11601116,-0.07320517,0.0105182,0.12444561,37.251884,21.60764)">
        <g
           id="XMLID_14814_">
          <g
             id="XMLID_14815_">
            <path
               d="m 23.994,1.038 c -12.673,0 -22.957,10.284 -22.957,22.968 0,12.673 10.284,22.957 22.957,22.957 12.673,0 22.968,-10.284 22.968,-22.957 0,-12.685 -10.295,-22.968 -22.968,-22.968 z"
               fill="#ffcc66"
               id="path9981" />
            <path
               d="M 23.994,0 C 10.744,0 0,10.745 0,24.006 0,37.256 10.744,48 23.994,48 37.244,48 48,37.256 48,24.006 48,10.745 37.243,0 23.994,0 Z m 0,44.254 c -11.187,0 -20.248,-9.061 -20.248,-20.248 0,-11.187 9.061,-20.26 20.248,-20.26 11.187,0 20.248,9.074 20.248,20.26 0,11.187 -9.061,20.248 -20.248,20.248 z"
               fill="#e0ae55"
               id="path9983" />
            <g
               fill="#ffffff"
               id="g9988">
              <path
                 id="XMLID_14818_"
                 d="M 24.797,9.821 28.386,9.024 24.797,8.227 24,4.638 23.203,8.227 19.613,9.024 23.202,9.821 24,13.411 Z" />
              <path
                 id="XMLID_14817_"
                 d="m 22.649,38.608 3.626,-0.806 -3.625,-0.805 -0.806,-3.625 -0.805,3.625 -3.625,0.805 3.625,0.806 0.805,3.625 z" />
              <path
                 id="XMLID_14816_"
                 d="m 40.904,24.051 3.11,-0.69 -3.11,-0.691 -0.69,-3.109 -0.691,3.109 -3.11,0.691 3.11,0.69 0.691,3.11 z" />
            </g>
          </g>
        </g>
        <g
           id="XMLID_14811_"
           fill="#ffffff">
          <path
             id="XMLID_14813_"
             d="m 31.748,15.171 -7.765,9.018 -7.731,-9.018 -4.665,19.221 h 4.665 l 2.507,-10.203 5.224,6.269 5.258,-6.269 2.507,10.203 h 4.665 z" />
          <path
             id="XMLID_14812_"
             d="M 31.437,13.348 30.836,12.826 24,17.679 l -4.114,-4.171 -1.604,1.203 4.933,5.254 z" />
        </g>
      </g>
      <g
         id="g10035"
         fill="#ffffff"
         transform="matrix(0.1363923,-0.06760755,0,0.13521511,39.896999,29.002231)">
        <g
           id="g10072"
           transform="matrix(0.95299295,-0.1095154,0.08640351,1.0393964,-0.8650035,2.062335)">
          <g
             fill="#ffffff"
             id="g10025"
             transform="translate(0.18197039,-0.64393713)"
             style="display:inline">
            <path
               id="path10019"
               d="M 24.797,9.821 28.386,9.024 24.797,8.227 24,4.638 23.203,8.227 19.613,9.024 23.202,9.821 24,13.411 Z" />
            <path
               id="path10021"
               d="m 22.649,38.608 3.626,-0.806 -3.625,-0.805 -0.806,-3.625 -0.805,3.625 -3.625,0.805 3.625,0.806 0.805,3.625 z" />
            <path
               id="path10023"
               d="m 40.904,24.051 3.11,-0.69 -3.11,-0.691 -0.69,-3.109 -0.691,3.109 -3.11,0.691 3.11,0.69 0.691,3.11 z" />
          </g>
          <path
             id="path10031"
             d="m 31.748,15.171 -7.765,9.018 -7.731,-9.018 -4.665,19.221 h 4.665 l 2.507,-10.203 5.224,6.269 5.258,-6.269 2.507,10.203 h 4.665 z" />
        </g>
        <path
           id="path10033"
           d="M 31.437,13.348 30.836,12.826 24,17.679 l -4.114,-4.171 -1.604,1.203 4.933,5.254 z" />
      </g>
    </g>
  </g>
</svg>
