<svg id="Layer_1" enable-background="new 0 0 50 50" height="512" viewBox="0 0 50 50" width="512" xmlns="http://www.w3.org/2000/svg"><g><g><g><g fill="#4c5671"><path d="m9.4024563 25.7956066-.8890209-.5166416-.9111505.5260525.8890214.5166416z"/><path d="m28.7455673 36.9599915-.8890209-.5166436-.91115.5260544.8890209.5166435z"/><path d="m23.055109 17.9108162-.8890209-.5166416-.9111519.5260525.8890209.5166435z"/></g><path d="m8.3222303 26.2258472.0021019.7415448 14.5680075-8.4108429-.0021019-.7415448z" fill="#b4bed7"/><path d="m41.6740723 29.4960308-.0021057.7415447-20.2321301-11.6810264.0021019-.7415448z" fill="#b4bed7"/><path d="m7.5937066 25.7974911 20.2293663 11.6829624 14.5805302-8.3999844-20.2477231-11.6829624zm20.2583232 10.7111301-18.5839424-10.7279606 12.8586464-7.4113216 18.6024914 10.7279606z" fill="#e3e7f0"/></g></g><g><path d="m7.596776 33.7762718 20.2251234 11.6776352 14.5844154-8.4076652-20.240736-11.6776371z" fill="#96d696"/><path d="m7.596776 33.7762718v.7494469l20.2308779 11.6666946 14.5688-8.4069061v-.7334518l-14.5688 8.407669z" fill="#47a047"/></g><g><g><g><path d="m12.7514696 25.0593014-1.289525-1.8118458 10.9447269-6.3189392 2.2066307 1.2823543z" fill="#4c5671"/><g><g><path d="m14.8905363 25.6510792-1.5820436 4.1390419-.5437165.3139152-.0091295-3.2203769z" fill="#7bb1ff"/></g><g><path d="m16.8395214 24.5258331-1.5820436 4.1390419-1.2113686.6993847 1.5820427-4.1390419z" fill="#7bb1ff"/></g><g enable-background="new"><g><path d="m22.9129276 22.6321793c.0033798 1.192091-.7994328 2.6334534-1.8166523 3.3104916l-.0008335-.293972c.8772984-.5940094 1.564537-1.8397007 1.5616188-2.8687954-.0008602-.3031979-.0636368-.5521717-.1703033-.7459717l.2214718-.275156c.1287746.2247275.2036895.517372.2046985.8734035z" fill="#272e3a"/></g><g><path d="m21.0924931 24.6082611c.3781662-.2995892.6643429-.8477726.6630383-1.3078594-.0003204-.1135254-.0181599-.2123222-.0505257-.2944908l.4266071-.5300274c.0724926.1445084.1130505.3259277.1136627.5417633.002182.7695141-.5017605 1.6954384-1.1511745 2.1578732z" fill="#272e3a"/></g><g><path d="m20.9346104 21.8855515c.5477142-.3162231 1.0323486-.2832222 1.3315372.0203609l-.2214661.2750301c-.2529716-.2427692-.6554718-.2633953-1.1092377-.0014133-.4537697.2619839-.8548431.7465534-1.1076088 1.2813129l-.2222996-.0188255c.2964994-.6475029.7813569-1.2402401 1.329075-1.5564651z" fill="#272e3a"/></g><g><path d="m20.9335308 21.5042248c.669651-.3866234 1.2644386-.3412075 1.6219215.0413132l-.2214642.2775192c-.3132629-.3230438-.8239269-.3572388-1.3996258-.0248604-.5777016.3335381-1.086504.9563236-1.3969154 1.6394444l-.222311-.021307c.3541489-.7933808.9467412-1.5243302 1.6183949-1.9121094z" fill="#272e3a"/></g><g><path d="m20.7946892 26.2065392.0009575.3375874c.0499821-.0242329.0999737-.0484791.1519489-.0784874-.7698936.4444981-1.4548492.4131889-1.884737.002203-.2933884-.2804718-.4679718-.7378807-.4696827-1.3416538-.0015278-.5384731.1347656-1.1194496.3705406-1.6769695-.0452213.1077404-.0853996.2171936-.1240864.3291454l.2563477.0198841c-.1330414.3921127-.2080116.7850208-.206955 1.1571331.0035153 1.240446.8459606 1.7732333 1.9056664 1.2511577z" fill="#272e3a"/></g><g><path d="m23.0314541 21.3582134-.2553921.3153381c.1348209.2374611.2137699.5415039.2148247.9136181.0035172 1.2404442-.8331585 2.742672-1.8943558 3.4451027l.0009556.3375874c-.0499611.0334682-.0999222.0669308-.1498909.0957794-.0519753.0300083-.1019669.0542545-.1519489.0784874l-.0009575-.3375874c-1.0597057.5220757-1.9021511-.0107117-1.9056664-1.2511578-.0010567-.3721123.0739136-.7650204.206955-1.1571331l-.2563477-.0198841c.0386868-.1119518.0788651-.221405.1240864-.3291454.0081711-.0195713.0164566-.0389614.0249844-.058363l.2583485.0211029c.3680592-.8313713.9845905-1.5922432 1.6862259-1.9973335.6996307-.4039326 1.3184605-.3562946 1.6900177.0480576l.2573853-.318861c.0562361.0618954.1044959.1352635.1507758.2143917zm-2.0888329 3.3525563c.0511932-.0295582.1012974-.063982.1498718-.1025085l.0016079.5672588c.6494141-.4624348 1.1533566-1.3883591 1.1511745-2.1578732-.0006123-.2158356-.0411701-.3972549-.1136627-.5417633l-.4266071.5300274c-.0354424-.0901318-.0883598-.1603127-.15481-.2085705l.4266529-.5311737c-.2389069-.2255478-.6173763-.241703-1.041151.0029621-.4257793.2458248-.8009205.6970768-1.0397682 1.1984577l.4286575.0369835c-.0661507.1249447-.1186314.2561016-.153511.3869572l-.4282188-.0364952c-.0714359.2276058-.110836.4551888-.1102238.6710262.0021801.7695141.5097179 1.1114597 1.159626.8237305l-.0016079-.5675106c.0492573-.017828.1000443-.0415306.1519699-.0715084m1.9703064-2.0785904c-.001009-.3560314-.0759239-.6486759-.2046986-.8734035l-.2214718.275156c.1066666.1938.1694431.4427738.1703033.7459717.0029182 1.0290947-.6843204 2.274786-1.5616188 2.8687954l.0008335.293972c1.0172197-.6770383 1.8200322-2.1184007 1.8166524-3.3104916m-2.1184921 3.4847602-.0008335-.293972c-.8757915.4181366-1.5698376-.0300694-1.5727539-1.059166-.0008602-.303196.060297-.623724.1655235-.9398594l-.2222996-.0189476c-.1270866.3724499-.198101.7493458-.1970901 1.1053772.0033779 1.1920911.8097267 1.7044049 1.8274536 1.2065678m-.0010815-.3813324-.0008411-.2963409c-.6918888.312088-1.2355213-.0504532-1.2378387-.8681984-.000658-.2319126.042696-.4778805.1200886-.7226524l-.2223034-.0189419c-.0972595.3000507-.154459.6045666-.1536522.8893185.0027809.9808712.6607227 1.4084777 1.4945468 1.0168151m1.6275635-3.619976-.2214699.2751579c.0785294.1547489.1231289.3499374.1237869.5818481.0023193.8177452-.5354862 1.8046551-1.2288799 2.2923603l.0008411.2963428c.8333149-.5708637 1.4866867-1.7555561 1.4839058-2.7364273-.0008067-.2847518-.0595455-.5223311-.158184-.7092818m-1.4873867-.6114063c-.6716537.3877792-1.264246 1.1187286-1.6183949 1.9121094l.222311.021307c.3104115-.6831207.8192139-1.3059063 1.3969154-1.6394444.5756989-.3323784 1.0863628-.2981834 1.3996258.0248604l.2214642-.2775192c-.3574829-.3825207-.9522705-.4279366-1.6219215-.0413132m1.1111507.6767177.2214661-.2750301c-.2991886-.3035831-.783823-.3365841-1.3315372-.0203609-.547718.3162251-1.0325756.9089622-1.3290749 1.5564651l.2222996.0188255c.2527657-.5347595.6538391-1.0193291 1.1076088-1.2813129.4537658-.261982.856266-.2413559 1.1092376.0014133" fill="#9da9c1"/></g><g><path d="m20.7906513 24.7822781.0016079.5675106c-.6499081.2877293-1.1574459-.0542164-1.159626-.8237305-.0006123-.2158375.0387878-.4434204.1102238-.6710262l.4282188.0364952c-.0318127.1192226-.0490208.2382507-.0487003.351778.0013027.459465.2889576.6760883.6682758.5389729z" fill="#272e3a"/></g><g><path d="m20.9372959 22.8318977c.2435493-.1406116.4627895-.1437416.6129036-.034565.0664463.0482635.1193638.1184425.1548119.2085686.0323639.0821724.0501995.1809673.0505219.2944946.0013046.4600906-.284874 1.0082684-.6630383 1.3078613-.0485764.0385303-.0986786.0729485-.1498737.1025066-.0519238.0299778-.1027107.0536842-.151968.0715122-.3793163.1371155-.6669712-.0795116-.6682739-.5389786-.0003204-.1135273.0168858-.2325554.0486965-.351778.0348797-.1308537.0873623-.2620106.153513-.3869534.1492251-.2817533.3681811-.5314901.612707-.6726683z" fill="#7bb1ff"/></g><g><path d="m21.5501957 22.7973404c-.1501141-.1091805-.3693562-.1060505-.6129017.0345612-.2445297.1411781-.4634838.3909187-.6127071.6726685l-.4286575-.0369835c.2388477-.5013809.6139889-.9526329 1.0397682-1.1984577.4237747-.2446651.8022442-.2285099 1.041151-.0029621z" fill="#272e3a"/></g><g><path d="m18.9669819 24.9103718c-.0010109-.3560314.0700035-.7329273.1970901-1.1053772l.2222996.0189476c-.1052265.3161354-.1663837.6366634-.1655235.9398594.0029163 1.0290966.6969624 1.4773026 1.5727539 1.059166l.0008335.293972c-1.0177269.497837-1.8240757-.0144768-1.8274536-1.2065678z" fill="#272e3a"/></g><g><path d="m22.8157406 21.0754662c.2930012.280817.4672813.7382774.4689922 1.3420506s-.1694031 1.2607708-.4598522 1.8783207c-.4255886.9048958-1.1073971 1.7253075-1.877285 2.1698017.0499687-.0288486.0999298-.0623112.1498909-.0957794l-.0009556-.3375874c1.0611973-.7024307 1.8978729-2.2046585 1.8943558-3.4451027-.0010548-.3721142-.0800037-.676157-.2148247-.9136181l.2553921-.3153381c-.0462799-.0791283-.0945396-.1524963-.1507759-.2143917l-.2573853.318861c-.3715572-.4043522-.990387-.4519901-1.6900177-.0480576-.7016354.4050903-1.3181667 1.1659622-1.6862259 1.9973335l-.2583427-.0211067c.0209599-.0479259.0426254-.0957584.0650349-.1433964.4261551-.9052238 1.1086845-1.7259274 1.8785782-2.1704254.769886-.4444943 1.4541053-.4128838 1.8834209-.001564z" fill="#272e3a"/></g></g><g><path d="m22.8157406 21.0754662 1.80373-1.0413857.0091305 3.2203789-1.8037205 1.041378c.2904491-.6175499.4615631-1.2745476.4598522-1.8783207s-.175991-1.0612335-.4689922-1.3420505z" fill="#7bb1ff"/></g><g><path d="m18.9887009 23.3908558c-.0085278.0194016-.0168133.0387917-.0249844.058363-.235775.5575199-.3720684 1.1384964-.3705406 1.6769695.0017109.6037731.1762943 1.061182.4696827 1.3416538l-3.0657663 1.7700214 1.5820398-4.1390419 1.4746094-.851366c-.0224095.0476379-.0440751.0954704-.0650406.1434002z" fill="#7bb1ff"/></g><g><path d="m19.2988071 24.718792c-.0008068-.2847519.0563927-.5892677.1536522-.8893185l.2223034.0189419c-.0773926.244772-.1207466.4907398-.1200886.7226524.0023174.8177452.5459499 1.1802864 1.2378387.8681984l.0008411.2963409c-.833824.3916626-1.4917658-.0359439-1.4945468-1.0168151z" fill="#272e3a"/></g><g><path d="m21.0951958 25.5613403-.0008411-.2963428c.6933937-.4877052 1.2311993-1.4746151 1.2288799-2.2923603-.000658-.2319107-.0452576-.4270992-.1237869-.5818481l.2214699-.2751579c.0986385.1869507.1573772.42453.1581841.7092819.0027808.9808711-.650591 2.1655635-1.4839059 2.7364272z" fill="#272e3a"/></g><g><path d="m19.0537415 23.2474556-1.4746094.851366-1.5820398 4.1390419 3.0657663-1.7700214c.4298878.4109859 1.1148434.4422951 1.884737-.002203.7698879-.4444942 1.4516964-1.2649059 1.877285-2.1698017l1.8037205-1.041378.0051708 1.8237801-11.8638296 6.8495845-.0051708-1.8237801.5437183-.3139153 1.5820408-4.1390419-2.1348886 1.2325783-.0051708-1.8237858 11.8638306-6.8495846.0051689 1.8237858-1.80373 1.0413857c-.4293156-.4113197-1.1135349-.4429302-1.8834209.001564-.7698938.4444981-1.4524233 1.2652017-1.8785783 2.1704255zm-3.7962656 5.4174252 1.5820417-4.1390419-1.2113657.6993828-1.5820456 4.1390438z" fill="#373f51"/></g></g></g><g><g enable-background="new"><g><path d="m11.650754 30.9572659.0203705.7905178.1368608-.0964642.0062494-.6721916c0-.1259689.0573273-.201643.1401863-.2221279-.1602706-.0646668-.303667.0119247-.303667.2002659z" fill="#9da9c1"/></g><g><path d="m12.3254671 32.1235504v-.7796631c0-.2034779-.1440077-.4570961-.3224707-.5604401-.178462-.103344-.3256044-.0188046-.3256044.1878834l-.0031338.776453-.5329676-.3084087-.0187845-9.3299656c0-.0343952-.012516-.0564098-.0313005-.0689449l1.7445974 1.0160656c.0187845.0093269.0313196.0343971.0313196.0657368l.0219183 9.3299656z" fill="#e3e7f0"/></g><g><g><path d="m11.914053 27.0936108-.0047398 2.5413532-.5342064-.308424.0047398-2.5413532z" fill="#272e3a"/></g><g><path d="m11.9202271 24.1729336-.0047398 1.6719284-.5342074-.308424.0047408-1.6719284z" fill="#272e3a"/></g></g><g><path d="m10.7777357 24.206871-1.7456741-1.0140934-.0006953-.2451973 1.7456742 1.0140934z" fill="#b4bed7"/></g><path d="m11.2419415 21.7807045c-.0583286-.0338879-.1390314-.02911-.227664.0220509l-1.9829121 1.1448174 1.7456779 1.0140667 1.9829025-1.1448174c.0886412-.0511608.1693354-.0558662.227664-.0219784z" fill="#e3e7f0"/><g><path d="m12.7599497 22.8168411c.1758957-.1015549.3205376-.0202503.3211136.1830025l.0210762 9.329895-.2133818.1231956-.0210762-9.329895c-.0001907-.0674114-.0484056-.0948524-.1070375-.0610008l-1.9829082 1.1448326-.0006952-.2451973z" fill="#9da9c1"/></g></g></g></g><g><g><path d="m17.6735897 27.9197254-1.289526-1.8118458 10.944727-6.3189411 2.2066307 1.2823544z" fill="#4c5671"/><g><g><path d="m19.8126545 28.5115032-1.5820427 4.1390438-.5437164.3139115-.0091305-3.220377z" fill="#7bb1ff"/></g><g><path d="m21.7616405 27.3862553-1.5820426 4.1390419-1.2113686.6993847 1.5820427-4.1390419z" fill="#7bb1ff"/></g><g enable-background="new"><g><path d="m27.8350468 25.4926014c.0033798 1.1920929-.7994328 2.6334553-1.8166504 3.3104935l-.0008335-.293972c.8772964-.5940113 1.5645351-1.8397007 1.5616169-2.8687954-.0008602-.3031979-.0636368-.5521736-.1703014-.7459717l.2214699-.2751579c.1287745.2247295.2036895.5173721.2046985.8734035z" fill="#272e3a"/></g><g><path d="m26.0146122 27.4686852c.3781662-.2995911.6643429-.8477745.6630383-1.3078613-.0003204-.1135254-.018158-.2123203-.0505238-.2944908l.4266052-.5300255c.0724926.1445084.1130505.3259258.1136627.5417633.002182.7695141-.5017605 1.6954365-1.1511745 2.1578732z" fill="#272e3a"/></g><g><path d="m25.8567295 24.7459736c.5477142-.3162231 1.0323486-.2832222 1.3315372.0203609l-.2214661.275032c-.2529716-.2427692-.6554718-.2633953-1.1092377-.0014153-.4537697.2619858-.8548431.7465553-1.1076088 1.2813129l-.2222996-.0188236c.2964994-.6475028.781357-1.2402419 1.329075-1.5564669z" fill="#272e3a"/></g><g><path d="m25.8556499 24.3646488c.669651-.3866234 1.2644386-.3412075 1.6219215.0413113l-.2214642.2775211c-.3132629-.3230438-.8239269-.3572407-1.3996239-.0248604-.5777035.3335361-1.0865059.9563217-1.3969154 1.6394424l-.222311-.0213051c.354149-.7933806.9467412-1.524332 1.618393-1.9121093z" fill="#272e3a"/></g><g><path d="m25.7168083 29.0669632.0009575.3375874c.0499821-.0242348.0999756-.048481.1519489-.0784874-.7698917.4444981-1.4548492.4131889-1.8847351.0022011-.2933903-.2804699-.4679737-.7378788-.4696846-1.3416519-.0015259-.5384731.1347656-1.1194515.3705406-1.6769695-.0452213.1077385-.0853996.2171917-.1240864.3291454l.2563477.0198841c-.1330414.3921127-.2080097.7850189-.206955 1.1571331.0035153 1.2404441.8459607 1.7732314 1.9056664 1.2511577z" fill="#272e3a"/></g><g><path d="m27.9535732 24.2186375-.2553921.3153362c.1348209.237463.2137699.5415058.2148247.9136181.0035172 1.2404461-.8331585 2.742672-1.8943558 3.4451027l.0009556.3375874c-.0499611.0334682-.0999222.0669308-.1498909.0957813-.0519733.0300064-.1019669.0542526-.1519489.0784874l-.0009575-.3375874c-1.0597057.5220737-1.9021511-.0107136-1.9056664-1.2511578-.0010548-.3721142.0739136-.7650204.206955-1.1571331l-.2563477-.0198841c.0386868-.1119537.0788651-.2214069.1240864-.3291454.008173-.0195713.0164566-.0389633.0249844-.058363l.2583485.021101c.3680592-.8313694.9845905-1.5922432 1.6862278-1.9973335.6996307-.4039307 1.3184586-.3562946 1.6900158.0480576l.2573853-.318861c.0562362.0618972.1044959.1352653.1507758.2143936zm-2.0888328 3.3525543c.0511932-.0295563.1012974-.0639801.1498718-.1025066l.0016079.5672588c.6494141-.4624367 1.1533566-1.3883591 1.1511745-2.1578732-.0006123-.2158375-.0411701-.3972549-.1136627-.5417633l-.4266052.5300255c-.0354443-.0901299-.0883617-.1603127-.1548119-.2085705l.4266529-.5311718c-.238905-.2255497-.6173763-.2417049-1.0411491.0029621-.4257813.2458229-.8009224.6970768-1.0397701 1.1984577l.4286575.0369816c-.0661507.1249466-.1186314.2561016-.153511.3869572l-.4282188-.0364933c-.0714359.2276058-.110836.4551888-.1102238.6710243.002182.7695141.5097179 1.1114597 1.1596279.8237324l-.0016098-.5675125c.0492572-.0178261.1000461-.0415306.1519699-.0715084m1.9703064-2.0785904c-.001009-.3560314-.0759239-.648674-.2046986-.8734035l-.2214699.2751579c.1066647.1937981.1694412.4427738.1703014.7459717.0029182 1.0290947-.6843204 2.2747841-1.5616169 2.8687954l.0008335.293972c1.0172177-.6770382 1.8200303-2.1184006 1.8166505-3.3104935m-2.1184922 3.4847603-.0008335-.2939701c-.8757915.4181347-1.5698357-.0300713-1.5727539-1.059166-.0008602-.3031979.060297-.6237259.1655235-.9398613l-.2222996-.0189457c-.1270866.3724499-.198101.7493458-.1970901 1.1053772.0033799 1.192091.8097267 1.7044049 1.8274536 1.2065659m-.0010814-.3813305-.0008392-.2963409c-.6918907.312088-1.2355232-.0504551-1.2378407-.8682003-.000658-.2319107.042696-.4778786.1200886-.7226505l-.2223034-.0189438c-.0972595.3000507-.154459.6045666-.1536522.8893204.0027809.9808692.6607227 1.4084758 1.4945469 1.0168151m1.6275635-3.6199761-.2214699.2751579c.0785313.1547489.1231308.3499355.1237869.5818481.0023193.8177452-.5354843 1.8046551-1.2288799 2.2923603l.0008411.2963409c.8333149-.5708618 1.4866867-1.7555561 1.4839058-2.7364254-.0008068-.2847536-.0595455-.522333-.158184-.7092818m-1.4873868-.6114063c-.6716518.3877773-1.2642441 1.1187286-1.6183929 1.9121094l.222311.0213051c.3104095-.6831207.819212-1.3059063 1.3969154-1.6394424.5756969-.3323803 1.0863609-.2981834 1.3996239.0248604l.2214642-.2775211c-.3574829-.3825189-.9522705-.4279348-1.6219216-.0413114m1.1111508.6767178.2214661-.275032c-.2991886-.3035831-.783823-.3365841-1.3315372-.0203609-.547718.3162251-1.0325756.9089642-1.3290749 1.5564671l.2222996.0188236c.2527657-.5347576.6538391-1.0193272 1.1076088-1.2813129.4537658-.2619802.8562659-.2413542 1.1092376.0014151" fill="#9da9c1"/></g><g><path d="m25.7127705 27.6427002.0016098.5675125c-.64991.2877274-1.1574459-.0542183-1.1596279-.8237324-.0006123-.2158356.0387878-.4434185.1102238-.6710243l.4282188.0364933c-.0318127.1192226-.0490208.2382526-.0486984.351778.0013027.459467.2889556.6760903.6682739.5389729z" fill="#272e3a"/></g><g><path d="m25.8594151 25.6923218c.2435493-.1406136.4627895-.1437435.6129036-.034565.0664463.0482616.1193638.1184406.1548119.2085686.0323639.0821705.0502014.1809673.0505219.2944946.0013046.4600887-.2848721 1.0082684-.6630363 1.3078594-.0485764.0385303-.0986786.0729504-.1498756.1025066-.0519238.0299797-.1027107.0536842-.151968.0715122-.3793163.1371155-.6669693-.0795116-.668272-.5389767-.0003223-.1135273.0168839-.2325554.0486965-.3517799.0348778-.1308537.0873604-.2620106.153511-.3869534.149227-.2817515.368181-.5314902.612707-.6726664z" fill="#7bb1ff"/></g><g><path d="m26.4723148 25.6577625c-.1501122-.1091785-.3693562-.1060486-.6129017.0345631-.2445297.1411781-.4634838.3909187-.6127071.6726665l-.4286575-.0369816c.2388477-.5013809.6139889-.9526348 1.0397701-1.1984577.4237728-.2446671.8022442-.2285118 1.0411491-.0029621z" fill="#272e3a"/></g><g><path d="m23.889101 27.7707958c-.0010109-.3560314.0700035-.7329273.1970901-1.1053772l.2222996.0189457c-.1052265.3161354-.1663837.6366634-.1655235.9398613.0029182 1.0290947.6969624 1.4773006 1.5727539 1.059166l.0008335.2939701c-1.0177269.497839-1.8240737-.0144749-1.8274536-1.2065659z" fill="#272e3a"/></g><g><path d="m27.7378597 23.9358883c.2930012.280817.4672813.7382774.4689922 1.3420525.0017128.6037731-.1694031 1.2607689-.4598522 1.8783188-.4255886.9048977-1.1073971 1.7253075-1.877285 2.1698036.0499687-.0288506.0999298-.0623131.1498909-.0957813l-.0009556-.3375874c1.0611973-.7024307 1.8978729-2.2046566 1.8943558-3.4451027-.0010548-.3721123-.0800037-.6761551-.2148247-.9136181l.2553921-.3153362c-.0462799-.0791283-.0945396-.1524963-.1507759-.2143936l-.2573853.318861c-.3715572-.4043522-.9903851-.4519882-1.6900158-.0480576-.7016373.4050903-1.3181686 1.1659641-1.6862278 1.9973335l-.2583427-.0211048c.0209618-.0479259.0426254-.0957603.0650349-.1433964.4261551-.9052238 1.1086845-1.7259274 1.8785782-2.1704254.769886-.4444942 1.4541054-.4128837 1.8834209-.0015659z" fill="#272e3a"/></g></g><g><path d="m27.7378597 23.9358883 1.8037319-1.0413857.0091286 3.2203789-1.8037205 1.041378c.2904491-.6175499.461565-1.2745457.4598522-1.8783188-.0017108-.603775-.175991-1.0612354-.4689922-1.3420524z" fill="#7bb1ff"/></g><g><path d="m23.91082 26.2512798c-.0085278.0193996-.0168114.0387917-.0249844.058363-.235775.557518-.3720665 1.1384964-.3705406 1.6769695.0017109.6037731.1762943 1.061182.4696846 1.3416519l-3.0657673 1.7700214 1.5820389-4.13904 1.4746094-.851366c-.0224094.0476361-.0440731.0954705-.0650406.1434002z" fill="#7bb1ff"/></g><g><path d="m24.2209263 27.579216c-.0008068-.2847538.0563927-.5892696.1536522-.8893204l.2223034.0189438c-.0773926.244772-.1207466.4907398-.1200886.7226505.0023174.8177452.5459499 1.1802883 1.2378407.8682003l.0008392.2963409c-.8338242.3916608-1.491766-.0359458-1.4945469-1.0168151z" fill="#272e3a"/></g><g><path d="m26.0173149 28.4217625-.0008411-.2963409c.6933956-.4877052 1.2311993-1.4746151 1.2288799-2.2923603-.0006561-.2319126-.0452557-.4270992-.1237869-.5818481l.2214699-.2751579c.0986385.1869488.1573772.4245281.1581841.7092819.0027808.9808692-.650591 2.1655635-1.4839059 2.7364253z" fill="#272e3a"/></g><g><path d="m23.9758606 26.1078796-1.4746094.851366-1.5820389 4.13904 3.0657673-1.7700214c.4298859.4109879 1.1148434.442297 1.8847351-.0022011.7698879-.4444962 1.4516964-1.2649059 1.877285-2.1698036l1.8037205-1.041378.0051708 1.8237801-11.8638287 6.8495846-.0051708-1.8237801.5437183-.3139153 1.5820408-4.13904-2.1348896 1.2325783-.0051708-1.8237858 11.8638306-6.8495865.0051708 1.8237858-1.8037319 1.0413857c-.4293156-.4113178-1.1135349-.4429283-1.8834209.0015659-.7698937.4444981-1.4524231 1.2652016-1.8785782 2.1704254zm-3.7962647 5.4174233 1.5820408-4.13904-1.2113647.6993809-1.5820465 4.1390457z" fill="#373f51"/></g></g></g><g><g enable-background="new"><g><path d="m16.5728722 33.817688.0203705.7905197.1368618-.0964661.0062485-.6721916c0-.1259689.0573292-.2016411.1401863-.222126-.1602689-.0646667-.3036671.0119248-.3036671.200264z" fill="#9da9c1"/></g><g><path d="m17.2475872 34.9839745v-.7796631c0-.2034798-.1440086-.4570961-.3224716-.5604401-.1784611-.103344-.3256035-.0188065-.3256035.1878815l-.0031338.7764549-.5329685-.3084106-.0187836-9.3299637c0-.0343971-.012516-.0564117-.0313015-.0689468l1.7445965 1.0160675c.0187855.009325.0313206.0343971.0313206.0657368l.0219193 9.3299618z" fill="#e3e7f0"/></g><g><g><path d="m16.8361721 29.9540348-.0047398 2.5413532-.5342063-.3084259.0047397-2.5413532z" fill="#272e3a"/></g><g><path d="m16.8423462 27.0333576-.0047398 1.6719284-.5342064-.308424.0047398-1.6719303z" fill="#272e3a"/></g></g><g><path d="m15.6998549 27.0672932-1.7456742-1.0140934-.0006952-.2451973 1.7456741 1.0140934z" fill="#b4bed7"/></g><path d="m16.1640606 24.6411266c-.0583286-.0338879-.1390324-.029108-.227664.0220528l-1.9829121 1.1448174 1.7456779 1.0140648 1.9829016-1.1448154c.0886421-.0511627.1693363-.0558662.2276649-.0219803z" fill="#e3e7f0"/><g><path d="m17.6820679 25.6772633c.1758957-.101553.3205395-.0202503.3211155.1830025l.0210743 9.3298969-.2133808.1231956-.0210762-9.3298969c-.0001907-.0674114-.0484047-.0948505-.1070366-.0610008l-1.9829092 1.1448326-.0006952-.2451973z" fill="#9da9c1"/></g></g></g></g><g><g><path d="m22.5957088 30.7801476-1.2895259-1.8118458 10.944725-6.3189392 2.2066345 1.2823543z" fill="#4c5671"/><g><g><path d="m24.7347755 31.3719273-1.5820446 4.13904-.5437164.3139152-.0091286-3.2203789z" fill="#7bb1ff"/></g><g><path d="m26.6837597 30.2466793-1.5820427 4.13904-1.2113686.6993866 1.5820427-4.1390419z" fill="#7bb1ff"/></g><g enable-background="new"><g><path d="m32.7571678 28.3530254c.0033798 1.192091-.7994347 2.6334534-1.8166523 3.3104916l-.0008335-.293972c.8772964-.5940094 1.5645332-1.8397007 1.5616188-2.8687954-.0008621-.3031979-.0636368-.5521717-.1703033-.7459717l.2214699-.275156c.1287727.2247276.2036895.5173721.2047004.8734035z" fill="#272e3a"/></g><g><path d="m30.9367313 30.3291073c.3781662-.2995892.6643429-.8477726.6630402-1.3078594-.0003223-.1135254-.0181599-.2123222-.0505257-.2944908l.4266052-.5300274c.0724926.1445084.1130505.3259277.1136646.5417652.002182.7695122-.5017605 1.6954365-1.1511765 2.1578712z" fill="#272e3a"/></g><g><path d="m30.7788506 27.6063976c.5477123-.3162231 1.0323467-.2832222 1.3315353.0203609l-.2214642.275032c-.2529736-.2427711-.6554737-.2633972-1.1092377-.0014153-.4537716.2619839-.854845.7465534-1.1076107 1.2813129l-.2222996-.0188255c.2964993-.6475027.7813569-1.2402399 1.3290769-1.556465z" fill="#272e3a"/></g><g><path d="m30.7777691 27.225071c.669651-.3866234 1.2644405-.3412075 1.6219234.0413132l-.2214661.2775192c-.313261-.3230438-.8239269-.3572388-1.3996239-.0248604-.5777035.3335381-1.0865059.9563236-1.3969154 1.6394444l-.222311-.021307c.3541489-.7933808.9467411-1.5243302 1.618393-1.9121094z" fill="#272e3a"/></g><g><path d="m30.6389275 31.9273853.0009575.3375874c.0499821-.0242348.0999756-.048481.1519489-.0784874-.7698917.4445-1.4548473.4131889-1.8847351.0022011-.2933903-.2804699-.4679718-.7378788-.4696846-1.3416519-.0015259-.5384731.1347675-1.1194496.3705406-1.6769695-.0452194.1077404-.0853996.2171936-.1240864.3291454l.2563477.0198841c-.1330414.3921127-.2080097.7850208-.206955 1.1571331.0035172 1.2404461.8459606 1.7732315 1.9056664 1.2511577z" fill="#272e3a"/></g><g><path d="m32.8756943 27.0790596-.255394.3153381c.1348228.2374611.2137718.5415039.2148247.9136181.0035172 1.2404442-.8331566 2.742672-1.8943558 3.4451027l.0009575.3375874c-.049963.0334663-.0999241.0669289-.1498928.0957794-.0519733.0300064-.1019669.0542526-.1519489.0784874l-.0009575-.3375874c-1.0597057.5220737-1.9021492-.0107117-1.9056664-1.2511578-.0010548-.3721123.0739136-.7650204.206955-1.1571331l-.2563477-.0198841c.0386868-.1119518.078867-.221405.1240864-.3291454.008173-.0195713.0164566-.0389614.0249844-.058363l.2583485.0211029c.3680592-.8313713.9845905-1.5922432 1.6862278-1.9973335.6996307-.4039326 1.3184586-.3562946 1.6900177.0480576l.2573853-.318861c.0562323.0618954.1044959.1352634.1507758.2143917zm-2.0888348 3.3525562c.0511932-.0295582.1012993-.063982.1498718-.1025085l.0016079.5672588c.649416-.4624348 1.1533585-1.3883591 1.1511765-2.1578712-.0006142-.2158375-.041172-.3972569-.1136646-.5417652l-.4266052.5300274c-.0354443-.0901318-.0883617-.1603127-.1548119-.2085705l.4266529-.5311737c-.238905-.2255478-.6173763-.241703-1.0411491.0029621-.4257813.2458248-.8009224.6970768-1.0397701 1.1984577l.4286575.0369835c-.0661507.1249447-.1186314.2561016-.153511.3869572l-.4282188-.0364952c-.0714359.2276058-.110836.4551888-.1102238.6710262.002182.7695141.5097179 1.1114597 1.1596279.8237305l-.0016098-.5675106c.0492572-.0178281.1000461-.0415307.1519698-.0715085m1.9703083-2.0785904c-.0010109-.3560314-.0759277-.6486759-.2047005-.8734035l-.2214699.275156c.1066666.1938.1694412.4427738.1703033.7459717.0029144 1.0290947-.6843224 2.274786-1.5616188 2.8687954l.0008335.293972c1.0172178-.6770382 1.8200322-2.1184006 1.8166524-3.3104916m-2.118494 3.4847603-.0008335-.293972c-.8757915.4181366-1.5698357-.0300694-1.5727539-1.059166-.0008602-.303196.060297-.623724.1655235-.9398594l-.2222996-.0189476c-.1270866.3724499-.1980991.7493458-.1970901 1.1053772.0033798 1.192093.8097267 1.7044068 1.8274536 1.2065678m-.0010815-.3813324-.0008392-.2963409c-.6918888.312088-1.2355232-.0504532-1.2378407-.8681984-.000658-.2319126.042696-.4778805.1200905-.7226524l-.2223053-.0189419c-.0972576.3000507-.154459.6045666-.1536522.8893185.0027809.9808711.6607228 1.4084777 1.4945469 1.0168151m1.6275635-3.619976-.2214699.2751579c.0785294.1547489.1231308.3499374.1237869.5818481.0023193.8177452-.5354843 1.8046551-1.2288799 2.2923603l.0008411.2963428c.8333168-.5708637 1.4866867-1.7555561 1.4839058-2.7364273-.0008049-.2847518-.0595436-.5223311-.158184-.7092818m-1.4873867-.6114063c-.6716518.3877792-1.2642441 1.1187286-1.6183929 1.9121094l.222311.021307c.3104095-.6831207.819212-1.3059063 1.3969154-1.6394444.5756969-.3323784 1.0863628-.2981834 1.3996239.0248604l.2214661-.2775192c-.357483-.3825208-.9522725-.4279366-1.6219235-.0413132m1.1111526.6767196.2214642-.275032c-.2991886-.3035831-.783823-.3365841-1.3315353-.0203609-.54772.3162251-1.0325775.9089622-1.3290768 1.5564651l.2222996.0188255c.2527657-.5347595.6538391-1.0193291 1.1076107-1.2813129.4537639-.261982.8562641-.2413559 1.1092376.0014152" fill="#9da9c1"/></g><g><path d="m30.6348896 30.5031242.0016098.5675106c-.64991.2877293-1.1574459-.0542164-1.1596279-.8237305-.0006123-.2158375.0387878-.4434204.1102238-.6710262l.4282188.0364952c-.0318127.1192226-.0490208.2382526-.0486984.351778.0013027.4594651.2889557.6760884.6682739.5389729z" fill="#272e3a"/></g><g><path d="m30.7815342 28.5527439c.2435493-.1406116.4627895-.1437416.6129036-.034565.0664482.0482635.1193657.1184425.1548119.2085686.0323639.0821724.0502014.1809673.0505219.2944946.0013046.4600906-.2848721 1.0082684-.6630363 1.3078613-.0485764.0385303-.0986786.0729485-.1498737.1025066-.0519257.0299778-.1027126.0536842-.1519699.0715122-.3793163.1371155-.6669693-.0795116-.668272-.5389786-.0003223-.1135273.0168839-.2325554.0486965-.351778.0348778-.1308537.0873604-.2620106.153511-.3869534.149227-.2817534.3681811-.5314902.612707-.6726683z" fill="#7bb1ff"/></g><g><path d="m31.394434 28.5181866c-.1501122-.1091805-.3693562-.1060505-.6129017.0345612-.2445278.1411781-.4634838.3909187-.6127071.6726685l-.4286575-.0369835c.2388477-.5013809.6139889-.9526329 1.0397701-1.1984577.4237728-.2446651.8022442-.2285099 1.0411491-.0029621z" fill="#272e3a"/></g><g><path d="m28.8112202 30.631218c-.001009-.3560314.0700035-.7329273.1970901-1.1053772l.2222996.0189476c-.1052265.3161354-.1663837.6366634-.1655235.9398594.0029182 1.0290966.6969624 1.4773026 1.5727539 1.059166l.0008335.293972c-1.0177269.4978389-1.8240738-.0144749-1.8274536-1.2065678z" fill="#272e3a"/></g><g><path d="m32.659977 26.7963123c.2930031.280817.4672813.7382774.4689941 1.3420506s-.1694031 1.2607708-.4598503 1.8783207c-.4255905.9048958-1.107399 1.7253075-1.8772869 2.1698017.0499687-.0288506.0999298-.0623131.1498928-.0957794l-.0009575-.3375874c1.0611992-.7024307 1.8978729-2.2046585 1.8943558-3.4451027-.0010529-.3721142-.0800018-.676157-.2148247-.9136181l.255394-.3153381c-.0462799-.0791283-.0945435-.1524963-.1507759-.2143917l-.2573853.318861c-.3715591-.4043522-.990387-.4519901-1.6900177-.0480576-.7016373.4050903-1.3181686 1.1659622-1.6862278 1.9973335l-.2583427-.0211067c.0209618-.0479259.0426254-.0957584.0650349-.1433964.4261551-.9052238 1.1086845-1.7259274 1.8785782-2.1704254.7698859-.4444942 1.4541053-.4128837 1.883419-.001564z" fill="#272e3a"/></g></g><g><path d="m32.659977 26.7963123 1.8037338-1.0413857.0091286 3.2203789-1.8037186 1.041378c.2904472-.6175499.4615631-1.2745476.4598503-1.8783207s-.1759911-1.0612334-.4689941-1.3420505z" fill="#7bb1ff"/></g><g><path d="m28.8329391 29.111702c-.0085278.0194016-.0168114.0387917-.0249844.058363-.2357731.5575199-.3720665 1.1384964-.3705406 1.6769695.0017128.6037731.1762943 1.061182.4696846 1.3416519l-3.0657673 1.7700233 1.5820408-4.1390419 1.4746075-.851366c-.0224094.0476379-.0440731.0954704-.0650406.1434002z" fill="#7bb1ff"/></g><g><path d="m29.1430454 30.4396381c-.0008068-.2847519.0563946-.5892677.1536522-.8893185l.2223053.0189419c-.0773945.244772-.1207485.4907398-.1200905.7226524.0023174.8177452.5459518 1.1802864 1.2378407.8681984l.0008392.2963409c-.8338241.3916627-1.491766-.0359439-1.4945469-1.0168151z" fill="#272e3a"/></g><g><path d="m30.9394341 31.2821865-.0008411-.2963428c.6933956-.4877052 1.2311993-1.4746151 1.2288799-2.2923603-.0006561-.2319107-.0452576-.4270992-.1237869-.5818481l.2214699-.2751579c.0986404.1869507.1573792.42453.1581841.7092819.0027808.9808711-.6505891 2.1655635-1.4839059 2.7364272z" fill="#272e3a"/></g><g><path d="m28.8979797 28.9683018-1.4746075.851366-1.5820408 4.1390419 3.0657673-1.7700233c.4298878.4109879 1.1148434.4422989 1.8847351-.0022011.7698879-.4444942 1.4516964-1.2649059 1.8772869-2.1698017l1.8037186-1.041378.0051727 1.8237801-11.8638306 6.8495846-.0051708-1.8237801.5437183-.3139153 1.5820408-4.1390419-2.1348896 1.2325783-.0051708-1.8237858 11.8638287-6.8495846.0051727 1.8237858-1.8037338 1.0413857c-.4293137-.4113197-1.113533-.4429302-1.883419.001564-.7698936.444498-1.4524231 1.2652015-1.8785782 2.1704254zm-3.7962646 5.4174251 1.5820408-4.1390419-1.2113647.6993828-1.5820465 4.1390457z" fill="#373f51"/></g></g></g><g><g enable-background="new"><g><path d="m21.4949932 36.678112.0203705.7905159.1368599-.0964622.0062504-.6721916c0-.1259689.0573273-.2016411.1401863-.2221298-.1602707-.064663-.3036671.0119247-.3036671.2002677z" fill="#9da9c1"/></g><g><path d="m22.1697063 37.8443947v-.7796631c0-.203476-.1440086-.4570961-.3224716-.5604401-.1784611-.1033401-.3256035-.0188026-.3256035.1878853l-.0031338.7764511-.5329666-.3084068-.0187855-9.3299656c0-.0343952-.012516-.0564098-.0313015-.0689449l1.7445984 1.0160656c.0187836.0093269.0313187.0343971.0313187.0657368l.0219193 9.3299637z" fill="#e3e7f0"/></g><g><g><path d="m21.7582912 32.8144569-.0047397 2.5413514-.5342064-.3084221.0047398-2.5413552z" fill="#272e3a"/></g><g><path d="m21.7644653 29.8937798-.0047397 1.6719284-.5342064-.308424.0047397-1.6719284z" fill="#272e3a"/></g></g><g><path d="m20.6219749 29.9277172-1.7456741-1.0140934-.0006962-.2451973 1.7456742 1.0140934z" fill="#b4bed7"/></g><path d="m21.0861797 27.5015507c-.0583286-.0338879-.1390305-.02911-.227663.0220528l-1.9829121 1.1448154 1.7456779 1.0140667 1.9829025-1.1448174c.0886402-.0511608.1693344-.0558662.227663-.0219784z" fill="#e3e7f0"/><g><path d="m22.6041889 28.5376873c.1758957-.1015549.3205376-.0202503.3211136.1830025l.0210762 9.3298931-.2133827.1231956-.0210762-9.3298931c-.0001907-.0674114-.0484047-.0948524-.1070366-.0610008l-1.9829082 1.1448326-.0006962-.2451973z" fill="#9da9c1"/></g></g></g></g><g><g><path d="m27.517828 33.6405716-1.289526-1.8118458 10.944725-6.3189411 2.2066346 1.2823544z" fill="#4c5671"/><g><g><path d="m29.6568947 34.2323494-1.5820427 4.1390419-.5437183.3139152-.0091286-3.2203788z" fill="#7bb1ff"/></g><g><path d="m31.6058788 33.1071014-1.5820427 4.1390419-1.2113685.6993866 1.5820427-4.1390419z" fill="#7bb1ff"/></g><g enable-background="new"><g><path d="m35.8626328 34.523941-.0008316-.293972c1.1324997-.7668076 1.9326134-2.6312943 1.3913155-3.6147671l.2214699-.2751579c.6538543 1.1410618-.3082124 3.3161564-1.6119538 4.183897z" fill="#272e3a"/></g><g><path d="m35.8588524 33.1895294c.3781662-.2995872.664341-.8477707.6630363-1.3078594-.0003204-.1135254-.018158-.2123203-.0505257-.2944908l.426609-.5300255c.0724907.1445084.1130486.3259258.1136627.5417633.002182.7695141-.5017624 1.6954365-1.1511765 2.1578732z" fill="#272e3a"/></g><g><path d="m35.7009697 30.4668198c.5477142-.3162231 1.0323486-.2832222 1.3315353.0203609l-.2214661.275032c-.2529716-.2427692-.6554718-.2633953-1.1092377-.0014153-.4537697.2619858-.8548431.7465553-1.1076088 1.2813129l-.2222977-.0188255c.2964975-.6475009.7813569-1.24024 1.329075-1.556465z" fill="#272e3a"/></g><g><path d="m35.6998863 30.085495c.6696548-.3866234 1.2644424-.3412075 1.6219254.0413113l-.2214661.2775211c-.3132629-.3230438-.823925-.3572407-1.3996239-.0248604-.5777016.3335361-1.0865059.9563217-1.3969154 1.6394424l-.2223129-.0213051c.3541488-.7933807.946743-1.524332 1.6183929-1.9121093z" fill="#272e3a"/></g><g><path d="m35.5610466 34.7878075.0009575.3375893c.049984-.0242348.0999756-.048481.1519508-.0784874-.7698936.4444962-1.4548492.4131889-1.8847389.0022011-.2933884-.2804718-.4679718-.7378807-.4696808-1.3416519-.0015297-.538475.1347656-1.1194496.3705406-1.6769714-.0452232.1077423-.0853996.2171936-.1240883.3291473l.2563477.0198822c-.1330414.3921127-.2080116.7850227-.206955 1.157135.0035172 1.2404441.8459588 1.7732314 1.9056664 1.2511558z" fill="#272e3a"/></g><g><path d="m37.7978134 29.9394836-.255394.3153362c.1348228.237463.2137718.5415058.2148247.9136181.0035172 1.2404442-.8331566 2.742672-1.8943558 3.4451027l.0009575.3375893c-.0499611.0334663-.0999222.0669289-.1498909.0957794-.0519753.0300064-.1019669.0542526-.1519508.0784874l-.0009575-.3375893c-1.0597076.5220757-1.9021492-.0107117-1.9056664-1.2511559-.0010567-.3721123.0739136-.7650223.206955-1.157135l-.2563477-.0198822c.0386887-.1119537.0788651-.221405.1240883-.3291473.0081711-.0195694.0164566-.0389614.0249825-.0583611l.2583504.021101c.3680573-.8313694.9845886-1.5922432 1.6862259-1.9973335.6996307-.4039307 1.3184586-.3562946 1.6900177.0480595l.2573853-.3188629c.0562362.0618973.1044959.1352654.1507758.2143936zm-2.0888328 3.3525544c.0511932-.0295563.1012955-.0639801.1498718-.1025085l.001606.5672607c.6494141-.4624367 1.1533585-1.3883591 1.1511765-2.1578732-.0006142-.2158375-.041172-.3972549-.1136627-.5417633l-.426609.5300255c-.0354424-.0901299-.0883598-.1603127-.154808-.2085705l.426651-.5311718c-.2389069-.2255497-.6173744-.2417049-1.0411491.0029621-.4257813.2458229-.8009224.6970768-1.0397682 1.1984558l.4286575.0369835c-.0661507.1249466-.1186333.2561035-.153511.3869591l-.4282188-.0364952c-.0714378.2276039-.110836.4551888-.1102257.6710243.002182.769516.5097198 1.1114616 1.159626.8237305l-.001606-.5675087c.0492551-.0178299.100044-.0415306.1519697-.0715103m1.9703064-2.0785904c-.0010109-.3560314-.0759239-.648674-.2047005-.8734035l-.2214699.2751579c.1066666.1937981.1694412.4427738.1703033.7459717.0029182 1.0290928-.6843224 2.274786-1.5616188 2.8687954l.0008316.293972c1.0172196-.6770402 1.8200341-2.1184006 1.8166543-3.3104935m-2.1184922 3.4847603-.0008354-.293972c-.8757896.4181366-1.5698357-.0300674-1.5727539-1.059166-.0008583-.303196.0602989-.6237221.1655235-.9398575l-.2222977-.0189476c-.1270866.372448-.198101.7493439-.197094 1.1053772.0033799 1.1920929.8097306 1.7044029 1.8274575 1.2065659m-.0010833-.3813324-.0008392-.2963409c-.6918907.312088-1.2355232-.0504532-1.2378387-.8681984-.0006599-.2319107.0426941-.4778786.1200867-.7226524l-.2223015-.01894c-.0972595.3000488-.1544609.6045647-.1536522.8893166.0027808.980873.6607207 1.4084777 1.4945449 1.0168151m1.6275634-3.6199742-.2214699.2751579c.0785294.1547489.1231308.3499355.1237869.5818481.0023193.8177433-.5354843 1.8046551-1.228878 2.2923603l.0008392.2963409c.8333168-.5708618 1.4866867-1.7555542 1.4839058-2.7364254-.0008048-.2847537-.0595435-.522333-.158184-.7092818m-1.4873886-.6114063c-.6716499.3877773-1.2642441 1.1187286-1.6183929 1.9121094l.2223129.0213051c.3104095-.6831207.8192139-1.3059063 1.3969154-1.6394424.5756989-.3323803 1.0863609-.2981834 1.3996239.0248604l.2214661-.2775211c-.3574829-.3825189-.9522705-.4279348-1.6219254-.0413114m1.1111527.6767178.2214661-.275032c-.2991867-.3035831-.7838211-.3365841-1.3315353-.0203609-.547718.3162251-1.0325775.9089642-1.3290749 1.5564651l.2222977.0188255c.2527657-.5347576.6538391-1.0193272 1.1076088-1.2813129.4537658-.2619802.8562659-.2413541 1.1092376.0014152" fill="#9da9c1"/></g><g><path d="m35.5570107 33.3635483.001606.5675087c-.6499062.2877312-1.157444-.0542145-1.159626-.8237305-.0006104-.2158356.0387878-.4434204.1102257-.6710243l.4282188.0364952c-.0318146.1192207-.0490227.2382507-.0487022.3517761.0013045.459465.2889594.6760903.6682777.5389748z" fill="#272e3a"/></g><g><path d="m35.7036552 31.413168c.2435493-.1406136.4627876-.1437435.6129036-.034565.0664444.0482616.1193619.1184425.1548119.2085686.0323639.0821705.0501976.1809673.0505219.2944946.0013046.4600887-.284874 1.0082684-.6630402 1.3078594-.0485764.0385323-.0986786.0729485-.1498718.1025085-.0519257.0299759-.1027107.0536842-.1519699.0715103-.3793144.1371155-.6669693-.0795097-.6682739-.5389786-.0003204-.1135254.0168877-.2325554.0486984-.3517761.0348778-.1308556.0873604-.2620125.153511-.3869553.1492271-.2817515.3681831-.5314902.612709-.6726664z" fill="#7bb1ff"/></g><g><path d="m36.316555 31.3786087c-.150116-.1091785-.3693581-.1060486-.6129036.0345631-.2445297.1411781-.4634819.3909187-.6127052.6726665l-.4286575-.0369835c.2388458-.501379.613987-.9526329 1.0397682-1.1984558.4237747-.2446671.8022423-.2285118 1.0411491-.0029621z" fill="#272e3a"/></g><g><path d="m33.7333374 33.491642c-.0010071-.3560333.0700073-.7329292.197094-1.1053772l.2222977.0189476c-.1052246.3161354-.1663818.6366615-.1655235.9398575.0029182 1.0290985.6969643 1.4773026 1.5727539 1.059166l.0008354.293972c-1.017727.497837-1.8240777-.014473-1.8274575-1.2065659z" fill="#272e3a"/></g><g><path d="m37.5820999 29.6567345c.7670135.7351189.4635773 2.2541523.00914 3.2203712-.4255905.9048958-1.107399 1.7253075-1.877285 2.1698036.0499687-.0288506.0999298-.0623131.1498909-.0957794l-.0009575-.3375893c1.3679008-.9054451 2.3556938-3.1677818 1.6795311-4.3587208l.255394-.3153362c-.0462799-.0791283-.0945396-.1524963-.1507759-.2143936l-.2573853.3188629c-.3715591-.4043541-.990387-.4519901-1.6900177-.0480595-.7016373.4050903-1.3181686 1.1659641-1.6862259 1.9973335l-.2583466-.0211048c.0209618-.0479259.0426292-.0957603.0650368-.1433964.4261551-.9052238 1.1086845-1.7259274 1.8785782-2.1704254.7698861-.4444941 1.4541054-.4128837 1.8834229-.0015658z" fill="#272e3a"/></g></g><g><path d="m37.5820999 29.6567345 1.80373-1.0413857.0091286 3.2203789-1.8037186 1.041378c.2904472-.6175499.4615631-1.2745457.4598503-1.8783188-.0017089-.6037731-.175991-1.0612354-.4689903-1.3420524z" fill="#7bb1ff"/></g><g><path d="m33.7550583 31.972126c-.0085258.0193996-.0168114.0387917-.0249825.0583611-.235775.5575218-.3720703 1.1384964-.3705406 1.6769714.001709.6037712.1762924 1.0611801.4696808 1.3416519l-3.0657654 1.7700233 1.5820389-4.1390419 1.4746094-.851366c-.0224076.047636-.044075.0954704-.0650406.1434002z" fill="#7bb1ff"/></g><g><path d="m34.0651665 33.3000603c-.0008087-.2847519.0563927-.5892677.1536522-.8893166l.2223015.01894c-.0773926.2447739-.1207466.4907417-.1200867.7226524.0023155.8177452.545948 1.1802864 1.2378387.8681984l.0008392.2963409c-.8338241.3916627-1.491764-.035942-1.4945449-1.0168151z" fill="#272e3a"/></g><g><path d="m35.8615532 34.1426086-.0008392-.2963409c.8984413-.6319275 1.5061874-2.0838299 1.1050911-2.8742085l.2214699-.2751579c.5201606.9858551-.2888833 2.7354222-1.3257218 3.4457073z" fill="#272e3a"/></g><g><path d="m33.8200989 31.8287258-1.4746094.851366-1.5820389 4.1390419 3.0657654-1.7700233c.4298897.4109879 1.1148453.4422951 1.8847389-.0022011.769886-.4444962 1.4516945-1.2649078 1.877285-2.1698036l1.8037186-1.041378.0051727 1.8237801-11.8638306 6.8495865-.0051708-1.8237801.5437183-.3139153 1.5820408-4.1390419-2.1348896 1.2325783-.0051689-1.8237877 11.8638306-6.8495846.0051689 1.8237858-1.80373 1.0413857c-.4293175-.4113178-1.1135368-.4429283-1.8834229.0015659-.7698936.4444981-1.452423 1.2652016-1.8785781 2.1704254zm-3.7962647 5.4174252 1.5820408-4.1390419-1.2113647.6993828-1.5820465 4.1390419z" fill="#373f51"/></g></g></g><g><g enable-background="new"><g><path d="m26.4171124 39.5385361.0203705.7905159.1368618-.0964622.0062485-.6721916c0-.1259689.0573273-.2016449.1401863-.2221298-.1602708-.0646669-.3036671.0119246-.3036671.2002677z" fill="#9da9c1"/></g><g><path d="m27.0918255 40.7048187v-.7796631c0-.203476-.1440086-.4570961-.3224697-.5604401-.178463-.103344-.3256054-.0188026-.3256054.1878853l-.0031338.7764511-.5329666-.3084068-.0187855-9.3299656c0-.0343971-.012516-.0564117-.0313015-.0689468l1.7445984 1.0160675c.0187836.009325.0313206.0343971.0313206.0657368l.0219173 9.3299637z" fill="#e3e7f0"/></g><g><g><path d="m26.6804123 35.674881-.0047398 2.5413513-.5342064-.3084221.0047379-2.5413551z" fill="#272e3a"/></g><g><path d="m26.6865845 32.7542038-.0047398 1.6719284-.5342064-.3084259.0047398-1.6719284z" fill="#272e3a"/></g></g><g><path d="m25.5440941 32.7881393-1.7456741-1.0140934-.0006962-.2451973 1.7456741 1.0140934z" fill="#b4bed7"/></g><path d="m26.0082989 30.3619728c-.0583286-.0338879-.1390305-.029108-.227663.0220528l-1.9829121 1.1448174 1.7456779 1.0140648 1.9829025-1.1448154c.0886421-.0511627.1693344-.0558662.227663-.0219803z" fill="#e3e7f0"/><g><path d="m27.5263081 31.3981094c.1758957-.101553.3205376-.0202503.3211136.1830025l.0210762 9.329895-.2133827.1231956-.0210743-9.329895c-.0001926-.0674114-.0484066-.0948505-.1070385-.0610008l-1.9829082 1.1448326-.0006962-.2451973z" fill="#9da9c1"/></g></g></g></g></g><g><path d="m22.1439571 2.8386259-.8890209-.5166426.0012837 28.1334763.8890209.5166416z" fill="#272e3a"/><path d="m22.1439571 2.8386259.0012837 28.1334753.91115-.5260525-.0012818-28.133476z" fill="#4c5671"/></g><g><path d="m7.596776 17.8477554 20.2251234 11.6776371 14.5844154-8.4076671-20.240736-11.6776362z" fill="#96d696"/><path d="m7.596776 17.8477554v.7494469l20.2308779 11.6666946 14.5688-8.4069042v-.7334518l-14.5688 8.4076652z" fill="#47a047"/></g><g><g><g fill="#4c5671"><path d="m9.4024563 9.8670912-.8890209-.5166426-.9111505.5260534.8890214.5166426z"/><path d="m28.7455673 21.0314751-.8890209-.5166416-.91115.5260524.8890209.5166435z"/><path d="m23.055109 1.9823014-.8890209-.5166425-.9111519.5260531.8890209.5166424z"/></g><path d="m8.3222303 10.2973318.0021019.7415438 14.5680075-8.4108432-.0021019-.7415437z" fill="#b4bed7"/><path d="m41.6740723 13.5675154-.0021057.7415447-20.2321301-11.6810277.0021019-.7415437z" fill="#b4bed7"/><path d="m7.5937066 9.8689747 20.2293658 11.6829643 14.5805302-8.3999853-20.2477226-11.6829633zm20.2583232 10.7111301-18.5839424-10.7279596 12.8586464-7.4113216 18.6024914 10.7279606z" fill="#e3e7f0"/></g></g><g><g><g><path d="m12.7514696 9.1307869-1.289525-1.8118463 10.9447269-6.3189406 2.2066307 1.2823544z" fill="#4c5671"/><g><g><path d="m14.8905363 9.7225647-1.5820436 4.1390419-.5437165.3139153-.0091295-3.220378z" fill="#7bb1ff"/></g><g><path d="m16.8395214 8.5973177-1.5820436 4.1390419-1.2113686.6993837 1.5820427-4.1390419z" fill="#7bb1ff"/></g><g enable-background="new"><g><path d="m22.9129276 6.7036629c.0033798 1.1920919-.7994328 2.6334543-1.8166523 3.3104925l-.0008335-.293972c.8772984-.5940104 1.564537-1.8397002 1.5616188-2.8687954-.0008602-.3031974-.0636368-.5521722-.1703033-.7459717l.2214718-.275157c.1287746.2247286.2036895.5173722.2046985.8734036z" fill="#272e3a"/></g><g><path d="m21.0924931 8.6797457c.3781662-.2995901.6643429-.8477736.6630383-1.3078599-.0003204-.1135254-.0181599-.2123213-.0505257-.2944908l.4266071-.5300264c.0724926.1445079.1130505.3259263.1136627.5417633.002182.7695136-.5017605 1.695437-1.1511745 2.1578736z" fill="#272e3a"/></g><g><path d="m20.9346104 5.9570346c.5477142-.3162222 1.0323486-.2832212 1.3315372.0203619l-.2214661.2750311c-.2529716-.2427692-.6554718-.2633953-1.1092377-.0014143-.4537697.2619843-.8548431.7465544-1.1076088 1.2813125l-.2222996-.0188246c.2964994-.6475029.7813569-1.2402411 1.329075-1.5564666z" fill="#272e3a"/></g><g><path d="m20.9335308 5.5757093c.669651-.3866239 1.2644386-.3412075 1.6219215.0413122l-.2214642.2775202c-.3132629-.3230433-.8239269-.3572397-1.3996258-.0248604-.5777016.3335371-1.086504.9563231-1.3969154 1.6394439l-.222311-.0213065c.3541489-.7933807.9467412-1.5243311 1.6183949-1.9121094z" fill="#272e3a"/></g><g><path d="m20.7946892 10.2780237.0009575.3375874c.0499821-.0242338.0999737-.04848.1519489-.0784874-.7698936.4444981-1.4548492.4131889-1.884737.002202-.2933884-.2804708-.4679718-.7378788-.4696827-1.3416529-.0015278-.5384722.1347656-1.1194506.3705406-1.6769691-.0452213.1077394-.0853996.2171922-.1240864.3291454l.2563477.0198841c-.1330414.3921123-.2080116.7850194-.206955 1.1571326.0035153 1.2404462.8459606 1.7732326 1.9056664 1.2511579z" fill="#272e3a"/></g><g><path d="m23.0314541 5.429698-.2553921.3153372c.1348209.237462.2137699.5415053.2148247.9136181.0035172 1.2404456-.8331585 2.7426729-1.8943558 3.4451027l.0009556.3375874c-.0499611.0334682-.0999222.0669308-.1498909.0957804-.0519753.0300074-.1019669.0542536-.1519489.0784874l-.0009575-.3375874c-1.0597057.5220747-1.9021511-.0107117-1.9056664-1.2511578-.0010567-.3721132.0739136-.7650204.206955-1.1571326l-.2563477-.0198841c.0386868-.1119533.0788651-.221406.1240864-.3291454.0081711-.0195713.0164566-.0389624.0249844-.0583634l.2583485.021102c.3680592-.8313704.9845905-1.5922432 1.6862259-1.997333.6996307-.4039321 1.3184605-.3562951 1.6900177.0480576l.2573853-.318861c.0562361.0618956.1044959.1352636.1507758.2143919zm-2.0888329 3.3525553c.0511932-.0295572.1012974-.0639811.1498718-.1025076l.0016079.5672598c.6494141-.4624367 1.1533566-1.38836 1.1511745-2.1578736-.0006123-.215837-.0411701-.3972554-.1136627-.5417633l-.4266071.5300264c-.0354424-.0901308-.0883598-.1603127-.15481-.208571l.4266529-.5311723c-.2389069-.2255492-.6173763-.2417045-1.041151.0029616-.4257793.2458243-.8009205.6970768-1.0397682 1.1984577l.4286575.036983c-.0661507.1249452-.1186314.2561016-.153511.3869567l-.4282188-.0364937c-.0714359.2276053-.110836.4551883-.1102238.6710258.0021801.7695131.5097179 1.1114597 1.159626.8237305l-.0016079-.5675116c.0492573-.0178271.1000443-.0415306.1519699-.0715084m1.9703064-2.0785904c-.001009-.3560314-.0759239-.648675-.2046986-.8734035l-.2214718.275157c.1066666.1937995.1694431.4427743.1703033.7459717.0029182 1.0290952-.6843204 2.274785-1.5616188 2.8687954l.0008335.293972c1.0172197-.6770383 1.8200322-2.1184007 1.8166524-3.3104926m-2.1184921 3.4847612-.0008335-.293972c-.8757915.4181356-1.5698376-.0300703-1.5727539-1.059166-.0008602-.3031969.060297-.6237249.1655235-.9398603l-.2222996-.0189467c-.1270866.3724499-.198101.7493458-.1970901 1.1053772.0033779 1.192092.8097267 1.7044058 1.8274536 1.2065678m-.0010815-.3813324-.0008411-.2963409c-.6918888.312089-1.2355213-.0504541-1.2378387-.8681984-.000658-.2319126.042696-.4778805.1200886-.722652l-.2223034-.0189433c-.0972595.3000507-.154459.6045666-.1536522.8893194.0027809.9808703.6607227 1.4084769 1.4945468 1.0168152m1.6275635-3.6199756-.2214699.2751575c.0785294.1547494.1231289.3499365.1237869.5818486.0023193.8177447-.5354862 1.8046556-1.2288799 2.2923608l.0008411.2963409c.8333149-.5708628 1.4866867-1.7555561 1.4839058-2.7364264-.0008067-.2847528-.0595455-.5223316-.158184-.7092814m-1.4873867-.6114068c-.6716537.3877783-1.264246 1.1187286-1.6183949 1.9121094l.222311.0213065c.3104115-.6831207.8192139-1.3059068 1.3969154-1.6394439.5756989-.3323793 1.0863628-.298183 1.3996258.0248604l.2214642-.2775202c-.3574829-.3825197-.9522705-.427936-1.6219215-.0413122m1.1111507.6767183.2214661-.2750311c-.2991886-.3035831-.783823-.3365841-1.3315372-.0203619-.547718.3162255-1.0325756.9089637-1.3290749 1.5564666l.2222996.0188246c.2527657-.5347581.6538391-1.0193281 1.1076088-1.2813125.4537658-.261981.856266-.241355 1.1092376.0014143" fill="#9da9c1"/></g><g><path d="m20.7906513 8.8537617.0016079.5675116c-.6499081.2877293-1.1574459-.0542173-1.159626-.8237305-.0006122-.2158375.0387879-.4434204.1102238-.6710258l.4282188.0364938c-.0318127.1192226-.0490208.2382526-.0487003.351778.0013027.459466.2889576.6760893.6682758.5389729z" fill="#272e3a"/></g><g><path d="m20.9372959 6.9033828c.2435493-.1406136.4627895-.1437426.6129036-.0345654.0664463.0482626.1193638.1184421.1548119.2085686.0323639.0821714.0501995.1809678.0505219.2944946.0013046.4600897-.284874 1.0082684-.6630383 1.3078604-.0485764.0385303-.0986786.0729494-.1498737.1025076-.0519238.0299778-.1027107.0536833-.151968.0715113-.3793163.1371164-.6669712-.0795116-.6682739-.5389776-.0003204-.1135273.0168858-.2325554.0486965-.3517785.0348797-.1308541.0873623-.2620111.153513-.3869543.1492251-.2817523.3681811-.53149.612707-.6726667z" fill="#7bb1ff"/></g><g><path d="m21.5501957 6.868824c-.1501141-.1091795-.3693562-.1060495-.6129017.0345616-.2445297.1411791-.4634838.3909192-.6127071.6726685l-.4286575-.036983c.2388477-.5013809.6139889-.9526334 1.0397682-1.1984577.4237747-.2446661.8022442-.2285109 1.041151-.0029616z" fill="#272e3a"/></g><g><path d="m18.9669819 8.9818563c-.0010109-.3560314.0700035-.7329273.1970901-1.1053772l.2222996.0189466c-.1052265.3161354-.1663837.6366634-.1655235.9398603.0029163 1.0290956.6969624 1.4773016 1.5727539 1.059166l.0008335.293972c-1.0177269.4978381-1.8240757-.0144757-1.8274536-1.2065677z" fill="#272e3a"/></g><g><path d="m22.8157406 5.1469493c.2930012.280818.4672813.7382784.4689922 1.342052s-.1694031 1.2607698-.4598522 1.8783207c-.4255886.9048958-1.1073971 1.7253075-1.877285 2.1698017.0499687-.0288496.0999298-.0623121.1498909-.0957804l-.0009556-.3375874c1.0611973-.7024298 1.8978729-2.2046571 1.8943558-3.4451027-.0010548-.3721128-.0800037-.676156-.2148247-.9136181l.2553921-.3153372c-.0462799-.0791283-.0945396-.1524963-.1507759-.2143922l-.2573853.318861c-.3715572-.4043527-.990387-.4519897-1.6900177-.0480576-.7016354.4050899-1.3181667 1.1659627-1.6862259 1.997333l-.2583427-.0211051c.0209599-.0479259.0426254-.0957599.0650349-.1433964.4261551-.9052238 1.1086845-1.7259274 1.8785782-2.1704254.769886-.4444942 1.4541053-.4128837 1.8834209-.0015659z" fill="#272e3a"/></g></g><g><path d="m22.8157406 5.1469493 1.80373-1.0413847.0091305 3.2203784-1.8037205 1.041379c.2904491-.6175508.4615631-1.2745476.4598522-1.8783207s-.175991-1.061234-.4689922-1.342052z" fill="#7bb1ff"/></g><g><path d="m18.9887009 7.4623404c-.0085278.0194011-.0168133.0387921-.0249844.0583634-.235775.5575185-.3720684 1.1384969-.3705406 1.6769691.0017109.6037741.1762943 1.061182.4696827 1.3416529l-3.0657663 1.7700214 1.5820398-4.1390409 1.4746094-.8513656c-.0224095.0476364-.0440751.0954704-.0650406.1433997z" fill="#7bb1ff"/></g><g><path d="m19.2988071 8.7902765c-.0008068-.2847528.0563927-.5892687.1536522-.8893194l.2223034.0189433c-.0773926.2447715-.1207466.4907393-.1200886.722652.0023174.8177443.5459499 1.1802874 1.2378387.8681984l.0008411.2963409c-.833824.3916617-1.4917658-.0359449-1.4945468-1.0168152z" fill="#272e3a"/></g><g><path d="m21.0951958 9.6328239-.0008412-.2963409c.6933937-.4877052 1.2311993-1.4746161 1.2288799-2.2923608-.000658-.2319121-.0452576-.4270992-.1237869-.5818486l.2214699-.2751575c.0986385.1869497.1573772.4245286.1581841.7092814.0027809.9808703-.6505909 2.1655637-1.4839058 2.7364264z" fill="#272e3a"/></g><g><path d="m19.0537415 7.3189406-1.4746094.8513656-1.5820398 4.1390409 3.0657663-1.7700214c.4298878.4109869 1.1148434.442296 1.884737-.002202.7698879-.4444942 1.4516964-1.2649059 1.877285-2.1698017l1.8037205-1.041379.0051708 1.8237801-11.8638296 6.8495855-.0051708-1.8237801.5437183-.3139162 1.5820408-4.1390409-2.1348886 1.2325783-.0051708-1.8237858 11.8638306-6.8495855.0051689 1.8237863-1.80373 1.0413847c-.4293156-.4113178-1.1135349-.4429283-1.8834209.0015659-.7698938.444498-1.4524233 1.2652015-1.8785783 2.1704253zm-3.7962656 5.4174247 1.5820417-4.1390419-1.2113657.6993818-1.5820456 4.1390448z" fill="#373f51"/></g></g></g><g><g enable-background="new"><g><path d="m11.650754 15.0287504.0203705.7905169.1368608-.0964642.0062494-.6721916c0-.1259689.0573273-.201642.1401863-.2221279-.1602706-.0646658-.303667.0119247-.303667.2002668z" fill="#9da9c1"/></g><g><path d="m12.3254671 16.195034v-.7796631c0-.203476-.1440077-.4570961-.3224707-.5604391-.178462-.103344-.3256044-.0188046-.3256044.1878834l-.0031338.7764521-.5329676-.3084087-.0187845-9.3299637c0-.0343966-.012516-.0564108-.0313005-.0689464l1.7445974 1.016067c.0187845.0093255.0313196.0343966.0313196.0657363l.0219183 9.3299646z" fill="#e3e7f0"/></g><g><g><path d="m11.914053 11.1650953-.0047398 2.5413523-.5342064-.308424.0047398-2.5413523z" fill="#272e3a"/></g><g><path d="m11.9202271 8.2444181-.0047398 1.6719284-.5342074-.3084239.0047408-1.6719289z" fill="#272e3a"/></g></g><g><path d="m10.7777357 8.2783546-1.7456741-1.0140934-.0006953-.2451973 1.7456742 1.0140934z" fill="#b4bed7"/></g><path d="m11.2419415 5.8521881c-.0583286-.0338874-.1390314-.0291095-.227664.0220523l-1.9829121 1.1448174 1.7456779 1.0140662 1.9829025-1.1448174c.0886412-.0511618.1693354-.0558662.227664-.0219789z" fill="#e3e7f0"/><g><path d="m12.7599497 6.8883247c.1758957-.1015534.3205376-.0202498.3211136.1830025l.0210762 9.329895-.2133818.1231956-.0210762-9.329895c-.0001907-.0674114-.0484056-.094852-.1070375-.0610013l-1.9829082 1.1448326-.0006952-.2451973z" fill="#9da9c1"/></g></g></g></g><g><g><path d="m17.6735897 11.99121-1.289526-1.8118458 10.944727-6.3189411 2.2066307 1.2823543z" fill="#4c5671"/><g><g><path d="m19.8126545 12.5829878-1.5820427 4.1390409-.5437164.3139153-.0091305-3.220377z" fill="#7bb1ff"/></g><g><path d="m21.7616405 11.4577408-1.5820426 4.1390419-1.2113686.6993847 1.5820427-4.1390429z" fill="#7bb1ff"/></g><g enable-background="new"><g><path d="m27.8350468 9.564086c.0033798 1.1920919-.7994328 2.6334543-1.8166504 3.3104925l-.0008335-.293972c.8772964-.5940104 1.5645351-1.8397007 1.5616169-2.8687954-.0008602-.3031969-.0636368-.5521717-.1703014-.7459717l.2214699-.275157c.1287745.2247286.2036895.5173721.2046985.8734036z" fill="#272e3a"/></g><g><path d="m26.0146122 11.5401688c.3781662-.2995901.6643429-.8477736.6630383-1.3078604-.0003204-.1135254-.018158-.2123203-.0505238-.2944908l.4266052-.5300264c.0724926.1445084.1130505.3259268.1136627.5417643.002182.7695131-.5017605 1.6954365-1.1511745 2.1578732z" fill="#272e3a"/></g><g><path d="m25.8567295 8.8174582c.5477142-.3162222 1.0323486-.2832222 1.3315372.0203609l-.2214661.275032c-.2529716-.2427692-.6554718-.2633963-1.1092377-.0014153-.4537697.2619848-.8548431.7465544-1.1076088 1.2813129l-.2222996-.0188246c.2964994-.6475027.781357-1.2402409 1.329075-1.5564659z" fill="#272e3a"/></g><g><path d="m25.8556499 8.4361324c.669651-.3866234 1.2644386-.3412075 1.6219215.0413122l-.2214642.2775202c-.3132629-.3230438-.8239269-.3572397-1.3996239-.0248604-.5777035.3335371-1.0865059.9563227-1.3969154 1.6394434l-.222311-.021306c.354149-.7933807.9467412-1.5243311 1.618393-1.9121094z" fill="#272e3a"/></g><g><path d="m25.7168083 13.1384468.0009575.3375874c.0499821-.0242338.0999756-.04848.1519489-.0784874-.7698917.4444981-1.4548492.4131889-1.8847351.002202-.2933903-.2804708-.4679737-.7378788-.4696846-1.3416529-.0015259-.5384722.1347656-1.1194506.3705406-1.6769695-.0452213.1077404-.0853996.2171926-.1240864.3291454l.2563477.0198841c-.1330414.3921127-.2080097.7850199-.206955 1.1571331.0035153 1.2404461.8459607 1.7732335 1.9056664 1.2511578z" fill="#272e3a"/></g><g><path d="m27.9535732 8.2901211-.2553921.3153372c.1348209.237462.2137699.5415049.2148247.9136181.0035172 1.2404461-.8331585 2.7426729-1.8943558 3.4451027l.0009556.3375874c-.0499611.0334682-.0999222.0669308-.1498909.0957804-.0519733.0300074-.1019669.0542536-.1519489.0784874l-.0009575-.3375874c-1.0597057.5220757-1.9021511-.0107117-1.9056664-1.2511578-.0010548-.3721132.0739136-.7650204.206955-1.1571331l-.2563477-.0198841c.0386868-.1119528.0788651-.221405.1240864-.3291454.008173-.0195713.0164566-.0389614.0249844-.058363l.2583485.021102c.3680592-.8313704.9845905-1.5922432 1.6862278-1.9973335.6996307-.4039316 1.3184586-.3562946 1.6900158.0480585l.2573853-.318861c.0562362.0618952.1044959.1352633.1507758.2143916zm-2.0888328 3.3525553c.0511932-.0295572.1012974-.0639811.1498718-.1025076l.0016079.5672598c.6494141-.4624367 1.1533566-1.38836 1.1511745-2.1578732-.0006123-.2158375-.0411701-.3972559-.1136627-.5417643l-.4266052.5300264c-.0354443-.0901308-.0883617-.1603117-.1548119-.2085705l.4266529-.5311728c-.238905-.2255487-.6173763-.241704-1.0411491.0029621-.4257813.2458239-.8009224.6970768-1.0397701 1.1984577l.4286575.0369835c-.0661507.1249447-.1186314.2561007-.153511.3869562l-.4282188-.0364933c-.0714359.2276049-.110836.4551878-.1102238.6710253.002182.7695131.5097179 1.1114597 1.1596279.8237305l-.0016098-.5675116c.0492572-.0178269.1000461-.0415304.1519699-.0715082m1.9703064-2.0785904c-.001009-.3560314-.0759239-.648675-.2046986-.8734035l-.2214699.275157c.1066647.1938.1694412.4427748.1703014.7459717.0029182 1.0290947-.6843204 2.274785-1.5616169 2.8687954l.0008335.293972c1.0172177-.6770383 1.8200303-2.1184007 1.8166505-3.3104926m-2.1184922 3.4847612-.0008335-.293972c-.8757915.4181356-1.5698357-.0300703-1.5727539-1.059166-.0008602-.3031969.060297-.6237249.1655235-.9398603l-.2222996-.0189466c-.1270866.3724499-.198101.7493458-.1970901 1.1053772.0033799 1.1920919.8097267 1.7044057 1.8274536 1.2065677m-.0010814-.3813324-.0008392-.2963409c-.6918907.312089-1.2355232-.0504541-1.2378407-.8681984-.000658-.2319126.042696-.4778795.1200886-.7226515l-.2223034-.0189438c-.0972595.3000507-.154459.6045666-.1536522.8893194.0027809.9808703.6607227 1.4084768 1.4945469 1.0168152m1.6275635-3.6199751-.2214699.275157c.0785313.1547489.1231308.3499365.1237869.5818491.0023193.8177443-.5354843 1.8046551-1.2288799 2.2923603l.0008411.2963409c.8333149-.5708628 1.4866867-1.7555561 1.4839058-2.7364264-.0008068-.2847528-.0595455-.5223312-.158184-.7092809m-1.4873868-.6114073c-.6716518.3877783-1.2642441 1.1187286-1.6183929 1.9121094l.222311.021306c.3104095-.6831207.819212-1.3059063 1.3969154-1.6394434.5756969-.3323793 1.0863609-.2981834 1.3996239.0248604l.2214642-.2775202c-.3574829-.3825197-.9522705-.4279356-1.6219216-.0413122m1.1111508.6767187.2214661-.275032c-.2991886-.3035831-.783823-.3365831-1.3315372-.0203609-.547718.3162251-1.0325756.9089632-1.3290749 1.5564661l.2222996.0188246c.2527657-.5347586.6538391-1.0193281 1.1076088-1.2813129.4537658-.2619811.8562659-.2413541 1.1092376.0014151" fill="#9da9c1"/></g><g><path d="m25.7127705 11.7141848.0016098.5675116c-.64991.2877293-1.1574459-.0542173-1.1596279-.8237305-.0006123-.2158375.0387878-.4434204.1102238-.6710253l.4282188.0364933c-.0318127.1192226-.0490208.2382526-.0486984.351778.0013027.459466.2889556.6760893.6682739.5389729z" fill="#272e3a"/></g><g><path d="m25.8594151 9.7638063c.2435493-.1406136.4627895-.1437435.6129036-.0345659.0664463.0482626.1193637.1184426.1548118.2085686.0323639.0821714.0502014.1809673.0505219.2944946.0013046.4600897-.2848721 1.0082684-.6630363 1.3078604-.0485764.0385303-.0986786.0729494-.1498756.1025076-.0519238.0299778-.1027107.0536833-.151968.0715113-.3793163.1371164-.6669693-.0795107-.668272-.5389776-.0003223-.1135273.0168839-.2325554.0486965-.351778.0348778-.1308546.0873604-.2620115.153511-.3869543.1492271-.2817527.3681811-.5314904.6127071-.6726667z" fill="#7bb1ff"/></g><g><path d="m26.4723148 9.7292471c-.1501122-.1091795-.3693562-.1060495-.6129017.0345621-.2445297.1411791-.4634838.3909187-.6127071.6726685l-.4286575-.0369835c.2388477-.5013809.6139889-.9526339 1.0397701-1.1984577.4237728-.2446661.8022442-.2285109 1.0411491-.0029621z" fill="#272e3a"/></g><g><path d="m23.889101 11.8422794c-.0010109-.3560314.0700035-.7329273.1970901-1.1053772l.2222996.0189466c-.1052265.3161354-.1663837.6366634-.1655235.9398603.0029182 1.0290956.6969624 1.4773016 1.5727539 1.059166l.0008335.293972c-1.0177269.4978381-1.8240737-.0144757-1.8274536-1.2065677z" fill="#272e3a"/></g><g><path d="m27.7378597 8.0073729c.2930012.280817.4672813.7382784.4689922 1.3420515.0017128.6037731-.1694031 1.2607698-.4598522 1.8783207-.4255886.9048958-1.1073971 1.7253075-1.877285 2.1698017.0499687-.0288496.0999298-.0623121.1498909-.0957804l-.0009556-.3375874c1.0611973-.7024298 1.8978729-2.2046566 1.8943558-3.4451027-.0010548-.3721132-.0800037-.676156-.2148247-.9136181l.2553921-.3153372c-.0462799-.0791283-.0945396-.1524963-.1507759-.2143917l-.2573853.318861c-.3715572-.4043531-.9903851-.4519901-1.6900158-.0480585-.7016373.4050903-1.3181686 1.1659632-1.6862278 1.9973335l-.2583427-.0211058c.0209618-.047925.0426254-.0957594.0650349-.1433954.4261551-.9052238 1.1086845-1.7259283 1.8785782-2.1704254.769886-.4444946 1.4541054-.4128841 1.8834209-.0015658z" fill="#272e3a"/></g></g><g><path d="m27.7378597 8.0073729 1.8037319-1.0413852.0091286 3.2203784-1.8037205 1.041379c.2904491-.6175508.461565-1.2745476.4598522-1.8783207-.0017108-.6037732-.175991-1.0612345-.4689922-1.3420515z" fill="#7bb1ff"/></g><g><path d="m23.91082 10.3227634c-.0085278.0194016-.0168114.0387917-.0249844.058363-.235775.557519-.3720665 1.1384974-.3705406 1.6769695.0017109.6037741.1762943 1.061182.4696846 1.3416529l-3.0657673 1.7700214 1.5820389-4.1390409 1.4746094-.8513651c-.0224094.047636-.0440731.0954704-.0650406.1433992z" fill="#7bb1ff"/></g><g><path d="m24.2209263 11.6506996c-.0008068-.2847528.0563927-.5892687.1536522-.8893194l.2223034.0189438c-.0773926.244772-.1207466.4907389-.1200886.7226515.0023174.8177443.5459499 1.1802874 1.2378407.8681984l.0008392.2963409c-.8338242.3916616-1.491766-.0359449-1.4945469-1.0168152z" fill="#272e3a"/></g><g><path d="m26.0173149 12.493247-.0008411-.2963409c.6933956-.4877052 1.2311993-1.4746161 1.2288799-2.2923603-.0006561-.2319126-.0452557-.4271002-.1237869-.5818491l.2214699-.275157c.0986385.1869497.1573772.4245281.1581841.709281.0027808.9808702-.650591 2.1655636-1.4839059 2.7364263z" fill="#272e3a"/></g><g><path d="m23.9758606 10.1793642-1.4746094.8513651-1.5820389 4.1390409 3.0657673-1.7700214c.4298859.4109869 1.1148434.442296 1.8847351-.002202.7698879-.4444942 1.4516964-1.2649059 1.877285-2.1698017l1.8037205-1.041379.0051708 1.8237801-11.8638287 6.8495855-.0051708-1.8237801.5437183-.3139153 1.5820408-4.1390419-2.1348896 1.2325783-.0051708-1.8237858 11.8638306-6.8495855.0051708 1.8237863-1.8037319 1.0413852c-.4293156-.4113183-1.1135349-.4429288-1.8834209.0015659-.7698937.4444971-1.4524231 1.2652016-1.8785782 2.1704254zm-3.7962647 5.4174242 1.5820408-4.1390419-1.2113647.6993818-1.5820465 4.1390448z" fill="#373f51"/></g></g></g><g><g enable-background="new"><g><path d="m16.5728722 17.8891735.0203705.7905159.1368618-.0964642.0062485-.6721916c0-.1259689.0573292-.2016411.1401863-.222126-.1602689-.0646667-.3036671.0119229-.3036671.2002659z" fill="#9da9c1"/></g><g><path d="m17.2475872 19.0554581v-.7796631c0-.2034779-.1440086-.4570961-.3224716-.5604401-.1784611-.103344-.3256035-.0188046-.3256035.1878834l-.0031338.7764511-.5329685-.3084068-.0187836-9.3299646c0-.0343971-.012516-.0564108-.0313015-.0689468l1.7445965 1.0160666c.0187855.009326.0313206.0343971.0313206.0657368l.0219193 9.3299637z" fill="#e3e7f0"/></g><g><g><path d="m16.8361721 14.0255184-.0047398 2.5413532-.5342063-.3084259.0047397-2.5413513z" fill="#272e3a"/></g><g><path d="m16.8423462 11.1048412-.0047398 1.6719284-.5342064-.308424.0047398-1.6719284z" fill="#272e3a"/></g></g><g><path d="m15.6998549 11.1387777-1.7456742-1.0140934-.0006952-.2451973 1.7456741 1.0140934z" fill="#b4bed7"/></g><path d="m16.1640606 8.7126112c-.0583286-.0338869-.1390324-.029109-.227664.0220528l-1.9829121 1.1448164 1.7456779 1.0140667 1.9829016-1.1448174c.0886421-.0511618.1693363-.0558662.2276649-.0219793z" fill="#e3e7f0"/><g><path d="m17.6820679 9.7487478c.1758957-.1015539.3205395-.0202503.3211155.1830025l.0210743 9.329896-.2133808.1231956-.0210762-9.329896c-.0001907-.0674105-.0484047-.0948515-.1070366-.0610008l-1.9829092 1.1448326-.0006952-.2451973z" fill="#9da9c1"/></g></g></g></g><g><g><path d="m22.5957088 14.8516331-1.2895259-1.8118458 10.944725-6.3189411 2.2066345 1.2823543z" fill="#4c5671"/><g><g><path d="m24.7347755 15.4434109-1.5820446 4.1390419-.5437164.3139152-.0091286-3.2203788z" fill="#7bb1ff"/></g><g><path d="m26.6837597 14.3181639-1.5820427 4.1390409-1.2113686.6993847 1.5820427-4.1390419z" fill="#7bb1ff"/></g><g enable-background="new"><g><path d="m32.7571678 12.424509c.0033798 1.1920919-.7994347 2.6334543-1.8166523 3.3104925l-.0008335-.2939711c.8772964-.5940113 1.5645332-1.8397017 1.5616188-2.8687963-.0008621-.3031969-.0636368-.5521717-.1703033-.7459717l.2214699-.275157c.1287727.2247287.2036895.5173722.2047004.8734036z" fill="#272e3a"/></g><g><path d="m30.9367313 14.4005919c.3781662-.2995901.6643429-.8477736.6630402-1.3078594-.0003223-.1135263-.0181599-.2123213-.0505257-.2944918l.4266052-.5300264c.0724926.1445084.1130505.3259268.1136646.5417643.002182.7695131-.5017605 1.6954365-1.1511765 2.1578732z" fill="#272e3a"/></g><g><path d="m30.7788506 11.6778812c.5477123-.3162222 1.0323467-.2832222 1.3315353.0203609l-.2214642.275032c-.2529736-.2427692-.6554737-.2633963-1.1092377-.0014153-.4537716.2619848-.854845.7465544-1.1076107 1.2813129l-.2222996-.0188246c.2964993-.6475027.7813569-1.2402408 1.3290769-1.5564659z" fill="#272e3a"/></g><g><path d="m30.7777691 11.2965555c.669651-.3866234 1.2644405-.3412075 1.6219234.0413122l-.2214661.2775202c-.313261-.3230438-.8239269-.3572397-1.3996239-.0248604-.5777035.3335371-1.0865059.9563227-1.3969154 1.6394434l-.222311-.021306c.3541489-.7933807.9467411-1.5243311 1.618393-1.9121094z" fill="#272e3a"/></g><g><path d="m30.6389275 15.9988699.0009575.3375883c.0499821-.0242348.0999756-.048481.1519489-.0784893-.7698917.4444981-1.4548473.4131908-1.8847351.002203-.2933903-.2804708-.4679718-.7378788-.4696846-1.3416529-.0015259-.5384722.1347675-1.1194506.3705406-1.6769695-.0452194.1077404-.0853996.2171926-.1240864.3291454l.2563477.0198851c-.1330414.3921118-.2080097.7850189-.206955 1.1571321.0035172 1.2404461.8459606 1.7732325 1.9056664 1.2511578z" fill="#272e3a"/></g><g><path d="m32.8756943 11.1505442-.255394.3153372c.1348228.237462.2137718.5415049.2148247.9136181.0035172 1.2404461-.8331566 2.7426729-1.8943558 3.4451027l.0009575.3375874c-.049963.0334682-.0999241.0669308-.1498928.0957794-.0519733.0300083-.1019669.0542545-.1519489.0784893l-.0009575-.3375883c-1.0597057.5220747-1.9021492-.0107117-1.9056664-1.2511578-.0010548-.3721132.0739136-.7650204.206955-1.1571321l-.2563477-.0198851c.0386868-.1119528.078867-.221405.1240864-.3291454.008173-.0195713.0164566-.0389614.0249844-.058363l.2583485.021102c.3680592-.8313704.9845905-1.5922432 1.6862278-1.9973335.6996307-.4039316 1.3184586-.3562946 1.6900177.0480585l.2573853-.318861c.0562323.0618952.1044959.1352633.1507758.2143916zm-2.0888348 3.3525552c.0511932-.0295563.1012993-.0639811.1498718-.1025076l.0016079.5672598c.649416-.4624367 1.1533585-1.38836 1.1511765-2.1578732-.0006142-.2158375-.041172-.3972559-.1136646-.5417643l-.4266052.5300264c-.0354443-.0901308-.0883617-.1603117-.1548119-.2085705l.4266529-.5311728c-.238905-.2255487-.6173763-.241704-1.0411491.0029621-.4257813.2458239-.8009224.6970768-1.0397701 1.1984577l.4286575.0369835c-.0661507.1249447-.1186314.2561016-.153511.3869562l-.4282188-.0364933c-.0714359.2276049-.110836.4551878-.1102238.6710253.002182.7695131.5097179 1.1114597 1.1596279.8237305l-.0016098-.5675116c.0492572-.0178268.1000461-.0415304.1519698-.0715082m1.9703083-2.0785904c-.0010109-.3560314-.0759277-.648675-.2047005-.8734035l-.2214699.275157c.1066666.1938.1694412.4427748.1703033.7459717.0029144 1.0290947-.6843224 2.274785-1.5616188 2.8687963l.0008335.2939711c1.0172178-.6770382 1.8200322-2.1184006 1.8166524-3.3104926m-2.118494 3.4847613-.0008335-.293972c-.8757915.4181356-1.5698357-.0300703-1.5727539-1.059166-.0008602-.3031969.060297-.6237249.1655235-.9398603l-.2222996-.0189466c-.1270866.3724499-.1980991.7493458-.1970901 1.1053772.0033798 1.1920919.8097267 1.7044057 1.8274536 1.2065677m-.0010815-.3813324-.0008392-.2963409c-.6918888.312089-1.2355232-.0504541-1.2378407-.8681984-.000658-.2319126.042696-.4778795.1200905-.7226515l-.2223053-.0189438c-.0972576.3000507-.154459.6045666-.1536522.8893194.0027809.9808703.6607228 1.4084768 1.4945469 1.0168152m1.6275635-3.6199751-.2214699.275157c.0785294.1547499.1231308.3499365.1237869.5818491.0023193.8177443-.5354843 1.8046551-1.2288799 2.2923603l.0008411.2963409c.8333168-.5708628 1.4866867-1.7555561 1.4839058-2.7364264-.0008049-.2847528-.0595436-.5223312-.158184-.7092809m-1.4873867-.6114073c-.6716518.3877783-1.2642441 1.1187286-1.6183929 1.9121094l.222311.021306c.3104095-.6831207.819212-1.3059063 1.3969154-1.6394434.5756969-.3323793 1.0863628-.2981834 1.3996239.0248604l.2214661-.2775202c-.357483-.3825197-.9522725-.4279356-1.6219235-.0413122m1.1111526.6767187.2214642-.275032c-.2991886-.3035831-.783823-.3365831-1.3315353-.0203609-.54772.3162251-1.0325775.9089632-1.3290768 1.5564661l.2222996.0188246c.2527657-.5347586.6538391-1.0193281 1.1076107-1.2813129.4537639-.2619811.8562641-.2413541 1.1092376.0014151" fill="#9da9c1"/></g><g><path d="m30.6348896 14.5746078.0016098.5675116c-.64991.2877293-1.1574459-.0542173-1.1596279-.8237305-.0006123-.2158375.0387878-.4434204.1102238-.6710253l.4282188.0364933c-.0318127.1192226-.0490208.2382526-.0486984.351778.0013027.4594661.2889557.6760894.6682739.5389729z" fill="#272e3a"/></g><g><path d="m30.7815342 12.6242294c.2435493-.1406136.4627895-.1437435.6129036-.0345659.0664482.0482626.1193657.1184425.1548119.2085686.0323639.0821714.0502014.1809673.0505219.2944946.0013046.4600897-.2848721 1.0082684-.6630363 1.3078604-.0485764.0385303-.0986786.0729494-.1498737.1025076-.0519257.0299778-.1027126.0536833-.1519699.0715113-.3793163.1371164-.6669693-.0795107-.668272-.5389776-.0003223-.1135273.0168839-.2325554.0486965-.351778.0348778-.1308546.0873604-.2620115.153511-.3869543.149227-.2817527.3681811-.5314904.612707-.6726667z" fill="#7bb1ff"/></g><g><path d="m31.394434 12.5896702c-.1501122-.1091795-.3693562-.1060495-.6129017.0345621-.2445278.1411791-.4634838.3909187-.6127071.6726685l-.4286575-.0369835c.2388477-.5013809.6139889-.9526339 1.0397701-1.1984577.4237728-.2446661.8022442-.2285109 1.0411491-.0029621z" fill="#272e3a"/></g><g><path d="m28.8112202 14.7027025c-.001009-.3560314.0700035-.7329273.1970901-1.1053772l.2222996.0189466c-.1052265.3161354-.1663837.6366634-.1655235.9398603.0029182 1.0290956.6969624 1.4773016 1.5727539 1.059166l.0008335.293972c-1.0177269.4978381-1.8240738-.0144757-1.8274536-1.2065677z" fill="#272e3a"/></g><g><path d="m32.659977 10.8677959c.2930031.280817.4672813.7382784.4689941 1.3420515s-.1694031 1.2607698-.4598503 1.8783207c-.4255905.9048958-1.107399 1.7253075-1.8772869 2.1698008.0499687-.0288486.0999298-.0623112.1498928-.0957794l-.0009575-.3375874c1.0611992-.7024298 1.8978729-2.2046566 1.8943558-3.4451027-.0010529-.3721132-.0800018-.676156-.2148247-.9136181l.255394-.3153372c-.0462799-.0791283-.0945435-.1524963-.1507759-.2143917l-.2573853.318861c-.3715591-.4043531-.990387-.4519901-1.6900177-.0480585-.7016373.4050903-1.3181686 1.1659632-1.6862278 1.9973335l-.2583427-.0211048c.0209618-.0479259.0426254-.0957603.0650349-.1433964.4261551-.9052238 1.1086845-1.7259283 1.8785782-2.1704254.7698859-.4444951 1.4541053-.4128837 1.883419-.0015659z" fill="#272e3a"/></g></g><g><path d="m32.659977 10.8677959 1.8037338-1.0413847.0091286 3.2203779-1.8037186 1.041379c.2904472-.6175508.4615631-1.2745476.4598503-1.8783207s-.1759911-1.0612344-.4689941-1.3420515z" fill="#7bb1ff"/></g><g><path d="m28.8329391 13.1831865c-.0085278.0194016-.0168114.0387917-.0249844.058363-.2357731.557519-.3720665 1.1384974-.3705406 1.6769695.0017128.6037741.1762943 1.061182.4696846 1.3416529l-3.0657673 1.7700214 1.5820408-4.1390409 1.4746075-.8513651c-.0224094.047636-.0440731.0954704-.0650406.1433992z" fill="#7bb1ff"/></g><g><path d="m29.1430454 14.5111227c-.0008068-.2847528.0563946-.5892687.1536522-.8893194l.2223053.0189438c-.0773945.244772-.1207485.4907389-.1200905.7226515.0023174.8177443.5459518 1.1802874 1.2378407.8681984l.0008392.2963409c-.8338241.3916616-1.491766-.0359449-1.4945469-1.0168152z" fill="#272e3a"/></g><g><path d="m30.9394341 15.3536701-.0008411-.2963409c.6933956-.4877052 1.2311993-1.4746161 1.2288799-2.2923603-.0006561-.2319126-.0452576-.4270992-.1237869-.5818491l.2214699-.275157c.0986404.1869497.1573792.4245281.1581841.709281.0027808.9808702-.6505891 2.1655636-1.4839059 2.7364263z" fill="#272e3a"/></g><g><path d="m28.8979797 13.0397873-1.4746075.8513651-1.5820408 4.1390409 3.0657673-1.7700214c.4298878.4109879 1.1148434.4422951 1.8847351-.002203.7698879-.4444933 1.4516964-1.264905 1.8772869-2.1698008l1.8037186-1.041379.0051727 1.8237801-11.8638306 6.8495846-.0051708-1.8237782.5437183-.3139172 1.5820408-4.1390409-2.1348896 1.2325792-.0051707-1.8237867 11.8638287-6.8495855.0051727 1.8237867-1.8037338 1.0413847c-.4293137-.4113178-1.113533-.4429293-1.883419.0015659-.7698937.4444972-1.4524232 1.2652016-1.8785783 2.1704255zm-3.7962646 5.4174232 1.5820408-4.1390409-1.2113647.6993818-1.5820465 4.1390438z" fill="#373f51"/></g></g></g><g><g enable-background="new"><g><path d="m21.4949932 20.7495956.0203705.7905178.1368599-.0964642.0062504-.6721916c0-.1259689.0573273-.201643.1401863-.2221279-.1602707-.0646648-.3036671.0119248-.3036671.2002659z" fill="#9da9c1"/></g><g><path d="m22.1697063 21.9158802v-.7796631c0-.203476-.1440086-.4570961-.3224716-.5604401-.1784611-.1033421-.3256035-.0188026-.3256035.1878834l-.0031338.776453-.5329666-.3084087-.0187855-9.3299637c0-.0343971-.012516-.0564108-.0313015-.0689468l1.7445984 1.0160666c.0187836.009326.0313187.0343971.0313187.0657368l.0219193 9.3299646z" fill="#e3e7f0"/></g><g><g><path d="m21.7582912 16.8859425-.0047378 2.5413513-.5342083-.308424.0047398-2.5413532z" fill="#272e3a"/></g><g><path d="m21.7644653 13.9652643-.0047397 1.6719284-.5342064-.308424.0047397-1.6719284z" fill="#272e3a"/></g></g><g><path d="m20.6219749 13.9992008-1.7456741-1.0140934-.0006962-.2451973 1.7456742 1.0140934z" fill="#b4bed7"/></g><path d="m21.0861797 11.5730343c-.0583286-.0338869-.1390305-.029109-.227663.0220528l-1.9829121 1.1448164 1.7456779 1.0140667 1.9829025-1.1448174c.0886402-.0511618.1693344-.0558662.227663-.0219793z" fill="#e3e7f0"/><g><path d="m22.6041889 12.6091709c.1758957-.101553.3205376-.0202503.3211136.1830025l.0210762 9.329895-.2133827.1231956-.0210762-9.329895c-.0001907-.0674105-.0484047-.0948515-.1070366-.0610008l-1.9829082 1.1448326-.0006962-.2451973z" fill="#9da9c1"/></g></g></g></g><g><g><path d="m27.517828 17.7120552-1.289526-1.8118448 10.944725-6.3189411 2.2066346 1.2823543z" fill="#4c5671"/><g><g><path d="m29.6568947 18.303833-1.5820427 4.1390419-.5437183.3139153-.0091286-3.220377z" fill="#7bb1ff"/></g><g><path d="m31.6058788 17.178587-1.5820427 4.1390419-1.2113685.6993846 1.5820427-4.1390419z" fill="#7bb1ff"/></g><g enable-background="new"><g><path d="m37.679287 15.2849321c.0033798 1.1920919-.7994347 2.6334543-1.8166542 3.3104925l-.0008316-.293972c.8772964-.5940094 1.564537-1.8397007 1.5616188-2.8687954-.0008621-.3031969-.0636368-.5521717-.1703033-.7459717l.2214699-.275157c.1287764.2247287.2036895.5173722.2047004.8734036z" fill="#272e3a"/></g><g><path d="m35.8588524 17.2610149c.3781662-.2995911.664341-.8477726.6630363-1.3078594-.0003204-.1135263-.018158-.2123213-.0505257-.2944908l.426609-.5300274c.0724907.1445084.1130486.3259268.1136627.5417643.002182.7695131-.5017624 1.6954374-1.1511765 2.1578722z" fill="#272e3a"/></g><g><path d="m35.7009697 14.5383043c.5477142-.3162222 1.0323486-.2832222 1.3315353.0203609l-.2214661.275032c-.2529716-.2427692-.6554718-.2633963-1.1092377-.0014153-.4537697.2619848-.8548431.7465544-1.1076088 1.281312l-.2222977-.0188236c.2964975-.6475028.7813569-1.2402409 1.329075-1.556466z" fill="#272e3a"/></g><g><path d="m35.6998863 14.1569786c.6696548-.3866234 1.2644424-.3412075 1.6219254.0413122l-.2214661.2775202c-.3132629-.3230438-.823925-.3572397-1.3996239-.0248604-.5777016.3335371-1.0865059.9563227-1.3969154 1.6394444l-.2223129-.021307c.3541488-.7933808.946743-1.5243311 1.6183929-1.9121094z" fill="#272e3a"/></g><g><path d="m35.5610466 18.859293.0009575.3375874c.049984-.0242329.0999756-.0484791.1519508-.0784874-.7698936.4444981-1.4548492.4131889-1.8847389.002203-.2933884-.2804718-.4679718-.7378807-.4696808-1.3416538-.0015297-.5384731.1347656-1.1194496.3705406-1.6769695-.0452232.1077404-.0853996.2171917-.1240883.3291454l.2563477.0198841c-.1330414.3921127-.2080116.7850208-.206955 1.1571331.0035172 1.240446.8459588 1.7732333 1.9056664 1.2511577z" fill="#272e3a"/></g><g><path d="m37.7978134 14.0109673-.255394.3153372c.1348228.237462.2137718.5415049.2148247.9136181.0035172 1.2404451-.8331566 2.7426729-1.8943558 3.4451036l.0009575.3375854c-.0499611.0334702-.0999222.0669327-.1498909.0957813-.0519753.0300083-.1019669.0542545-.1519508.0784874l-.0009575-.3375874c-1.0597076.5220757-1.9021492-.0107117-1.9056664-1.2511578-.0010567-.3721123.0739136-.7650204.206955-1.1571331l-.2563477-.0198841c.0386887-.1119537.0788651-.221405.1240883-.3291454.0081711-.0195713.0164566-.0389614.0249825-.058363l.2583504.021101c.3680573-.8313694.9845886-1.5922422 1.6862259-1.9973326.6996307-.4039316 1.3184586-.3562946 1.6900177.0480585l.2573853-.318861c.0562362.0618955.1044959.1352636.1507758.2143919zm-2.0888328 3.3525543c.0511932-.0295563.1012955-.0639801.1498718-.1025066l.001606.5672588c.6494141-.4624348 1.1533585-1.3883591 1.1511765-2.1578722-.0006142-.2158375-.041172-.3972559-.1136627-.5417643l-.426609.5300274c-.0354424-.0901318-.0883598-.1603127-.154808-.2085714l.426651-.5311728c-.2389069-.2255487-.6173744-.241704-1.0411491.0029621-.4257813.2458239-.8009224.6970768-1.0397682 1.1984577l.4286575.0369835c-.0661507.1249447-.1186333.2561016-.153511.3869553l-.4282188-.0364933c-.0714378.2276058-.110836.4551888-.1102257.6710262.002182.7695122.5097198 1.1114597 1.159626.8237305l-.001606-.5675106c.0492551-.017828.100044-.0415306.1519697-.0715103m1.9703064-2.0785895c-.0010109-.3560314-.0759239-.648675-.2047005-.8734035l-.2214699.275157c.1066666.1938.1694412.4427748.1703033.7459717.0029182 1.0290947-.6843224 2.274786-1.5616188 2.8687954l.0008316.293972c1.0172196-.6770382 1.8200341-2.1184006 1.8166543-3.3104926m-2.1184922 3.4847613-.0008354-.293972c-.8757896.4181347-1.5698357-.0300713-1.5727539-1.059166-.0008583-.303196.0602989-.623724.1655235-.9398594l-.2222977-.0189476c-.1270866.3724499-.198101.7493458-.197094 1.1053772.0033799 1.192091.8097306 1.7044048 1.8274575 1.2065678m-.0010833-.3813324-.0008393-.296341c-.6918907.312088-1.2355232-.0504532-1.2378387-.8681984-.0006599-.2319126.0426941-.4778805.1200867-.7226524l-.2223015-.0189438c-.0972595.3000526-.1544609.6045685-.1536522.8893204.0027809.9808712.6607208 1.4084778 1.494545 1.0168152m1.6275634-3.6199751-.2214699.275157c.0785294.1547499.1231308.3499365.1237869.5818491.0023193.8177443-.5354843 1.8046541-1.228878 2.2923594l.0008392.2963409c.8333168-.5708618 1.4866867-1.7555542 1.4839058-2.7364254-.0008048-.2847529-.0595435-.5223313-.158184-.709281m-1.4873886-.6114073c-.6716499.3877783-1.2642441 1.1187286-1.6183929 1.9121094l.2223129.021307c.3104095-.6831217.8192139-1.3059072 1.3969154-1.6394444.5756989-.3323793 1.0863609-.2981834 1.3996239.0248604l.2214661-.2775202c-.3574829-.3825197-.9522705-.4279356-1.6219254-.0413122m1.1111527.6767187.2214661-.275032c-.2991867-.3035831-.7838211-.3365831-1.3315353-.0203609-.547718.3162251-1.0325775.9089632-1.3290749 1.5564661l.2222977.0188236c.2527657-.5347576.6538391-1.0193272 1.1076088-1.281312.4537658-.261981.8562659-.241354 1.1092376.0014152" fill="#9da9c1"/></g><g><path d="m35.5570107 17.4350319.001606.5675106c-.6499062.2877293-1.157444-.0542183-1.159626-.8237305-.0006104-.2158375.0387878-.4434204.1102257-.6710262l.4282188.0364933c-.0318146.1192226-.0490227.2382526-.0487022.351778.0013045.459467.2889594.6760903.6682777.5389748z" fill="#272e3a"/></g><g><path d="m35.7036552 15.4846525c.2435493-.1406136.4627876-.1437435.6129036-.0345659.0664444.0482626.1193619.1184425.1548119.2085686.0323639.0821714.0501976.1809673.0505219.2944946.0013046.4600887-.284874 1.0082684-.6630402 1.3078613-.0485764.0385303-.0986786.0729485-.1498718.1025066-.0519257.0299778-.1027107.0536842-.1519699.0715122-.3793144.1371155-.6669693-.0795116-.6682739-.5389786-.0003204-.1135273.0168877-.2325554.0486984-.351778.0348778-.1308556.0873604-.2620125.153511-.3869553.1492271-.2817515.3681831-.5314893.612709-.6726655z" fill="#7bb1ff"/></g><g><path d="m36.316555 15.4500933c-.150116-.1091795-.3693581-.1060495-.6129036.0345621-.2445297.1411791-.4634819.3909187-.6127052.6726685l-.4286575-.0369835c.2388458-.5013809.613987-.9526339 1.0397682-1.1984577.4237747-.2446661.8022423-.2285109 1.0411491-.0029621z" fill="#272e3a"/></g><g><path d="m33.7333374 17.5631256c-.0010071-.3560314.0700073-.7329273.197094-1.1053772l.2222977.0189476c-.1052246.3161354-.1663818.6366634-.1655235.9398594.0029182 1.0290947.6969643 1.4773006 1.5727539 1.059166l.0008354.293972c-1.017727.497837-1.8240777-.0144768-1.8274575-1.2065678z" fill="#272e3a"/></g><g><path d="m37.5820999 13.728219c.2929993.280817.4672813.7382784.4689903 1.3420515.0017128.6037731-.1694031 1.2607708-.4598503 1.8783207-.4255905.9048958-1.107399 1.7253075-1.877285 2.1698017.0499687-.0288486.0999298-.0623112.1498909-.0957813l-.0009575-.3375854c1.0611992-.7024307 1.8978729-2.2046585 1.8943558-3.4451036-.0010529-.3721132-.0800018-.676156-.2148247-.9136181l.255394-.3153372c-.0462799-.0791283-.0945396-.1524963-.1507759-.2143917l-.2573853.318861c-.3715591-.4043531-.990387-.4519901-1.6900177-.0480585-.7016373.4050903-1.3181686 1.1659632-1.6862259 1.9973326l-.2583466-.0211048c.0209618-.047925.0426292-.0957594.0650368-.1433954.4261551-.9052238 1.1086845-1.7259283 1.8785782-2.1704254.7698861-.4444953 1.4541054-.4128839 1.8834229-.0015661z" fill="#272e3a"/></g></g><g><path d="m37.5820999 13.728219 1.80373-1.0413847.0091286 3.2203779-1.8037186 1.041379c.2904472-.6175499.4615631-1.2745476.4598503-1.8783207-.0017089-.6037731-.175991-1.0612344-.4689903-1.3420515z" fill="#7bb1ff"/></g><g><path d="m33.7550583 16.0436096c-.0085258.0194016-.0168114.0387917-.0249825.058363-.235775.5575199-.3720703 1.1384964-.3705406 1.6769695.001709.6037731.1762924 1.061182.4696808 1.3416538l-3.0657654 1.7700214 1.5820389-4.1390419 1.4746094-.8513651c-.0224076.0476361-.044075.0954705-.0650406.1433993z" fill="#7bb1ff"/></g><g><path d="m34.0651665 17.3715458c-.0008087-.2847519.0563927-.5892677.1536522-.8893204l.2223015.0189438c-.0773926.244772-.1207466.4907398-.1200867.7226524.0023155.8177452.545948 1.1802864 1.2378387.8681984l.0008392.2963409c-.8338241.3916627-1.491764-.0359439-1.4945449-1.0168151z" fill="#272e3a"/></g><g><path d="m35.8615532 18.2140923-.0008392-.2963409c.6933937-.4877052 1.2311974-1.4746151 1.228878-2.2923594-.0006561-.2319126-.0452576-.4270992-.1237869-.5818491l.2214699-.275157c.0986404.1869497.1573792.4245281.1581841.709281.0027808.9808712-.6505891 2.1655635-1.4839059 2.7364254z" fill="#272e3a"/></g><g><path d="m33.8200989 15.9002104-1.4746094.8513651-1.5820389 4.1390419 3.0657654-1.7700214c.4298897.4109859 1.1148453.4422951 1.8847389-.002203.769886-.4444942 1.4516945-1.2649059 1.877285-2.1698017l1.8037186-1.041379.0051727 1.8237791-11.8638306 6.8495865-.0051708-1.8237801.5437183-.3139153 1.5820408-4.1390419-2.1348896 1.2325783-.0051689-1.8237858 11.8638306-6.8495855.0051689 1.8237867-1.80373 1.0413847c-.4293175-.4113178-1.1135368-.4429293-1.8834229.0015659-.7698936.4444972-1.452423 1.2652016-1.8785781 2.1704255zm-3.7962647 5.4174242 1.5820408-4.1390419-1.2113647.6993828-1.5820465 4.1390438z" fill="#373f51"/></g></g></g><g><g enable-background="new"><g><path d="m26.4171124 23.6100197.0203705.7905159.1368618-.0964642.0062485-.6721897c0-.1259708.0573273-.201643.1401863-.2221279-.1602708-.0646667-.3036671.0119228-.3036671.2002659z" fill="#9da9c1"/></g><g><path d="m27.0918255 24.7763042v-.7796631c0-.2034779-.1440086-.4570961-.3224697-.5604401-.178463-.103344-.3256054-.0188046-.3256054.1878834l-.0031338.7764511-.5329666-.3084067-.0187855-9.3299646c0-.0343971-.012516-.0564108-.0313015-.0689468l1.7445984 1.0160666c.0187836.009326.0313206.0343971.0313206.0657368l.0219173 9.3299637z" fill="#e3e7f0"/></g><g><g><path d="m26.6804123 19.7463646-.0047398 2.5413532-.5342064-.3084259.0047379-2.5413513z" fill="#272e3a"/></g><g><path d="m26.6865845 16.8256874-.0047398 1.6719284-.5342064-.308424.0047398-1.6719284z" fill="#272e3a"/></g></g><g><path d="m25.5440941 16.8596249-1.7456741-1.0140944-.0006962-.2451973 1.7456741 1.0140944z" fill="#b4bed7"/></g><path d="m26.0082989 14.4334574c-.0583286-.0338869-.1390305-.029109-.227663.0220528l-1.9829121 1.1448164 1.7456779 1.0140667 1.9829025-1.1448174c.0886421-.0511618.1693344-.0558662.227663-.0219784z" fill="#e3e7f0"/><g><path d="m27.5263081 15.469594c.1758957-.101553.3205376-.0202494.3211136.1830025l.0210762 9.329896-.2133827.1231956-.0210743-9.329896c-.0001926-.0674105-.0484066-.0948515-.1070385-.0610008l-1.9829082 1.1448336-.0006962-.2451973z" fill="#9da9c1"/></g></g></g></g></g><g><g><path d="m8.4913063 10.7234154-.8890214-.5166426.0012832 27.1122007.8890209.5166436z" fill="#272e3a"/><path d="m9.4024706 10.197154.0006666 14.5334806c-.7538261.4912548-.7529697 1.7243385.0000954 2.2163525l.0004759 10.362854-.9111042.5255241-.0013323-27.1119231z" fill="#4c5671"/><path d="m27.8344173 21.8878002-.8890209-.5166416.0012837 27.1121979.8890209.5166435z" fill="#272e3a"/><path d="m27.8344173 21.8878002.0012837 27.1121998.91115-.5260544-.0012837-27.1121979z" fill="#4c5671"/><path d="m40.999958 29.5852833c.0135193-.0441742.0270386-.0883484.0404625-.1317616.1862183-.6054974-.0491257-1.0792332-.4417458-1.3564682l-.0006676-14.6104069.8890152.5163879.0013351 27.1119251-.889019-.5163879-.0005684-10.4161682c.1702234-.1477565.3191225-.3305473.401188-.5971202z" fill="#272e3a"/><path d="m41.4870682 14.0030107.0012855 27.1122008.9111481-.5260544-.0012817-27.1121998z" fill="#4c5671"/></g></g><g><g><g><g enable-background="new"><g><path d="m7.596776 9.8834982v.7334528l20.2308779 11.6826897 14.5688-8.4076672v-.7486858l-14.5688 8.4076671z" fill="#b4bed7"/></g></g></g></g></g><g><path d="m8.3267059 9.4463215h1.6458893l-.7045107.4059496 18.5839415 10.727601 12.6469173-7.2789259h1.6455078l-14.3213672 8.2507697-20.2293544-11.6826888z" fill="#e3e7f0"/></g><g><g><g enable-background="new"><g><path d="m7.596776 25.8120136v.7334538l20.2308779 11.6826896 14.5688-8.407669v-.748684l-14.5688 8.4076653z" fill="#b4bed7"/></g></g></g></g><path d="m9.6890354 24.5889721.2835179.786005-.7045107.4059506 18.5839414 10.727602 12.8769284-7.4114514-.323597-.1866016.0553131-.9512787 1.9430199 1.1211243-14.5806065 8.4000511-20.2293544-11.6826897z" fill="#e3e7f0"/></g></svg>