<svg id="Layer_1" enable-background="new 0 0 50 50" height="512" viewBox="0 0 50 50" width="512" xmlns="http://www.w3.org/2000/svg"><g><g><g><g><g><g><g enable-background="new"><g><path d="m47.9075127 28.4136524-1.4924698-.8649807-.0127335-7.7377014c0-.2331181-.0848045-.3985367-.2162437-.4747238l1.4924927.8649788c.135685.0805359.2162476.2416077.2162476.4790726z" fill="#b4bed7"/></g><g><path d="m45.270771 23.3941479-1.4941749-.8683186-.0009766-.345293 1.4941711.8683185z" fill="#b4bed7"/></g><g><path d="m47.1454124 19.9095821c.5766182-.3329124 1.0491753-.0668392 1.0510521.5957298l.0123901 7.736721-.3004837.1734867-.0123901-7.736721c-.0013428-.4727097-.3381081-.6614952-.7495918-.4239254-.4087639.236002-.7433624.812397-.7420197 1.2851067l.0009422.3329735c.0013504.4759159-.3332367 1.0585613-.7501259 1.2992535l-.3844147.221941-.0009804-.345293.3844147-.221941c.249054-.1437912.4514236-.4944134.4506111-.780468l-.0009422-.3329735c-.0018805-.662571.4649278-1.4709835 1.0415383-1.8038903z" fill="#9da9c1"/></g><path d="m46.3973427 18.9687634c-.190834-.1109695-.4552383-.0954418-.7460938.0724621-.5766106.3329067-1.0434418 1.141367-1.0415535 1.8038712l.0009575.3331146c.0008049.2859116-.2015686.6366234-.4506302.780304l-.384407.2219372 1.4941788.8684998.384407-.2219372c.2490578-.1438885.4514313-.4946003.4506035-.7805119l-.0009308-.3331146c-.0018883-.6625023.4649162-1.4709625 1.0415268-1.8038712.2908783-.167902.5552597-.1834297.7461166-.0724602z" fill="#e3e7f0"/></g></g></g><g><g><g enable-background="new"><g><path d="m39.8857079 24.0288506-1.4924698-.8649807-.0127296-7.7377024c0-.2331181-.0848083-.3985367-.2162476-.4747248l1.4924965.8649807c.1356812.0805349.2162437.2416058.2162437.4790726z" fill="#b4bed7"/></g><g><path d="m37.2489662 19.0093441-1.4941749-.8683186-.0009766-.345293 1.4941711.8683186z" fill="#b4bed7"/></g><g><path d="m39.1236076 15.5247784c.576622-.3329124 1.0491753-.0668392 1.0510559.5957317l.0123901 7.7367191-.3004875.1734867-.0123901-7.736721c-.0013428-.4727097-.3381042-.6614943-.749588-.4239235-.4087677.236002-.7433624.8123951-.7420235 1.2851067l.0009422.3329716c.0013504.4759178-.3332367 1.0585613-.7501259 1.2992535l-.3844147.221941-.0009804-.345293.3844147-.221941c.249054-.1437912.4514236-.4944115.4506111-.780468l-.0009422-.3329735c-.0018805-.6625711.4649278-1.4709836 1.0415383-1.8038903z" fill="#9da9c1"/></g><path d="m38.3755379 14.5839605c-.1908302-.1109686-.4552383-.0954418-.7460938.0724611-.5766068.3329077-1.0434418 1.1413689-1.0415497 1.8038712l.0009575.3331146c.0008011.2859116-.2015724.6366234-.450634.780304l-.384407.2219391 1.4941788.8684998.384407-.2219391c.2490578-.1438866.4514313-.4946003.4506035-.7805119l-.0009308-.3331146c-.0018883-.6625023.4649162-1.4709625 1.0415268-1.8038702.2908821-.1679029.5552597-.1834297.7461166-.0724611z" fill="#e3e7f0"/></g></g></g></g><g><g><g><g enable-background="new"><g><path d="m28.2755699 17.3288097-1.4924698-.8649807-.0127316-7.7377024c0-.2331181-.0848064-.3985367-.2162457-.4747248l1.4924946.8649807c.1356831.0805349.2162457.2416067.2162457.4790726z" fill="#b4bed7"/></g><g><path d="m25.6388283 12.3093042-1.4941731-.8683185-.0009803-.3452931 1.4941749.8683186z" fill="#b4bed7"/></g><g><path d="m27.5134697 8.8247375c.5766201-.3329115 1.0491753-.0668392 1.051054.5957308l.0123901 7.7367201-.3004875.1734867-.0123901-7.7367201c-.001339-.4727106-.3381042-.6614952-.749588-.4239244-.4087677.236001-.7433624.812396-.7420216 1.2851067l.0009422.3329725c.0013504.4759169-.3332367 1.0585613-.7501278 1.2992525l-.3844128.2219419-.0009785-.345293.3844128-.221941c.249054-.1437922.4514217-.4944124.4506111-.7804689l-.0009441-.3329735c-.0018787-.66257.4649277-1.4709835 1.0415402-1.8038903z" fill="#9da9c1"/></g><path d="m26.7653999 7.8839202c-.1908321-.1109691-.4552383-.0954418-.7460918.0724611-.5766106.3329082-1.0434418 1.1413684-1.0415535 1.8038707l.0009575.3331146c.000803.2859116-.2015705.6366243-.4506302.780304l-.384407.2219391 1.4941769.8684998.3844051-.2219391c.2490597-.1438866.4514351-.4945993.4506054-.7805109l-.0009308-.3331146c-.0018883-.6625023.4649162-1.4709635 1.0415268-1.8038702.2908802-.1679039.5552597-.1834307.7461185-.0724621z" fill="#e3e7f0"/></g></g></g><g><g><g enable-background="new"><g><path d="m20.2537651 12.944006-1.4924679-.8649797-.0127335-7.7377024c0-.2331181-.0848045-.3985369-.2162437-.4747248l1.4924946.8649802c.1356831.0805354.2162437.2416062.2162437.4790721z" fill="#b4bed7"/></g><g><path d="m17.6170235 7.9245009-1.4941731-.8683185-.0009785-.3452931 1.4941731.8683191z" fill="#b4bed7"/></g><g><path d="m19.4916649 4.4399347c.5766201-.3329124 1.0491753-.0668397 1.051054.5957308l.0123901 7.736721-.3004856.1734858-.0123901-7.7367206c-.0013409-.4727101-.3381062-.6614947-.7495899-.4239244-.4087658.2360015-.7433624.8123965-.7420216 1.2851067l.0009441.3329725c.0013485.4759169-.3332386 1.0585613-.7501278 1.299253l-.3844147.2219415-.0009784-.3452926.3844128-.2219415c.2490559-.1437917.4514236-.4944124.450613-.7804689l-.0009441-.332973c-.0018788-.6625705.4649276-1.470984 1.0415382-1.8038903z" fill="#9da9c1"/></g><path d="m18.7435951 3.4991171c-.1908321-.1109693-.4552364-.0954418-.7460918.0724611-.5766106.3329077-1.0434418 1.1413682-1.0415516 1.8038709l.0009575.3331146c.0008011.2859116-.2015724.6366239-.4506321.780304l-.3844071.2219387 1.4941769.8684998.384407-.2219386c.2490597-.143887.4514332-.4945998.4506054-.7805109l-.0009327-.3331147c-.0018883-.6625028.4649181-1.4709635 1.0415268-1.8038712.2908802-.1679029.5552616-.1834302.7461185-.0724611z" fill="#e3e7f0"/></g></g></g></g><g><g><g><g><g><g><g enable-background="new"><g><path d="m9.7809553 22.8921928 11.6607103-6.7764644-.017765 6.2663555-11.6607113 6.7764645z" fill="#272e3a"/></g><g><path d="m4.3292084 19.7446251 11.6607103-6.7764635 5.4517469 3.1475668-11.6607103 6.7764644z" fill="#4c5671"/></g><g><path d="m9.7809553 22.8921928-.017766 6.2663556-5.451746-3.1475659.0177651-6.2663574z" fill="#373f51"/></g></g></g><path d="m6.442647 21.2830029c-.8576374-.4951763-1.6345253-.5410786-2.1954875-.2152691l-2.2235525 1.2922287c.560915-.3258095 4.9246998 7.1992741 4.3709278 7.5211487l2.2235522-1.2922287c.5538197-.3216877.8970995-1.0062809.8998632-1.9792099.0055731-1.9584141-1.3708717-4.3426838-3.0753032-5.3266697z" fill="#9da9c1"/><path d="m6.5635338 24.7619476.6483464-.3767776-.017765 6.2663555-.6483465.3767776z" fill="#272e3a"/><path d="m1.1117874 21.6143799.6483463-.3767777 5.4517465 3.1475678-.6483464.3767776z" fill="#4c5671"/><path d="m6.5635338 24.7619476-.0177651 6.2663555-5.4517464-3.1475677.0177651-6.2663555z" fill="#373f51"/><g><path d="m3.5141203 23.722208c.4881308.6227627-.3525162.4672985.2178144 2.2026272-.145215-1.3801384 1.1771305-1.8288479 1.3603466-.8467751.1331177.7142067-.6563768-.1937809-1.1245236 1.0094242.456121-.4469376 1.2373133-.055357 1.7547512.3781013.3877501.3246288.3177609.9464645-.0790958.7173405-.2246628-.1297092-.5763478-.7694283-1.5175996-.8043995.7258358.3081169 1.3151064 1.1785908 1.6200242 1.9168262.2567329.6148148-.4133501.6239033-.5961604.0084-.1921401-.6766281-.5434799-1.1669025-1.0449739-1.6643963.9064693 1.3080006.6952586 3.1270657.0397043 2.2807884-.5008616-.6390038.3597879-.4436169-.2178237-2.2010231.1431754 1.3607521-1.1782248 1.8212471-1.360342.845171-.1293614-.6938419.6674037.1752243 1.121794-1.0032139-.6799614.6389694-2.3592992-.5592079-1.9618798-1.0827446.3120526-.4002571.5762123.748436 1.8038458.7840118-.724427-.3068771-1.3122699-1.1791592-1.6186681-1.9160442-.2556326-.6175327.4184654-.6174297.5961604-.0084.1966205.6817913.5393579 1.1612034 1.0449784 1.6627922-.4485321-.6461697-.7171435-1.5392246-.5406539-2.3281517.0471791-.216543.2972065-.2120856.5023015.0496656z" fill="#d3dbea"/></g><path d="m3.8363478 23.5268612c1.3412569.7743759 2.4286211 2.657753 2.4242513 4.1989727-.0043669 1.5403881-1.0988383 2.1640778-2.4400952 1.3897018-1.3405502-.7739677-2.4279141-2.6573391-2.423547-4.1977272.0043694-1.5412197 1.0988407-2.1649131 2.4393909-1.3909473zm-2.3611148 1.4361401c-.0021938.7738209.2807178 1.6368141.7348686 2.393301l.2221498-.1274052c-.3972144-.6578674-.6451244-1.4105625-.6432133-2.0847206.0019159-.6757851.2539852-1.1414452.6550367-1.3384342l-.2214119-.382658c-.456946.2304649-.7452314.7644271-.7474299 1.539917m3.9610754 4.2559528c.4562421-.2308712.7431169-.7648983.7453108-1.5387192.0021987-.7754898-.280714-1.6392345-.7355661-2.3961258l-.2221499.1265679c.3979187.659111.6465306 1.413002.6446147 2.088789-.0019112.6741562-.253274 1.1393871-.652914 1.3371944zm-1.6155496-.1933212c.5965843.3444386 1.1417155.4018803 1.55826.2203064l-.2214065-.3834915c-.3592467.1497059-.825984.0969276-1.3358312-.1974335-.5091405-.2939529-.9753578-.7798138-1.3318729-1.3427658l-.2228596.1269951c.414161.6611804.9578326 1.2323608 1.5537102 1.5763893m.0153318-5.4080334c-.5951736-.3436241-1.1395926-.4022808-1.5554338-.221096l.2207055.3830872c.3592415-.1489143.8252721-.0957527 1.3337083.1977921.5091429.2939548.9746585.7786217 1.3311763 1.3407803l.2228537-.126997c-.4141574-.6603872-.9571295-1.2295343-1.55301-1.5735666m1.1018719 4.7381973.2221112.3846912c.3854938-.1897259.6283259-.6363678.6301684-1.2862148.0018468-.6514721-.2383652-1.3777962-.6222291-2.0117531l-.2235665.1274223c.3276348.5357094.5335546 1.1513443.5319901 1.7031536-.0015597.5501862-.2095818.925995-.5384741 1.0827008m-2.2169511-4.0703926-.2221136-.3838997c-.3861952.1893654-.6297367.6363926-.6315836 1.2878647-.0018424.649847.2376679 1.3749714.6201209 2.00807l.223563-.1273804c-.3262231-.5349369-.5321424-1.1497345-.5305827-1.6999207.0015643-.5518111.2109973-.9276408.540596-1.0847339m1.4079354 2.6682892.2024279.350605c.1725349-.0659542.2825422-.2515869.2833276-.5287247.0007906-.2787609-.1085081-.5918484-.2808127-.8568954l-.202333.1144924c-.0834846.0475769-.1929221.0323009-.3015227-.0303993-.1093018-.0631046-.2177639-.1736355-.3007035-.3172951l-.2010272-.3481674c-.1739426.0659351-.2846618.2519951-.2854521.530756-.0007858.2771378.1078138.5889835.2794087.8536205l.2044609-.1156883c.0834818-.0475731.192215-.0326633.3015168.0304432.1093047.0631065.2177668.1735935.3007093.3172531m-1.3602948.209713-.2235608.1265907c.3431652.5389919.7889581 1.0033302 1.2769449 1.2850685.4886911.2821465.9356587.3332443 1.2800467.1920013l-.2214103-.384285c-.2870841.1102123-.6556625.0646114-1.0576165-.1674576-.4012497-.2316607-.7695861-.6115169-1.054404-1.0519179m2.1188478-1.6864052.222857-.1269951c-.3424635-.537796-.7875543-1.0009346-1.2755413-1.2826748-.4865758-.2809238-.933538-.3328133-1.277921-.1924038l.2214043.3843269c.287082-.1094227.6549518-.0625992 1.0554945.1686535.4012497.2316609.7681798.6090756 1.0537065 1.0490933m-1.8902566-.713131-.2214088-.3826561c-.3154471.1481781-.5156505.5066147-.5171459 1.0341148-.0014887.5250835.1953294 1.1119061.5081975 1.6236744l.2221503-.1266098c-.2559345-.4131546-.417748-.8896751-.4165397-1.3158875.0012129-.4278392.1659017-.716688.4247466-.8326358m1.6651895 3.1146603.2207046.3822918c.3140359-.1490345.513535-.5078354.5150237-1.032917.001493-.5267086-.195323-1.1143227-.5088949-1.6264992l-.2221504.1265659c.2566414.4135628.419157.8913231.417944 1.3191624-.0012084.4262123-.1651879.7146378-.422627.8313961m-1.6143275-.8743916-.2242696.1278076c.2714648.4164448.6193871.7731533.9994776.9925976.3800936.2194481.729599.2653999 1.0025339.1632652l-.2228131-.3859329c-.21422.0711269-.4846377.0326576-.7787008-.1371193-.293356-.1693687-.5631046-.4427661-.776228-.7606182m1.5599385-1.3678703.2242699-.1278076c-.2714696-.4148598-.6193862-.7715664-.9987752-.9906082-.3786821-.2186317-.7274816-.264967-.9997101-.1632175l.222816.3859329c.2142181-.0703335.4832251-.031889.7758741.1370716.2933561.1693687.5616986.441164.7755253.7586288m-1.33527-.3943405-.2207046-.3822918c-.2446966.1071224-.4001577.379324-.4012995.7820606-.0011373.4011097.1515703.8504448.3934524 1.2384472l.2221475-.1265697c-.1849456-.2894306-.3033557-.6288681-.3024988-.9311085.0008615-.3038635.1215125-.5061169.308903-.5805378m1.114131 2.1585884.2200007.3818436c.2439895-.1074848.3987412-.3793087.399878-.7804165.001142-.4027386-.1522675-.8532658-.3955579-1.2421284l-.2221475.1266117c.1863542.2902012.3047619.630476.3039002.9343395-.0008567.3022404-.1200941.5044728-.3060735.5797501m-1.0586369-.5560303-.2242696.1278076c.1990604.2934875.4490945.5457706.7205901.7025185.2721996.1571541.5228448.1939392.722919.1308918l-.2228165-.3859329c-.1413584.0328312-.3129106.0019493-.4990802-.1055355-.1854627-.1070767-.3566289-.2740631-.4973428-.4697495m.9989069-1.0481777.2242699-.1278114c-.1983533-.2930775-.4476857-.5441628-.7191813-.7009125-.2707887-.1563396-.5207272-.1935062-.7200918-.1308422l.2228131.385931c.1406553-.0324459.3122053-.0007744.4962566.1054878.1847581.1066704.3559269.2728691.4959335.4681473m-.0580082 1.5264569-.195406-.3376141c-.0675635-.1174316-.1567998-.2081432-.246213-.2597656-.0891716-.0514832-.1785254-.0641003-.2467065-.0256577l-.1966808.1120796c.1259477.1725388.2781031.3180275.4417052.4124832.1643094.0948639.3167909.1252575.4433011.0984746m-.8786519-2.0039177.1932898.3355942c.0678296.1170578.1571007.2075691.2463961.2591248.0892951.0515537.1786087.0641479.246526.025465l.1945581-.1108799c-.1252451-.1705074-.2766964-.3155861-.4402986-.4100418-.1628949-.0940477-.3146724-.1240388-.4404714-.0992623" fill="#9da9c1"/></g></g><g><g><g><g enable-background="new"><g><path d="m9.7809553 14.8449135 11.6607103-6.7764645-.017765 6.2663565-11.6607113 6.7764635z" fill="#272e3a"/></g><g><path d="m4.3292084 11.6973467 11.6607103-6.7764645 5.4517469 3.1475668-11.6607103 6.7764645z" fill="#4c5671"/></g><g><path d="m9.7809553 14.8449135-.017766 6.2663555-5.451746-3.1475658.0177651-6.2663565z" fill="#373f51"/></g></g></g><path d="m6.442647 13.2357244c-.8576374-.4951773-1.6345253-.5410795-2.1954875-.21527l-2.2235525 1.2922287c.560915-.3258085 4.9246998 7.1992741 4.3709278 7.5211487l2.2235522-1.2922287c.5538197-.3216877.8970995-1.006279.8998632-1.9792099.0055731-1.9584141-1.3708717-4.3426848-3.0753032-5.3266688z" fill="#9da9c1"/><path d="m6.5635338 16.7146683.6483464-.3767777-.017765 6.2663555-.6483465.3767777z" fill="#272e3a"/><path d="m1.1117874 13.5671005.6483463-.3767776 5.4517465 3.1475677-.6483464.3767777z" fill="#4c5671"/><path d="m6.5635338 16.7146683-.0177651 6.2663555-5.4517464-3.1475678.0177651-6.2663555z" fill="#373f51"/><g><path d="m3.5141203 15.6749296c.4881308.6227617-.3525162.4672976.2178144 2.2026262-.145215-1.3801384 1.1771305-1.8288479 1.3603466-.8467751.1481986.7951183-.6306186-.2599812-1.1245236 1.0094261.6737704-.6602077 2.3599834.5579548 1.9632487 1.0773544-.3019466.3820839-.5935421-.7412949-1.8051929-.7863121 1.2526922.531765 2.182044 2.8322926 1.3341799 2.3427773-.3884678-.2242813-.2663727-.6594067-.7246385-1.3230057-.1838088-.307436-.4424253-.5722179-.6306515-.7589436.9064693 1.3080006.6952586 3.1270657.0397043 2.2807903-.3791516-.4837265.0612903-.5970554-.0166984-1.2953167-.0059505-.2952442-.1163039-.6476345-.2011254-.9057083.146023 1.3878155-1.1815574 1.8033848-1.360342.845171-.1366365-.7328625.6572523.2015514 1.121794-1.0032139-.6900229.6484261-2.3495207-.5720882-1.9618798-1.0827446.3014082-.3866043.5977961.7490616 1.8038458.7840118-1.1229424-.4756947-2.1589937-2.6010036-1.4109619-2.3750038.5369489.1599751.1915245.8813457 1.4334326 2.1133518-.4485321-.6461678-.7171435-1.5392246-.5406539-2.3281507.0471792-.216544.2972066-.2120865.5023016.0496656z" fill="#d3dbea"/></g><path d="m3.8363478 15.4795828c1.3412569.774375 2.4286211 2.657752 2.4242513 4.1989717-.0043669 1.5403881-1.0988383 2.1640778-2.4400952 1.3897018-1.3405502-.7739658-2.4279141-2.6573391-2.423547-4.1977272.0043694-1.5412206 1.0988407-2.1649131 2.4393909-1.3909463zm-2.3611148 1.4361391c-.0021938.7738209.2807178 1.6368141.7348686 2.393301l.2221498-.1274052c-.3972144-.6578674-.6451244-1.4105625-.6432133-2.0847206.0019159-.6757851.2539852-1.1414452.6550367-1.3384342l-.2214119-.382658c-.456946.230464-.7452314.7644272-.7474299 1.539917m3.9610754 4.2559528c.4562421-.2308712.7431169-.7648983.7453108-1.5387192.0021987-.7754898-.280714-1.6392345-.7355661-2.3961258l-.2221498.1265678c.3979187.659111.6465306 1.4130039.6446147 2.088789-.0019112.6741562-.253274 1.1393871-.652914 1.3371944zm-1.6155496-.1933193c.5965843.3444366 1.1417155.4018784 1.55826.2203045l-.2214065-.3834915c-.3592467.1497078-.825984.0969276-1.3358312-.1974335-.5091405-.293951-.9753578-.7798138-1.3318729-1.3427658l-.2228596.1269951c.414161.6611824.9578326 1.2323608 1.5537102 1.5763912m.0153318-5.4080353c-.5951736-.3436231-1.1395927-.4022817-1.5554338-.2210951l.2207055.3830862c.3592415-.1489153.8252721-.0957527 1.3337083.197793.5091429.2939539.9746585.7786207 1.3311763 1.3407793l.2228537-.126997c-.4141574-.660387-.9571295-1.2295341-1.55301-1.5735664m1.1018719 4.7381974.2221112.3846931c.3854938-.1897278.6283259-.6363697.6301684-1.2862167.0018468-.6514721-.2383652-1.3777943-.6222291-2.0117531l-.2235665.1274223c.3276348.5357094.5335546 1.1513443.5319901 1.7031555-.0015597.5501843-.2095818.925993-.5384741 1.0826989m-2.2169511-4.0703907-.2221136-.3839006c-.3861952.1893644-.6297367.6363916-.6315836 1.2878637-.0018424.649847.2376679 1.3749714.6201209 2.0080719l.223563-.1273823c-.3262231-.5349369-.5321424-1.1497345-.5305827-1.6999207.0015643-.5518112.2109973-.9276409.540596-1.084732m1.4079354 2.6682872.2024279.350605c.1725349-.0659542.2825422-.2515869.2833276-.5287247.0007906-.2787609-.1085081-.5918465-.2808127-.8568935l-.202333.1144905c-.0834846.0475769-.1929221.0323009-.3015227-.0303993-.1093018-.0631046-.2177639-.1736355-.3007035-.3172951l-.2010272-.3481655c-.1739426.0659332-.2846618.2519932-.2854521.5307541-.0007858.2771378.1078138.5889835.2794087.8536205l.2044609-.1156883c.0834818-.0475731.192215-.0326633.3015168.0304432.1093047.0631066.2177668.1735935.3007093.3172531m-1.3602948.2097149-.2235608.1265888c.3431652.5389919.7889581 1.0033302 1.2769449 1.2850685.4886911.2821465.9356587.3332443 1.2800467.1920013l-.2214103-.3842831c-.2870841.1102106-.6556626.0646097-1.0576165-.1674574-.4012497-.2316628-.7695861-.6115189-1.054404-1.0519181m2.1188478-1.6864052.222857-.126997c-.3424635-.537796-.7875543-1.0009346-1.2755413-1.2826748-.4865758-.2809238-.933538-.3328123-1.277921-.1924038l.2214043.3843269c.287082-.1094227.6549518-.0625992 1.0554945.1686535.4012497.2316628.7681798.6090756 1.0537065 1.0490952m-1.8902566-.7131309-.2214088-.3826561c-.3154471.1481762-.5156505.5066128-.5171459 1.0341129-.0014887.5250835.1953294 1.111908.5081975 1.6236744l.2221503-.1266098c-.2559345-.4131546-.417748-.8896751-.4165397-1.3158875.0012129-.4278392.1659017-.7166881.4247466-.8326339m1.6651895 3.1146583.2207046.3822918c.3140359-.1490345.513535-.5078354.5150237-1.032917.001493-.5267086-.195323-1.1143227-.5088949-1.6264992l-.2221503.1265659c.2566414.4135628.419157.8913231.417944 1.3191643-.0012085.4262105-.165188.7146359-.4226271.8313942m-1.6143275-.8743915-.2242696.1278076c.2714648.4164448.6193871.7731533.9994776.9925976.3800936.2194481.729599.2653999 1.0025339.1632652l-.2228131-.385931c-.21422.071125-.4846377.0326576-.7787008-.1371212-.293356-.1693687-.5631046-.4427662-.776228-.7606182m1.5599385-1.3678703.2242699-.1278076c-.2714696-.4148598-.6193862-.7715664-.9987752-.9906082-.3786821-.2186317-.7274816-.264967-.9997101-.1632175l.222816.3859329c.2142181-.0703335.4832251-.031889.7758741.1370716.2933561.1693706.5616986.4411639.7755253.7586288m-1.33527-.3943406-.2207046-.3822918c-.2446966.1071224-.4001577.379324-.4012995.7820606-.0011373.4011097.1515703.8504448.3934524 1.2384472l.2221475-.1265678c-.1849456-.2894306-.3033557-.62887-.3024988-.9311104.0008615-.3038635.1215125-.5061168.308903-.5805378m1.114131 2.1585885.2200007.3818436c.2439895-.1074848.3987412-.3793087.399878-.7804165.001142-.4027367-.1522675-.8532658-.3955579-1.2421284l-.2221475.1266117c.1863542.2902012.3047619.630476.3039002.9343395-.0008567.3022404-.1200941.5044727-.3060735.5797501m-1.0586369-.5560303-.2242696.1278076c.1990604.2934875.4490945.5457706.7205901.7025185.2721996.1571541.5228448.1939392.722919.1308918l-.2228165-.3859329c-.1413584.0328312-.3129106.0019493-.4990802-.1055355-.1854627-.1070767-.3566289-.2740632-.4973428-.4697495m.9989069-1.0481777.2242699-.1278114c-.1983533-.2930775-.4476857-.5441628-.7191813-.7009125-.2707887-.1563396-.5207272-.1935062-.7200918-.1308422l.2228131.385931c.1406553-.032444.3122053-.0007744.4962566.1054878.1847581.1066704.3559269.2728691.4959335.4681473m-.0580082 1.5264568-.195406-.3376141c-.0675635-.1174316-.1567998-.2081413-.246213-.2597656-.0891716-.0514832-.1785254-.0641003-.2467065-.0256577l-.1966808.1120796c.1259477.1725407.2781031.3180275.4417052.4124832.1643094.094864.3167909.1252576.4433011.0984746m-.8786519-2.0039177.1932898.3355942c.0678296.1170578.1571007.2075691.2463961.2591248.0892951.0515537.1786087.0641479.246526.025465l.1945581-.1108799c-.1252451-.1705074-.2766964-.3155861-.4402986-.4100418-.1628949-.0940476-.3146724-.1240388-.4404714-.0992623" fill="#9da9c1"/></g></g></g><g><g id="XMLID_20_"><path d="m17.3898907 14.3147106c.0977039.288785.0647945.6417847-.1278381 1.0426245-.1348343.2838039-.3425922.4759302-.5504284.6406097-.1256504.105773-.2562122.1923323-.3867321.2842951l.0019855.7003899-.3772335.2177963-.0019541-.6892452-.2853432.1647434.0019541.6892433-.3772335.2177963-.0020323-.7169685-.7399578.4272137c.023694-.1861286.0474348-.3556652.0711432-.5363598.0725451-.0418835.1450901-.0837688.2176352-.1256523.1450891-.0837669.188488-.1589527.188015-.3256855-.0016699-.5891371-.0033245-1.1725464-.0049791-1.7562485-.0005665-.199893-.063673-.2413731-.2426329-.1438026-.0773811.0446768-.1547623.0893526-.2321434.1340284l-.001276-.4501419.7351208-.4244223-.0019693-.694663.3772335-.2177954.0019064.6723566.2853422-.1647434-.0019054-.6723566.3772335-.2177954.0019684.694663c.270834-.1563663.5081444-.1764984.6002407-.1571989.3392677.0602255.3748074.6352491.1578808 1.0108404-.0482044.0836964-.1012783.1587305-.1543522.2340736l.0484428-.0001822c.1839846-.034046.3584059-.0287541.4219092.1625873zm-.9313145 1.2781964c.1738873-.1783075.2460842-.3426065.2407284-.5231285-.0053406-.1750879-.092741-.246933-.2622318-.2269917-.1543694.0193596-.3142052.0986528-.4773512.1928453-.0978813.0565119-.1969318.1185226-.2966814.1761131l.0026627.9391851c.0677252-.0378952.1354256-.0751572.2028389-.1140785.2022113-.1167478.4016666-.2476119.5900344-.4439448m-.79916-1.6595269.0024099.8502369c.0549641-.0302181.1095781-.0602503.1638126-.0915623.1557426-.0899181.308135-.1896687.4550619-.3324804.1545753-.1505518.2461033-.3314381.2456303-.4981728.004364-.1692181-.0830555-.2525415-.2380199-.2298069-.1336231.0221796-.2692013.0865698-.4081917.1668167-.0725717.0418988-.1460733.0882626-.2207031.1349688" fill="#febb61"/></g></g><g><g><g><g><g enable-background="new"><g><path d="m17.7760258 27.5959167 11.6607094-6.7764644-.0177651 6.2663574-11.6607113 6.7764645z" fill="#272e3a"/></g><g><path d="m12.3242779 24.4483509 11.6607113-6.7764645 5.451746 3.1475659-11.6607094 6.7764644z" fill="#4c5671"/></g><g><path d="m17.7760258 27.5959167-.017767 6.2663575-5.451746-3.1475678.0177651-6.2663555z" fill="#373f51"/></g></g></g><path d="m14.4377165 25.9867287c-.8576374-.4951782-1.6345253-.5410805-2.195487-.215271l-2.2235527 1.2922287c.560915-.3258076 4.9246998 7.199276 4.3709278 7.5211487l2.2235527-1.2922287c.5538197-.3216858.8970985-1.006279.8998623-1.9792099.0055732-1.9584141-1.3708706-4.3426838-3.0753031-5.3266678z" fill="#9da9c1"/><path d="m14.5586042 29.4656715.648346-.3767776-.0177651 6.2663574-.6483459.3767777z" fill="#272e3a"/><path d="m9.1068573 26.3181038.6483469-.3767777 5.451746 3.1475678-.648346.3767776z" fill="#4c5671"/><path d="m14.5586042 29.4656715-.017765 6.2663575-5.4517469-3.1475678.017765-6.2663574z" fill="#373f51"/><g><path d="m11.5091906 28.4259338c.4984245.6358948-.3579779.4506798.2178144 2.2026253-.144866-1.3768158 1.1800117-1.8134022 1.3603468-.8467751.0387926.2081337-.0458031.3495979-.1992035.3328209-.4977274-.0576267-.7407103.2021313-.9253206.6766052.3321877-.3255005.8768282-.1905689 1.2813377.0429745 1.225275.7074127.6884089 1.3965893.2666216.94911-.1510372-.1614456-.3522711-.3466225-.5634604-.4685516-.0462599-.0267086-.092989-.0503864-.1397848-.0701237-.25354-.1385937-.5047131-.1556072-.6866579-.1623669 1.1194563.4752064 2.1642942 2.6006126 1.4123135 2.3773079-.1781263-.0542412-.3324909-.2636757-.3884497-.4520836-.1921406-.6766281-.5434809-1.1669006-1.0449743-1.6643963.6849356.9883366.8295641 2.7947216.2153406 2.4400997-.2340822-.1351509-.4031229-.5090408-.3085051-.7118759.2413025-.5182877.0944042-1.1027489-.0849552-1.6484585.1460228 1.3878155-1.1815577 1.8033848-1.360342.845171-.1074171-.5761433.4184494-.1364403.7780962-.476059.1741352-.1116962.2752962-.3497562.3436985-.5271549-.6799622.6389713-2.3592997-.559206-1.9618807-1.0827446.3120527-.4002571.5762129.748436 1.8038464.7840118-1.1172371-.473278-2.1617746-2.6018429-1.4109621-2.3750038.5369492.1599751.1915245.8813457 1.4334326 2.1133518-.4485321-.6461678-.7171431-1.5392246-.5406542-2.3281498.0471792-.2165449.2972069-.2120874.5023022.0496656z" fill="#d3dbea"/></g><path d="m11.831418 28.230587c1.3412571.774374 2.4286203 2.6577511 2.4242516 4.1989708-.0043669 1.5403862-1.0988388 2.1640778-2.4400959 1.3897018-1.3405495-.7739677-2.4279137-2.6573391-2.4235468-4.1977272.0043697-1.5412197 1.0988407-2.1649131 2.4393911-1.3909454zm-2.3611154 1.4361382c-.0021935.7738228.2807178 1.6368141.734869 2.3933029l.2221498-.1274052c-.3972139-.6578693-.6451244-1.4105644-.6432133-2.0847225.0019159-.6757851.2539854-1.1414452.6550369-1.3384342l-.2214117-.382658c-.4569463.2304649-.7452315.7644272-.7474307 1.539917m3.9610758 4.2559509c.4562416-.2308693.7431173-.7648964.7453108-1.5387192.0021982-.7754879-.280714-1.6392326-.7355661-2.3961239l-.2221498.1265678c.3979187.659111.6465311 1.4130039.6446152 2.088789-.0019112.6741562-.253274 1.139389-.652914 1.3371964zm-1.6155501-.1933174c.5965853.3444366 1.141716.4018784 1.55826.2203064l-.221406-.3834915c-.3592472.149704-.825984.0969276-1.3358316-.1974335-.50914-.2939529-.9753571-.7798157-1.3318729-1.3427658l-.2228594.1269913c.4141616.6611823.9578323 1.2323608 1.5537099 1.5763931m.0153322-5.4080353c-.5951738-.3436222-1.1395922-.4022808-1.5554333-.2210941l.220705.3830853c.3592415-.1489143.8252726-.0957527 1.3337078.197794.5091438.2939529.974659.7786198 1.3311768 1.3407784l.2228537-.126997c-.4141578-.6603872-.9571294-1.2295343-1.55301-1.5735666m1.1018715 4.7381973.2221117.3846931c.3854942-.1897278.6283264-.6363678.630168-1.2862167.0018473-.6514721-.2383652-1.3777943-.6222286-2.0117531l-.2235661.1274242c.3276348.5357075.5335541 1.1513424.5319901 1.7031536-.0015602.5501863-.2095824.925995-.5384751 1.0826989m-2.2169504-4.0703907-.2221136-.3838997c-.3861952.1893635-.6297369.6363907-.6315842 1.2878628-.0018415.649847.237668 1.3749714.620121 2.0080719l.2235632-.1273823c-.3262234-.5349369-.5321426-1.1497345-.5305824-1.6999207.001564-.5518111.2109976-.9276408.540596-1.084732m1.4079352 2.6682873.2024279.350605c.1725349-.0659523.2825422-.2515869.2833281-.5287228.0007896-.2787628-.1085081-.5918484-.2808132-.8568954l-.2023325.1144924c-.0834846.047575-.1929226.0323009-.3015232-.0303993-.1093016-.0631065-.2177639-.1736355-.300704-.317297l-.2010269-.3481655c-.1739426.0659351-.2846613.2519932-.2854519.530756-.0007858.2771358.1078138.5889816.2794085.8536186l.2044611-.1156883c.0834818-.0475731.192215-.0326614.3015165.0304432.1093052.0631065.2177676.1735935.3007096.3172531m-1.3602944.2097149-.2235613.1265888c.3431654.5389938.7889576 1.0033302 1.2769451 1.2850685.4886913.2821465.9356585.3332443 1.2800465.1920013l-.2214098-.384285c-.2870846.1102142-.6556635.0646133-1.0576172-.1674576-.4012489-.2316588-.7695856-.6115149-1.0544033-1.051916m2.1188479-1.6864052.2228565-.126997c-.3424635-.537796-.7875538-1.0009346-1.2755413-1.2826729-.4865761-.2809258-.9335375-.3328133-1.2779207-.1924057l.2214041.3843269c.2870817-.1094227.654952-.0625992 1.0554943.1686535.4012498.2316628.7681798.6090756 1.0537071 1.0490952m-1.8902569-.7131309-.2214089-.3826561c-.3154478.1481762-.5156507.5066128-.5171461 1.0341129-.0014887.5250835.1953297 1.111908.5081978 1.6236763l.2221498-.1266117c-.2559338-.4131546-.4177475-.8896751-.4165392-1.3158875.0012131-.4278393.1659013-.7166881.4247466-.8326339m1.6651888 3.1146564.220705.3822937c.3140364-.1490326.5135355-.5078354.5150232-1.032917.0014935-.5267086-.195322-1.1143208-.508894-1.6264992l-.2221508.1265678c.2566414.4135628.419157.8913231.417944 1.3191624-.0012083.4262104-.1651878.7146359-.4226274.8313923m-1.6143265-.8743896-.2242699.1278076c.2714643.4164467.6193867.7731514.9994774.9925995.3800936.2194443.729599.2653999 1.0025339.1632614l-.2228127-.3859291c-.21422.071125-.4846382.0326576-.7787008-.1371193-.2933559-.1693688-.5631046-.4427681-.7762279-.7606201m1.5599384-1.3678704.2242689-.1278076c-.2714691-.4148598-.6193857-.7715664-.9987745-.9906063-.3786821-.2186337-.7274818-.2649689-.9997101-.1632195l.2228155.3859329c.2142181-.0703335.4832258-.031889.7758741.1370735.293356.1693688.561699.4411622.7755261.758627m-1.3352699-.3943386-.220705-.3822937c-.2446966.1071224-.4001579.379324-.4012995.7820606-.0011368.4011097.1515703.8504448.3934526 1.2384472l.222147-.1265678c-.1849451-.2894306-.3033552-.62887-.3024988-.9311104.0008621-.3038635.1215124-.5061169.3089037-.5805359m1.11413 2.1585865.2200012.3818436c.243989-.1074829.3987408-.3793068.3998785-.7804165.0011415-.4027367-.1522675-.8532658-.3955584-1.2421265l-.222147.1266117c.1863537.2901993.3047609.6304741.3038998.9343395-.0008563.3022385-.1200942.5044728-.3060741.5797482m-1.0586366-.5560303-.2242689.1278076c.1990604.2934875.4490938.5457726.7205896.7025185.2721996.1571541.5228453.1939392.7229185.1308937l-.2228155-.3859329c-.1413593.0328293-.312911.0019493-.4990807-.1055374-.1854629-.1070767-.3566294-.2740631-.497343-.4697495m.998907-1.0481777.2242699-.1278114c-.1983538-.2930756-.4476852-.5441628-.7191811-.7009106-.2707891-.1563396-.5207272-.1935081-.7200918-.1308441l.2228127.385931c.1406555-.032444.3122053-.0007725.4962568.1054897.1847582.1066685.3559275.2728673.4959335.4681454m-.0580081 1.5264569-.195406-.3376122c-.067564-.1174335-.1567993-.2081432-.246213-.2597656-.0891714-.0514832-.178525-.0641022-.246706-.0256596l-.196681.1120796c.125948.1725407.2781029.3180275.4417048.4124832.1643095.0948659.3167915.1252575.4433012.0984746m-.8786517-2.0039177.1932898.3355961c.0678291.1170559.1571007.2075691.2463961.2591228.0892954.0515556.1786089.0641499.2465258.025465l.1945581-.1108799c-.1252451-.1705074-.2766962-.3155861-.4402981-.4100418-.1628952-.0940475-.3146725-.1240368-.4404717-.0992622" fill="#9da9c1"/></g></g><g><g><g><g enable-background="new"><g><path d="m17.7760258 19.5486374 11.6607094-6.7764635-.0177651 6.2663564-11.6607113 6.7764645z" fill="#272e3a"/></g><g><path d="m12.3242779 16.4010715 11.6607113-6.7764654 5.451746 3.1475678-11.6607094 6.7764635z" fill="#4c5671"/></g><g><path d="m17.7760258 19.5486374-.017767 6.2663574-5.451746-3.1475677.0177651-6.2663556z" fill="#373f51"/></g></g></g><path d="m14.4377165 17.9394493c-.8576374-.4951782-1.6345253-.5410805-2.195487-.215271l-2.2235527 1.2922287c.560915-.3258076 4.9246998 7.199276 4.3709278 7.5211487l2.2235527-1.2922287c.5538197-.3216877.8970985-1.006279.8998623-1.9792099.0055732-1.9584141-1.3708706-4.3426838-3.0753031-5.3266678z" fill="#9da9c1"/><path d="m14.5586042 21.4183922.648346-.3767777-.0177651 6.2663555-.6483459.3767777z" fill="#272e3a"/><path d="m9.1068573 18.2708244.6483469-.3767776 5.451746 3.1475677-.648346.3767777z" fill="#4c5671"/><path d="m14.5586042 21.4183922-.017765 6.2663555-5.4517469-3.1475678.017765-6.2663555z" fill="#373f51"/><g><path d="m11.5091906 20.3786545c.4984245.6358948-.3579779.4506798.2178144 2.2026253-.1465387-1.3927116 1.1816654-1.8045406 1.3603468-.8467751.1419134.7614021-.643548-.2267513-1.1245241 1.0094261.6654902-.6520939 2.3670168.548748 1.9632492 1.0773544-.3054399.3865032-.5791922-.7407627-1.8051929-.7863121 1.2489271.5301666 2.2029228 2.844347 1.3341799 2.3427792-.1330395-.0768108-.25739-.239357-.3103161-.4175529-.1921406-.67663-.5434809-1.1669025-1.0449743-1.6643982.4418335.6375504.7208252 1.5352249.5420008 2.3305378-.0472422.2167683-.2992554.2123661-.5022964-.0497475-.4792757-.6114655.3480682-.4792767-.217824-2.2010231.1431761 1.3607502-1.1782246 1.8212452-1.360342.8451691-.0387878-.208046.0458078-.349596.1992083-.332819.4956245.0616665.7421303-.2023907.9225864-.6703949-.6870384.6456203-2.3509102-.5702591-1.9618807-1.0827446.2959976-.3796635.6088085.7493801 1.8038464.7840118-1.2464504-.5280132-2.2019539-2.8428574-1.330266-2.3395882.1330347.076807.2562227.238512.3077583.4151459.19662.6817913.5393572 1.1612015 1.0449781 1.6627903-.4485321-.6461678-.7171431-1.5392246-.5406542-2.3281498.0471791-.2165451.2972068-.2120876.5023021.0496655z" fill="#d3dbea"/></g><path d="m11.831418 20.1833076c1.3412571.774374 2.4286203 2.6577511 2.4242516 4.1989708-.0043669 1.5403881-1.0988388 2.1640778-2.4400959 1.3897018-1.3405495-.7739658-2.4279137-2.6573391-2.4235468-4.1977272.0043697-1.5412196 1.0988407-2.1649131 2.4393911-1.3909454zm-2.3611154 1.4361382c-.0021935.7738228.2807178 1.6368141.734869 2.393301l.2221498-.1274033c-.3972139-.6578693-.6451244-1.4105644-.6432133-2.0847225.0019159-.6757851.2539854-1.1414452.6550369-1.3384342l-.2214117-.382658c-.4569463.2304649-.7452315.7644272-.7474307 1.539917m3.9610758 4.2559528c.4562416-.2308712.7431173-.7648964.7453108-1.5387192.0021982-.7754898-.280714-1.6392345-.7355661-2.3961258l-.2221498.1265678c.3979187.6591129.6465311 1.4130039.6446152 2.088789-.0019112.6741581-.253274 1.139389-.652914 1.3371964zm-1.6155501-.1933193c.5965853.3444386 1.141716.4018803 1.55826.2203064l-.221406-.3834915c-.3592472.1497059-.825984.0969257-1.3358316-.1974335-.50914-.2939529-.9753571-.7798157-1.3318729-1.3427677l-.2228594.1269951c.4141616.6611824.9578323 1.2323608 1.5537099 1.5763912m.0153322-5.4080353c-.5951738-.3436222-1.1395922-.4022808-1.5554333-.2210941l.220705.3830872c.3592415-.1489162.8252726-.0957546 1.3337078.1977921.5091438.2939529.974659.7786198 1.3311768 1.3407784l.2228537-.126997c-.4141578-.6603872-.9571294-1.2295343-1.55301-1.5735666m1.1018715 4.7381974.2221117.3846931c.3854942-.1897259.6283264-.6363697.630168-1.2862167.0018473-.6514721-.2383652-1.3777943-.6222286-2.0117531l-.2235661.1274242c.3276348.5357075.5335541 1.1513424.5319901 1.7031536-.0015602.5501862-.2095824.925993-.5384751 1.0826989m-2.2169504-4.0703907-.2221136-.3838997c-.3861952.1893635-.6297369.6363907-.6315842 1.2878628-.0018415.649847.237668 1.3749714.620121 2.0080719l.2235632-.1273823c-.3262234-.5349369-.5321426-1.1497345-.5305824-1.6999207.001564-.5518093.2109976-.9276409.540596-1.084732m1.4079352 2.6682872.2024279.350605c.1725349-.0659523.2825422-.251585.2833281-.5287228.0007896-.2787628-.1085081-.5918484-.2808132-.8568954l-.2023325.1144924c-.0834846.047575-.1929226.0323009-.3015232-.0303993-.1093016-.0631065-.2177639-.1736355-.300704-.317297l-.2010269-.3481655c-.1739426.0659351-.2846613.2519932-.2854519.530756-.0007858.2771358.1078138.5889816.2794085.8536186l.2044611-.1156883c.0834818-.0475731.192215-.0326614.3015165.0304432.1093052.0631066.2177676.1735935.3007096.3172531m-1.3602944.2097149-.2235613.1265888c.3431654.5389919.7889576 1.0033302 1.2769451 1.2850704.4886913.2821445.9356585.3332424 1.2800465.1919994l-.2214098-.3842831c-.2870846.1102123-.6556635.0646095-1.0576172-.1674576-.4012489-.2316626-.7695856-.6115187-1.0544033-1.0519179m2.1188479-1.6864052.2228565-.126997c-.3424635-.537796-.7875538-1.0009346-1.2755413-1.2826729-.4865761-.2809258-.9335375-.3328133-1.2779207-.1924057l.2214041.3843269c.2870817-.1094227.654952-.0625992 1.0554943.1686535.4012498.2316628.7681798.6090756 1.0537071 1.0490952m-1.8902569-.7131309-.2214088-.3826561c-.3154478.1481762-.5156507.5066128-.5171461 1.0341129-.0014887.5250835.1953297 1.111908.5081978 1.6236763l.2221498-.1266098c-.2559338-.4131565-.4177475-.889677-.4165392-1.3158894.001213-.4278392.1659012-.7166881.4247465-.8326339m1.6651888 3.1146584.220705.3822918c.3140364-.1490326.5135355-.5078335.5150232-1.032917.0014935-.5267086-.195322-1.1143208-.508894-1.6264992l-.2221508.1265678c.2566414.4135628.419157.8913231.417944 1.3191624-.0012083.4262104-.1651878.7146358-.4226274.8313942m-1.6143265-.8743916-.2242699.1278076c.2714643.4164448.6193867.7731533.9994774.9925995.3800936.2194462.729599.265398 1.0025339.1632633l-.2228127-.385931c-.21422.071125-.4846382.0326576-.7787008-.1371193-.2933559-.1693706-.5631046-.4427662-.7762279-.7606201m1.5599384-1.3678684.2242689-.1278095c-.2714691-.4148579-.6193857-.7715664-.9987745-.9906063-.3786821-.2186337-.7274818-.2649689-.9997101-.1632195l.2228155.3859329c.2142181-.0703316.4832258-.031889.7758741.1370735.293356.1693688.561699.441164.7755261.7586289m-1.3352699-.3943405-.220705-.3822937c-.2446966.1071224-.4001579.3793259-.4012995.7820625-.0011368.4011078.1515703.8504429.3934526 1.2384453l.222147-.1265678c-.1849451-.2894306-.3033552-.62887-.3024988-.9311085.0008621-.3038655.1215124-.5061188.3089037-.5805378m1.11413 2.1585865.2200012.3818436c.243989-.1074848.3987408-.3793087.3998785-.7804165.0011415-.4027367-.1522675-.8532658-.3955584-1.2421265l-.222147.1266117c.1863537.2902012.3047609.6304741.3038998.9343395-.0008563.3022404-.1200942.5044727-.3060741.5797482m-1.0586366-.5560303-.2242689.1278076c.1990604.2934895.4490938.5457706.7205896.7025185.2721996.157156.5228453.1939392.7229185.1308918l-.2228155-.3859329c-.1413593.0328331-.312911.0019512-.4990807-.1055336-.1854629-.1070767-.3566294-.2740651-.497343-.4697514m.998907-1.0481777.2242699-.1278114c-.1983538-.2930756-.4476852-.5441628-.7191811-.7009106-.2707891-.1563396-.5207272-.1935081-.7200918-.1308441l.2228127.385931c.1406555-.032444.3122053-.0007725.4962568.1054897.1847582.1066704.3559275.2728672.4959335.4681454m-.0580081 1.5264568-.195406-.3376122c-.067564-.1174335-.1567993-.2081432-.246213-.2597656-.0891714-.0514832-.178525-.0641022-.246706-.0256596l-.196681.1120796c.125948.1725407.2781029.3180275.4417048.4124832.1643095.0948659.3167915.1252595.4433012.0984746m-.8786517-2.0039158.1932898.3355942c.0678291.1170559.1571007.2075691.2463961.2591228.0892954.0515556.1786089.0641499.2465258.025465l.1945581-.1108799c-.1252451-.1705074-.2766962-.3155842-.4402981-.4100399-.1628952-.0940475-.3146725-.1240386-.4404717-.0992622" fill="#9da9c1"/></g></g></g></g><g><g><g><g><g><g enable-background="new"><g><path d="m29.2501984 34.1327667 11.6607093-6.7764644-.017765 6.2663555-11.6607094 6.7764625z" fill="#272e3a"/></g><g><path d="m23.7984524 30.985199 11.6607113-6.7764645 5.451744 3.1475678-11.6607093 6.7764644z" fill="#4c5671"/></g><g><path d="m29.2501984 34.1327667-.0177651 6.2663536-5.451746-3.1475639.0177651-6.2663574z" fill="#373f51"/></g></g></g><path d="m25.91189 32.5235748c-.8576374-.4951744-1.6345253-.5410767-2.1954861-.2152672l-2.2235527 1.2922287c.560915-.3258095 4.9246998 7.1992722 4.3709278 7.5211487l2.2235527-1.2922287c.5538177-.3216896.8970985-1.006279.8998623-1.9792099.0055733-1.958416-1.3708724-4.3426857-3.075304-5.3266716z" fill="#9da9c1"/><path d="m26.0327778 36.0025215.6483459-.3767776-.017765 6.2663536-.648346.3767776z" fill="#272e3a"/><path d="m20.5810318 32.8549538.6483459-.3767777 5.451746 3.1475678-.6483459.3767776z" fill="#4c5671"/><path d="m26.0327778 36.0025215-.0177651 6.2663536-5.4517459-3.1475677.017765-6.2663536z" fill="#373f51"/><g><path d="m22.9833641 34.96278c.4984245.6358948-.3579769.4506836.2178154 2.2026291-.1448669-1.3768158 1.1800117-1.8134041 1.3603458-.8467751.1481991.7951164-.630619-.2599831-1.1245232 1.0094261.4561214-.4469414 1.2373123-.0553589 1.7547512.3780975.3877487.3246307.3177605.9464645-.0790958.7173424-.2067966-.1193962-.5820713-.7696419-1.5175991-.8043976 1.1194553.4752045 2.1642933 2.6006088 1.4123135 2.3773041-.5453644-.1660614-.1806641-.8737068-1.433424-2.116478.6849346.9883347.8295631 2.7947197.2153397 2.4400978-.2340832-.1351471-.4031219-.5090408-.3085041-.7118721.2413025-.5182877.0944042-1.1027489-.0849552-1.6484604.118103 1.1224747-.7199821 1.5112648-1.0341148 1.3298988-.3718758-.2147026-.4616203-.8541412-.1270199-.8175468.4956245.0616646.7421303-.2023926.9225864-.6703949-.6799622.6389694-2.3592987-.5592079-1.9618797-1.0827446.3120518-.4002571.5762119.748436 1.8038464.7840118-1.117239-.473278-2.1617756-2.6018448-1.4109631-2.3750038.5369492.159977.1915245.8813477 1.4334335 2.1133537-.4485321-.6461716-.717144-1.5392265-.5406551-2.3281517.0471801-.2165449.2972068-.2120856.5023021.0496637z" fill="#d3dbea"/></g><path d="m23.3055916 34.7674332c1.3412571.7743759 2.4286213 2.657753 2.4242516 4.1989746-.0043678 1.5403862-1.0988388 2.1640778-2.4400959 1.3897018-1.3405495-.7739677-2.4279137-2.657341-2.4235458-4.1977272.0043696-1.5412216 1.0988406-2.1649132 2.4393901-1.3909492zm-2.3611145 1.4361419c-.0021935.773819.2807178 1.6368141.734869 2.3932991l.2221489-.1274033c-.3972149-.6578674-.6451244-1.4105644-.6432133-2.0847206.0019169-.6757851.2539864-1.1414452.6550369-1.3384361l-.2214127-.3826561c-.4569453.230465-.7452296.7644272-.7474288 1.539917m3.9610748 4.255951c.4562416-.2308693.7431164-.7648964.7453117-1.5387192.0021973-.7754898-.280714-1.6392326-.7355671-2.3961258l-.2221489.1265678c.3979187.659111.6465302 1.413002.6446152 2.0887909-.0019131.6741562-.2532749 1.1393852-.652916 1.3371925zm-1.6155491-.1933175c.5965843.3444366 1.141716.4018784 1.55826.2203026l-.2214069-.3834915c-.3592472.1497078-.825983.0969276-1.3358307-.1974335-.50914-.2939491-.9753571-.7798119-1.3318729-1.3427658l-.2228603.1269951c.4141616.6611824.9578322 1.2323609 1.5537108 1.5763931m.0153313-5.4080352c-.5951729-.3436241-1.1395931-.4022827-1.5554333-.221096l.220705.3830872c.3592415-.1489143.8252716-.0957527 1.3337078.1977921.5091438.2939529.974659.7786217 1.3311768 1.3407784l.2228546-.1269951c-.4141578-.6603891-.9571304-1.2295343-1.5530109-1.5735666m1.1018715 4.7381973.2221127.3846931c.3854923-.1897278.6283245-.6363716.630167-1.2862167.0018482-.651474-.2383652-1.3777962-.6222286-2.0117531l-.2235661.1274223c.3276348.5357094.5335541 1.1513443.5319901 1.7031555-.0015603.5501824-.2095815.9259911-.5384751 1.0826989m-2.2169495-4.0703926-.2221146-.3838997c-.3861942.1893654-.6297359.6363907-.6315842 1.2878647-.0018425.6498451.237669 1.3749695.620121 2.0080719l.2235641-.1273842c-.3262234-.534935-.5321426-1.1497345-.5305824-1.6999207.0015641-.5518112.2109967-.927639.5405961-1.084732m1.4079342 2.6682892.2024288.350605c.1725349-.0659561.2825413-.2515869.2833271-.5287247.0007896-.2787628-.1085072-.5918503-.2808132-.8568954l-.2023315.1144905c-.0834866.0475769-.1929226.0323029-.3015232-.0303993-.1093025-.0631027-.2177639-.1736336-.300705-.3172951l-.2010269-.3481636c-.1739426.0659332-.2846603.2519913-.2854519.5307541-.0007858.2771378.1078148.5889816.2794094.8536186l.2044601-.1156883c.0834827-.0475731.192215-.0326614.3015175.0304451.1093045.0631065.2177658.1735916.3007088.3172531m-1.3602943.209713-.2235603.1265907c.3431644.53899.7889576 1.0033302 1.2769451 1.2850685.4886894.2821465.9356575.3332443 1.2800465.1920013l-.2214108-.384285c-.2870846.1102104-.6556625.0646095-1.0576172-.1674576-.401249-.2316627-.7695847-.6115188-1.0544033-1.0519179m2.1188469-1.6864052.2228584-.1269951c-.3424644-.537796-.7875557-1.0009346-1.2755413-1.2826767-.4865761-.2809219-.9335384-.3328133-1.2779217-.1924019l.221405.3843269c.2870808-.1094246.6549511-.0625992 1.0554943.1686516.401249.2316628.768179.6090775 1.0537053 1.0490952m-1.890255-.713131-.2214089-.3826561c-.3154488.1481781-.5156517.5066147-.5171471 1.0341148-.0014877.5250816.1953297 1.111908.5081978 1.6236725l.2221508-.1266098c-.2559357-.4131546-.4177475-.8896751-.4165401-1.3158875.0012131-.4278373.1659012-.7166862.4247475-.8326339m1.6651878 3.1146584.220705.3822937c.3140373-.1490364.5135345-.5078354.5150242-1.032917.0014935-.5267105-.195322-1.1143227-.5088959-1.6264992l-.2221489.126564c.2566414.4135628.419157.8913231.417944 1.3191643-.0012092.4262123-.1651878.7146377-.4226284.8313942m-1.6143265-.8743897-.2242699.1278076c.2714653.4164429.6193867.7731514.9994774.9925957.3800945.2194481.729599.2653999 1.0025349.1632652l-.2228127-.3859291c-.214222.071125-.4846382.0326576-.7787018-.1371231-.2933558-.1693687-.5631045-.4427643-.7762279-.7606163m1.5599385-1.3678703.2242699-.1278076c-.2714691-.4148598-.6193867-.7715683-.9987755-.9906082-.3786812-.2186317-.7274818-.2649689-.9997101-.1632195l.2228165.3859329c.2142181-.0703316.4832249-.0318871.7758732.1370735.2933559.1693688.5616988.4411622.775526.7586289m-1.33527-.3943405-.220705-.3822937c-.2446957.1071243-.4001579.3793259-.4012985.7820625-.0011387.4011078.1515694.8504448.3934517 1.2384453l.222147-.1265678c-.1849442-.2894325-.3033543-.6288681-.3024979-.9311104.0008602-.3038636.1215115-.506115.3089027-.5805359m1.1141301 2.1585884.2200012.3818436c.2439899-.1074867.3987408-.3793106.3998795-.7804184.0011406-.4027367-.1522675-.8532639-.3955593-1.2421265l-.222147.1266098c.1863537.2902031.3047619.6304779.3038998.9343414-.0008565.3022385-.1200944.5044709-.3060742.5797501m-1.0586357-.5560303-.2242699.1278076c.1990604.2934875.4490948.5457687.7205906.7025185.2721996.1571541.5228443.1939392.7229176.1308899l-.2228146-.3859329c-.1413593.0328331-.312912.0019493-.4990807-.1055336-.1854629-.1070786-.3566303-.2740631-.497343-.4697495m.998907-1.0481796.2242699-.1278114c-.1983547-.2930756-.4476852-.5441628-.7191811-.7009125-.2707901-.1563377-.5207272-.1935043-.7200928-.1308403l.2228127.3859291c.1406555-.032444.3122063-.0007744.4962578.1054878.1847572.1066704.3559265.2728691.4959335.4681473m-.0580082 1.5264587-.195406-.337616c-.067564-.1174316-.1568012-.2081413-.2462139-.2597656-.0891705-.0514832-.1785259-.0640984-.246706-.0256577l-.1966801.1120796c.125946.1725388.2781029.3180275.4417038.4124832.1643106.094864.3167916.1252595.4433022.0984765m-.8786525-2.0039177.1932907.3355942c.0678291.1170578.1571007.2075691.2463951.2591248.0892944.0515518.1786098.0641479.2465267.0254631l.1945572-.110878c-.1252441-.1705093-.2766953-.3155861-.4402981-.4100418-.1628952-.0940476-.3146724-.1240387-.4404716-.0992623" fill="#9da9c1"/></g></g><g><g><g><g enable-background="new"><g><path d="m29.2501984 26.0854874 11.6607093-6.7764645-.017765 6.2663555-11.6607094 6.7764664z" fill="#272e3a"/></g><g><path d="m23.7984524 22.9379196 11.6607113-6.7764644 5.451744 3.1475677-11.6607093 6.7764645z" fill="#4c5671"/></g><g><path d="m29.2501984 26.0854874-.0177651 6.2663574-5.451746-3.1475697.0177651-6.2663555z" fill="#373f51"/></g></g></g><path d="m25.91189 24.4762974c-.8576374-.4951782-1.6345253-.5410786-2.1954861-.2152691l-2.2235527 1.2922287c.560915-.3258095 4.9246998 7.1992722 4.3709278 7.5211487l2.2235527-1.2922287c.5538177-.3216877.8970985-1.0062809.8998623-1.9792118.0055733-1.9584141-1.3708724-4.3426838-3.075304-5.3266678z" fill="#9da9c1"/><path d="m26.0327778 27.9552402.6483459-.3767776-.017765 6.2663555-.648346.3767777z" fill="#272e3a"/><path d="m20.5810318 24.8076725.6483459-.3767776 5.451746 3.1475677-.6483459.3767776z" fill="#4c5671"/><path d="m26.0327778 27.9552402-.0177651 6.2663556-5.4517459-3.1475659.017765-6.2663574z" fill="#373f51"/><g><path d="m22.9833641 26.9155025c.4984245.6358948-.3579769.4506798.2178154 2.2026272-.1208401-1.1484699.7333813-1.5050526 1.0341225-1.331419.1474876.0851517.2881336.2804718.3262234.484642.1481991.7951202-.630619-.2599812-1.1245232 1.0094261.673769-.6602058 2.3599834.5579548 1.9632492 1.0773563-.0633526.080164-.1737938.083786-.2875938.0180836-.2394028-.1382179-.566721-.7690697-1.5175991-.8043976 1.1194553.4752083 2.1642933 2.6006107 1.4123135 2.3773079-.5453644-.1660633-.1806641-.8737068-1.433424-2.1164799.4418335.6375504.7208233 1.5352249.5419998 2.3305359-.1031208.4731712-.8261871-.1928177-.6351643-.6023102.2413025-.5182896.0944042-1.1027508-.0849552-1.6484585.1431751 1.3607502-1.1782246 1.8212471-1.360342.8451691-.1293621-.69384.6674042.1752262 1.1217937-1.003212-.6900234.6484241-2.3495197-.5720901-1.9618797-1.0827446.1028919-.1319771.2938118-.0459003.4166489.0845299.5009613.5354824.9272652.6861515 1.3871975.6994801-1.1229439-.4756927-2.1589947-2.6010036-1.4109631-2.3750019.1783104.0531235.3332024.2611904.3884544.4505596.1966209.6817913.5393581 1.1612015 1.0449791 1.6627922-.4485321-.6461697-.717144-1.5392246-.5406551-2.3281517.0471801-.2165431.2972068-.2120856.5023021.0496655z" fill="#d3dbea"/></g><path d="m23.3055916 26.7201557c1.3412571.7743759 2.4286213 2.6577511 2.4242516 4.1989708-.0043678 1.5403881-1.0988388 2.1640797-2.4400959 1.3897038-1.3405495-.7739677-2.4279137-2.657341-2.4235458-4.1977291.0043696-1.5412198 1.0988406-2.1649132 2.4393901-1.3909455zm-2.3611145 1.4361382c-.0021935.7738228.2807178 1.636816.734869 2.393301l.2221489-.1274033c-.3972149-.6578693-.6451244-1.4105644-.6432133-2.0847206.0019169-.675787.2539864-1.1414452.6550369-1.3384361l-.2214127-.3826561c-.4569453.230463-.7452296.7644272-.7474288 1.5399151m3.9610748 4.2559528c.4562416-.2308693.7431164-.7648964.7453117-1.5387192.0021973-.7754898-.280714-1.6392326-.7355671-2.3961239l-.2221489.1265659c.3979187.6591129.6465302 1.4130039.6446152 2.088789-.0019131.6741581-.2532749 1.139389-.652916 1.3371944zm-1.6155491-.1933174c.5965843.3444366 1.141716.4018784 1.55826.2203026l-.2214069-.3834915c-.3592472.1497078-.825983.0969276-1.3358307-.1974316-.50914-.2939529-.9753571-.7798157-1.3318729-1.3427658l-.2228603.1269932c.4141616.6611824.9578322 1.2323608 1.5537108 1.5763931m.0153313-5.4080353c-.5951729-.3436241-1.1395931-.4022827-1.5554333-.221096l.220705.3830872c.3592415-.1489162.8252716-.0957527 1.3337078.1977921.5091438.2939548.974659.7786198 1.3311768 1.3407803l.2228546-.1269989c-.4141578-.6603853-.9571304-1.2295343-1.5530109-1.5735647m1.1018715 4.7381973.2221127.3846912c.3854923-.1897259.6283245-.6363697.630167-1.2862167.0018482-.6514721-.2383652-1.3777943-.6222286-2.0117531l-.2235661.1274242c.3276348.5357094.5335541 1.1513424.5319901 1.7031536-.0015603.5501863-.2095815.925995-.5384751 1.0827008m-2.2169495-4.0703926-.2221146-.3838997c-.3861942.1893635-.6297359.6363926-.6315842 1.2878647-.0018425.649847.237669 1.3749695.620121 2.00807l.2235641-.1273823c-.3262234-.5349369-.5321426-1.1497326-.5305824-1.6999187.0015641-.5518112.2109967-.9276428.5405961-1.084734m1.4079342 2.6682873.2024288.3506069c.1725349-.0659542.2825413-.2515869.2833271-.5287247.0007896-.2787628-.1085072-.5918484-.2808132-.8568954l-.2023315.1144924c-.0834866.047575-.1929226.0323009-.3015232-.0303993-.1093025-.0631065-.2177639-.1736355-.300705-.317297l-.2010269-.3481655c-.1739426.0659351-.2846603.2519932-.2854519.530756-.0007858.2771378.1078148.5889835.2794094.8536205l.2044601-.1156883c.0834827-.047575.192215-.0326633.3015175.0304413.1093045.0631084.2177658.1735954.3007088.3172531m-1.3602943.2097149-.2235603.1265888c.3431644.5389938.7889576 1.0033302 1.2769451 1.2850704.4886894.2821465.9356575.3332443 1.2800465.1920013l-.2214108-.384285c-.2870846.1102123-.6556625.0646114-1.0576172-.1674576-.401249-.2316607-.7695847-.6115187-1.0544033-1.0519179m2.1188469-1.6864052.2228584-.1269951c-.3424644-.537796-.7875557-1.0009346-1.2755413-1.2826748-.4865761-.2809258-.9335384-.3328133-1.2779217-.1924057l.221405.3843288c.2870808-.1094227.6549511-.0626011 1.0554943.1686535.401249.2316609.768179.6090756 1.0537053 1.0490933m-1.890255-.7131309-.2214088-.3826561c-.3154488.1481762-.5156517.5066128-.5171471 1.0341148-.0014877.5250835.1953297 1.1119061.5081978 1.6236744l.2221508-.1266098c-.2559357-.4131546-.4177475-.889677-.4165401-1.3158875.001213-.4278392.1659011-.7166881.4247474-.8326358m1.6651878 3.1146583.220705.3822937c.3140373-.1490345.5135345-.5078354.5150242-1.0329189.0014935-.5267086-.195322-1.1143208-.5088959-1.6264992l-.2221489.1265678c.2566414.4135628.419157.8913231.417944 1.3191624-.0012092.4262123-.1651878.7146359-.4226284.8313942m-1.6143265-.8743896-.2242699.1278076c.2714653.4164448.6193867.7731514.9994774.9925976.3800945.2194462.729599.2653999 1.0025349.1632633l-.2228127-.385931c-.214222.0711269-.4846382.0326576-.7787018-.1371193-.2933558-.1693688-.5631045-.4427662-.7762279-.7606182m1.5599385-1.3678704.2242699-.1278076c-.2714691-.4148598-.6193867-.7715683-.9987755-.9906082-.3786812-.2186317-.7274818-.264967-.9997101-.1632175l.2228165.3859329c.2142181-.0703335.4832249-.031889.7758732.1370716.2933559.1693687.5616988.441164.775526.7586288m-1.33527-.3943405-.220705-.3822918c-.2446957.1071224-.4001579.379324-.4012985.7820606-.0011387.4011078.1515694.8504429.3934517 1.2384472l.222147-.1265697c-.1849442-.2894306-.3033543-.6288681-.3024979-.9311085.0008602-.3038654.1215115-.5061188.3089027-.5805378m1.1141301 2.1585884.2200012.3818417c.2439899-.1074829.3987408-.3793068.3998795-.7804165.0011406-.4027367-.1522675-.8532639-.3955593-1.2421265l-.222147.1266117c.1863537.2902012.3047619.6304741.3038998.9343395-.0008565.3022404-.1200944.5044728-.3060742.5797501m-1.0586357-.5560321-.2242699.1278095c.1990604.2934875.4490948.5457706.7205906.7025185.2721996.1571541.5228443.1939392.7229176.1308918l-.2228146-.3859329c-.1413593.0328312-.312912.0019493-.4990807-.1055355-.1854629-.1070767-.3566303-.2740632-.497343-.4697514m.998907-1.0481778.2242699-.1278095c-.1983547-.2930775-.4476852-.5441647-.7191811-.7009125-.2707901-.1563396-.5207272-.1935062-.7200928-.1308441l.2228127.385931c.1406555-.032444.3122063-.0007725.4962578.1054897.1847572.1066704.3559265.2728673.4959335.4681454m-.0580082 1.5264588-.195406-.3376141c-.067564-.1174335-.1568012-.2081432-.2462139-.2597656-.0891705-.0514832-.1785259-.0641003-.246706-.0256577l-.1966801.1120777c.125946.1725407.2781029.3180294.4417038.4124851.1643106.094864.3167916.1252576.4433022.0984746m-.8786525-2.0039177.1932907.3355942c.0678291.1170578.1571007.2075691.2463951.2591228.0892944.0515556.1786098.0641499.2465267.025465l.1945572-.110878c-.1252441-.1705074-.2766953-.3155861-.4402981-.4100418-.1628952-.0940475-.3146724-.1240387-.4404716-.0992622" fill="#9da9c1"/></g></g></g><g><g id="XMLID_19_"><path d="m36.8591347 25.5126228c.097702.288784.0647926.6417847-.1278381 1.0426235-.1348343.2838039-.3425941.4759312-.5504265.6406097-.1256523.105772-.2562141.1923332-.386734.2842941l.0019836.7003918-.3772316.2177944-.0019531-.6892452-.2853432.1647434.0019531.6892452-.3772316.2177963-.0020332-.7169704-.7399597.4272156c.0236931-.1861305.0474358-.3556652.0711441-.5363617.0725441-.0418835.1450882-.0837669.2176361-.1256504.1450882-.0837688.188488-.1589527.188015-.3256874-.0016708-.5891361-.0033264-1.1725445-.0049782-1.7562466-.0005684-.199894-.0636749-.2413731-.2426338-.1438026-.0773811.0446758-.1547623.0893517-.2321434.1340275l-.0012779-.4501419.7351227-.4244213-.0019722-.694664.3772354-.2177963.0019073.6723576.2853432-.1647434-.0019073-.6723557.3772316-.2177963.0019722.6946621c.2708321-.1563644.5081444-.1764984.6002388-.157198.3392677.0602245.3748055.6352501.1578827 1.0108414-.0482063.0836964-.1012802.1587296-.1543541.2340736l.0484428-.0001831c.1839828-.0340462.358406-.0287552.4219093.1625881zm-.9313164 1.2781964c.1738892-.1783085.2460861-.3426075.2407303-.5231285-.0053406-.1750889-.0927391-.2469349-.2622337-.2269917-.1543655.0193577-.3142052.0986519-.4773483.1928444-.0978813.0565128-.1969337.1185226-.2966843.1761131l.0026627.9391842c.0677261-.0378952.1354256-.0751572.2028389-.1140785.2022132-.1167469.4016685-.2476101.5900344-.443943m-.79916-1.6595288.0024109.8502369c.054966-.0302181.109581-.0602493.1638145-.0915604.1557426-.08992.3081322-.1896687.4550591-.3324814.1545753-.1505508.2461052-.3314381.2456322-.4981728.004364-.1692181-.0830536-.2525406-.238018-.2298069-.133625.0221806-.2692032.0865707-.4081955.1668167-.0725709.0418989-.1460725.0882627-.2207032.1349679" fill="#febb61"/></g></g><g><g id="XMLID_18_"><path d="m36.8591347 25.5126228c.097702.288784.0647926.6417847-.1278381 1.0426235-.1348343.2838039-.3425941.4759312-.5504265.6406097-.1256523.105772-.2562141.1923332-.386734.2842941l.0019836.7003918-.3772316.2177944-.0019531-.6892452-.2853432.1647434.0019531.6892452-.3772316.2177963-.0020332-.7169704-.7399597.4272156c.0236931-.1861305.0474358-.3556652.0711441-.5363617.0725441-.0418835.1450882-.0837669.2176361-.1256504.1450882-.0837688.188488-.1589527.188015-.3256874-.0016708-.5891361-.0033264-1.1725445-.0049782-1.7562466-.0005684-.199894-.0636749-.2413731-.2426338-.1438026-.0773811.0446758-.1547623.0893517-.2321434.1340275l-.0012779-.4501419.7351227-.4244213-.0019722-.694664.3772354-.2177963.0019073.6723576.2853432-.1647434-.0019073-.6723557.3772316-.2177963.0019722.6946621c.2708321-.1563644.5081444-.1764984.6002388-.157198.3392677.0602245.3748055.6352501.1578827 1.0108414-.0482063.0836964-.1012802.1587296-.1543541.2340736l.0484428-.0001831c.1839828-.0340462.358406-.0287552.4219093.1625881zm-.9313164 1.2781964c.1738892-.1783085.2460861-.3426075.2407303-.5231285-.0053406-.1750889-.0927391-.2469349-.2622337-.2269917-.1543655.0193577-.3142052.0986519-.4773483.1928444-.0978813.0565128-.1969337.1185226-.2966843.1761131l.0026627.9391842c.0677261-.0378952.1354256-.0751572.2028389-.1140785.2022132-.1167469.4016685-.2476101.5900344-.443943m-.79916-1.6595288.0024109.8502369c.054966-.0302181.109581-.0602493.1638145-.0915604.1557426-.08992.3081322-.1896687.4550591-.3324814.1545753-.1505508.2461052-.3314381.2456322-.4981728.004364-.1692181-.0830536-.2525406-.238018-.2298069-.133625.0221806-.2692032.0865707-.4081955.1668167-.0725709.0418989-.1460725.0882627-.2207032.1349679" fill="#febb61"/></g></g><g><g><g><g><g enable-background="new"><g><path d="m37.2452698 38.8364906 11.6607094-6.7764625-.0177651 6.2663536-11.6607094 6.7764664z" fill="#272e3a"/></g><g><path d="m31.7935219 35.6889229 11.6607094-6.7764645 5.4517479 3.1475697-11.6607094 6.7764625z" fill="#4c5671"/></g><g><path d="m37.2452698 38.8364906-.0177651 6.2663575-5.4517479-3.1475678.0177651-6.2663574z" fill="#373f51"/></g></g></g><path d="m33.9069595 37.2273026c-.8576355-.4951782-1.6345253-.5410805-2.1954861-.215271l-2.2235527 1.2922287c.560915-.3258095 4.9246998 7.1992722 4.3709278 7.5211487l2.2235527-1.2922287c.5538177-.3216896.8970985-1.006279.8998604-1.9792099.0055771-1.958416-1.3708686-4.3426858-3.0753021-5.3266678z" fill="#9da9c1"/><path d="m34.0278473 40.7062454.6483459-.3767776-.017765 6.2663536-.648346.3767776z" fill="#272e3a"/><path d="m28.5761013 37.5586777.648346-.3767777 5.4517459 3.1475678-.6483459.3767776z" fill="#4c5671"/><path d="m34.0278473 40.7062454-.0177651 6.2663536-5.4517459-3.1475677.017765-6.2663536z" fill="#373f51"/><g><path d="m30.8024273 39.5077438c.0594578.0343285.1201668.0874977.1760063.1587639.4881325.6227608-.3525162.4672966.2178154 2.2026253-.144865-1.3768158 1.1800098-1.8134041 1.3603458-.8467751.1481972.7951164-.630619-.2599831-1.1245232 1.0094261.6737709-.6602097 2.3599854.5579529 1.9632492 1.0773544-.3031578.3836174-.5843773-.7409554-1.8051929-.7863121 1.1194553.4752045 2.1642933 2.6006088 1.4123135 2.3773079-.1781273-.0542412-.3324928-.2636757-.3884506-.4520836-.1921387-.6766281-.5434799-1.1669006-1.0449734-1.6643982.6849346.9883385.829565 2.7947197.2153416 2.4400978-.2340832-.1351471-.4031239-.5090408-.308506-.7118721.2413025-.5182877.0944042-1.1027489-.0849552-1.6484566.1431751 1.3607483-1.1782246 1.8212433-1.360342.8451691-.1352425-.7253838.6591892.1965294 1.1217937-1.0032158-.4617558.4339218-1.2359619.0480766-1.7520161-.3842239-.389286-.3246918-.3184376-.9467697.0790634-.7172737.2316322.1337318.5901222.7759666 1.5149193.8027649-1.1172371-.473278-2.1617737-2.601841-1.4109631-2.3750038.0269661.0080338.0540295.0200195.0806961.0354156.1330357.0768089.2562237.2385139.3077583.4151459.1966209.6817932.5393581 1.1612015 1.0449791 1.6627922-.4485321-.6461678-.717144-1.5392265-.5406532-2.3281517.0354367-.162651.1768494-.1953773.326294-.1090965z" fill="#d3dbea"/></g><path d="m31.3006611 39.4711609c1.3412571.7743721 2.4286213 2.6577492 2.4242535 4.1989708-.0043678 1.5403862-1.0988388 2.1640778-2.4400959 1.3897018-1.3405514-.7739677-2.4279156-2.657341-2.4235477-4.1977272.0043696-1.5412216 1.0988406-2.1649132 2.4393901-1.3909454zm-2.3611145 1.4361381c-.0021935.7738228.2807178 1.6368141.734869 2.3932991l.2221489-.1274033c-.397213-.6578674-.6451244-1.4105644-.6432133-2.0847206.0019169-.6757851.2539864-1.1414452.6550369-1.3384361l-.2214108-.3826561c-.4569472.230465-.7452315.7644272-.7474307 1.539917m3.9610767 4.255951c.4562416-.2308693.7431145-.7648964.7453079-1.5387192.0022011-.7754898-.2807121-1.6392326-.7355652-2.3961258l-.2221489.1265678c.3979187.6591148.6465302 1.4130058.6446152 2.0887909-.0019112.6741562-.253273 1.139389-.652916 1.3371964zm-1.615551-.1933174c.5965843.3444366 1.141716.4018784 1.5582619.2203064l-.2214088-.3834915c-.3592453.149704-.825983.0969238-1.3358307-.1974373-.50914-.2939491-.9753571-.7798119-1.3318729-1.3427658l-.2228584.1269951c.4141597.6611823.9578322 1.2323608 1.5537089 1.5763931m.0153313-5.4080353c-.5951729-.3436241-1.1395912-.4022827-1.5554333-.221096l.220705.3830872c.3592415-.1489143.8252735-.0957527 1.3337097.1977921.5091419.2939529.974659.7786217 1.3311768 1.3407784l.2228508-.1269951c-.414154-.6603891-.9571285-1.2295343-1.553009-1.5735666m1.1018715 4.7381973.2221107.3846931c.3854942-.1897278.6283264-.6363716.6301689-1.2862167.0018463-.651474-.2383652-1.3777962-.6222267-2.0117531l-.223568.1274223c.3276367.5357094.5335541 1.1513443.5319901 1.7031555-.0015602.5501862-.2095833.9259911-.538475 1.0826989m-2.2169495-4.0703926-.2221146-.3838997c-.3861942.1893654-.6297359.6363907-.6315823 1.2878647-.0018425.6498451.2376671 1.3749695.620121 2.0080719l.2235622-.1273842c-.3262234-.534935-.5321426-1.1497345-.5305824-1.6999207.0015641-.5518074.2109967-.927639.5405961-1.084732m1.4079361 2.6682892.2024269.350605c.1725349-.0659523.2825432-.2515869.283329-.5287247.0007896-.2787628-.1085091-.5918465-.2808151-.8568954l-.2023315.1144943c-.0834846.0475731-.1929226.032299-.3015232-.0303993-.1093025-.0631065-.2177639-.1736374-.300703-.3172989l-.2010269-.3481636c-.1739426.0659332-.2846622.2519913-.2854538.5307541-.0007839.2771378.1078148.5889816.2794094.8536186l.2044601-.1156883c.0834827-.0475731.192215-.0326614.3015175.0304451.1093044.0631065.2177677.1735916.3007106.3172531m-1.3602962.209713-.2235603.1265907c.3431644.53899.7889576 1.0033302 1.2769451 1.2850685.4886913.2821465.9356575.3332443 1.2800446.1920013l-.2214088-.384285c-.2870827.1102142-.6556625.0646095-1.0576153-.1674576-.401251-.2316627-.7695867-.6115188-1.0544053-1.0519179m2.1188488-1.6864052.2228546-.1269951c-.3424606-.537796-.7875519-1.0009346-1.2755394-1.2826729-.4865761-.2809258-.9335384-.3328133-1.2779217-.1924057l.221405.3843269c.2870827-.1094246.6549511-.0625992 1.0554943.1686516.401249.2316628.7681809.6090775 1.0537072 1.0490952m-1.8902569-.713131-.2214088-.3826561c-.3154469.1481781-.5156498.5066147-.5171471 1.0341148-.0014877.5250816.1953297 1.111908.5081978 1.6236763l.2221508-.1266098c-.2559338-.4131584-.4177475-.889679-.4165401-1.3158913.001213-.4278373.165903-.7166861.4247474-.8326339m1.6651897 3.1146584.2207031.3822937c.3140373-.1490364.5135345-.5078354.5150261-1.032917.0014915-.5267105-.1953239-1.1143227-.5088959-1.6264992l-.2221489.1265678c.2566414.4135628.4191551.8913231.417942 1.3191605-.0012091.4262123-.1651877.7146377-.4226264.8313942m-1.6143284-.8743897-.2242699.1278076c.2714653.4164429.6193886.7731514.9994793.9925995.3800926.2194443.729599.2653961 1.002533.1632614l-.2228127-.3859291c-.21422.071125-.4846382.0326576-.7787018-.1371193-.2933558-.1693725-.5631045-.442768-.7762279-.7606201m1.5599385-1.3678703.2242699-.1278076c-.2714691-.4148598-.6193848-.7715683-.9987755-.9906082-.3786812-.2186317-.7274818-.2649689-.9997101-.1632195l.2228165.3859329c.2142181-.0703316.4832249-.0318871.7758751.1370735.2933559.1693688.5616969.441166.7755241.7586289m-1.33527-.3943405-.220705-.3822937c-.2446957.1071243-.400156.3793259-.4012985.7820625-.0011368.4011078.1515694.8504448.3934517 1.2384453l.2221489-.1265678c-.1849461-.2894287-.3033562-.6288681-.3024998-.9311066.0008621-.3038673.1215134-.5061188.3089027-.5805397m1.114132 2.1585884.2200012.3818436c.243988-.1074867.3987389-.3793106.3998756-.7804184.0011444-.4027367-.1522675-.8532639-.3955574-1.2421265l-.222147.1266136c.1863537.2901993.3047619.6304741.3038998.9343376-.0008545.3022423-.1200943.5044747-.3060722.5797501m-1.0586376-.5560303-.2242699.1278076c.1990604.2934875.4490948.5457687.7205906.7025185.2721996.1571541.5228443.1939392.7229195.1308899l-.2228165-.3859329c-.1413593.0328331-.312912.0019531-.4990807-.1055336-.1854629-.1070748-.3566284-.2740631-.497343-.4697495m.998907-1.0481796.2242699-.1278114c-.1983528-.2930756-.4476852-.5441628-.7191811-.7009087-.2707882-.1563416-.5207272-.1935081-.7200928-.1308441l.2228146.3859291c.1406536-.032444.3122044-.0007706.4962559.1054916.1847592.1066704.3559265.2728653.4959335.4681435m-.0580081 1.5264587-.195406-.3376122c-.067564-.1174355-.1567993-.2081451-.246212-.2597656-.0891724-.0514832-.1785259-.0641022-.2467079-.0256615l-.1966801.1120796c.125948.1725426.2781029.3180275.4417057.4124832.1643086.0948678.3167896.1252595.4433003.0984765m-.8786526-2.0039177.1932907.3355942c.0678291.1170578.1571007.2075691.2463951.2591248.0892963.0515556.1786098.0641479.2465267.0254631l.1945591-.110878c-.125246-.1705093-.2766972-.3155861-.4403-.4100418-.1628952-.0940476-.3146724-.1240387-.4404716-.0992623" fill="#9da9c1"/></g></g><g><g><g><g enable-background="new"><g><path d="m37.2452698 30.7892113 11.6607094-6.7764645-.0177651 6.2663555-11.6607094 6.7764664z" fill="#272e3a"/></g><g><path d="m31.7935219 27.6416435 11.6607094-6.7764644 5.4517479 3.1475677-11.6607094 6.7764645z" fill="#4c5671"/></g><g><path d="m37.2452698 30.7892113-.0177651 6.2663574-5.4517479-3.1475678.0177651-6.2663574z" fill="#373f51"/></g></g></g><path d="m33.9069595 29.1800213c-.8576355-.4951763-1.6345253-.5410786-2.1954861-.2152691l-2.2235527 1.2922287c.560915-.3258095 4.9246998 7.199276 4.3709278 7.5211487l2.2235527-1.2922287c.5538177-.3216858.8970985-1.006279.8998604-1.9792099.0055771-1.958416-1.3708686-4.3426838-3.0753021-5.3266697z" fill="#9da9c1"/><path d="m34.0278473 32.6589661.6483459-.3767777-.017765 6.2663536-.648346.3767777z" fill="#272e3a"/><path d="m28.5761013 29.5113983.648346-.3767776 5.4517459 3.1475677-.6483459.3767777z" fill="#4c5671"/><path d="m34.0278473 32.6589661-.0177651 6.2663536-5.4517459-3.1475678.017765-6.2663536z" fill="#373f51"/><g><path d="m30.9784336 31.6192265c.4984245.6358967-.3579769.4506817.2178154 2.2026272-.1465378-1.3927116 1.1816654-1.8045425 1.3603458-.8467751.1419144.7614021-.6435471-.2267532-1.1245232 1.0094261.3321877-.3255005.8768272-.1905708 1.2813377.0429726 1.0505333.6065254.7795982 1.2749062.3943176 1.0524673-.2067986-.1193962-.5820694-.7696419-1.5175991-.8043976 1.2353039.5243835 2.1900311 2.8369026 1.3341808 2.3427773-.3884697-.2242813-.2663727-.6594086-.7246399-1.3230057-.1838074-.3074341-.4424248-.5722198-.6306515-.7589455.9253941 1.3353081.68009 3.1074867.0397034 2.2807922-.4792747-.6114655.3480682-.4792786-.217823-2.2010231.1460495 1.3880615-1.180603 1.8084984-1.360342.8451691-.1352425-.7253838.6591892.1965294 1.1217937-1.0032158-.6799603.6389732-2.3592987-.5592041-1.9618797-1.0827446.2853508-.3660049.6450024.7504311 1.8038464.7840118-1.1392841-.4826164-2.1287956-2.5918789-1.4109631-2.3750019.0269661.0080338.0540295.0200195.0806961.0354156.1330357.076807.2562237.238512.3077583.415144.1966209.6817932.5393581 1.1612015 1.0449791 1.6627922-.4485321-.6461678-.717144-1.5392265-.5406532-2.3281517.0471784-.2165431.2972051-.2120856.5023004.0496656z" fill="#d3dbea"/></g><path d="m31.3006611 31.4238796c1.3412571.774374 2.4286213 2.6577511 2.4242535 4.1989727-.0043678 1.5403862-1.0988388 2.1640778-2.4400959 1.3897018-1.3405514-.7739677-2.4279156-2.657341-2.4235477-4.1977272.0043696-1.5412196 1.0988406-2.1649131 2.4393901-1.3909473zm-2.3611145 1.4361401c-.0021935.7738228.2807178 1.6368141.734869 2.3932991l.2221489-.1274033c-.397213-.6578674-.6451244-1.4105644-.6432133-2.0847206.0019169-.6757851.2539864-1.1414452.6550369-1.3384342l-.2214108-.382658c-.4569472.2304649-.7452315.7644272-.7474307 1.539917m3.9610767 4.2559509c.4562416-.2308693.7431145-.7648964.7453079-1.5387192.0022011-.7754898-.2807121-1.6392326-.7355652-2.396122l-.2221489.126564c.3979187.6591148.6465302 1.4130058.6446152 2.0887909-.0019112.6741562-.253273 1.139389-.652916 1.3371964zm-1.615551-.1933174c.5965843.3444366 1.141716.4018784 1.5582619.2203064l-.2214088-.3834915c-.3592453.149704-.825983.0969238-1.3358307-.1974335-.50914-.2939529-.9753571-.7798157-1.3318729-1.3427696l-.2228584.1269951c.4141597.6611824.9578322 1.2323608 1.5537089 1.5763931m.0153313-5.4080353c-.5951729-.3436241-1.1395912-.4022808-1.5554333-.221096l.220705.3830872c.3592415-.1489143.8252735-.0957527 1.3337097.1977921.5091419.2939529.974659.7786217 1.3311768 1.3407784l.2228508-.1269951c-.414154-.6603891-.9571285-1.2295343-1.553009-1.5735666m1.1018715 4.7381973.2221107.3846931c.3854942-.1897278.6283264-.6363716.6301689-1.2862167.0018463-.651474-.2383652-1.3777962-.6222267-2.0117531l-.223568.1274223c.3276367.5357094.5335541 1.1513443.5319901 1.7031555-.0015602.5501863-.2095833.9259912-.538475 1.0826989m-2.2169495-4.0703926-.2221146-.3838997c-.3861942.1893654-.6297359.6363907-.6315823 1.2878647-.0018425.6498451.2376671 1.3749695.620121 2.0080719l.2235622-.1273842c-.3262234-.534935-.5321426-1.1497345-.5305824-1.6999207.0015641-.5518073.2109967-.9276389.5405961-1.084732m1.4079361 2.6682892.2024269.350605c.1725349-.0659523.2825432-.2515869.283329-.5287247.0007896-.2787628-.1085091-.5918465-.2808151-.8568954l-.2023315.1144943c-.0834846.0475731-.1929226.032299-.3015232-.0303993-.1093025-.0631065-.2177639-.1736374-.300703-.3172989l-.2010269-.3481636c-.1739426.0659332-.2846622.2519913-.2854538.5307541-.0007839.2771378.1078148.5889854.2794094.8536224l.2044601-.1156883c.0834827-.0475769.192215-.0326653.3015175.0304413.1093044.0631065.2177677.1735916.3007106.3172531m-1.3602962.209713-.2235603.1265907c.3431644.53899.7889576 1.0033302 1.2769451 1.2850685.4886913.2821465.9356575.3332443 1.2800446.1920013l-.2214088-.384285c-.2870827.1102142-.6556625.0646095-1.0576153-.1674576-.401251-.2316588-.7695867-.6115187-1.0544053-1.0519179m2.1188488-1.6864052.2228546-.1269951c-.3424606-.537796-.7875519-1.0009346-1.2755394-1.2826748-.4865761-.2809238-.9335384-.3328133-1.2779217-.1924038l.221405.3843269c.2870827-.1094246.6549511-.0625992 1.0554943.1686554.401249.231659.7681809.6090737 1.0537072 1.0490914m-1.8902569-.7131309-.2214088-.3826561c-.3154469.1481781-.5156498.5066147-.5171471 1.0341148-.0014877.5250816.1953297 1.111908.5081978 1.6236763l.2221508-.1266098c-.2559338-.4131546-.4177475-.889679-.4165401-1.3158875.001213-.4278411.165903-.71669.4247474-.8326377m1.6651897 3.1146583.2207031.3822937c.3140373-.1490326.5135345-.5078354.5150261-1.032917.0014915-.5267105-.1953239-1.1143227-.5088959-1.6264992l-.2221489.1265678c.2566414.4135628.4191551.8913231.417942 1.3191605-.0012091.4262123-.1651877.7146378-.4226264.8313942m-1.6143284-.8743896-.2242699.1278076c.2714653.4164467.6193886.7731514.9994793.9925995.3800926.2194443.729599.2653999 1.002533.1632614l-.2228127-.3859291c-.21422.071125-.4846382.0326576-.7787018-.1371193-.2933558-.1693726-.5631045-.4427681-.7762279-.7606201m1.5599385-1.3678704.2242699-.1278076c-.2714691-.4148598-.6193848-.7715683-.9987755-.9906082-.3786812-.2186317-.7274818-.2649689-.9997101-.1632195l.2228165.3859329c.2142181-.0703316.4832249-.0318871.7758751.1370735.2933559.1693688.5616969.441166.7755241.7586289m-1.33527-.3943405-.220705-.3822899c-.2446957.1071205-.400156.3793221-.4012985.7820587-.0011368.4011078.1515694.8504448.3934517 1.2384453l.2221489-.1265678c-.1849461-.2894287-.3033562-.6288681-.3024998-.9311066.0008621-.3038673.1215134-.5061187.3089027-.5805397m1.114132 2.1585884.2200012.3818436c.243988-.1074867.3987389-.3793106.3998756-.7804184.0011444-.4027367-.1522675-.8532639-.3955574-1.2421265l-.222147.1266136c.1863537.2901993.3047619.6304741.3038998.9343376-.0008545.3022424-.1200943.5044747-.3060722.5797501m-1.0586376-.5560302-.2242699.1278076c.1990604.2934875.4490948.5457687.7205906.7025185.2721996.1571541.5228443.1939392.7229195.1308899l-.2228165-.3859329c-.1413593.0328331-.312912.0019531-.4990807-.1055336-.1854629-.1070748-.3566284-.2740632-.497343-.4697495m.998907-1.0481797.2242699-.1278114c-.1983528-.2930756-.4476852-.5441628-.7191811-.7009087-.2707882-.1563416-.5207272-.1935081-.7200928-.1308441l.2228146.3859291c.1406536-.032444.3122044-.0007706.4962559.1054916.1847592.1066705.3559265.2728654.4959335.4681435m-.0580081 1.5264588-.195406-.3376122c-.067564-.1174355-.1567993-.2081451-.246212-.2597656-.0891724-.0514832-.1785259-.0641022-.2467079-.0256615l-.1966801.1120796c.125948.1725426.2781029.3180313.4417057.412487.1643086.094864.3167896.1252557.4433003.0984727m-.8786526-2.0039177.1932907.3355942c.0678291.1170578.1571007.2075691.2463951.2591248.0892963.0515556.1786098.0641479.2465267.0254631l.1945591-.110878c-.125246-.1705093-.2766972-.3155861-.4403-.4100418-.1628952-.0940476-.3146724-.1240388-.4404716-.0992623" fill="#9da9c1"/></g></g></g></g></g></g><g><g id="XMLID_17_"><path d="m44.0052109 30.4297066c.0977058.288784.0647964.6417847-.1278381 1.0426235-.1348343.2838039-.3425903.4759293-.5504265.6406116-.1256485.1057701-.2562141.1923294-.386734.2842941l.0019875.7003899-.3772354.2177963-.0019531-.6892471-.2853432.1647453.0019531.6892433-.3772316.2177963-.0020332-.7169685-.7399559.4272118c.0236931-.1861305.0474319-.3556633.0711403-.5363579.0725479-.0418854.145092-.0837708.2176361-.1256523.1450882-.0837669.188488-.1589546.188015-.3256874-.0016708-.5891361-.0033226-1.1725445-.0049782-1.7562485-.0005684-.199892-.0636749-.2413731-.2426338-.1438007-.0773811.0446758-.1547623.0893517-.2321434.1340275l-.0012741-.4501419.7351189-.4244232-.0019684-.6946621.3772316-.2177963.0019073.6723576.2853432-.1647434-.0019073-.6723576.3772354-.2177944.0019684.6946621c.2708359-.1563663.5081444-.1764984.6002388-.157198.3392677.0602245.3748093.6352501.1578827 1.0108395-.0482063.0836964-.1012802.1587315-.1543541.2340736l.0484428-.0001812c.1839865-.0340462.3584059-.0287552.4219092.1625881zm-.9313126 1.2781963c.1738853-.1783085.2460861-.3426075.2407265-.5231285-.0053406-.1750889-.0927391-.2469349-.2622299-.2269917-.1543694.0193577-.3142052.0986519-.4773521.1928444-.0978813.0565109-.1969299.1185226-.2966805.1761131l.0026627.9391861c.0677261-.0378952.1354256-.0751572.2028389-.1140785.2022094-.1167488.4016647-.2476139.5900344-.4439449m-.79916-1.6595287.0024109.8502369c.0549622-.0302181.1095772-.0602493.1638107-.0915623.1557426-.0899181.308136-.1896667.4550629-.3324795.1545753-.1505527.2461014-.3314381.2456284-.4981728.004364-.1692181-.0830536-.2525406-.238018-.2298069-.133625.0221786-.2692032.0865707-.4081917.1668167-.0725709.0418988-.1460725.0882626-.2207032.1349679" fill="#febb61"/></g><g id="XMLID_16_"><path d="m44.0052109 38.4769859c.0977058.288784.0647964.6417847-.1278381 1.0426216-.1348343.2838058-.3425903.4759331-.5504265.6406097-.1256485.1057739-.2562141.1923332-.386734.2842979l.0019875.7003899-.3772354.2177963-.0019531-.6892471-.2853432.1647415.0019531.6892471-.3772316.2177963-.0020332-.7169724-.7399559.4272156c.0236931-.1861305.0474319-.3556633.0711403-.5363579.0725479-.0418854.145092-.0837708.2176361-.1256523.1450882-.0837669.188488-.1589546.188015-.3256874-.0016708-.589138-.0033226-1.1725464-.0049782-1.7562485-.0005684-.199894-.0636749-.2413712-.2426338-.1438026-.0773811.0446777-.1547623.0893517-.2321434.1340294l-.0012741-.4501419.7351189-.4244232-.0019684-.694664.3772316-.2177925.0019073.6723557.2853432-.1647453-.0019073-.6723557.3772354-.2177963.0019684.694664c.2708359-.1563644.5081444-.1764984.6002388-.157196.3392677.0602226.3748093.6352463.1578827 1.0108376-.0482063.0836983-.1012802.1587296-.1543541.2340736l.0484428-.0001831c.1839865-.0340462.3584059-.0287514.4219092.16259zm-.9313126 1.2781945c.1738853-.1783066.2460861-.3426056.2407265-.5231285-.0053406-.175087-.0927391-.246933-.2622299-.2269897-.1543694.0193596-.3142052.0986519-.4773521.1928444-.0978813.0565109-.1969299.1185226-.2966805.1761131l.0026627.9391861c.0677261-.0378952.1354256-.075161.2028389-.1140785.2022094-.1167489.4016647-.2476121.5900344-.4439469m-.79916-1.6595269.0024109.8502388c.0549622-.03022.1095772-.0602531.1638107-.0915642.1557426-.0899162.308136-.1896667.4550629-.3324814.1545753-.1505508.2461014-.3314362.2456284-.4981728.004364-.1692162-.0830536-.2525406-.238018-.229805-.133625.0221786-.2692032.0865707-.4081917.1668167-.0725709.041897-.1460725.0882608-.2207032.1349679" fill="#febb61"/></g></g><g><g id="XMLID_15_"><path d="m44.0052109 30.4297066c.0977058.288784.0647964.6417847-.1278381 1.0426235-.1348343.2838039-.3425903.4759293-.5504265.6406116-.1256485.1057701-.2562141.1923294-.386734.2842941l.0019875.7003899-.3772354.2177963-.0019531-.6892471-.2853432.1647453.0019531.6892433-.3772316.2177963-.0020332-.7169685-.7399559.4272118c.0236931-.1861305.0474319-.3556633.0711403-.5363579.0725479-.0418854.145092-.0837708.2176361-.1256523.1450882-.0837669.188488-.1589546.188015-.3256874-.0016708-.5891361-.0033226-1.1725445-.0049782-1.7562485-.0005684-.199892-.0636749-.2413731-.2426338-.1438007-.0773811.0446758-.1547623.0893517-.2321434.1340275l-.0012741-.4501419.7351189-.4244232-.0019684-.6946621.3772316-.2177963.0019073.6723576.2853432-.1647434-.0019073-.6723576.3772354-.2177944.0019684.6946621c.2708359-.1563663.5081444-.1764984.6002388-.157198.3392677.0602245.3748093.6352501.1578827 1.0108395-.0482063.0836964-.1012802.1587315-.1543541.2340736l.0484428-.0001812c.1839865-.0340462.3584059-.0287552.4219092.1625881zm-.9313126 1.2781963c.1738853-.1783085.2460861-.3426075.2407265-.5231285-.0053406-.1750889-.0927391-.2469349-.2622299-.2269917-.1543694.0193577-.3142052.0986519-.4773521.1928444-.0978813.0565109-.1969299.1185226-.2966805.1761131l.0026627.9391861c.0677261-.0378952.1354256-.0751572.2028389-.1140785.2022094-.1167488.4016647-.2476139.5900344-.4439449m-.79916-1.6595287.0024109.8502369c.0549622-.0302181.1095772-.0602493.1638107-.0915623.1557426-.0899181.308136-.1896667.4550629-.3324795.1545753-.1505527.2461014-.3314381.2456284-.4981728.004364-.1692181-.0830536-.2525406-.238018-.2298069-.133625.0221786-.2692032.0865707-.4081917.1668167-.0725709.0418988-.1460725.0882626-.2207032.1349679" fill="#febb61"/></g><g id="XMLID_14_"><path d="m44.0052109 38.4769859c.0977058.288784.0647964.6417847-.1278381 1.0426216-.1348343.2838058-.3425903.4759331-.5504265.6406097-.1256485.1057739-.2562141.1923332-.386734.2842979l.0019875.7003899-.3772354.2177963-.0019531-.6892471-.2853432.1647415.0019531.6892471-.3772316.2177963-.0020332-.7169724-.7399559.4272156c.0236931-.1861305.0474319-.3556633.0711403-.5363579.0725479-.0418854.145092-.0837708.2176361-.1256523.1450882-.0837669.188488-.1589546.188015-.3256874-.0016708-.589138-.0033226-1.1725464-.0049782-1.7562485-.0005684-.199894-.0636749-.2413712-.2426338-.1438026-.0773811.0446777-.1547623.0893517-.2321434.1340294l-.0012741-.4501419.7351189-.4244232-.0019684-.694664.3772316-.2177925.0019073.6723557.2853432-.1647453-.0019073-.6723557.3772354-.2177963.0019684.694664c.2708359-.1563644.5081444-.1764984.6002388-.157196.3392677.0602226.3748093.6352463.1578827 1.0108376-.0482063.0836983-.1012802.1587296-.1543541.2340736l.0484428-.0001831c.1839865-.0340462.3584059-.0287514.4219092.16259zm-.9313126 1.2781945c.1738853-.1783066.2460861-.3426056.2407265-.5231285-.0053406-.175087-.0927391-.246933-.2622299-.2269897-.1543694.0193596-.3142052.0986519-.4773521.1928444-.0978813.0565109-.1969299.1185226-.2966805.1761131l.0026627.9391861c.0677261-.0378952.1354256-.075161.2028389-.1140785.2022094-.1167489.4016647-.2476121.5900344-.4439469m-.79916-1.6595269.0024109.8502388c.0549622-.03022.1095772-.0602531.1638107-.0915642.1557426-.0899162.308136-.1896667.4550629-.3324814.1545753-.1505508.2461014-.3314362.2456284-.4981728.004364-.1692162-.0830536-.2525406-.238018-.229805-.133625.0221786-.2692032.0865707-.4081917.1668167-.0725709.041897-.1460725.0882608-.2207032.1349679" fill="#febb61"/></g></g><g><g id="XMLID_13_"><path d="m24.5359688 19.2317944c.0977039.2887859.0647945.6417847-.1278381 1.0426254-.1348343.283802-.3425922.4759293-.5504284.6406097-.1256504.105772-.2562122.1923313-.3867321.2842941l.0019855.7003899-.3772335.2177963-.001955-.6892452-.2853432.1647434.001955.6892433-.3772335.2177963-.0020332-.7169704-.7399578.4272156c.023695-.1861305.0474358-.3556652.0711441-.5363598.0725441-.0418854.1450901-.0837688.2176342-.1256523.1450901-.0837669.188488-.1589527.188015-.3256874-.0016689-.5891361-.0033245-1.1725445-.0049782-1.7562466-.0005665-.199894-.063673-.2413731-.2426338-.1438026-.0773811.0446758-.1547623.0893517-.2321434.1340275l-.001276-.45014.7351208-.4244232-.0019684-.694664.3772335-.2177944.0019054.6723557.2853432-.1647415-.0019054-.6723576.3772316-.2177963.0019703.694664c.270834-.1563663.5081444-.1764984.6002407-.157198.3392677.0602245.3748074.6352482.1578808 1.0108395-.0482044.0836964-.1012783.1587315-.1543522.2340736l.0484428-.0001831c.1839828-.0340443.3584041-.0287533.4219093.1625881zm-.9313145 1.2781963c.1738873-.1783085.2460842-.3426075.2407284-.5231285-.0053406-.175087-.092741-.246933-.2622318-.2269917-.1543694.0193596-.3142071.0986538-.4773521.1928444-.0978813.0565128-.1969318.1185246-.2966805.1761131l.0026627.9391861c.0677242-.0378952.1354256-.0751572.2028389-.1140785.2022113-.1167469.4016647-.247612.5900344-.4439449m-.79916-1.6595268.002409.8502369c.0549641-.0302181.1095791-.0602512.1638126-.0915623.1557426-.0899181.3081341-.1896687.4550629-.3324795.1545753-.1505527.2461033-.33144.2456303-.4981728.004364-.16922-.0830555-.2525425-.2380199-.2298088-.133625.0221806-.2692013.0865707-.4081917.1668167-.0725728.0419007-.1460744.0882626-.2207032.1349698" fill="#febb61"/></g></g></g><g><g><g><path d="m46.1085777 23.9508533-8.9000244 5.1396485-2.6099853-1.5200195 8.8900146-5.1396485z" fill="#d3dbea"/></g><g><g><path d="m35.8839684 27.5689335 1.3280983.7718067 7.6036109-4.389946-1.3280983-.7718067z" fill="#272e3a"/></g></g><g><g><path d="m42.2523041 19.5587463c-.485939-.2825565-1.1652718-.2430916-1.9090729.1883698-1.4875946.8578396-2.6826515 2.9354897-2.6776886 4.6463242 0 .8428268.2975388 1.4379635.7834778 1.7207623l-.6991882-.406765c-.485939-.2777157-.7834473-.8776932-.7834473-1.72052-.0049629-1.7059937 1.1900635-3.7884846 2.6776619-4.6463242.7437973-.4314613 1.42313-.4711685 1.9090996-.1883698z" fill="#ffdd94"/></g><g><path d="m40.3422928 19.7471199c1.4848251-.8572655 2.691803-.1657238 2.69664 1.5403309.0048294 1.7025032-1.1942902 3.7832069-2.6791191 4.6404705-1.4848251.8572655-2.6918068.1657257-2.6966324-1.5367775-.004837-1.7060566 1.1942825-3.7867584 2.6791115-4.6440239z" fill="#efa143"/></g><g><g><path d="m42.4907227 21.6018658c.0049629 1.3585472-.9520569 3.014904-2.1322212 3.6940556-1.1801605.6844807-2.1421432.133894-2.1471062-1.2246532-.0049324-1.3587894.9520836-3.0100613 2.1322479-3.6942978 1.1801643-.6793958 2.1421432-.1338941 2.1470795 1.2248954z" fill="#ffdd94"/></g><g><g enable-background="new"><g><path d="m41.2434235 22.4749451c.0648422.1842384.0440559.4096775-.0802994.6663933-.0888443.1827526-.2171555.3018322-.3526535.4130421-.0784492.0617752-.1604805.1171551-.2460747.1790524l.0012665.4468613-.2426224.1400774-.0012436-.4386272-.1819649.1050568.0012436.4386292-.2390633.1380234-.0012894-.4550972-.4745178.2739639c.0175133-.1210575.0315056-.2318459.0454559-.3466244.0499611-.0288448.0927658-.0535603.1391487-.0803394.0963554-.0556297.1212425-.098732.1209259-.20928-.0010567-.3732452-.0021133-.7462654-.00317-1.1192837-.0003624-.1272202-.0397491-.1537247-.1539459-.0917988-.049942.0288353-.0999031.0576801-.1498451.0865135l-.0008125-.2871609.4709625-.2719097-.0012703-.4468613.2390633-.1380234.0012207.4306221.1819687-.1050587-.0012207-.4306202.2426186-.1400776.0012665.4468613c.1712646-.0988789.3249054-.1136189.3856812-.0994625.21455.0363178.2370186.4052124.0983429.6454678l-.0960999.1459408.0000229.0082226.0285759-.0084686c.1178817-.0186101.2286758-.0170632.2683296.1039657zm-.5909424.8175201c.1068954-.1151943.1530609-.2198257.1491776-.3325443-.0003281-.1147747-.0576553-.1596546-.164814-.1472473-.0989952.0132599-.2020912.064764-.3067741.1252022-.061554.0355396-.123661.0740757-.1857414.1099186l.0016975.5985565c.0464058-.0256748.0927925-.0508938.1390877-.0776215.124462-.0718594.2478827-.1533718.3673667-.2762642m-.5140534-1.0584812.0015335.5411816c.0386276-.0211945.0763702-.0418682.1135674-.063345.096859-.0559216.1896553-.1170712.2823715-.2062473.0998077-.0946064.1566391-.2136459.1599083-.3182411-.0003014-.1065407-.0540466-.1617374-.1540756-.1451988-.0870819.014183-.1773682.0564995-.2697983.1098652-.0440636.0254401-.0886001.0533866-.1335068.0819854" fill="#efa143"/></g></g></g></g></g></g><g><g><path d="m38.1135063 19.2471294-8.9000225 5.1396485-2.6099853-1.5200196 8.8900127-5.1396484z" fill="#d3dbea"/></g><g><g><path d="m27.8888988 22.8652096 1.3280983.7718067 7.6036091-4.389946-1.3280983-.7718067z" fill="#272e3a"/></g></g><g><g><path d="m34.2572365 14.8550215c-.485939-.2825565-1.1652756-.2430906-1.9090729.1883707-1.4875984.8578386-2.6826534 2.9354877-2.6776886 4.6463242 0 .8428268.2975368 1.4379616.7834759 1.7207603l-.6991882-.406765c-.485939-.2777138-.7834473-.8776913-.7834473-1.72052-.0049629-1.7059917 1.1900616-3.7884836 2.67766-4.6463223.7437973-.4314613 1.4231339-.4711695 1.9091034-.1883707z" fill="#ffdd94"/></g><g><path d="m32.3472214 15.043396c1.4848251-.8572655 2.6918068-.1657257 2.6966438 1.5403309.0048256 1.7025032-1.194294 3.783205-2.6791229 4.6404705-1.4848251.8572655-2.6918049.1657257-2.6966305-1.5367775-.004837-1.7060566 1.1942825-3.7867594 2.6791096-4.6440239z" fill="#efa143"/></g><g><g><path d="m34.4956512 16.89814c.0049629 1.3585472-.9520531 3.0149059-2.1322174 3.6940575-1.1801643.6844788-2.1421452.133894-2.14711-1.2246532-.0049324-1.3587894.9520855-3.0100613 2.1322479-3.6942987 1.1801644-.6793949 2.1421471-.1338941 2.1470795 1.2248944z" fill="#ffdd94"/></g><g><g enable-background="new"><g><path d="m33.2483521 17.7712193c.0648422.1842403.0440598.4096775-.0802956.6663952-.0888481.1827526-.2171555.3018322-.3526573.4130402-.0784454.0617752-.1604767.1171551-.2460747.1790543l.0012703.4468613-.2426224.1400776-.0012436-.4386292-.1819649.1050587.0012436.4386272-.2390652.1380234-.0012894-.4550953-.4745197.2739639c.0175171-.1210594.0315075-.2318459.0454578-.3466263.0499611-.0288448.0927658-.0535583.1391506-.0803375.0963535-.0556297.1212387-.098732.1209259-.20928-.0010586-.3732471-.0021172-.7462654-.0031738-1.1192837-.0003605-.1272202-.0397472-.1537247-.153944-.0917988-.049942.0288334-.0999031.0576801-.1498432.0865135l-.0008144-.2871609.4709606-.2719097-.0012665-.4468613.2390633-.1380234.0012207.4306221.1819649-.1050587-.0012207-.4306221.2426224-.1400776.0012665.4468632c.1712608-.0988789.3249016-.1136208.3856773-.0994644.21455.0363197.2370186.4052124.0983429.6454678l-.0960999.1459427.0000229.0082226.0285759-.0084686c.1178856-.0186101.2286759-.0170651.2683297.1039638zm-.5909424.8175201c.1068993-.1151943.1530609-.2198238.1491776-.3325443-.0003242-.1147728-.0576515-.1596527-.1648102-.1472473-.098999.0132618-.202095.0647659-.3067741.1252022-.0615578.0355396-.123661.0740776-.1857452.1099205l.0016975.5985565c.0464058-.0256748.0927925-.0508938.1390877-.0776215.124462-.0718594.2478865-.1533718.3673667-.2762661m-.5140534-1.0584812.0015335.5411816c.0386276-.0211945.0763702-.0418682.1135674-.063343.096859-.0559216.1896553-.1170712.2823715-.2062473.0998077-.0946064.1566429-.2136459.1599083-.318243-.0003014-.1065388-.0540466-.1617355-.1540756-.1451988-.0870819.014185-.1773682.0565014-.2697983.1098671-.0440636.02544-.0885963.0533865-.1335068.0819834" fill="#efa143"/></g></g></g></g></g></g></g><g><g><g><path d="m26.6393337 12.7102804-8.9000244 5.1396494-2.6099853-1.5200195 8.8900146-5.1396494z" fill="#d3dbea"/></g><g><g><path d="m16.4147243 16.3283596 1.3281003.7718067 7.603609-4.389945-1.3281002-.7718067z" fill="#272e3a"/></g></g><g><g><path d="m22.783062 8.3181725c-.485939-.2825565-1.1652737-.2430906-1.9090729.1883717-1.4875984.8578386-2.6826515 2.9354877-2.6776886 4.6463232 0 .8428268.2975368 1.4379625.7834759 1.7207613l-.6991882-.406765c-.485939-.2777138-.7834454-.8776922-.7834454-1.72052-.0049648-1.7059917 1.1900597-3.7884846 2.6776581-4.6463232.7437992-.4314613 1.4231339-.4711695 1.9091034-.1883707z" fill="#ffdd94"/></g><g><path d="m20.8730469 8.506547c1.484827-.857265 2.6918068-.1657248 2.6966438 1.5403309.0048256 1.7025042-1.194294 3.783206-2.679121 4.6404715-1.4848251.8572645-2.6918049.1657248-2.6966324-1.5367794-.004837-1.7060557 1.1942844-3.7867576 2.6791096-4.644023z" fill="#efa143"/></g><g><g><path d="m23.0214767 10.3612919c.0049648 1.3585472-.9520531 3.014905-2.1322174 3.6940575-1.1801643.6844788-2.1421452.133893-2.1471081-1.2246542-.0049343-1.3587885.9520836-3.0100613 2.1322479-3.6942987 1.1801644-.6793948 2.1421452-.1338941 2.1470776 1.2248954z" fill="#ffdd94"/></g><g><g enable-background="new"><g><path d="m21.7741795 11.2343712c.0648403.1842394.0440578.4096775-.0802975.6663952-.0888462.1827517-.2171555.3018312-.3526554.4130402-.0784473.0617752-.1604786.1171551-.2460747.1790533l.0012665.4468613-.2426205.1400776-.0012436-.4386282-.1819649.1050587.0012417.4386272-.2390614.1380234-.0012913-.4550953-.4745178.273963c.0175152-.1210585.0315056-.2318459.0454559-.3466253.0499611-.0288448.0927677-.0535583.1391506-.0803385.0963554-.0556297.1212387-.098732.1209259-.20928-.0010586-.3732462-.0021152-.7462645-.0031738-1.1192837-.0003605-.1272202-.0397472-.1537256-.1539421-.0917978-.049942.0288334-.0999031.0576792-.1498451.0865126l-.0008144-.2871609.4709606-.2719097-.0012665-.4468613.2390633-.1380234.0012207.4306221.1819649-.1050577-.0012207-.4306221.2426224-.1400776.0012665.4468622c.1712627-.0988789.3249035-.1136198.3856773-.0994635.2145519.0363197.2370205.4052124.0983429.6454678l-.0960979.1459417.0000229.0082216.0285759-.0084677c.1178836-.0186091.2286758-.0170641.2683296.1039648zm-.5909424.8175201c.1068974-.1151943.1530609-.2198248.1491776-.3325443-.0003262-.1147728-.0576534-.1596537-.164814-.1472473-.0989952.0132608-.2020931.064765-.3067722.1252022-.0615578.0355396-.123661.0740767-.1857452.1099205l.0016975.5985556c.0464058-.0256748.0927944-.0508938.1390896-.0776215.124462-.0718584.2478827-.1533718.3673667-.2762652m-.5140534-1.0584812.0015335.5411816c.0386257-.0211945.0763702-.0418682.1135674-.063343.096859-.0559225.1896553-.1170721.2823696-.2062483.0998077-.0946064.156641-.2136459.1599083-.3182421-.0003014-.1065397-.0540447-.1617374-.1540737-.1451988-.0870819.014184-.1773682.0565014-.2697983.1098652-.0440655.0254411-.0885982.0533885-.1335068.0819854" fill="#efa143"/></g></g></g></g></g></g><g><g><path d="m18.6442642 8.0065565-8.9000253 5.1396484-2.6099849-1.5200195 8.8900151-5.1396489z" fill="#d3dbea"/></g><g><g><path d="m8.4196548 11.6246357 1.3280993.7718067 7.6036081-4.389946-1.3280983-.7718067z" fill="#272e3a"/></g></g><g><g><path d="m14.7879915 3.6144483c-.485939-.2825565-1.1652737-.2430906-1.9090719.1883709-1.4875984.8578386-2.6826525 2.9354882-2.6776896 4.6463232 0 .8428268.2975378 1.4379635.7834768 1.7207623l-.6991882-.4067659c-.485939-.2777138-.7834463-.8776923-.7834463-1.7205191-.0049639-1.7059927 1.1900606-3.7884851 2.677659-4.6463232.7437992-.4314616 1.4231329-.4711697 1.9091024-.1883712z" fill="#ffdd94"/></g><g><path d="m12.8779774 3.8028226c1.484827-.8572652 2.6918058-.165725 2.6966429 1.5403309.0048265 1.7025037-1.194293 3.7832055-2.6791201 4.640471s-2.6918058.1657248-2.6966324-1.5367785c-.004837-1.7060561 1.1942835-3.7867584 2.6791096-4.6440234z" fill="#efa143"/></g><g><g><path d="m15.0264072 5.6575675c.0049639 1.3585472-.952054 3.0149045-2.1322184 3.694057-1.1801634.6844797-2.1421452.133894-2.1471081-1.2246532-.0049334-1.3587894.9520845-3.0100622 2.1322479-3.6942992 1.1801635-.6793948 2.1421453-.1338936 2.1470786 1.2248954z" fill="#ffdd94"/></g><g><g enable-background="new"><g><path d="m13.77911 6.5306468c.0648403.1842389.0440569.4096775-.0802984.6663947-.0888462.1827517-.2171555.3018322-.3526545.4130406-.0784492.0617752-.1604795.1171551-.2460747.1790528l.0012665.4468622-.2426214.1400766-.0012436-.4386272-.1819659.1050578.0012436.4386282-.2390623.1380224-.0012903-.4550953-.4745188.2739639c.0175161-.1210585.0315065-.2318468.0454569-.3466253.0499611-.0288458.0927668-.0535593.1391497-.0803385.0963554-.0556307.1212397-.098732.1209259-.2092805-.0010576-.3732462-.0021152-.7462649-.0031729-1.1192837-.0003605-.1272206-.0397472-.1537251-.1539431-.0917983-.049942.0288339-.0999031.0576792-.1498451.086513l-.0008135-.2871609.4709606-.2719092-.0012674-.4468617.2390633-.1380234.0012207.4306216.1819658-.1050577-.0012207-.4306216.2426214-.1400776.0012665.4468617c.1712627-.0988784.3249035-.1136193.3856783-.099463.214551.0363193.2370195.4052119.0983429.6454678l-.0960989.1459413.0000229.0082226.0285769-.0084682c.1178827-.0186094.2286748-.017064.2683296.1039649zm-.5909434.8175201c.1068974-.1151938.1530609-.2198253.1491766-.3325443-.0003252-.1147733-.0576525-.1596541-.1648121-.1472473-.0989962.0132613-.2020931.064765-.3067732.1252022-.0615568.0355401-.123662.0740767-.1857443.10992l.0016975.5985565c.0464058-.0256748.0927935-.0508943.1390886-.0776224.1244623-.0718584.2478839-.1533713.3673669-.2762647m-.5140533-1.0584807.0015345.5411811c.0386257-.0211945.0763702-.0418682.1135664-.0633435.0968599-.055922.1896553-.1170716.2823706-.2062483.0998077-.0946064.156641-.2136455.1599083-.3182416-.0003014-.1065392-.0540457-.161737-.1540747-.1451988-.087081.014184-.1773682.0565009-.2697983.1098657-.0440646.0254401-.0885983.0533876-.1335068.0819854" fill="#efa143"/></g></g></g></g></g></g></g></g></svg>