<svg id="Layer_1" enable-background="new 0 0 50 50" height="512" viewBox="0 0 50 50" width="512" xmlns="http://www.w3.org/2000/svg"><g><g><g><g><g enable-background="new"><g><path d="m29.8676128 43.6685219 15.7395268-9.1468125-.035347 1.1900406-15.7395287 9.1468125z" fill="#9da9c1"/></g><g><path d="m3.519449 28.4564018 15.739527-9.1468124 26.3481636 15.21212-15.7395268 9.1468125z" fill="#d3dbea"/></g><g><path d="m29.8676128 43.6685219-.0353489 1.1900406-26.3481652-15.2121201.0353503-1.1900406z" fill="#b4bed7"/></g></g></g></g></g><g><g><g><g enable-background="new"><g><path d="m5.8999233 27.9894123v.5119572l19.1622601 11.1359215 11.5276832-6.6613083v-.5119591l-11.5340099 6.6548309z" fill="#47a047"/></g><g><path d="m5.8994575 27.9884892 19.1583294 11.133604 11.5323582-6.6582108-19.1583309-11.133604z" fill="#77cb77"/></g></g></g><g><path d="m12.7663097 24.8396015 2.1166678 1.2300739 4.4305296-2.5579681-2.1166687-1.230072z" fill="#4c5671"/><g><path d="m14.8806324 26.0677834-2.1172247-1.2260437.0063257.5119571 2.1172247 1.2325249 4.4302912-2.5597878-.0062885-.5119571z" fill="#272e3a"/></g></g><g><path d="m13.2707834 31.3002911 1.1585999.6733036 2.0498438-1.1834774-1.1585999-.6733055z" fill="#4c5671"/><path d="m16.479866 30.7927933-2.0476751 1.1816063-1.1628981-.6761303v.5181293l1.1628981.6699562 2.0476751-1.1816044z" fill="#272e3a"/></g><g><path d="m18.6619301 25.8737869 1.1585998.6733055 2.0498448-1.1834793-1.1585999-.6733036z" fill="#4c5671"/><path d="m21.8710136 25.3662891-2.047676 1.1816063-1.1628972-.6761284v.5181294l1.1628972.6699562 2.047676-1.1816063z" fill="#272e3a"/></g><g><path d="m26.1254807 35.5552711 1.1585998.6733056 2.0498447-1.1834793-1.1585998-.6733056z" fill="#4c5671"/><path d="m29.3345642 35.0477753-2.0476761 1.1816063-1.1628971-.6761322v.5181312l1.1628971.6699562 2.0476761-1.1816063z" fill="#272e3a"/></g><g><g><path d="m8.057169 27.7492981 2.1166687 1.2300739 2.049817-1.1834621-2.1166687-1.2300739z" fill="#4c5671"/></g><path d="m8.0578785 27.7502842v.5122662l2.1172247 1.2322158 2.0476751-1.1819152v-.5181294l-2.0476751 1.1819153z" fill="#272e3a"/></g><g><g><path d="m20.8408909 34.3708076 2.1166687 1.2300721 2.049818-1.1834603-2.1166687-1.2300758z" fill="#4c5671"/></g><path d="m20.8416004 34.3717918v.5122681l2.1172257 1.2322159 2.0476741-1.1819153v-.5181274l-2.0476741 1.1819114z" fill="#272e3a"/></g><g><g><path d="m22.9232578 29.2137642 2.1166687 1.230072 2.0498162-1.1834621-2.1166687-1.2300721z" fill="#4c5671"/></g><path d="m22.9239674 29.2147503v.5122661l2.1172256 1.2322159 2.0476742-1.1819153v-.5181293l-2.0476742 1.1819153z" fill="#272e3a"/></g><g><g><path d="m26.8191204 31.6483555.6900997.401041-.6947059.4010887.0943451.0548287.6947059-.4010887.2426605.1410179-.6947059.4010887.0943432.0548286.6947078-.4010887.2426606.1410179-.694706.4010887.0943432.0548287.6947059-.4010925.2426625.1410217-.694706.4010887.0943432.0548248.694706-.4010887.2426624.1410217-.6947079.4010888.0917111.0532951.6947078-.4010887.2426606.1410179-.694706.4010925.0969753.0563545.6947079-.4010887.2426605.1410179-.694706.4010888.0943432.0548286.6947079-.4010887.2426605.1410179-.6947059.4010887.091711.053299.694706-.4010887.2452945.1425476-.6947078.4010887.091711.0532989.6947079-.4010925.6928787.4026604.0949802-.0548363-.6928806-.4026604.2469368-.1425667.6928787.4026566.0922737-.0532722-.6928787-.4026604.2442303-.1410065.6928787.4026604.0949803-.0548363-.6928788-.4026604.2442303-.1410064.6928806.4026603.0949784-.0548362-.6928807-.4026604.2442303-.1410065.6928787.4026604.0949822-.0548401-.6928807-.4026565.2469349-.1425667.6928788.4026565.0922775-.053276-.6928825-.4026566.2442321-.1410065.6928788.4026566.0949783-.0548363-.6928787-.4026565.2442321-.1410065.6928788.4026566.0949783-.0548363-.6928787-.4026566.2442321-.1410064.6928788.4026565.0949783-.0548363-.6928787-.4026565.6947059-.4010887-.0917091-.0532971-.6947098.4010887-.2452926-.1425495.6947059-.4010887-.0917091-.053297-.6947098.4010906-.2426605-.1410198.694706-.4010887-.0943413-.0548268-.694706.4010887-.2426643-.1410198.6947098-.4010887-.0969773-.0563564-.6947098.4010887-.2426586-.1410198.6947041-.4010888-.0917092-.053297-.6947059.4010887-.2426624-.1410179.6947078-.4010887-.0943451-.0548268-.6947059.4010888-.2426625-.1410199.6947079-.4010887-.0943451-.0548267-.6947059.4010887-.2426606-.1410198.694706-.4010887-.0943432-.0548268-.6947079.4010887-.2426605-.1410179.694706-.4010906-.0943432-.0548267-.6947079.4010906-.6900997-.4010429-.0949783.0548362.6900997.401043-.2442303.1410064-.6900997-.4010429-.0949802.0548363.6900997.4010429-.2442303.1410065-.6900997-.401043-.0949802.0548363.6900997.401043-.2442303.1410064-.6900997-.4010429-.0922737.0532741.6900997.401043-.2469349.1425686-.6900997-.401043-.0949803.0548363.6900998.4010429-.2442303.1410065-.6900997-.4010429-.0949803.0548362.6900997.401043-.2442302.1410065-.6900997-.401043-.0949784.0548382.6900997.401041-.2442302.1410065-.6900997-.401041-.0922757.0532741.6901017.4010411-.2469368.1425685-.6900998-.401041z" fill="#fff"/></g><g><g enable-background="new"><g><path d="m27.1668301 31.8060951.0017585.3744354 3.0619564 1.7794152-.0017585-.3744354z" fill="#272e3a"/></g><g><path d="m30.2287865 33.5855103.0017585.3744354 3.081955-1.7793656-.0017586-.3744373z" fill="#272e3a"/></g><g><path d="m27.1668301 31.8060951 3.0619564 1.7794152 3.0819549-1.7793675-3.0619564-1.7794151z" fill="#4c5671"/></g></g></g></g><g><g><path d="m15.3793936 28.8778191.6901006.4010429-.6947078.4010887.0943441.0548268.6947069-.4010888.2426606.1410199-.694706.4010887.0943441.0548267.6947069-.4010887.2426606.1410198-.694706.4010887.0943432.0548268.694706-.4010887.2426624.1410179-.694706.4010887.0943432.0548267.694706-.4010887.2426624.1410198-.6947079.4010887.0917111.0532971.6947078-.4010887.2426606.1410198-.694706.4010887.0969753.0563564.6947079-.4010887.2426605.1410179-.6947059.4010907.0943431.0548267.6947079-.4010906.2426605.1410198-.6947059.4010887.091711.053297.694706-.4010887.2452946.1425495-.6947079.4010888.091711.053297.6947079-.4010887.6928787.4026565.0949803-.0548362-.6928807-.4026566.2469368-.1425686.6928788.4026566.0922737-.0532742-.6928788-.4026565.2442303-.1410065.6928787.4026566.0949803-.0548363-.6928787-.4026585.2442302-.1410064.6928787.4026584.0949803-.0548363-.6928806-.4026584.2442321-.1410065.6928788.4026585.0949783-.0548363-.6928787-.4026585.2469368-.1425686.6928787.4026585.0922737-.0532741-.6928787-.4026585.2442302-.1410065.6928788.4026585.0949802-.0548363-.6928806-.4026584.2442302-.1410065.6928807.4026584.0949783-.0548381-.6928787-.4026566.2442303-.1410065.6928787.4026566.0949802-.0548363-.6928787-.4026565.694706-.4010887-.0917111-.0532971-.6947059.4010887-.2452946-.1425495.6947059-.4010887-.091711-.0532971-.694706.4010888-.2426605-.1410179.694706-.4010907-.0943432-.0548267-.6947079.4010906-.2426605-.1410198.694706-.4010887-.0969773-.0563565-.6947059.4010888-.2426606-.1410199.694706-.4010887-.091711-.053297-.694706.4010887-.2426624-.1410198.6947078-.4010887-.0943451-.0548268-.6947059.4010887-.2426624-.1410179.6947078-.4010887-.0943451-.0548267-.6947059.4010887-.2426606-.1410198.694706-.4010887-.0943432-.0548268-.6947078.4010887-.2426606-.1410198.694706-.4010887-.0943432-.0548267-.6947079.4010887-.6900997-.4010411-.0949783.0548363.6900997.401041-.2442303.1410065-.6900997-.401041-.0949802.0548363.6900997.401041-.2442303.1410065-.6900997-.4010411-.0949802.0548363.6900997.4010429-.2442303.1410065-.6900997-.4010429-.0922737.0532741.6900997.401043-.2469349.1425686-.6900997-.401043-.0949802.0548363.6900997.4010429-.2442303.1410065-.6900997-.4010429-.0949803.0548362.6901017.401043-.2442322.1410064-.6900997-.4010429-.0949784.0548363.6900998.4010429-.2442303.1410065-.6901007-.401043-.0922737.0532742.6901007.4010429-.2469368.1425686-.6900997-.4010429z" fill="#fff"/></g><g><g enable-background="new"><g><path d="m15.7271013 29.0355606.0017596.3744354 3.0619564 1.7794152-.0017586-.3744355z" fill="#272e3a"/></g><g><path d="m18.7890587 30.8149757.0017586.3744355 3.0819549-1.7793675-.0017586-.3744354z" fill="#272e3a"/></g><g><path d="m15.7271013 29.0355606 3.0619574 1.7794151 3.0819549-1.7793674-3.0619564-1.7794151z" fill="#4c5671"/></g></g></g></g></g><g><g><path d="m29.7197437 37.5106163 13.9914608-8.130949-.0136299 4.8078518-13.9914608 8.1309471z" fill="#272e3a"/><path d="m25.0758133 34.8294411 13.9914589-8.130949 4.6439323 2.6811752-13.9914608 8.130949z" fill="#4c5671"/><path d="m29.7197437 37.5106163-.0136299 4.8078499-4.6439304-2.6811752.0136299-4.8078499z" fill="#373f51"/><g><g><path d="m27.1010189 38.7949905c.0696735.1088638.1573105.2036209.2544193.2685165l-.0009861.3475533c-.1806107-.1131096-.3431149-.2903023-.4679966-.4937668z" fill="#9da9c1"/></g><g><path d="m26.5171719 39.1277046c.2191525.3658447.5118332.684864.8355846.8815727l-.0012493.4405594c-.4294071-.2577057-.8182278-.6822433-1.1061726-1.1671867z" fill="#9da9c1"/></g><g><path d="m26.9477863 38.3573914c.0073509.1160812.0454082.2390366.1056747.3542786l-.215416.122715c-.1137638-.2108269-.1856575-.4396172-.1927376-.6516304z" fill="#9da9c1"/></g><g><path d="m27.3607864 37.1768036-.001255.4425812c-.1994076-.1053391-.3794479-.1180916-.5178909-.0528793l-.2709198-.4692612c.208538-.1051331.4850044-.0867234.7900657.0795593z" fill="#9da9c1"/></g><g enable-background="new"><g><path d="m26.5771427 38.1434021c.0078697.2340164.0865269.4863968.2130318.7183037l-.2726898.1553535c-.1952972-.351059-.317091-.7400742-.32547-1.0960121z" fill="#9da9c1"/></g><g><path d="m26.8413258 37.6771507.2140179.3707008c-.0607224.0453339-.0993519.1240692-.1064854.2317352l-.3033295-.1751289c.0082569-.2031555.0812149-.349327.195797-.4273071z" fill="#9da9c1"/></g><g><path d="m26.5228481 37.1255264.2709179.4692574c-.1274014.0843048-.2072315.2461395-.2164021.4703217l-.385128-.2223549c.0103665-.3451157.1339646-.5924531.3306122-.7172242z" fill="#9da9c1"/></g><g><path d="m26.2052174 36.5753441.2692223.4663124c-.2086182.1325989-.3399391.3951111-.349514.7622299l-.3834248-.2213669c.0107708-.4880562.185007-.8356094.4637165-1.0071754z" fill="#9da9c1"/></g><g><path d="m27.3593121 37.6967239-.000988.3485107c-.0971584-.0472641-.1850452-.0538445-.2551079-.0256615l-.2131672-.3691978c.1256256-.0598983.2886009-.0481643.4692631.0463486z" fill="#9da9c1"/></g><g><path d="m27.3622551 36.658905-.0012455.4396057c-.3238106-.1762047-.6173382-.1965942-.8378487-.0836296l-.270071-.467762c.2906036-.1519279.6797028-.1263771 1.1091652.1117859z" fill="#9da9c1"/></g></g><g><path d="m26.8377342 38.9440727c.137619.2255554.3171444.4203987.5164967.5453377l-.001255.442524c-.305006-.1858826-.5815239-.4867897-.7879314-.8324547z" fill="#9da9c1"/></g><g><path d="m26.1247025 37.8821831c.0074654.3770142.1368732.7900581.3440609 1.1617088l-.2709846.1553841c-.2768269-.4922523-.4485264-1.0395813-.4564991-1.5384598z" fill="#9da9c1"/></g><g><path d="m27.4274769 37.7360802c.1806068.1140633.3439655.2917519.4688454.495266l-.215414.1217575c-.0696735-.10886-.1573105-.2036171-.2544193-.2685165z" fill="#9da9c1"/></g><g><path d="m27.4289513 37.2161598c.305006.1859398.5815239.4867935.7879333.831501l-.2726898.155407c-.1367683-.2241058-.3171463-.4194412-.5164986-.5443268z" fill="#9da9c1"/></g><g><path d="m27.4304199 36.6982574c.4294052.2577095.8182278.6822472 1.1061707 1.1672401l-.2709827.1553841c-.2191525-.3657913-.5126858-.6853523-.8364353-.8830185z" fill="#9da9c1"/></g><g><path d="m27.9402905 39.5806313.2709179.4692612c-.2076893.1065865-.4850063.087738-.7900677-.0786018l.001255-.4425278c.1994076.1052856.3803005.1185302.5178948.0518684z" fill="#9da9c1"/></g><g><path d="m28.5896893 39.3053436c-.0095139.3456078-.13311.5929489-.3297577.71772l-.2709198-.4692078c.1274052-.0853119.2072334-.2461929.2164021-.4703712z" fill="#9da9c1"/></g><g><path d="m29.0404243 39.5655785c-.0099182.4885483-.1841545.8361511-.4628639 1.0076637l-.2700691-.4677582c.209465-.1310997.3407879-.3936119.3503628-.7607841z" fill="#9da9c1"/></g><g><path d="m28.5849991 37.9493141c.2768288.4923058.4485264 1.0395813.4556484 1.5379677l-.3825722-.2208786c-.0074654-.3769569-.1368713-.7900009-.3449078-1.1631546z" fill="#9da9c1"/></g><g><path d="m27.678709 39.128521.2140217.3697472c-.1256237.0588341-.2894535.0476189-.4701138-.0478554l.0009861-.3475494c.0971585.0472602.1850434.0538444.255106.0256576z" fill="#9da9c1"/></g><g><path d="m28.137249 39.0441284c-.0091076.2026672-.0812111.34832-.1966476.426815l-.2131672-.3701553c.0598717-.0458794.0985012-.1245613.1064854-.2317886z" fill="#9da9c1"/></g><g><path d="m28.265295 38.1315269c.1952972.351059.3170891.740078.3246174 1.09552l-.3842754-.221859c-.0078716-.2340164-.086525-.4873543-.2130337-.7182541z" fill="#9da9c1"/></g><g><path d="m28.2596188 40.133709.2692165.4673195c-.2897472.151413-.6797009.1263237-1.1091633-.1118355l.0012493-.4405632c.3238068.1771621.6181889.1970863.8386975.0850792z" fill="#9da9c1"/></g><g><path d="m27.943882 38.3137131c.1146183.2103081.1856575.4396133.1935902.6521187l-.3033314-.1751251c-.0073509-.1160316-.0454082-.2390404-.1048241-.3537369z" fill="#9da9c1"/></g></g></g></g></g><g><g><g><g><path d="m43.8955078 24.2834034-.019989-11.2699499c0-.0410032-.0276756-.0612497-.0394669-.0680408-.0122986-.0070477-.0430527-.0208864-.0789299 0l-1.5028.8676195-.1312103-.2273159 1.5027962-.8676195c.1066093-.0615053.2342339-.0615053.340847-.0002556.1066093.0615053.1706772.1717043.1711884.2949724l.0199928 11.2700768z" fill="#373f51"/></g><g><g enable-background="new"><g><path d="m42.8082047 13.525485-.0022812.80406-1.0186234.59196.0022774-.8040591z" fill="#272e3a"/></g><g><path d="m42.1888504 14.3479662-.0022774.804059-1.5316734.89011.0022812-.804059z" fill="#373f51"/></g><g><path d="m42.8082047 13.525485-1.0186272.5919609.3992729.2305203-1.5316696.89011-1.5429344-.8908138 1.5316696-.89011.3992767.2305212 1.0186234-.5919609z" fill="#4c5671"/></g></g></g></g><g><g><path d="m37.2006187 20.3927574-.0199928-11.269949c0-.0410032-.0276756-.0612497-.039463-.0680408-.0123024-.0070477-.0430565-.0208864-.0789337 0l-1.5027962.8676195-.1312141-.2273159 1.5027962-.8676195c.1066132-.0615063.2342377-.0615063.340847-.0002565.1066093.0615063.1706772.1717043.1711922.2949734l.019989 11.2700758z" fill="#373f51"/></g><g><g enable-background="new"><g><path d="m36.1133118 9.63484-.0022774.80406-1.0186272.5919599.0022812-.804059z" fill="#272e3a"/></g><g><path d="m35.4939613 10.4573212-.0022812.804059-1.5316696.890111.0022774-.80406z" fill="#373f51"/></g><g><path d="m36.1133118 9.63484-1.0186234.5919609.3992729.2305203-1.5316734.89011-1.5429344-.8908138 1.5316734-.8901101.3992729.2305203 1.0186234-.59196z" fill="#4c5671"/></g></g></g></g><g><g><path d="m30.5057259 16.5021114-.019989-11.269948c0-.0410037-.0276775-.0612497-.0394669-.0680408-.0123005-.0070477-.0430546-.0208864-.0789337 0l-1.5027962.867619-.1312122-.2273159 1.5027962-.867619c.1066113-.0615058.2342358-.0615058.3408451-.0002561.1066113.0615058.1706791.1717043.1711922.2949724l.019989 11.2700768z" fill="#373f51"/></g><g><g enable-background="new"><g><path d="m29.4184208 5.744195-.0022793.8040595-1.0186252.5919604.0022792-.8040595z" fill="#272e3a"/></g><g><path d="m28.7990685 6.5666761-.0022793.8040591-1.5316716.8901109.0022793-.8040595z" fill="#373f51"/></g><g><path d="m29.4184208 5.744195-1.0186253.5919604.399273.2305207-1.5316716.8901105-1.5429344-.8908143 1.5316715-.8901105.399273.2305212 1.0186252-.5919604z" fill="#4c5671"/></g></g></g></g><g><g><path d="m23.8108349 12.6114674-.0199909-11.2699489c0-.0410041-.0276775-.0612497-.039465-.0680411-.0123024-.0070475-.0430546-.0208863-.0789337 0l-1.5027962.8676189-.1312122-.2273158 1.5027962-.867619c.1066093-.061506.2342358-.061506.3408451-.0002562.1066113.0615059.1706791.1717042.1711922.2949724l.019989 11.2700768z" fill="#373f51"/></g><g><g enable-background="new"><g><path d="m22.7235298 1.85355-.0022812.8040592-1.0186252.5919605.0022812-.8040596z" fill="#272e3a"/></g><g><path d="m22.1041775 2.6760309-.0022793.8040592-1.5316715.8901105.0022793-.8040592z" fill="#373f51"/></g><g><path d="m22.7235298 1.85355-1.0186252.5919601.3992729.2305208-1.5316715.8901105-1.5429364-.8908143 1.5316715-.8901103.3992749.230521 1.0186252-.5919603z" fill="#4c5671"/></g></g></g></g></g><g><g><g enable-background="new"><g><path d="m29.8676128 31.9965878 15.7395268-9.1468144-.035347 1.1900406-15.7395287 9.1468124z" fill="#9da9c1"/></g><g><path d="m3.519449 16.7844677 15.739527-9.1468143 26.3481636 15.21212-15.7395268 9.1468144z" fill="#d3dbea"/></g><g><path d="m29.8676128 31.9965878-.0353489 1.1900386-26.3481652-15.21212.0353503-1.1900387z" fill="#b4bed7"/></g></g></g><g><g><path d="m9.0074606 10.7006559-2.4914661-1.4478817.0210758 7.4340754 2.4914655 1.4478798z" fill="#272e3a"/><path d="m21.8470688 3.2877038-2.4914646-1.4478816-12.8396097 7.412952 2.4914661 1.4478817z" fill="#9da9c1"/><g><g enable-background="new"><g><path d="m18.2081547 2.8502059 2.4995117.4624369.318615-.1839526-2.4973565-.4636802z" fill="#272e3a"/></g><g><path d="m16.7550068 3.6891811 2.4995117.4624369.318615-.183953-2.4973564-.4636798z" fill="#272e3a"/></g><g><path d="m16.0295105 4.108047 2.4973583.4636803.3207684-.1851959-2.4995098-.4624377z" fill="#272e3a"/></g></g><g><path d="m17.4826584 3.2690721 2.4973564.4636797.3207703-.1851959-2.4995118-.4624369z" fill="#272e3a"/></g></g><path d="m9.0074606 10.7006559.0210752 7.4340735 12.8396092-7.4129505-.0210762-7.4340751z" fill="#4c5671"/><g><g><path d="m12.8827248 13.0690317-.2857265-.1628113c-.0934572.1466484-.2119989.2748079-.3422079.3613348l.0013094.4621267c.2422971-.1523198.4605206-.3903217.626625-.6606502z" fill="#272e3a"/></g><g><path d="m17.8999462 8.4739933.2857418.1628027c.0934563-.1465054.2120132-.2748003.3422089-.3613186l-.0013103-.4621425c-.2422982.15232-.4605275.3878961-.6266404.6606584z" fill="#272e3a"/></g><g><path d="m20.1784573 7.9553761c-.012146-.4637127-.1777973-.7938104-.4405079-.960989l-.3623276.6276245c.1693764.1139278.2761879.3311267.2878685.6306806z" fill="#272e3a"/></g><g><path d="m20.1080513 9.8787975-.3625107-.2067099c-.2933636.4906731-.6865997.916996-1.1193085 1.1816788l.0016632.5867748c.5755215-.3447065 1.0940648-.9105243 1.480156-1.5617437z" fill="#272e3a"/></g><g><path d="m19.2506008 9.3925362-.2857265-.1628113c-.0934563.1466484-.2120113.2748165-.3422222.3613434l.0013103.4621267c.2423115-.1523285.4605351-.3903294.6266384-.6606588z" fill="#272e3a"/></g><g enable-background="new"><g><path d="m20.2696304 8.0073175c-.0094032.5035858-.1833935 1.0572071-.4615593 1.5540895l.3646965.2077503c.3687325-.6586266.5985546-1.3914785.6096649-2.0579052z" fill="#272e3a"/></g><g><path d="m19.6804104 9.6351137-.3646832-.2078857c-.1833649.3025818-.4253654.564312-.6914692.7303762l.0016785.5917521c.4089012-.2509384.7783756-.6535406 1.0544739-1.1142426z" fill="#272e3a"/></g><g><path d="m20.1787529 8.0597858-.514967.2973166c-.0099449.3120403-.1151847.6492376-.2833576.9604778l.3646965.2078772c.2608986-.4719124.424139-.9920397.4336281-1.4656716z" fill="#272e3a"/></g><g><path d="m19.0295696 9.1176519.2857418.1628036c.1530685-.2825203.2475662-.5886555.257597-.8708849l-.4021988.2322102c-.0094662.1554308-.0609932.3217803-.14114.4758711z" fill="#272e3a"/></g><g><path d="m19.3109264 7.7340846-.283884.4916768c.0807552.0611944.1330566.1677246.1433697.3116093l.4022007-.2322102c-.0116024-.2721672-.107523-.4683656-.2616864-.5710759z" fill="#272e3a"/></g><g><path d="m19.8004799 6.883564c.2800751.1770277.4566326.5283875.4688549 1.0193439l.5128002-.2960659c-.0148525-.6538649-.248064-1.1169572-.6193199-1.348351z" fill="#272e3a"/></g><g><path d="m18.5733414 8.2470646c-.0152969.008831-.0304241.0183754-.045433.0283918-.1301994.0865202-.2487564.2148228-.3422203.3613348-.0231876.0363569-.044817.0738401-.0646992.112072-.0801392.1540861-.13167.32057-.1411324.4758711-.001091.0179243-.001812.0357695-.0017605.0533056.0000496.0175352.0008678.0344925.0020561.0510998.0103111.1440201.0626144.2504206.143364.3116188.0200329.0151854.0418034.0276117.0651226.037118.0939884.0384216.212883.0294962.3431473-.0343628.0150185-.0073185.0301495-.0152445.0454445-.0240755.0152969-.008831.0304241-.0183754.045433-.0283918.1302013-.0865202.2487564-.2146883.3422203-.3613358.0231876-.0363569.044817-.0738392.0646992-.112071.0801392-.1540861.1316662-.3204327.1411285-.4758692.001091-.0179243.0018158-.0357714.0017662-.0533075-.0000496-.0175352-.0008736-.0344896-.0020618-.0510979-.010313-.1438847-.0626144-.2504206-.143362-.3116188-.0200348-.0151854-.0418053-.0276117-.0651245-.037117-.0939865-.0382881-.2128792-.0294991-.3431435.0343599-.0150185.0073185-.0301495.0152445-.0454445.0240755z" fill="#5793fb"/></g><g><path d="m18.9619236 8.1886368.2838707-.4916692c-.167099-.0803823-.3859482-.0636106-.6283302.0638986l.0013103.4621429c.1302738-.0638637.2491684-.0726604.3431492-.0343723z" fill="#272e3a"/></g><g><path d="m19.310503 7.5848866.3623142-.6276164c-.2778034-.1409068-.6483479-.1162601-1.0573273.1074347l.0016785.5917516c.2661724-.1412454.5088635-.1593523.6933346-.0715699z" fill="#272e3a"/></g></g><g><path d="m18.1886253 9.6778927-.2838707.4916687c.1671047.0779505.3859634.0636024.6283302-.0638981l-.0013103-.4621267c-.1302604.0638551-.2491531.0727787-.3431492.0343561z" fill="#272e3a"/></g><g><path d="m17.8396358 10.1324368.2838707-.4916687c-.0807419-.061203-.1330433-.1676064-.1433563-.3116179l-.4022007.2322102c.0116024.2723102.1075173.4659414.2616863.5710764z" fill="#272e3a"/></g><g><path d="m19.7375336 6.8477564.3601494-.6263661c-.3885098-.2015738-.9085598-.1677589-1.4841595.1495619l.0016708.5893426c.4327851-.2374388.8271561-.2634126 1.1223393-.1125384z" fill="#272e3a"/></g><g enable-background="new"><g><path d="m17.4076023 8.3398142c-.2630711.4707375-.4263115.9907217-.4357929 1.4669209l.514967-.2973156c.0099449-.3120403.1151791-.6516628.2855225-.9617281z" fill="#272e3a"/></g><g><path d="m17.4701328 8.2289915.3646965.2078772c.1833706-.3001575.4253578-.5618796.6914597-.7279439l-.0016766-.5917516c-.4089088.2485137-.778368.6511078-1.0544796 1.1118183z" fill="#272e3a"/></g><g><path d="m16.972105 9.9111452c.0143051.4598951.1777916.7913857.4426727.9597387l.3623276-.6276245c-.1715412-.1125345-.2783527-.3298759-.2900333-.6294308z" fill="#272e3a"/></g><g><path d="m16.8809319 9.8592033c.0115681-.5046921.1833801-1.0571823.4615517-1.5565138l-.3646889-.2053261c-.3687325.6586275-.5985603 1.3890543-.6096783 2.0579138z" fill="#272e3a"/></g><g><path d="m17.5776539 9.4569511.4022007-.2322111c.0094643-.155303.0609913-.3217793.1411247-.4758625l-.2857285-.1628113c-.1530761.2800951-.2475738.5862303-.2575969.8708849z" fill="#272e3a"/></g><g><path d="m14.2664289 14.1418848-.3975496 1.1982718.26614-.1536561.2836533-.8560762 1.9625091-1.1330547.287571.5262794.26614-.153656-.4030323-.7360554z" fill="#373f51"/></g><g><path d="m17.3500748 10.9805326c-.2800808-.1745787-.4544582-.52707-.4688473-1.0169191l-.5128155.2960739c.0148621.651432.2480793 1.1169491.6215 1.3470926z" fill="#272e3a"/></g><g><path d="m17.04249 7.9853067.3646965.2078772c.2911987-.4894233.6844292-.9181709 1.1171303-1.1804209l-.0016708-.5893426c-.573349.3460245-1.0940438.9130845-1.480156 1.5618863z" fill="#272e3a"/></g><g><path d="m12.6617079 12.7941399.2857265.1628103c.1530704-.2825193.2475672-.5886555.2575979-.8708839l-.4021997.2322102c-.0094652.1554297-.0609932.3217792-.1411247.4758634z" fill="#272e3a"/></g><g><path d="m11.5320978 12.1504726.2857275.1628113c.0934572-.1465063.2120123-.2748003.3422222-.3613272l-.0013103-.4621429c-.2423105.1523285-.4605408.3879051-.6266394.6606588z" fill="#272e3a"/></g><g><path d="m12.2054653 11.9235582c-.015296.008832-.0304222.0183754-.0454321.0283928-.1302004.0865202-.2487545.2148218-.3422174.3613338-.0231886.0363569-.0448179.0738401-.0647001.112071-.0801392.1540871-.1316662.320569-.1411295.4758711-.001091.0179234-.0018158.0357714-.0017662.0533075.0000496.0175352.0008726.0344896.0020618.0510969.0103121.1440201.0626116.2504225.1433601.3116207.0200348.0151844.0418043.0276117.0651236.037117.0939875.0384226.212882.0294981.3431463-.0343609.0150175-.0073185.0301485-.0152445.0454445-.0240755s.0304232-.0183754.0454321-.0283918c.1302004-.0865211.2487574-.2146883.3422194-.3613358.0231895-.0363569.0448179-.0738392.0647011-.112071.0801382-.1540861.1316652-.3204327.1411276-.4758692.001091-.0179243.0018158-.0357723.0017662-.0533075-.0000505-.0175362-.0008736-.0344896-.0020628-.0510979-.0103111-.1438847-.0626125-.2504206-.1433611-.3116188-.0200348-.0151854-.0418043-.0276117-.0651236-.037118-.0939875-.0382872-.2128801-.0294991-.3431444.0343599-.0150176.0073197-.0301485.0152447-.0454455.0240757z" fill="#5793fb"/></g><g><path d="m11.1022835 11.9054708.3646822.2078848c.1833715-.3001566.4253588-.5618792.6914749-.727951l-.0016775-.5917521c-.4089222.2485218-.7783814.6511155-1.0544796 1.1118183z" fill="#272e3a"/></g><g><path d="m13.3776684 13.3485937.3625374.2067089c-.3861208.6512146-.9046621 1.2170401-1.4801693 1.5617294l-.0016527-.5867643c.4326848-.2646847.825922-.6909933 1.1192846-1.181674z" fill="#272e3a"/></g><g><path d="m13.9017544 11.6838131c-.0094032.5035849-.1833801 1.0571985-.4615593 1.5540895l.3646965.2077503c.3687334-.6586266.5985537-1.3914785.6096773-2.0579138z" fill="#272e3a"/></g><g><path d="m13.8108768 11.7362814-.514967.2973166c-.0099459.3120394-.1151857.6492376-.2833567.9604778l.3646965.2078772c.2608978-.4719124.4241391-.9920397.4336272-1.4656716z" fill="#272e3a"/></g><g><path d="m11.4721889 13.9556971-.3623142.6276169c.2778044.1409073.6483345.1162682 1.0573349-.10501l-.0016775-.5917511c-.2661867.1412534-.5088644.1593522-.6933432.0691442z" fill="#272e3a"/></g><g><path d="m11.8207769 13.354372-.2838717.4916687c.1670923.0779581.3859491.063611.6283302-.0638981l-.0013094-.4621267c-.1302737.0638628-.2491683.0727873-.3431491.0343561z" fill="#272e3a"/></g><g><path d="m12.9430504 11.4105797-.283885.4916773c.0807562.0611944.1330576.1677246.1433706.3116093l.4021997-.2322102c-.0116023-.2721682-.1075229-.4683657-.2616853-.5710764z" fill="#272e3a"/></g><g><path d="m13.8105803 11.6318712c-.012145-.4637127-.1777973-.7938099-.4426718-.9597387l-.3601627.6263742c.1693764.1139278.2761879.3311272.2878685.630681z" fill="#272e3a"/></g><g><path d="m13.4326038 10.5600595c.2800894.1770191.4566317.5283871.4688549 1.0193434l.5128145-.2960739c-.0148678-.6538563-.2480783-1.1169491-.6215-1.3470926z" fill="#272e3a"/></g><g><path d="m11.4717731 13.8089237.2838707-.4916687c-.0807419-.061202-.1330433-.1676054-.1433563-.3116169l-.4022007.2322102c.0116034.2723102.1075173.4659405.2616863.5710754z" fill="#272e3a"/></g><g><path d="m12.5940466 11.8651314.2838717-.4916687c-.167099-.0803823-.3859491-.0636101-.6283169.0638914l.0013103.462142c.1302738-.0638628.2491541-.0726519.3431349-.0343647z" fill="#272e3a"/></g><g><path d="m11.2097912 13.1334381.4021997-.2322102c.0094652-.155304.0609932-.3217802.1411247-.4758635l-.2857265-.1628113c-.1530771.2800952-.2475738.5862313-.2575979.870885z" fill="#272e3a"/></g><g><path d="m10.6042433 13.5876322c.0121374.4611454.1777897.7913857.440506.96099l.3623285-.6276255c-.1693764-.1137848-.2761879-.3311262-.2878685-.6306801z" fill="#272e3a"/></g><g><path d="m12.942627 11.2613821.3623142-.6276169c-.2778034-.1409063-.6483335-.1162682-1.0573139.1074266l.0016785.5917521c.2661723-.1412458.50885-.1593447.6933212-.0715618z" fill="#272e3a"/></g><g><path d="m13.8478041 7.9395432.4030256.7336269 2.2654324-1.3079472.3975563-1.1958437-.26614.153656-.2836609.8536487-1.9625082 1.1330543-.2875662-.523851z" fill="#373f51"/></g><g><path d="m10.982213 14.6570196c-.2800827-.1745787-.456625-.5258198-.4688482-1.0169191l-.5128145.2960739c.0148602.651433.2480783 1.1169491.6215 1.3470936z" fill="#272e3a"/></g><g><path d="m13.3674927 10.5255022.3623276-.6276245c-.3885231-.2015657-.9107399-.166501-1.4841595.1495619l.0016708.5893421c.4327717-.2374306.8271427-.2634039 1.1201611-.1112795z" fill="#272e3a"/></g><g><path d="m11.0375738 12.0175514c-.2609043.4694881-.4241457.9894724-.4336271 1.4656706l.514967-.2973156c.0099459-.3120403.1151791-.6516628.2833567-.9604778z" fill="#272e3a"/></g><g><path d="m10.5130692 13.5356913c.0094032-.5034428.1833801-1.0571833.4615517-1.5565147l-.3646889-.2053251c-.3687334.6586266-.5985603 1.3890543-.6096783 2.0579138z" fill="#272e3a"/></g><g><path d="m10.6746273 11.6617937.3625307.2091274c.2933655-.4906731.686595-.9194212 1.1193094-1.1816788l-.0016708-.5893421c-.5755138.3472739-1.0940571.9130917-1.4801693 1.5618935z" fill="#272e3a"/></g></g><g><path d="m12.1675053 14.5827141c-.4327917.235014-.8271561.2634125-1.1201744.1112881l-.3623352.6251993c.3885307.2039909.9107475.1689262 1.4841738-.1497126z" fill="#272e3a"/></g><g><path d="m13.3125334 13.3116083-.3646832-.2078848c-.1833649.3025818-.4253511.5643044-.6914539.7303686l.0016775.5917511c.4089022-.2509384.7783613-.653532 1.0544596-1.1142349z" fill="#272e3a"/></g><g><path d="m17.8400517 10.2792101-.3623276.6276245c.2778168.1408987.6483479.1162596 1.0573349-.10501l-.0016785-.5917511c-.2661724.1412449-.5088501.1593437-.6933288.0691366z" fill="#272e3a"/></g><g><path d="m18.5353546 10.9062347c-.4327793.2350063-.8271427.2634048-1.1201611.1112795l-.3623352.6252003c.3885307.2039909.9107342.1689329 1.4841595-.1497049z" fill="#272e3a"/></g></g></g><g><path d="m15.7023525 14.591301-2.4914665-1.4478817.0210762 7.4340744 2.4914656 1.4478817z" fill="#272e3a"/><path d="m28.5419617 7.178349-2.4914666-1.4478817-12.8396091 7.412952 2.4914665 1.4478817z" fill="#9da9c1"/><g><g enable-background="new"><g><path d="m24.9030476 6.7408509 2.4995098.4624372.3186149-.1839528-2.4973564-.4636803z" fill="#272e3a"/></g><g><path d="m23.4498997 7.5798264 2.4995098.4624366.3186169-.1839528-2.4973584-.4636798z" fill="#272e3a"/></g><g><path d="m22.7244034 7.998692 2.4973564.4636798.3207684-.1851959-2.4995099-.4624371z" fill="#272e3a"/></g></g><g><path d="m24.1775494 7.1597171 2.4973583.4636798.3207683-.1851959-2.4995098-.4624367z" fill="#272e3a"/></g></g><path d="m15.7023525 14.591301.0210753 7.4340744 12.8396082-7.4129515-.0210743-7.4340749z" fill="#4c5671"/><g><g><path d="m19.5776157 16.9596767-.2857265-.1628113c-.0934563.1466484-.211998.2748089-.342207.3613358l.0013103.4621258c.2422963-.152319.4605199-.3903217.6266232-.6606503z" fill="#272e3a"/></g><g><path d="m24.5948391 12.3646383.2857399.1628036c.0934582-.1465063.2120132-.2748013.3422089-.3613195l-.0013103-.4621429c-.2422963.1523209-.4605275.3878975-.6266385.6606588z" fill="#272e3a"/></g><g><path d="m26.8733482 11.8460217c-.012146-.4637127-.1777973-.7938108-.440506-.96099l-.3623276.6276255c.1693764.1139278.2761879.3311262.2878666.6306801z" fill="#272e3a"/></g><g><path d="m26.8029442 13.7694426-.3625107-.2067099c-.2933655.4906731-.6866016.916996-1.1193104 1.1816788l.0016651.5867748c.5755196-.3447065 1.0940628-.9105244 1.480156-1.5617437z" fill="#272e3a"/></g><g><path d="m25.9454937 13.2831812-.2857265-.1628113c-.0934582.1466484-.2120132.2748165-.3422222.3613434l.0013103.4621267c.2423096-.1523285.4605331-.3903293.6266384-.6606588z" fill="#272e3a"/></g><g enable-background="new"><g><path d="m26.9645233 11.8979626c-.0094032.5035858-.1833954 1.0572071-.4615593 1.5540895l.3646965.2077503c.3687325-.6586266.5985527-1.3914785.609663-2.0579052z" fill="#272e3a"/></g><g><path d="m26.3753014 13.5257587-.3646832-.2078848c-.1833649.3025818-.4253654.564312-.6914673.7303753l.0016766.5917521c.4089031-.2509384.7783756-.6535406 1.0544739-1.1142426z" fill="#272e3a"/></g><g><path d="m26.8736439 11.9504318-.5149651.2973156c-.0099468.3120403-.1151867.6492376-.2833576.9604778l.3646965.2078772c.2608967-.4719124.424139-.9920397.4336262-1.4656706z" fill="#272e3a"/></g><g><path d="m25.7244625 13.008297.2857399.1628036c.1530704-.2825193.2475662-.5886555.257597-.8708849l-.4021988.2322102c-.0094643.1554308-.0609932.3217802-.1411381.4758711z" fill="#272e3a"/></g><g><path d="m26.0058193 11.6247301-.283886.4916763c.0807552.0611944.1330585.1677256.1433716.3116093l.4021988-.2322102c-.0116024-.2721672-.1075229-.4683656-.2616844-.5710754z" fill="#272e3a"/></g><g><path d="m26.4953728 10.774209c.2800751.1770277.4566307.528388.468853 1.0193443l.5128021-.2960663c-.0148544-.6538649-.248064-1.1169567-.6193218-1.3483505z" fill="#272e3a"/></g><g><path d="m25.2682323 12.1377096c-.0152969.008831-.0304222.0183754-.045433.0283918-.1301994.0865202-.2487545.2148228-.3422184.3613348-.0231895.0363569-.0448189.0738401-.0647011.112072-.0801392.1540861-.1316681.32057-.1411324.475872-.001091.0179234-.0018101.0357685-.0017605.0533047.0000496.0175352.0008678.0344925.0020561.0510998.010313.1440201.0626144.2504206.143364.3116188.0200348.0151854.0418053.0276117.0651226.037118.0939884.0384216.2128849.0294962.3431492-.0343618.0150166-.0073195.0301476-.0152454.0454445-.0240765.015295-.008831.0304222-.0183754.0454311-.0283918.1302013-.0865202.2487583-.2146883.3422203-.3613348.0231895-.0363569.044817-.0738401.0647011-.112072.0801373-.1540861.1316643-.3204327.1411266-.4758692.001091-.0179243.0018158-.0357714.0017662-.0533075-.0000496-.0175352-.0008736-.0344896-.0020618-.0510969-.0103111-.1438856-.0626125-.2504215-.143362-.3116198-.0200348-.0151854-.0418034-.0276117-.0651226-.037117-.0939884-.0382881-.2128811-.0294991-.3431454.0343599-.0150165.0073185-.0301475.0152445-.0454445.0240755z" fill="#5793fb"/></g><g><path d="m25.6568146 12.0792818.2838707-.4916687c-.1670971-.0803833-.3859482-.063611-.6283302.0638981l.0013103.4621429c.1302738-.0638637.2491684-.0726604.3431492-.0343723z" fill="#272e3a"/></g><g><path d="m26.0053959 11.4755316.3623142-.6276159c-.2778053-.1409073-.6483479-.1162605-1.0573273.1074343l.0016766.5917511c.2661724-.141245.5088654-.1593524.6933365-.0715695z" fill="#272e3a"/></g></g><g><path d="m24.8835163 13.5685377-.2838707.4916687c.1671066.0779505.3859634.0636034.6283302-.0638981l-.0013103-.4621267c-.1302586.0638552-.2491531.0727787-.3431492.0343561z" fill="#272e3a"/></g><g><path d="m24.5345268 14.0230818.2838726-.4916687c-.0807438-.061203-.1330452-.1676064-.1433582-.3116179l-.4021988.2322102c.0116024.2723112.1075153.4659414.2616844.5710764z" fill="#272e3a"/></g><g><path d="m26.4324265 10.7384014.3601475-.6263666c-.3885078-.2015734-.9085598-.167758-1.4841595.1495628l.0016708.5893421c.432785-.2374391.8271561-.2634124 1.1223412-.1125383z" fill="#272e3a"/></g><g enable-background="new"><g><path d="m24.1024933 12.2304592c-.2630692.4707375-.4263115.9907227-.4357929 1.4669209l.514967-.2973156c.0099468-.3120403.1151791-.6516628.2855225-.9617281z" fill="#272e3a"/></g><g><path d="m24.1650238 12.1196365.3646965.2078772c.1833725-.3001575.4253578-.5618792.6914616-.7279434l-.0016785-.5917521c-.4089088.2485132-.778368.6511078-1.0544796 1.1118183z" fill="#272e3a"/></g><g><path d="m23.6669979 13.8017902c.0143032.4598951.1777897.7913857.4426708.9597387l.3623276-.6276245c-.1715412-.1125345-.2783527-.3298759-.2900333-.6294298z" fill="#272e3a"/></g><g><path d="m23.5758228 13.7498484c.01157-.5046921.1833801-1.0571823.4615517-1.5565138l-.3646889-.2053261c-.3687325.6586275-.5985603 1.3890543-.6096764 2.0579138z" fill="#272e3a"/></g><g><path d="m24.2725449 13.3475962.4022007-.2322102c.0094643-.155304.0609932-.3217802.1411247-.4758635l-.2857265-.1628113c-.1530781.2800952-.2475739.5862313-.2575989.870885z" fill="#272e3a"/></g><g><path d="m20.9613209 18.0325298-.3975506 1.1982727.26614-.153656.2836532-.8560772 1.9625092-1.1330547.2875729.5262795.2661399-.1536561-.4030342-.7360553z" fill="#373f51"/></g><g><path d="m24.0449677 14.8711777c-.2800827-.1745787-.4544601-.52707-.4688492-1.0169191l-.5128136.2960739c.0148602.651432.2480774 1.1169491.6215 1.3470926z" fill="#272e3a"/></g><g><path d="m23.737381 11.8759518.3646965.2078772c.2912006-.4894228.6844292-.9181709 1.1171303-1.1804209l-.0016708-.5893421c-.5733491.3460244-1.0940438.913084-1.480156 1.5618858z" fill="#272e3a"/></g><g><path d="m19.3565998 16.6847839.2857265.1628113c.1530704-.2825184.2475662-.5886555.257597-.8708839l-.4021988.2322102c-.0094661.1554298-.0609932.3217792-.1411247.4758624z" fill="#272e3a"/></g><g><path d="m18.2269897 16.0411167.2857265.1628113c.0934582-.1465054.2120132-.2747993.3422222-.3613262l-.0013103-.462142c-.2423095.1523275-.4605407.3879042-.6266384.6606569z" fill="#272e3a"/></g><g><path d="m18.9003582 15.8142042c-.0152969.008831-.0304241.0183754-.045433.0283918-.1302013.0865202-.2487545.2148228-.3422184.3613338-.0231876.0363579-.044817.0738392-.0646992.112072-.0801392.1540852-.1316662.3205681-.1411304.4758701-.001091.0179234-.0018158.0357723-.0017662.0533066.0000496.0175362.0008736.0344906.0020618.0510979.010313.1440201.0626125.2504215.1433601.3116207.0200348.0151844.0418053.0276108.0651245.037117.0939865.0384235.2128811.0294991.3431454-.0343609.0150185-.0073185.0301495-.0152435.0454445-.0240746.0152969-.0088329.0304241-.0183754.045433-.0283928.1302013-.0865211.2487564-.2146893.3422203-.3613358.0231876-.036356.044817-.0738392.0646992-.1120701.0801392-.1540871.1316662-.3204327.1411285-.4758701.001091-.0179234.0018158-.0357723.0017662-.0533085-.0000496-.0175343-.0008736-.0344887-.0020618-.051096-.010313-.1438856-.0626144-.2504215-.143362-.3116198-.0200348-.0151854-.0418053-.0276117-.0651245-.037118-.0939865-.0382872-.2128792-.0294991-.3431435.0343599-.0150185.0073198-.0301495.0152448-.0454445.0240768z" fill="#5793fb"/></g><g><path d="m17.7971745 15.7961159.3646832.2078857c.1833725-.3001575.4253578-.5618801.6914749-.727952l-.0016766-.5917521c-.4089241.2485219-.7783833.6511155-1.0544815 1.1118184z" fill="#272e3a"/></g><g><path d="m20.0725594 17.2392387.3625374.2067089c-.3861198.6512146-.9046612 1.2170391-1.4801693 1.5617294l-.0016518-.5867634c.4326839-.2646865.825922-.6909942 1.1192837-1.1816749z" fill="#272e3a"/></g><g><path d="m20.5966454 15.5744581c-.0094032.5035849-.1833801 1.0571985-.4615574 1.5540895l.3646946.2077503c.3687344-.6586266.5985546-1.3914785.6096783-2.0579138z" fill="#272e3a"/></g><g><path d="m20.5057678 15.6269264-.514967.2973166c-.0099449.3120394-.1151848.6492376-.2833557.9604769l.3646965.2078781c.2608967-.4719124.4241391-.9920407.4336262-1.4656716z" fill="#272e3a"/></g><g><path d="m18.1670799 17.8463421-.3623142.6276169c.2778053.1409073.6483345.1162682 1.0573349-.1050091l-.0016766-.591753c-.2661876.1412544-.5088653.1593532-.6933441.0691452z" fill="#272e3a"/></g><g><path d="m18.5156689 17.245018-.2838726.4916687c.1670933.0779572.3859501.0636101.6283302-.0639l-.0013084-.4621258c-.1302739.0638638-.2491684.0727864-.3431492.0343571z" fill="#272e3a"/></g><g><path d="m19.6379414 15.3012247-.283884.4916773c.0807552.0611944.1330566.1677246.1433697.3116093l.4022007-.2322102c-.0116025-.2721672-.1075231-.4683657-.2616864-.5710764z" fill="#272e3a"/></g><g><path d="m20.5054722 15.5225172c-.012146-.4637136-.1777973-.7938108-.4426727-.9597397l-.3601627.6263742c.1693783.1139278.2761879.3311272.2878685.630681z" fill="#272e3a"/></g><g><path d="m20.1274948 14.4507046c.2800903.1770191.4566326.5283871.4688549 1.0193434l.5128155-.296073c-.0148678-.6538572-.2480793-1.11695-.6215-1.3470936z" fill="#272e3a"/></g><g><path d="m18.1666641 17.6995697.2838726-.4916687c-.0807438-.061203-.1330452-.1676064-.1433582-.3116188l-.4021988.2322102c.0116024.2723102.1075153.4659423.2616844.5710773z" fill="#272e3a"/></g><g><path d="m19.2889385 15.7557774.2838707-.4916687c-.167099-.0803833-.3859482-.063611-.6283169.0638905l.0013103.462142c.1302739-.0638629.2491551-.072652.3431359-.0343638z" fill="#272e3a"/></g><g><path d="m17.9046822 17.0240841.4022007-.2322102c.0094643-.155304.0609932-.3217812.1411247-.4758644l-.2857265-.1628113c-.1530781.2800961-.2475739.5862313-.2575989.8708859z" fill="#272e3a"/></g><g><path d="m17.2991352 17.4782772c.0121384.4611454.1777897.7913857.440506.960989l.3623276-.6276245c-.1693764-.1137848-.2761879-.3311253-.2878685-.6306801z" fill="#272e3a"/></g><g><path d="m19.6375198 15.1520271.3623123-.6276169c-.2778034-.1409063-.6483326-.1162682-1.057312.1074266l.0016766.5917521c.2661724-.1412458.5088501-.1593446.6933231-.0715618z" fill="#272e3a"/></g><g><path d="m20.542696 11.8301888.4030247.7336263 2.2654323-1.3079471.3975563-1.1958437-.2661399.153656-.2836609.8536482-1.9625073 1.1330547-.2875671-.5238505z" fill="#373f51"/></g><g><path d="m17.6771049 18.5476646c-.2800827-.1745777-.456625-.5258198-.4688492-1.0169182l-.5128136.2960739c.0148602.651432.2480774 1.1169491.6215 1.3470917z" fill="#272e3a"/></g><g><path d="m20.0623837 14.4161472.3623276-.6276245c-.3885231-.2015657-.9107399-.166501-1.4841595.1495619l.0016708.5893431c.4327717-.2374316.8271427-.2634049 1.1201611-.1112805z" fill="#272e3a"/></g><g><path d="m17.7324657 15.9081964c-.2609043.4694872-.4241467.9894724-.4336281 1.4656706l.514967-.2973156c.0099468-.3120403.1151791-.6516628.2833576-.9604778z" fill="#272e3a"/></g><g><path d="m17.2079601 17.4263363c.0094032-.5034428.1833801-1.0571823.4615517-1.5565147l-.3646889-.2053251c-.3687325.6586275-.5985603 1.3890543-.6096764 2.0579138z" fill="#272e3a"/></g><g><path d="m17.3695183 15.5524387.3625317.2091274c.2933655-.4906731.686594-.9194202 1.1193085-1.1816788l-.0016708-.5893421c-.575514.3472749-1.0940572.9130917-1.4801694 1.5618935z" fill="#272e3a"/></g></g><g><path d="m18.8623962 18.4733601c-.4327908.235014-.8271561.2634125-1.1201744.1112862l-.3623333.6252003c.3885288.2039909.9107456.1689262 1.4841728-.1497116z" fill="#272e3a"/></g><g><path d="m20.0074253 17.2022533-.3646832-.2078838c-.1833649.3025818-.4253521.5643024-.6914539.7303677l.0016766.5917511c.4089031-.2509384.7783623-.6535321 1.0544605-1.114235z" fill="#272e3a"/></g><g><path d="m24.5349426 14.1698551-.3623276.6276245c.2778187.1408987.6483479.1162605 1.0573349-.10501l-.0016785-.5917511c-.2661723.1412449-.50885.1593437-.6933288.0691366z" fill="#272e3a"/></g><g><path d="m25.2302456 14.7968798c-.4327774.2350063-.8271427.2634048-1.1201611.1112804l-.3623333.6251993c.3885288.2039909.9107323.1689339 1.4841576-.1497049z" fill="#272e3a"/></g></g></g><g><path d="m22.3972435 18.481945-2.4914665-1.4478817.0210762 7.4340763 2.4914665 1.4478817z" fill="#272e3a"/><path d="m35.2368507 11.0689936-2.4914627-1.4478808-12.839611 7.4129505 2.4914665 1.4478817z" fill="#9da9c1"/><g><g enable-background="new"><g><path d="m31.5979385 10.6314964 2.4995118.4624367.3186149-.1839523-2.4973583-.4636803z" fill="#272e3a"/></g><g><path d="m30.1447906 11.4704714 2.4995118.4624367.3186149-.1839533-2.4973583-.4636793z" fill="#272e3a"/></g><g><path d="m29.4192944 11.8893375 2.4973564.4636803.3207683-.1851959-2.4995079-.4624376z" fill="#272e3a"/></g></g><g><path d="m30.8724403 11.0503626 2.4973603.4636793.3207664-.1851959-2.4995098-.4624367z" fill="#272e3a"/></g></g><path d="m22.3972435 18.481945.0210762 7.4340763 12.8396072-7.4129524-.0210762-7.4340753z" fill="#4c5671"/><g><g><path d="m26.2725086 20.8503227-.2857265-.1628113c-.0934582.1466484-.2119999.274807-.3422089.3613338l.0013103.4621277c.2422963-.1523208.4605199-.3903217.6266251-.6606502z" fill="#272e3a"/></g><g><path d="m31.2897301 16.2552834.2857399.1628036c.0934582-.1465054.2120132-.2748013.3422089-.3613186l-.0013103-.4621429c-.2422963.1523199-.4605275.3878965-.6266385.6606579z" fill="#272e3a"/></g><g><path d="m33.5682411 15.7366667c-.012146-.4637127-.1777992-.7938108-.440506-.960989l-.3623314.6276245c.1693802.1139278.2761917.3311262.2878685.630681z" fill="#272e3a"/></g><g><path d="m33.4978333 17.6600876-.3625069-.2067089c-.2933655.4906731-.6866035.916996-1.1193123 1.1816769l.0016632.5867767c.5755234-.3447075 1.0940666-.9105263 1.480156-1.5617447z" fill="#272e3a"/></g><g><path d="m32.6403847 17.1738262-.2857285-.1628113c-.0934563.1466484-.2120094.2748165-.3422203.3613434l.0013084.4621258c.2423134-.1523266.460537-.3903294.6266404-.6606579z" fill="#272e3a"/></g><g enable-background="new"><g><path d="m33.6594124 15.7886086c-.0094032.5035839-.1833916 1.0572071-.4615555 1.5540886l.3646927.2077503c.3687363-.6586266.5985565-1.3914776.6096649-2.0579052z" fill="#272e3a"/></g><g><path d="m33.0701942 17.4164028-.3646851-.2078838c-.1833649.3025818-.4253654.564312-.6914673.7303753l.0016785.591753c.4089013-.2509384.7783738-.6535416 1.0544739-1.1142445z" fill="#272e3a"/></g><g><path d="m33.5685349 15.8410769-.5149651.2973166c-.0099449.3120384-.1151848.6492367-.2833557.9604778l.3646965.2078762c.2608948-.4719124.4241371-.9920388.4336243-1.4656706z" fill="#272e3a"/></g><g><path d="m32.4193535 16.8989429.2857399.1628017c.1530724-.2825184.2475662-.5886555.2575989-.8708839l-.4021988.2322102c-.0094681.1554298-.0609932.3217793-.14114.475872z" fill="#272e3a"/></g><g><path d="m32.7007103 15.5153751-.283886.4916763c.0807571.0611954.1330566.1677246.1433716.3116093l.4021988-.2322102c-.0116005-.2721671-.107521-.4683656-.2616844-.5710754z" fill="#272e3a"/></g><g><path d="m33.1902618 14.664854c.2800751.1770277.4566345.528388.4688568 1.0193443l.5128021-.2960663c-.0148544-.6538649-.2480659-1.1169567-.6193237-1.3483505z" fill="#272e3a"/></g><g><path d="m31.9631233 16.0283546c-.015295.008831-.0304222.0183754-.0454311.0283928-.1302013.0865192-.2487564.2148228-.3422203.3613338-.0231876.0363579-.044817.0738411-.0647011.112072-.0801373.1540871-.1316681.32057-.1411304.475872-.001091.0179234-.001812.0357685-.0017624.0533047s.0008698.0344925.002058.0510998c.0103111.1440201.0626144.2504215.143362.3116188.0200348.0151844.0418053.0276127.0651245.037117.0939865.0384235.212883.0294971.3431473-.0343609.0150166-.0073204.0301495-.0152454.0454445-.0240765.0152969-.008831.0304222-.0183754.045433-.0283909.1301994-.0865211.2487564-.2146893.3422203-.3613358.0231857-.0363579.0448151-.0738392.0646973-.112072.0801392-.1540852.1316681-.3204327.1411285-.4758682.001091-.0179253.0018158-.0357723.0017662-.0533085s-.0008736-.0344887-.0020599-.0510979c-.0103111-.1438847-.0626144-.2504196-.143364-.3116188-.0200348-.0151844-.0418053-.0276117-.0651245-.037117-.0939865-.0382881-.2128792-.0294991-.3431435.034359-.0150164.0073206-.0301474.0152456-.0454444.0240766z" fill="#5793fb"/></g><g><path d="m32.3517075 15.9699268.2838707-.4916687c-.167099-.0803823-.3859482-.063611-.6283302.0638981l.0013084.4621429c.1302757-.0638637.2491684-.0726604.3431511-.0343723z" fill="#272e3a"/></g><g><path d="m32.7002869 15.3661766.3623161-.6276159c-.2778053-.1409073-.6483498-.1162605-1.0573311.1074343l.0016785.5917521c.2661743-.1412459.5088653-.1593524.6933365-.0715705z" fill="#272e3a"/></g></g><g><path d="m31.5784092 17.4591827-.2838726.4916687c.1671066.0779495.3859634.0636024.6283321-.0638981l-.0013103-.4621258c-.1302605.0638543-.2491551.0727788-.3431492.0343552z" fill="#272e3a"/></g><g><path d="m31.2294197 17.9137268.2838707-.4916687c-.0807419-.061203-.1330433-.1676064-.1433582-.3116169l-.4021988.2322102c.0116024.2723102.1075172.4659404.2616863.5710754z" fill="#272e3a"/></g><g><path d="m33.1273193 14.6290464.3601456-.6263666c-.3885078-.2015734-.9085579-.167758-1.4841576.1495628l.0016708.5893421c.4327851-.2374381.8271561-.2634124 1.1223412-.1125383z" fill="#272e3a"/></g><g enable-background="new"><g><path d="m30.7973862 16.1211052c-.2630711.4707375-.4263134.9907207-.4357929 1.4669209l.5149651-.2973175c.0099468-.3120384.1151791-.6516609.2855244-.9617271z" fill="#272e3a"/></g><g><path d="m30.8599148 16.0102806.3646965.2078781c.1833725-.3001575.4253597-.5618792.6914616-.7279434l-.0016766-.5917521c-.4089108.2485142-.778368.6511078-1.0544815 1.1118174z" fill="#272e3a"/></g><g><path d="m30.3618889 17.6924362c.0143032.4598942.1777897.7913857.4426727.9597378l.3623276-.6276245c-.1715412-.1125355-.2783546-.3298759-.2900333-.6294308z" fill="#272e3a"/></g><g><path d="m30.2707138 17.6404934c.01157-.5046921.183382-1.0571823.4615536-1.5565147l-.3646889-.2053242c-.3687344.6586266-.5985603 1.3890533-.6096783 2.0579128z" fill="#272e3a"/></g><g><path d="m30.9674377 17.2382412.4021988-.2322102c.0094662-.155304.0609932-.3217793.1411247-.4758625l-.2857265-.1628113c-.1530762.2800942-.2475738.5862294-.257597.870884z" fill="#272e3a"/></g><g><path d="m27.6562119 21.9231758-.3975487 1.1982708.26614-.153656.2836532-.8560753 1.9625073-1.1330547.2875728.5262775.26614-.153656-.4030323-.7360554z" fill="#373f51"/></g><g><path d="m30.7398586 18.7618237c-.2800827-.1745796-.4544601-.527071-.4688473-1.0169201l-.5128155.2960739c.0148602.651432.2480774 1.1169491.6215 1.3470936z" fill="#272e3a"/></g><g><path d="m30.4322739 15.7665968.3646965.2078772c.2911987-.4894228.6844273-.9181709 1.1171284-1.1804209l-.0016708-.5893421c-.5733472.3460245-1.0940419.913084-1.4801541 1.5618858z" fill="#272e3a"/></g><g><path d="m26.0514908 20.5754299.2857265.1628113c.1530704-.2825203.2475662-.5886555.2575989-.8708839l-.4022007.2322102c-.0094643.1554298-.0609932.3217792-.1411247.4758624z" fill="#272e3a"/></g><g><path d="m24.9218807 19.9317627.2857285.1628113c.0934563-.1465054.2120113-.2748013.3422222-.3613262l-.0013103-.4621429c-.2423115.1523284-.4605427.387905-.6266404.6606578z" fill="#272e3a"/></g><g><path d="m25.5952492 19.7048492c-.0152969.008831-.0304222.0183754-.045433.0283928-.1301994.0865192-.2487545.2148209-.3422165.3613338-.0231895.036356-.0448189.0738392-.0647011.1120701-.0801392.1540871-.1316662.32057-.1411285.4758701-.001091.0179253-.0018158.0357723-.0017662.0533085s.0008717.0344906.0020618.0510979c.0103111.1440201.0626106.2504215.1433601.3116188.0200348.0151863.0418034.0276127.0651226.0371189.0939884.0384216.212883.0294971.3431473-.0343609.0150166-.0073204.0301476-.0152454.0454445-.0240765.015295-.008831.0304222-.0183754.0454311-.0283928.1302013-.0865192.2487564-.2146873.3422203-.3613338.0231895-.0363579.044817-.0738411.0647011-.112072.0801373-.1540871.1316643-.3204327.1411266-.4758701.001091-.0179234.0018158-.0357704.0017662-.0533066s-.0008736-.0344887-.0020618-.0510979c-.0103111-.1438847-.0626125-.2504196-.143362-.3116188-.0200348-.0151844-.0418053-.0276127-.0651226-.037117-.0939884-.0382881-.2128811-.0294991-.3431454.034359-.0150166.0073205-.0301476.0152455-.0454445.0240765z" fill="#5793fb"/></g><g><path d="m24.4920673 19.6867619.3646812.2078838c.1833725-.3001575.4253597-.5618782.6914749-.727951l-.0016766-.5917511c-.408924.2485198-.7783812.6511154-1.0544795 1.1118183z" fill="#272e3a"/></g><g><path d="m26.7674522 21.1298847.3625374.2067089c-.3861217.6512146-.9046631 1.2170391-1.4801712 1.5617294l-.0016518-.5867653c.4326859-.2646846.8259221-.6909923 1.1192856-1.181673z" fill="#272e3a"/></g><g><path d="m27.2915382 19.4651031c-.0094032.5035858-.1833801 1.0571995-.4615593 1.5540905l.3646965.2077503c.3687325-.6586285.5985527-1.3914795.6096764-2.0579147z" fill="#272e3a"/></g><g><path d="m27.2006588 19.5175724-.5149651.2973156c-.0099468.3120403-.1151867.6492386-.2833576.9604778l.3646965.2078762c.2608986-.4719123.424139-.9920387.4336262-1.4656696z" fill="#272e3a"/></g><g><path d="m24.8619728 21.7369881-.3623142.6276169c.2778034.1409054.6483345.1162682 1.0573349-.105011l-.0016785-.5917511c-.2661877.1412525-.5088653.1593513-.6933422.0691452z" fill="#272e3a"/></g><g><path d="m25.2105598 21.1356621-.2838707.4916687c.1670914.0779591.3859482.063612.6283302-.0638981l-.0013103-.4621258c-.1302738.0638619-.2491684.0727863-.3431492.0343552z" fill="#272e3a"/></g><g><path d="m26.3328342 19.1918697-.283886.4916763c.0807571.0611954.1330585.1677265.1433716.3116112l.4021988-.2322102c-.0116023-.272169-.1075229-.4683665-.2616844-.5710773z" fill="#272e3a"/></g><g><path d="m27.2003632 19.4131622c-.0121441-.4637127-.1777973-.7938118-.4426708-.9597397l-.3601627.6263752c.1693764.1139278.2761879.3311272.2878685.6306801z" fill="#272e3a"/></g><g><path d="m26.8223877 18.3413506c.2800884.1770191.4566307.5283871.4688549 1.0193424l.5128136-.2960739c-.0148678-.6538563-.2480774-1.1169491-.6215-1.3470917z" fill="#272e3a"/></g><g><path d="m24.861557 21.5902138.2838707-.4916687c-.0807419-.061203-.1330433-.1676064-.1433582-.3116169l-.4021988.2322102c.0116024.2723102.1075172.4659404.2616863.5710754z" fill="#272e3a"/></g><g><path d="m25.9838295 19.6464214.2838726-.4916687c-.167099-.0803814-.3859501-.0636101-.6283169.0638905l.0013103.4621429c.130272-.0638637.2491532-.0726528.343134-.0343647z" fill="#272e3a"/></g><g><path d="m24.599575 20.9147282.4021988-.2322102c.0094662-.155304.0609932-.3217793.1411247-.4758625l-.2857265-.1628113c-.1530762.2800942-.2475738.5862313-.257597.870884z" fill="#272e3a"/></g><g><path d="m23.9940262 21.3689232c.0121384.4611454.1777897.7913857.440506.960989l.3623295-.6276245c-.1693764-.1137848-.2761898-.3311272-.2878685-.6306801z" fill="#272e3a"/></g><g><path d="m26.3324108 19.0426731.3623142-.6276169c-.2778034-.1409073-.6483345-.1162682-1.0573139.1074257l.0016766.591753c.2661743-.1412468.508852-.1593456.6933231-.0715618z" fill="#272e3a"/></g><g><path d="m27.237587 15.7208338.4030266.7336263 2.2654304-1.3079471.3975563-1.1958437-.26614.153656-.283659.8536491-1.9625091 1.1330538-.2875652-.5238504z" fill="#373f51"/></g><g><path d="m24.3719959 22.4383106c-.2800827-.1745796-.456625-.5258198-.4688473-1.0169201l-.5128155.2960739c.0148602.651432.2480774 1.1169491.6215 1.3470936z" fill="#272e3a"/></g><g><path d="m26.7572765 18.3067932.3623276-.6276264c-.3885231-.2015648-.9107399-.1665001-1.4841595.1495628l.0016708.5893421c.4327718-.2374305.8271428-.2634048 1.1201611-.1112785z" fill="#272e3a"/></g><g><path d="m24.4273567 19.7988415c-.2609043.4694881-.4241467.9894733-.4336262 1.4656715l.5149651-.2973156c.0099468-.3120403.1151791-.6516628.2833576-.9604778z" fill="#272e3a"/></g><g><path d="m23.9028511 21.3169804c.0094051-.5034409.183382-1.0571823.4615536-1.5565128l-.3646889-.2053261c-.3687344.6586266-.5985603 1.3890533-.6096783 2.0579128z" fill="#272e3a"/></g><g><path d="m24.0644112 19.4430847.3625298.2091274c.2933655-.4906731.686594-.9194221 1.1193104-1.1816788l-.0016708-.589344c-.575514.3472748-1.0940572.9130936-1.4801694 1.5618954z" fill="#272e3a"/></g></g><g><path d="m25.5572891 22.3640041c-.4327927.235014-.8271561.2634125-1.1201744.1112881l-.3623352.6252003c.3885307.2039909.9107456.1689243 1.4841728-.1497135z" fill="#272e3a"/></g><g><path d="m26.7023163 21.0928993-.3646832-.2078857c-.1833649.3025818-.4253502.5643044-.6914539.7303696l.0016785.5917511c.4089012-.2509385.7783603-.6535321 1.0544586-1.114235z" fill="#272e3a"/></g><g><path d="m31.2298355 18.0604992-.3623276.6276264c.2778168.1408978.6483479.1162586 1.057333-.105011l-.0016766-.5917511c-.2661742.1412449-.5088519.1593437-.6933288.0691357z" fill="#272e3a"/></g><g><path d="m31.9251385 18.6875248c-.4327793.2350063-.8271427.2634048-1.1201611.1112804l-.3623352.6252003c.3885307.203989.9107323.168932 1.4841595-.1497059z" fill="#272e3a"/></g></g></g><g><path d="m29.0921345 22.372591-2.4914646-1.4478817.0210743 7.4340744 2.4914665 1.4478817z" fill="#272e3a"/><path d="m41.9317436 14.9596395-2.4914665-1.4478816-12.8396072 7.4129514 2.4914646 1.4478817z" fill="#9da9c1"/><g><g enable-background="new"><g><path d="m38.2928314 14.5221415 2.4995079.4624366.318615-.1839523-2.4973564-.4636803z" fill="#272e3a"/></g><g><path d="m36.8396835 15.3611164 2.4995079.4624367.3186188-.1839523-2.4973602-.4636803z" fill="#272e3a"/></g><g><path d="m36.1141853 15.7799826 2.4973564.4636793.3207703-.1851959-2.4995117-.4624367z" fill="#272e3a"/></g></g><g><path d="m37.5673332 14.9410076 2.4973564.4636793.3207703-.1851959-2.4995117-.4624367z" fill="#272e3a"/></g></g><path d="m29.0921345 22.372591.0210762 7.4340744 12.8396091-7.4129524-.0210762-7.4340735z" fill="#4c5671"/><g><g><path d="m32.9673996 24.7409668-.2857246-.1628113c-.0934601.1466484-.2120018.2748089-.3422089.3613358l.0013084.4621258c.2422982-.152319.4605217-.3903218.6266251-.6606503z" fill="#272e3a"/></g><g><path d="m37.984623 20.1459293.2857399.1628017c.0934563-.1465054.2120132-.2747993.3422089-.3613186l-.0013123-.4621429c-.2422944.1523209-.4605256.3878975-.6266365.6606598z" fill="#272e3a"/></g><g><path d="m40.2631302 19.6273117c-.0121422-.4637127-.1777954-.7938099-.440506-.960989l-.3623276.6276245c.1693764.1139278.2761879.3311272.2878685.6306801z" fill="#272e3a"/></g><g><path d="m40.1927261 21.5507336-.3625107-.2067108c-.2933655.4906731-.6865997.916996-1.1193085 1.1816788l.0016632.5867748c.5755235-.3447075 1.0940667-.9105244 1.480156-1.5617428z" fill="#272e3a"/></g><g><path d="m39.3352776 21.0644722-.2857285-.1628113c-.0934563.1466484-.2120132.2748165-.3422203.3613434l.0013084.4621258c.2423096-.1523285.4605332-.3903294.6266404-.6606579z" fill="#272e3a"/></g><g enable-background="new"><g><path d="m40.3543053 19.6792526c-.0094032.5035858-.1833954 1.0572071-.4615593 1.5540905l.3646965.2077503c.3687325-.6586266.5985527-1.3914795.6096649-2.0579052z" fill="#272e3a"/></g><g><path d="m39.7650833 21.3070488-.3646812-.2078857c-.1833649.3025818-.4253654.564312-.6914673.7303772l.0016747.5917511c.408905-.2509385.7783775-.6535397 1.0544738-1.1142426z" fill="#272e3a"/></g><g><path d="m40.2634277 19.7317219-.5149651.2973156c-.0099487.3120403-.1151886.6492386-.2833595.9604778l.3646965.2078781c.2608986-.4719124.424141-.9920406.4336281-1.4656715z" fill="#272e3a"/></g><g><path d="m39.1142464 20.789587.2857399.1628036c.1530685-.2825203.2475662-.5886555.2575989-.8708839l-.4022026.2322102c-.0094643.1554298-.0609933.3217792-.1411362.4758701z" fill="#272e3a"/></g><g><path d="m39.3956032 19.4060192-.283886.4916782c.0807571.0611935.1330566.1677246.1433716.3116093l.4021988-.2322102c-.0116043-.2721671-.1075249-.4683666-.2616844-.5710773z" fill="#272e3a"/></g><g><path d="m39.8851547 18.5555c.2800751.1770267.4566307.5283871.4688568 1.0193424l.5127983-.2960644c-.0148544-.6538658-.2480621-1.1169586-.6193199-1.3483524z" fill="#272e3a"/></g><g><path d="m38.6580162 19.9190006c-.0152969.008831-.0304222.0183735-.045433.0283909-.1301994.0865211-.2487564.2148228-.3422203.3613358-.0231895.036356-.0448151.0738392-.0647011.112072-.0801353.1540852-.1316681.3205681-.1411285.4758701-.001091.0179253-.001812.0357704-.0017624.0533066.0000496.0175343.0008659.0344906.0020561.0510998.0103111.1440201.0626144.2504196.143364.3116188.0200348.0151844.0418053.0276108.0651207.037117.0939903.0384216.2128868.0294971.3431511-.0343628.0150146-.0073185.0301476-.0152435.0454445-.0240746s.0304222-.0183754.045433-.0283928c.1301994-.0865211.2487564-.2146873.3422165-.3613358.0231895-.036356.0448189-.0738392.0647011-.1120701.0801392-.1540871.1316643-.3204327.1411285-.4758701.001091-.0179234.0018158-.0357723.0017662-.0533066-.0000496-.0175362-.0008736-.0344906-.0020638-.0510979-.0103111-.1438847-.0626106-.2504215-.1433601-.3116188-.0200348-.0151863-.0418053-.0276127-.0651245-.0371189-.0939865-.0382862-.2128792-.0294991-.3431435.0343609-.0150185.0073186-.0301476.0152436-.0454445.0240765z" fill="#5793fb"/></g><g><path d="m39.0465965 19.8605728.2838745-.4916706c-.167099-.0803814-.385952-.0636101-.628334.0639l.0013123.4621429c.1302719-.0638637.2491683-.0726604.3431472-.0343723z" fill="#272e3a"/></g><g><path d="m39.3951797 19.2568226.3623123-.6276169c-.2778015-.1409073-.6483459-.1162605-1.0573273.1074352l.0016785.5917511c.2661744-.1412449.5088654-.1593532.6933365-.0715694z" fill="#272e3a"/></g></g><g><path d="m38.2733002 21.3498287-.2838707.4916687c.1671066.0779495.3859634.0636024.6283302-.0638981l-.0013084-.4621277c-.1302605.0638562-.249157.0727788-.3431511.0343571z" fill="#272e3a"/></g><g><path d="m37.9243088 21.8043728.2838745-.4916687c-.0807457-.061203-.1330452-.1676064-.1433601-.3116188l-.4021988.2322102c.0116043.2723102.1075172.4659423.2616844.5710773z" fill="#272e3a"/></g><g><path d="m39.8222084 18.5196915.3601494-.6263657c-.3885078-.2015743-.9085617-.1677589-1.4841576.1495609l.0016708.589344c.4327851-.2374401.8271561-.2634124 1.1223374-.1125392z" fill="#272e3a"/></g><g enable-background="new"><g><path d="m37.4922752 20.0117493c-.2630692.4707375-.4263115.9907227-.435791 1.4669209l.5149651-.2973156c.0099487-.3120403.115181-.6516628.2855225-.9617271z" fill="#272e3a"/></g><g><path d="m37.5548058 19.9009266.3646965.2078762c.1833725-.3001556.4253616-.5618782.6914635-.7279434l-.0016785-.5917511c-.4089089.2485142-.7783699.6511078-1.0544815 1.1118183z" fill="#272e3a"/></g><g><path d="m37.0567818 21.5830803c.0143013.4598961.1777878.7913857.4426689.9597397l.3623314-.6276245c-.1715431-.1125355-.2783546-.3298779-.2900352-.6294308z" fill="#272e3a"/></g><g><path d="m36.9656067 21.5311394c.01157-.5046921.1833801-1.0571842.4615517-1.5565147l-.3646889-.2053261c-.3687325.6586266-.5985603 1.3890553-.6096764 2.0579147z" fill="#272e3a"/></g><g><path d="m37.6623306 21.1288853.4021988-.2322102c.0094643-.155302.0609932-.3217793.1411247-.4758625l-.2857285-.1628113c-.1530761.2800942-.2475738.5862313-.257595.870884z" fill="#272e3a"/></g><g><path d="m34.3511047 25.8138199-.3975486 1.1982727.2661361-.153656.2836571-.8560772 1.9625053-1.1330547.2875748.5262794.26614-.153656-.4030342-.7360554z" fill="#373f51"/></g><g><path d="m37.4347496 22.6524677c-.2800827-.1745796-.4544601-.5270691-.4688492-1.0169182l-.5128136.2960739c.0148621.651432.2480774 1.1169491.6215019 1.3470917z" fill="#272e3a"/></g><g><path d="m37.1271629 19.6572418.3646965.2078781c.2912025-.4894238.6844292-.9181709 1.1171303-1.1804218l-.0016708-.5893421c-.5733452.3460235-1.0940399.913084-1.480156 1.5618858z" fill="#272e3a"/></g><g><path d="m32.7463837 24.466074.2857246.1628113c.1530724-.2825184.2475662-.5886555.2575989-.8708839l-.4021988.2322102c-.0094643.1554297-.0609932.3217791-.1411247.4758624z" fill="#272e3a"/></g><g><path d="m31.6167736 23.8224087.2857265.1628113c.0934563-.1465073.2120132-.2748013.3422203-.3613281l-.0013084-.4621429c-.2423096.1523284-.4605408.387905-.6266384.6606597z" fill="#272e3a"/></g><g><path d="m32.2901421 23.5954933c-.0152969.0088329-.030426.0183754-.045433.0283928-.1301994.0865211-.2487545.2148228-.3422184.3613338-.0231895.0363579-.044817.0738411-.0647011.112072-.0801373.1540871-.1316662.3205681-.1411285.4758701-.001091.0179234-.0018158.0357723-.0017662.0533066.0000496.0175362.0008736.0344906.0020618.0510979.0103111.1440201.0626125.2504215.1433601.3116207.0200348.0151844.0418053.0276127.0651245.037117.0939865.0384235.2128792.0294991.3431473-.0343609.0150146-.0073185.0301476-.0152435.0454445-.0240746.0152931-.008831.0304222-.0183754.0454292-.0283928.1302032-.0865211.2487564-.2146873.3422203-.3613358.0231895-.036356.0448189-.0738392.0647011-.1120701.0801392-.1540871.1316643-.3204327.1411285-.4758701.001091-.0179234.0018158-.0357723.0017662-.0533066-.0000496-.0175362-.0008736-.0344906-.0020638-.0510979-.0103111-.1438847-.0626144-.2504215-.1433601-.3116207-.0200348-.0151844-.0418053-.0276108-.0651245-.037117-.0939865-.0382862-.2128792-.0294991-.3431435.0343609-.0150184.0073187-.0301513.0152437-.0454444.0240747z" fill="#5793fb"/></g><g><path d="m31.1869583 23.5774059.3646832.2078857c.1833706-.3001575.4253578-.5618801.691473-.727953l-.0016747-.5917511c-.4089241.2485219-.7783832.6511155-1.0544815 1.1118184z" fill="#272e3a"/></g><g><path d="m33.4623413 25.0205288.3625412.2067089c-.3861237.6512146-.9046631 1.217041-1.4801712 1.5617294l-.0016518-.5867634c.4326821-.2646846.8259201-.6909942 1.1192818-1.1816749z" fill="#272e3a"/></g><g><path d="m33.9864311 23.3557491c-.0094032.5035839-.1833839 1.0571976-.4615593 1.5540886l.3646965.2077503c.3687325-.6586266.5985527-1.3914795.6096764-2.0579128z" fill="#272e3a"/></g><g><path d="m33.8955498 23.4082165-.5149651.2973175c-.0099449.3120384-.1151848.6492367-.2833557.9604778l.3646965.2078762c.2608948-.4719124.4241371-.9920387.4336243-1.4656715z" fill="#272e3a"/></g><g><path d="m31.5568638 25.6276321-.3623142.6276169c.2778034.1409073.6483345.1162682 1.0573349-.1050091l-.0016785-.591753c-.2661858.1412545-.5088635.1593533-.6933422.0691452z" fill="#272e3a"/></g><g><path d="m31.9054508 25.0263081-.2838707.4916687c.1670914.0779572.3859501.0636101.6283321-.0638981l-.0013122-.4621277c-.1302719.0638637-.2491665.0727863-.3431492.0343571z" fill="#272e3a"/></g><g><path d="m33.0277252 23.0825157-.283886.4916763c.0807571.0611954.1330605.1677246.1433716.3116093l.4021988-.2322102c-.0116005-.2721671-.107521-.4683666-.2616844-.5710754z" fill="#272e3a"/></g><g><path d="m33.895256 23.3038063c-.012146-.4637127-.1777992-.7938099-.4426727-.9597378l-.3601608.6263733c.1693764.1139278.2761879.3311272.2878647.630682z" fill="#272e3a"/></g><g><path d="m33.5172768 22.2319946c.2800903.1770191.4566345.5283871.4688568 1.0193443l.5128136-.2960739c-.0148659-.6538582-.2480774-1.1169491-.6214981-1.3470936z" fill="#272e3a"/></g><g><path d="m31.556448 25.4808598.2838707-.4916687c-.0807419-.061203-.1330433-.1676064-.1433563-.3116169l-.4022007.2322102c.0116043.2723102.1075172.4659404.2616863.5710754z" fill="#272e3a"/></g><g><path d="m32.6787224 23.5370674.2838707-.4916687c-.167099-.0803833-.3859482-.0636101-.6283188.0638905l.0013123.4621429c.1302719-.0638637.2491531-.0726528.3431358-.0343647z" fill="#272e3a"/></g><g><path d="m31.294466 24.8053741.4022007-.2322102c.0094643-.155304.0609913-.3217812.1411247-.4758644l-.2857285-.1628113c-.1530761.2800962-.2475738.5862313-.2575969.8708859z" fill="#272e3a"/></g><g><path d="m30.6889172 25.2595673c.0121384.4611454.1777916.7913857.4405079.9609909l.3623276-.6276264c-.1693764-.1137848-.2761879-.3311253-.2878685-.6306801z" fill="#272e3a"/></g><g><path d="m33.0273018 22.9333172.3623161-.6276169c-.2778053-.1409073-.6483345-.1162682-1.0573158.1074276l.0016785.5917511c.2661743-.1412449.5088501-.1593437.6933212-.0715618z" fill="#272e3a"/></g><g><path d="m33.9324799 19.6114788.4030265.7336273 2.2654305-1.3079471.3975563-1.1958447-.26614.153656-.2836609.8536492-1.9625091 1.1330547-.2875634-.5238514z" fill="#373f51"/></g><g><path d="m31.0668869 26.3289547c-.2800808-.1745777-.456625-.5258198-.4688473-1.0169182l-.5128155.2960739c.0148621.651432.2480793 1.1169491.6215 1.3470917z" fill="#272e3a"/></g><g><path d="m33.4521675 22.1974373.3623276-.6276245c-.3885231-.2015648-.9107399-.1665001-1.4841576.1495628l.0016708.5893421c.4327698-.2374305.8271409-.2634048 1.1201592-.1112804z" fill="#272e3a"/></g><g><path d="m31.1222496 23.6894875c-.2609062.4694862-.4241467.9894714-.4336281 1.4656696l.514967-.2973156c.0099468-.3120403.1151791-.6516628.2833576-.9604778z" fill="#272e3a"/></g><g><path d="m30.597744 25.2076263c.0094032-.5034428.1833801-1.0571823.4615517-1.5565147l-.3646889-.2053242c-.3687325.6586266-.5985603 1.3890533-.6096783 2.0579128z" fill="#272e3a"/></g><g><path d="m30.7593021 23.3337288.3625317.2091274c.2933636-.4906731.686594-.9194202 1.1193085-1.1816788l-.0016708-.5893421c-.5755139.3472748-1.0940571.9130917-1.4801694 1.5618935z" fill="#272e3a"/></g></g><g><path d="m32.252182 26.2546501c-.4327946.235014-.827158.2634125-1.1201763.1112881l-.3623352.6251984c.3885307.2039909.9107475.1689262 1.4841747-.1497116z" fill="#272e3a"/></g><g><path d="m33.3972092 24.9835434-.3646851-.2078838c-.1833649.3025818-.4253502.5643044-.691452.7303677l.0016747.5917511c.408905-.2509385.7783622-.6535321 1.0544624-1.114235z" fill="#272e3a"/></g><g><path d="m37.9247284 21.9511452-.3623314.6276245c.2778206.1408997.6483498.1162605 1.0573349-.1050091l-.0016747-.591753c-.2661743.1412468-.5088539.1593456-.6933288.0691376z" fill="#272e3a"/></g><g><path d="m38.6200294 22.5781708c-.4327774.2350063-.8271446.2634048-1.120163.1112785l-.3623314.6252003c.3885269.2039909.9107323.1689339 1.4841576-.149704z" fill="#272e3a"/></g></g></g></g></g></g><g><g><g><g enable-background="new"><g><path d="m47.1429596 21.1914787v18.0282211c-.0004578.1618729-.106842.3235092-.319397.4470291-.4277878.2486038-1.1237717.2486115-1.5543633.0000076-.2167091-.1251183-.3249283-.289341-.3244629-.4533081v-18.028221c-.0004654.1639671.1077499.3281898.3244591.4533062.4305954.2486038 1.1265755.2485981 1.5543671-.0000057.212555-.1235238.3189392-.2851563.319397-.4470292z" fill="#9da9c1"/></g></g></g><g><g enable-background="new"><g><path d="m47.5955811 20.3474064v.7611294c-.0006485.2285328-.1508408.456728-.4509239.6311169-.6039581.3509827-1.5865517.3509903-2.1944618.0000095-.305954-.1766396-.4587364-.4084892-.4580803-.6399803v-.7611275c-.0006561.2314892.1521263.4633389.4580765.6399803.607914.3509789 1.5905037.3509712 2.1944618-.0000095.3000831-.1743908.4502792-.4025841.4509277-.6311188z" fill="#b4bed7"/></g><path d="m47.1374969 19.7074127c-.6080208-.3510456-1.5903854-.3510456-2.1944618.0000076-.6039543.3509865-.6008682.9200726.0071564 1.2711163.607914.3509789 1.5905037.3509693 2.1944618-.0000076.6040764-.3510533.6007614-.9201393-.0071564-1.2711163z" fill="#e3e7f0"/></g></g></g><g><g><g enable-background="new"><g><path d="m31.4034309 30.3382931.0000019 18.028223c-.0004597.1618729-.1068439.3235054-.319397.4470291-.4277916.2486038-1.1237717.2486076-1.5543652.0000038-.2167091-.1251144-.3249264-.2893372-.3244629-.4533043v-18.028223c-.0004654.1639671.1077518.3281898.324461.4533062.4305935.2486038 1.1265755.2485981 1.5543652-.0000076.2125531-.1235218.3189393-.2851544.319397-.4470272z" fill="#9da9c1"/></g></g></g><g><g enable-background="new"><g><path d="m31.8560524 29.4942207v.7611294c-.0006466.2285328-.1508408.456728-.4509239.6311169-.6039581.3509827-1.5865498.3509884-2.1944618.0000095-.3059521-.1766415-.4587345-.4084911-.4580784-.6399803l-.0000019-.7611294c-.0006561.2314911.1521263.4633408.4580784.6399822.6079121.3509789 1.5905037.3509712 2.1944618-.0000114.3000831-.1743889.4502773-.4025822.4509258-.6311169z" fill="#b4bed7"/></g><path d="m31.3979702 28.8542252c-.6080246-.3510437-1.5903854-.3510437-2.1944618.0000095-.6039562.3509846-.6008682.9200726.0071564 1.2711163.607914.3509769 1.5905037.3509693 2.1944618-.0000076.6040744-.3510533.6007595-.9201413-.0071564-1.2711182z" fill="#e3e7f0"/></g></g></g><g><g><g enable-background="new"><g><path d="m5.0552669 15.1261721.0000014 18.0282249c-.0004592.1618729-.1068435.3235054-.3193965.4470291-.4277911.2486038-1.1237729.2486076-1.5543656.0000038-.2167096-.1251144-.3249269-.2893372-.3244619-.4533043l-.0000014-18.028223c-.0004649.1639671.1077526.3281898.3244619.4533072.4305928.2486029 1.1265745.2485971 1.5543656-.0000076.212553-.1235228.3189373-.2851563.3193965-.4470301z" fill="#9da9c1"/></g></g></g><g><g enable-background="new"><g><path d="m5.5078874 14.2821007.0000014.7611284c-.0006475.2285337-.1508417.456728-.4509254.6311178-.6039577.3509827-1.5865483.3509884-2.1944618.0000105-.3059516-.1766414-.4587333-.4084911-.4580772-.6399813l-.0000019-.7611284c-.0006564.2314901.1521256.4633398.4580772.6399813.6079133.3509789 1.5905042.3509712 2.1944618-.0000105.3000837-.1743889.4502778-.4025841.4509259-.6311178z" fill="#b4bed7"/></g><path d="m5.0498066 13.6421061c-.6080246-.3510447-1.5903857-.3510447-2.1944618.0000086-.6039579.3509855-.6008694.9200726.0071549 1.2711172.6079144.3509769 1.5905037.3509684 2.1944618-.0000086.6040759-.3510533.6007595-.9201403-.0071549-1.2711172z" fill="#e3e7f0"/></g></g></g></g></g></svg>