<?xml version="1.0" encoding="iso-8859-1"?>
<!-- Generator: Adobe Illustrator 19.0.0, SVG Export Plug-In . SVG Version: 6.00 Build 0)  -->
<svg version="1.1" id="Capa_1" xmlns="http://www.w3.org/2000/svg" xmlns:xlink="http://www.w3.org/1999/xlink" x="0px" y="0px"
	 viewBox="0 0 512 512" style="enable-background:new 0 0 512 512;" xml:space="preserve">
<g>
	<g>
		<polygon style="fill:#B4B4B3;" points="73.237,315.226 73.237,324.151 53.933,335.706 73.306,346.361 100.29,330.171 		"/>
		<polygon style="fill:#717275;" points="100.29,330.171 73.306,346.361 73.237,324.151 73.237,315.226 		"/>
		<g>
			<polygon style="fill:#DADCDA;" points="75.174,97.418 75.174,67.736 49.436,83.235 49.505,184.32 75.243,198.573 75.243,190.755 
							"/>
			<polygon style="fill:#DADCDA;" points="75.312,260.774 75.243,231.092 49.574,246.59 49.574,246.59 49.505,246.59 
				49.574,285.475 75.312,299.728 			"/>
		</g>
		<g>
			<polygon style="fill:#B4B4B3;" points="75.312,260.774 49.574,246.59 75.243,231.092 			"/>
			<polygon style="fill:#B4B4B3;" points="75.174,67.736 75.174,97.418 49.436,83.235 			"/>
		</g>
		<polygon style="fill:#717275;" points="108.039,67.459 73.098,88.424 73.029,21.034 107.97,0 		"/>
	</g>
	<g>
		<path style="fill:none;stroke:#000000;stroke-width:2;stroke-linecap:round;stroke-linejoin:round;" d="M143.949,67.861
			l0.01,15.559"/>
		<path style="fill:none;stroke:#000000;stroke-width:2;stroke-linecap:round;stroke-linejoin:round;" d="M163.279,78.517
			l0.01,15.559"/>
		<path style="fill:none;stroke:#000000;stroke-width:2;stroke-linecap:round;stroke-linejoin:round;" d="M182.61,89.173l0.01,15.56
			"/>
		<path style="fill:none;stroke:#000000;stroke-width:2;stroke-linecap:round;stroke-linejoin:round;" d="M201.94,99.829l0.01,15.56
			"/>
		<path style="fill:none;stroke:#000000;stroke-width:2;stroke-linecap:round;stroke-linejoin:round;" d="M221.27,110.485
			l0.01,15.559"/>
		<path style="fill:none;stroke:#000000;stroke-width:2;stroke-linecap:round;stroke-linejoin:round;" d="M240.601,121.141
			l0.01,15.559"/>
		<path style="fill:none;stroke:#000000;stroke-width:2;stroke-linecap:round;stroke-linejoin:round;" d="M259.931,131.797
			l0.01,15.559"/>
	</g>
	<g>
		<g>
			<polygon style="fill:#4F6F7F;" points="462.357,242.093 314.223,160.381 314.223,121.427 159.585,36.186 125.821,56.458 
				108.039,46.703 73.098,67.667 74.344,68.359 73.098,69.12 73.098,69.604 73.168,98.733 73.168,232.476 73.237,262.158 
				73.237,316.61 100.29,331.555 427.624,512 462.564,490.966 			"/>
			<polygon style="fill:#4F6F7F;" points="73.098,69.604 73.168,98.733 73.168,192.138 73.098,98.802 			"/>
			<polygon style="fill:#4F6F7F;" points="74.344,68.359 73.098,69.12 73.098,67.667 			"/>
		</g>
		<polygon style="fill:#445C71;" points="462.357,242.093 427.485,263.057 279.282,181.345 314.223,160.381 		"/>
		<polygon style="fill:#394F63;" points="462.564,490.966 427.624,512 427.485,263.057 462.357,242.093 462.426,242.093 		"/>
		<polygon style="fill:#668892;" points="279.282,142.461 279.282,181.345 124.644,96.104 124.644,57.219 		"/>
		<polygon style="fill:#445C71;" points="314.223,121.427 279.282,142.461 124.644,57.219 125.821,56.458 159.585,36.186 		"/>
		<polygon style="fill:#394F63;" points="314.223,121.427 314.223,160.381 279.282,181.345 279.282,142.461 		"/>
		<path style="fill:#668892;" d="M206.605,190.994c-10.722,9.041-18.11,26.781-20.052,50.584l-0.048,0.526
			c-0.307,3.943-0.519,7.991-0.516,12.252s0.22,8.546,0.532,12.83l0.049,0.58c1.917,25.323,8.754,50.029,20.129,72.734
			c4.747,10.325,10.185,20.318,16.276,29.912l-61.315-33.801c-30.306-16.706-54.9-73.096-54.933-125.949
			c-0.033-52.853,24.508-82.157,54.814-65.45l61.315,33.801C216.722,181.931,211.205,185.998,206.605,190.994z"/>
		<path style="fill:#394F63;" d="M270.346,205.192c-32.375-2.346-53.899,23.784-53.873,65.969s21.598,92.072,53.992,125.431
			l62.852,34.648c32.375,2.345,53.899-23.784,53.873-65.969c-0.026-42.185-21.598-92.072-53.992-125.431L270.346,205.192z"/>
		
			<ellipse transform="matrix(-0.4649 -0.8854 0.8854 -0.4649 160.3552 733.3554)" style="fill:#B4B4B3;" cx="301.797" cy="318.218" rx="26.202" ry="15.415"/>
		<path style="fill:#668892;" d="M362.204,342.379c-2.158-14.239-6.062-28.159-11.624-41.443
			c-11.883-4.094-24.699-4.655-36.894-1.613c0.377-10.313,5.916-19.745,14.739-25.098c2.391-1.116,1.809-6.028-1.16-8.867
			c-8.586-8.209-22.493-20.626-30.77-23.652c-5.884,11.826-6.501,33.277-6.361,44.832c-8.447-12.577-14.042-26.848-16.394-41.814
			c-0.499-4.006-4.058-7.732-6.439-6.592c-6.885,3.294-17.413,9.43-20.579,17.038c8.75,18.138,19.707,35.126,32.62,50.579
			c-12.545-0.407-24.444-5.659-33.199-14.654c-2.98-2.802-5.896-1.384-5.166,2.694c2.159,14.24,6.063,28.159,11.624,41.444
			c11.883,4.094,24.699,4.654,36.894,1.612c-0.377,10.313-5.917,19.745-14.74,25.098c-2.391,1.117-1.809,6.028,1.16,8.866
			c8.586,8.209,22.493,20.627,30.769,23.653c5.884-11.826,6.501-33.277,6.361-44.832c8.447,12.577,14.042,26.848,16.394,41.814
			c0.499,4.005,4.058,7.731,6.439,6.593c6.885-3.296,17.413-9.43,20.579-17.039c-8.75-18.138-19.706-35.126-32.62-50.578
			c12.545,0.406,24.444,5.658,33.198,14.653C360.018,347.875,362.934,346.456,362.204,342.379z M312.823,342.028l-0.016-0.293
			c-6.639,1.532-13.562-0.951-17.714-6.355l0.175-0.057c-6.702-6.702-10.946-15.471-12.042-24.886l0.19,0.222
			c-0.839-8.176,1.739-14.562,6.943-16.519l0.016,0.292c6.64-1.531,13.562,0.953,17.714,6.356l-0.175,0.056
			c6.702,6.703,10.945,15.472,12.041,24.887l-0.19-0.223C320.605,333.685,318.028,340.072,312.823,342.028z"/>
		<g>
			<path style="fill:#B4B4B3;" d="M99.527,306.642c-1.817,0.007-3.562-0.713-4.845-2c-0.667-0.615-1.187-1.372-1.52-2.216
				c-0.365-0.854-0.554-1.774-0.554-2.703c0.008-0.904,0.196-1.798,0.554-2.628c0.332-0.843,0.852-1.598,1.52-2.209
				c1.604-1.671,3.953-2.403,6.223-1.939c0.419,0.135,0.905,0.277,1.318,0.412c0.412,0.21,0.763,0.419,1.176,0.628
				c0.365,0.278,0.712,0.578,1.041,0.899c0.645,0.631,1.161,1.382,1.52,2.209c0.333,0.836,0.499,1.729,0.486,2.628
				c0.019,0.924-0.147,1.843-0.486,2.703c-0.361,0.829-0.877,1.581-1.52,2.216C103.136,305.939,101.366,306.66,99.527,306.642z"/>
			<path style="fill:#B4B4B3;" d="M96.622,115.615c-0.906-0.01-1.801-0.199-2.635-0.554c-0.84-0.336-1.595-0.855-2.209-1.52
				c-1.319-1.268-2.067-3.016-2.074-4.845c0.004-1.85,0.751-3.62,2.074-4.912c2.748-2.561,7.009-2.561,9.757,0
				c1.938,2,2.532,4.946,1.52,7.541c-0.361,0.829-0.877,1.581-1.52,2.216C100.238,114.859,98.47,115.606,96.622,115.615z"/>
			<path style="fill:#B4B4B3;" d="M404.095,477.885c-0.899,0.014-1.792-0.149-2.628-0.48c-0.854-0.351-1.63-0.868-2.284-1.52
				c-1.254-1.305-1.97-3.035-2.007-4.845c0.018-0.927,0.206-1.843,0.554-2.703c0.335-0.825,0.829-1.575,1.453-2.209
				c1.992-1.953,4.946-2.551,7.541-1.527c0.864,0.335,1.644,0.857,2.284,1.527c0.624,0.634,1.118,1.385,1.453,2.209
				c0.349,0.859,0.536,1.775,0.554,2.703c-0.037,1.81-0.753,3.539-2.007,4.845C407.706,477.185,405.935,477.906,404.095,477.885z"/>
			<path style="fill:#B4B4B3;" d="M401.189,286.858c-1.848-0.009-3.617-0.756-4.912-2.074c-1.311-1.267-2.038-3.022-2.007-4.845
				c-0.012-0.9,0.153-1.793,0.487-2.628c0.383-0.837,0.896-1.608,1.52-2.284c2.748-2.561,7.009-2.561,9.757,0
				c0.668,0.64,1.187,1.42,1.52,2.284c0.355,0.832,0.543,1.724,0.554,2.628C408.019,283.723,404.973,286.769,401.189,286.858z"/>
		</g>
		<polygon style="fill:#445C71;" points="125.821,56.458 124.644,57.219 124.644,96.104 74.344,68.359 73.098,67.667 
			108.039,46.703 		"/>
	</g>
</g>
<g>
</g>
<g>
</g>
<g>
</g>
<g>
</g>
<g>
</g>
<g>
</g>
<g>
</g>
<g>
</g>
<g>
</g>
<g>
</g>
<g>
</g>
<g>
</g>
<g>
</g>
<g>
</g>
<g>
</g>
</svg>
