<?xml version="1.0" standalone="no"?>
<!DOCTYPE svg PUBLIC "-//W3C//DTD SVG 20010904//EN"
 "http://www.w3.org/TR/2001/REC-SVG-20010904/DTD/svg10.dtd">
<svg version="1.0" xmlns="http://www.w3.org/2000/svg"
 width="700.000000pt" height="700.000000pt" viewBox="0 0 700.000000 700.000000"
 preserveAspectRatio="xMidYMid meet">
<metadata>
Created by potrace 1.14, written by Peter Selinger 2001-2017
</metadata>
<g transform="translate(0.000000,700.000000) scale(0.100000,-0.100000)"
fill="#000000" stroke="none">
<path d="M3278 6995 c-1 -1 -41 -5 -88 -9 -47 -4 -96 -8 -110 -11 -14 -2 -41
-6 -60 -9 -19 -2 -57 -8 -85 -12 -27 -3 -59 -8 -70 -11 -33 -7 -59 -12 -85
-17 -67 -12 -286 -71 -380 -103 -243 -82 -579 -236 -697 -320 -17 -13 -34 -23
-37 -23 -19 0 -340 -231 -427 -307 -327 -286 -575 -584 -779 -938 -47 -81
-170 -327 -170 -339 0 -3 -11 -29 -24 -58 -41 -92 -114 -303 -142 -413 -4 -16
-8 -34 -10 -40 -5 -16 -25 -98 -30 -120 -39 -194 -47 -242 -60 -350 -26 -230
-26 -667 1 -826 2 -13 6 -46 9 -74 47 -409 239 -952 466 -1318 30 -48 60 -95
65 -105 6 -10 35 -53 66 -97 182 -259 397 -491 646 -697 85 -71 327 -248 338
-248 3 0 36 -20 75 -45 226 -145 700 -346 920 -390 8 -2 53 -12 100 -24 109
-26 200 -43 299 -57 25 -3 57 -8 71 -10 162 -25 682 -25 841 1 13 2 43 6 66 9
22 3 52 7 65 10 12 3 39 8 58 10 201 29 510 120 753 223 118 50 345 163 388
194 15 10 30 19 34 19 13 0 272 177 369 252 153 119 330 285 455 427 31 35 63
71 71 80 29 31 147 187 202 266 109 156 241 392 312 555 16 36 36 83 46 105
54 123 147 418 176 560 62 298 79 463 79 760 0 224 -10 383 -30 500 -2 17 -7
48 -10 70 -18 121 -79 375 -125 515 -152 459 -398 889 -709 1239 -103 116
-305 309 -414 396 -21 17 -48 38 -60 49 -29 24 -168 124 -217 156 -213 138
-411 241 -655 339 -11 5 -33 14 -50 21 -142 57 -513 155 -665 175 -19 3 -46 7
-60 10 -13 2 -52 7 -86 11 -33 3 -74 8 -90 10 -33 5 -540 14 -546 9z"/>
</g>
</svg>
